<svg width="69" height="122" viewBox="0 0 69 122" fill="none" xmlns="http://www.w3.org/2000/svg">
<path d="M37.457 61.5562C37.457 24.845 68.9998 0 68.9998 0C68.9998 0 41.8927 21.5076 42.8784 61.5562C43.8642 101.605 68.9998 122 68.9998 122C68.9998 122 37.457 98.2675 37.457 61.5562Z" fill="white"/>
<path d="M51.2568 61.3691C51.2568 24.7695 68.9996 0 68.9996 0C68.9996 0 53.7519 21.4422 54.3064 61.3691C54.8608 101.296 68.9996 121.629 68.9996 121.629C68.9996 121.629 51.2568 97.9688 51.2568 61.3691Z" fill="white"/>
<path d="M13.8003 61.0918C13.8003 42.792 22.6717 30.4072 22.6717 30.4072C22.6717 30.4072 15.0478 41.1283 15.3251 61.0918C15.6023 81.0552 22.6717 91.2218 22.6717 91.2218C22.6717 91.2218 13.8003 79.3916 13.8003 61.0918Z" fill="white"/>
<path d="M0 63.2288C0 50.7314 5.91426 42.2735 5.91426 42.2735C5.91426 42.2735 0.831693 49.5952 1.01651 63.2288C1.20133 76.8624 5.91426 83.8054 5.91426 83.8054C5.91426 83.8054 0 75.7263 0 63.2288Z" fill="white"/>
</svg>
