<svg width="69" height="122" viewBox="0 0 69 122" fill="none" xmlns="http://www.w3.org/2000/svg">
<path d="M31.543 61.5562C31.543 24.845 0.000225067 0 0.000225067 0C0.000225067 0 27.1073 21.5076 26.1216 61.5562C25.1358 101.605 0.000225067 122 0.000225067 122C0.000225067 122 31.543 98.2675 31.543 61.5562Z" fill="white"/>
<path d="M17.7432 61.3691C17.7432 24.7695 0.000371933 0 0.000371933 0C0.000371933 0 15.2481 21.4422 14.6936 61.3691C14.1392 101.296 0.000371933 121.629 0.000371933 121.629C0.000371933 121.629 17.7432 97.9688 17.7432 61.3691Z" fill="white"/>
<path d="M55.1997 61.0918C55.1997 42.792 46.3283 30.4072 46.3283 30.4072C46.3283 30.4072 53.9522 41.1283 53.6749 61.0918C53.3977 81.0552 46.3283 91.2218 46.3283 91.2218C46.3283 91.2218 55.1997 79.3916 55.1997 61.0918Z" fill="white"/>
<path d="M69 63.2288C69 50.7314 63.0857 42.2735 63.0857 42.2735C63.0857 42.2735 68.1683 49.5952 67.9835 63.2288C67.7987 76.8624 63.0857 83.8054 63.0857 83.8054C63.0857 83.8054 69 75.7263 69 63.2288Z" fill="white"/>
</svg>
