<svg width="160" height="160" viewBox="0 0 160 160" fill="none" xmlns="http://www.w3.org/2000/svg">
<rect width="160" height="160" rx="7" fill="#8CA7F0"/>
<g filter="url(#filter0_dddd)">
<path fill-rule="evenodd" clip-rule="evenodd" d="M44.8709 51C39.9716 51 36 54.6487 36 59.1495V101.851C36 106.351 39.9716 110 44.8709 110H114.129C119.028 110 123 106.351 123 101.851V59.1495C123 54.6487 119.028 51 114.129 51H44.8709ZM58.7545 57.9853H46.1381V69.5757H58.7545V57.9853ZM46.1381 74.2326H58.7545V85.8229H46.1381V74.2326ZM58.7545 90.4798H46.1381V102.07H58.7545V90.4798Z" fill="#5C67CF"/>
</g>
<path d="M68 80V58H90H112V80V102H90H68V80ZM87.2618 98.3733C89.9078 97.916 91.5014 96.2241 91.8555 93.4961C91.8911 93.2216 91.9168 89.9698 91.9179 85.5866L91.9199 78.1431H89.8741H87.8283L87.8272 85.1774C87.8266 89.3876 87.801 92.4501 87.7636 92.8056C87.6396 93.9828 87.1995 94.5557 86.2673 94.7533C84.947 95.0332 83.9637 94.5034 83.1564 93.0773C83.0536 92.8955 82.9396 92.7468 82.9033 92.7468C82.8437 92.7468 79.7498 94.5899 79.6244 94.7002C79.4935 94.8151 80.2771 96.0137 80.8879 96.6329C82.388 98.1537 84.7697 98.804 87.2618 98.3733ZM103.093 98.4058C104.776 98.1937 106.147 97.5437 107.152 96.4817C107.564 96.0466 107.719 95.8235 107.968 95.3057C108.377 94.4554 108.478 94.0253 108.518 92.9671C108.592 91.0517 108.086 89.6971 106.859 88.5254C105.98 87.6856 104.871 87.0368 102.778 86.1371C100.632 85.2144 99.9712 84.7925 99.6566 84.1425C99.4381 83.6912 99.4494 83.0088 99.6833 82.5326C100.03 81.8271 100.698 81.5013 101.684 81.5575C102.624 81.611 103.279 82.0071 103.851 82.8675L104.136 83.2966L105.577 82.3722C106.37 81.8638 107.091 81.3911 107.18 81.3219L107.341 81.196L106.986 80.6692C106.095 79.3485 104.916 78.5101 103.426 78.138C102.674 77.95 100.985 77.9014 100.166 78.044C98.8159 78.279 97.8603 78.7525 96.9808 79.6223C96.1847 80.4096 95.7543 81.1976 95.5313 82.276C95.3742 83.0356 95.4374 84.4775 95.6605 85.2215C96.2307 87.1237 97.5119 88.3494 100.145 89.5118C100.658 89.7385 101.461 90.093 101.927 90.2994C103.808 91.1312 104.404 91.7275 104.404 92.7783C104.404 93.7504 103.785 94.4269 102.616 94.7314C101.991 94.8944 100.797 94.8368 100.142 94.6119C99.2488 94.3054 98.3933 93.6158 97.8053 92.7284C97.6359 92.4726 97.5349 92.3749 97.4671 92.4009C97.2719 92.4758 94.186 94.2838 94.186 94.3232C94.186 94.4676 95.1362 95.7585 95.5447 96.1691C97.3561 97.99 100.052 98.789 103.093 98.4058Z" fill="#F5E06D"/>
<defs>
<filter id="filter0_dddd" x="30" y="45" width="99" height="71" filterUnits="userSpaceOnUse" color-interpolation-filters="sRGB">
<feFlood flood-opacity="0" result="BackgroundImageFix"/>
<feColorMatrix in="SourceAlpha" type="matrix" values="0 0 0 0 0 0 0 0 0 0 0 0 0 0 0 0 0 0 127 0"/>
<feOffset dy="2"/>
<feGaussianBlur stdDeviation="0.5"/>
<feColorMatrix type="matrix" values="0 0 0 0 1 0 0 0 0 1 0 0 0 0 1 0 0 0 0.16 0"/>
<feBlend mode="normal" in2="BackgroundImageFix" result="effect1_dropShadow"/>
<feColorMatrix in="SourceAlpha" type="matrix" values="0 0 0 0 0 0 0 0 0 0 0 0 0 0 0 0 0 0 127 0"/>
<feOffset/>
<feGaussianBlur stdDeviation="1.5"/>
<feColorMatrix type="matrix" values="0 0 0 0 1 0 0 0 0 1 0 0 0 0 1 0 0 0 0.5 0"/>
<feBlend mode="normal" in2="effect1_dropShadow" result="effect2_dropShadow"/>
<feColorMatrix in="SourceAlpha" type="matrix" values="0 0 0 0 0 0 0 0 0 0 0 0 0 0 0 0 0 0 127 0"/>
<feOffset/>
<feGaussianBlur stdDeviation="3"/>
<feColorMatrix type="matrix" values="0 0 0 0 1 0 0 0 0 1 0 0 0 0 1 0 0 0 0.5 0"/>
<feBlend mode="normal" in2="effect2_dropShadow" result="effect3_dropShadow"/>
<feColorMatrix in="SourceAlpha" type="matrix" values="0 0 0 0 0 0 0 0 0 0 0 0 0 0 0 0 0 0 127 0"/>
<feOffset/>
<feGaussianBlur stdDeviation="2"/>
<feColorMatrix type="matrix" values="0 0 0 0 1 0 0 0 0 1 0 0 0 0 1 0 0 0 0.64 0"/>
<feBlend mode="normal" in2="effect3_dropShadow" result="effect4_dropShadow"/>
<feBlend mode="normal" in="SourceGraphic" in2="effect4_dropShadow" result="shape"/>
</filter>
</defs>
</svg>
