<svg width="160" height="160" viewBox="0 0 160 160" fill="none" xmlns="http://www.w3.org/2000/svg">
<rect width="160" height="160" rx="7" fill="#8CA7F0"/>
<g filter="url(#filter0_dddd)">
<circle cx="80" cy="80" r="33" fill="#5C67CF"/>
<path d="M64.7741 66.4819C64.9871 66.3659 65.2378 66.4223 65.334 66.6079C65.4302 66.7934 65.3354 67.0378 65.1223 67.1538C64.9092 67.2698 64.6585 67.2135 64.5624 67.0279C64.4662 66.8424 64.561 66.5979 64.7741 66.4819ZM91.779 79.9091C92.4396 84.5008 89.1705 88.7704 84.4773 89.4457C79.784 90.1209 75.4438 86.946 74.7832 82.3543C74.1226 77.7626 77.3917 73.4929 82.085 72.8177C86.7782 72.1425 91.1184 75.3174 91.779 79.9091ZM87.6441 75.0587C88.5303 76.0176 88.5667 77.4001 87.7254 78.1466C86.8841 78.893 85.4837 78.7208 84.5975 77.7619C83.7113 76.803 83.6749 75.4205 84.5162 74.674C85.3575 73.9276 86.7579 74.0998 87.6441 75.0587ZM70.7932 89.1866C71.7644 90.9286 71.1084 93.1454 69.328 94.1381C67.5475 95.1308 65.3168 94.5234 64.3456 92.7815C63.3744 91.0396 64.0304 88.8227 65.8109 87.83C67.5913 86.8373 69.822 87.4447 70.7932 89.1866ZM68.3875 87.8751C68.8908 88.1238 69.1179 88.6732 68.8949 89.1023C68.6719 89.5313 68.0832 89.6775 67.58 89.4288C67.0767 89.18 66.8495 88.6306 67.0725 88.2015C67.2955 87.7725 67.8843 87.6263 68.3875 87.8751ZM69.4366 78.5448C70.8234 79.3454 71.2841 81.1436 70.4658 82.561C69.6474 83.9785 67.8598 84.4785 66.473 83.6778C65.0863 82.8772 64.6255 81.079 65.4438 79.6616C66.2622 78.2441 68.0498 77.7441 69.4366 78.5448ZM68.6132 78.6316C69.0625 78.5958 69.4454 78.8809 69.4684 79.2685C69.4914 79.656 69.1458 79.9992 68.6965 80.035C68.2472 80.0708 67.8643 79.7857 67.8413 79.3981C67.8184 79.0106 68.1639 78.6674 68.6132 78.6316ZM60.4726 73.2037C61.6993 73.3325 62.5871 74.4534 62.4554 75.7073C62.3238 76.9612 61.2226 77.8733 59.9958 77.7445C58.7691 77.6157 57.8813 76.4948 58.0129 75.2409C58.1446 73.987 59.2458 73.0749 60.4726 73.2037ZM59.9203 73.5229C60.2253 73.3569 60.584 73.4375 60.7217 73.7031C60.8593 73.9686 60.7237 74.3184 60.4187 74.4844C60.1138 74.6504 59.755 74.5697 59.6174 74.3042C59.4798 74.0387 59.6154 73.6889 59.9203 73.5229ZM64.4724 66.2585C65.3296 66.3485 65.95 67.1317 65.858 68.008C65.766 68.8842 64.9965 69.5215 64.1392 69.4315C63.282 69.3415 62.6616 68.5582 62.7536 67.682C62.8456 66.8058 63.6151 66.1685 64.4724 66.2585ZM77.8683 96.0708L75.8645 97.1757C75.4183 97.4217 75.3854 98.0505 75.8033 98.3418L77.6807 99.6501C77.8278 99.7526 77.929 99.9084 77.9628 100.084L78.3944 102.332C78.4905 102.832 79.0783 103.058 79.4845 102.75L81.3089 101.369C81.4518 101.261 81.6313 101.213 81.8092 101.235L84.0798 101.519C84.5853 101.582 84.9816 101.093 84.8146 100.611L84.0648 98.4495C84.006 98.2801 84.0158 98.0945 84.0919 97.9322L85.0636 95.8605C85.2799 95.3993 84.937 94.8712 84.4276 94.8812L82.1398 94.9263C81.9606 94.9298 81.7871 94.8632 81.6563 94.7407L79.9863 93.1763C79.6144 92.8281 79.0062 92.991 78.8584 93.4786L78.1942 95.6683C78.1422 95.8399 78.0253 95.9843 77.8683 96.0708ZM98.932 86.96L97.9107 86.6782C97.4196 86.5427 96.9569 86.9697 97.0526 87.4701L97.2516 88.5106C97.2853 88.6867 97.2489 88.8689 97.1501 89.0185L96.5665 89.9027C96.2858 90.3279 96.549 90.9 97.0544 90.9636L98.1056 91.0958C98.2834 91.1182 98.4455 91.2091 98.5573 91.3493L99.2178 92.1776C99.5354 92.5759 100.161 92.5024 100.378 92.0413L100.828 91.0825C100.904 90.9203 101.041 90.7942 101.209 90.7313L102.201 90.359C102.678 90.18 102.801 89.5625 102.429 89.2139L101.657 88.4891C101.526 88.3665 101.448 88.1976 101.44 88.0186L101.393 86.9602C101.37 86.4513 100.821 86.1431 100.374 86.3888L99.4464 86.8996C99.2893 86.986 99.1048 87.0077 98.932 86.96ZM98.2093 79.5412L99.1228 79.0047C99.5621 78.7466 100.12 79.0394 100.157 79.5475L100.234 80.6041C100.247 80.7828 100.329 80.9495 100.463 81.0684L101.256 81.7714C101.637 82.1094 101.531 82.7301 101.059 82.9224L100.078 83.3222C99.912 83.3898 99.7789 83.5196 99.7073 83.6839L99.2836 84.655C99.0799 85.1219 98.4568 85.2128 98.1281 84.8235L97.4447 84.014C97.3291 83.877 97.1646 83.7906 96.9862 83.7732L95.9317 83.6704C95.4247 83.6209 95.1457 83.0564 95.4144 82.6235L95.9731 81.7234C96.0676 81.5711 96.0989 81.3879 96.0604 81.2129L95.8323 80.1783C95.7227 79.6808 96.1734 79.241 96.6681 79.3628L97.6968 79.616C97.8708 79.6588 98.0547 79.632 98.2093 79.5412Z" stroke="white" stroke-opacity="0.8"/>
</g>
<defs>
<filter id="filter0_dddd" x="41" y="41" width="78" height="78" filterUnits="userSpaceOnUse" color-interpolation-filters="sRGB">
<feFlood flood-opacity="0" result="BackgroundImageFix"/>
<feColorMatrix in="SourceAlpha" type="matrix" values="0 0 0 0 0 0 0 0 0 0 0 0 0 0 0 0 0 0 127 0"/>
<feOffset dy="2"/>
<feGaussianBlur stdDeviation="0.5"/>
<feColorMatrix type="matrix" values="0 0 0 0 1 0 0 0 0 1 0 0 0 0 1 0 0 0 0.16 0"/>
<feBlend mode="normal" in2="BackgroundImageFix" result="effect1_dropShadow"/>
<feColorMatrix in="SourceAlpha" type="matrix" values="0 0 0 0 0 0 0 0 0 0 0 0 0 0 0 0 0 0 127 0"/>
<feOffset/>
<feGaussianBlur stdDeviation="1.5"/>
<feColorMatrix type="matrix" values="0 0 0 0 1 0 0 0 0 1 0 0 0 0 1 0 0 0 0.5 0"/>
<feBlend mode="normal" in2="effect1_dropShadow" result="effect2_dropShadow"/>
<feColorMatrix in="SourceAlpha" type="matrix" values="0 0 0 0 0 0 0 0 0 0 0 0 0 0 0 0 0 0 127 0"/>
<feOffset/>
<feGaussianBlur stdDeviation="3"/>
<feColorMatrix type="matrix" values="0 0 0 0 1 0 0 0 0 1 0 0 0 0 1 0 0 0 0.5 0"/>
<feBlend mode="normal" in2="effect2_dropShadow" result="effect3_dropShadow"/>
<feColorMatrix in="SourceAlpha" type="matrix" values="0 0 0 0 0 0 0 0 0 0 0 0 0 0 0 0 0 0 127 0"/>
<feOffset/>
<feGaussianBlur stdDeviation="2"/>
<feColorMatrix type="matrix" values="0 0 0 0 1 0 0 0 0 1 0 0 0 0 1 0 0 0 0.64 0"/>
<feBlend mode="normal" in2="effect3_dropShadow" result="effect4_dropShadow"/>
<feBlend mode="normal" in="SourceGraphic" in2="effect4_dropShadow" result="shape"/>
</filter>
</defs>
</svg>
