<svg width="160" height="160" viewBox="0 0 160 160" fill="none" xmlns="http://www.w3.org/2000/svg">
<rect width="160" height="160" rx="8" fill="#A0B4F2"/>
<g filter="url(#filter0_dddd)">
<path d="M129.784 104.182L131.214 106.365L129.096 107.944L130.525 110.126L128.407 111.705L126.977 109.522L124.859 111.101L123.429 108.919L125.547 107.34L124.118 105.158L126.236 103.579L127.666 105.761L129.784 104.182Z" fill="white"/>
<path d="M129.784 104.182L131.214 106.365L129.096 107.944L130.525 110.126L128.407 111.705L126.977 109.522L124.859 111.101L123.429 108.919L125.547 107.34L124.118 105.158L126.236 103.579L127.666 105.761L129.784 104.182Z" stroke="white" stroke-linejoin="round"/>
</g>
<g filter="url(#filter1_dddd)">
<path d="M131.838 54.8047L133.206 55.6094L132.383 57.0768L133.751 57.8815L132.928 59.349L131.559 58.5443L130.736 60.0118L129.368 59.2071L130.191 57.7396L128.823 56.935L129.647 55.4675L131.015 56.2722L131.838 54.8047Z" fill="white"/>
<path d="M131.838 54.8047L133.206 55.6094L132.383 57.0768L133.751 57.8815L132.928 59.349L131.559 58.5443L130.736 60.0118L129.368 59.2071L130.191 57.7396L128.823 56.935L129.647 55.4675L131.015 56.2722L131.838 54.8047Z" stroke="white" stroke-linejoin="round"/>
</g>
<g filter="url(#filter2_dddd)">
<path d="M121.375 74.0602L122.569 75.1203L121.508 76.4153L122.702 77.4755L121.642 78.7705L120.448 77.7103L119.388 79.0054L118.194 77.9452L119.254 76.6502L118.06 75.59L119.121 74.295L120.315 75.3552L121.375 74.0602Z" fill="white"/>
<path d="M121.375 74.0602L122.569 75.1203L121.508 76.4153L122.702 77.4755L121.642 78.7705L120.448 77.7103L119.388 79.0054L118.194 77.9452L119.254 76.6502L118.06 75.59L119.121 74.295L120.315 75.3552L121.375 74.0602Z" stroke="white" stroke-linejoin="round"/>
</g>
<g filter="url(#filter3_dddd)">
<path d="M33.4144 89.2084L34.8287 88.1042L35.8667 89.6089L37.2811 88.5047L38.319 90.0093L36.9046 91.1135L37.9426 92.6182L36.5282 93.7224L35.4903 92.2177L34.0759 93.3219L33.0379 91.8173L34.4523 90.7131L33.4144 89.2084Z" fill="white"/>
<path d="M33.4144 89.2084L34.8287 88.1042L35.8667 89.6089L37.2811 88.5047L38.319 90.0093L36.9046 91.1135L37.9426 92.6182L36.5282 93.7224L35.4903 92.2177L34.0759 93.3219L33.0379 91.8173L34.4523 90.7131L33.4144 89.2084Z" stroke="white" stroke-linejoin="round"/>
</g>
<g filter="url(#filter4_dddd)">
<path d="M26.6496 43.4024L29.1645 43.8048L28.7862 46.4801L31.3011 46.8825L30.9228 49.5579L28.408 49.1555L28.0297 51.8309L25.5149 51.4285L25.8931 48.7531L23.3783 48.3507L23.7565 45.6754L26.2714 46.0777L26.6496 43.4024Z" fill="white"/>
<path d="M26.6496 43.4024L29.1645 43.8048L28.7862 46.4801L31.3011 46.8825L30.9228 49.5579L28.408 49.1555L28.0297 51.8309L25.5149 51.4285L25.8931 48.7531L23.3783 48.3507L23.7565 45.6754L26.2714 46.0777L26.6496 43.4024Z" stroke="white" stroke-linejoin="round"/>
</g>
<g filter="url(#filter5_dddd)">
<path d="M125.268 84.2149L127.588 83.1067L128.63 85.5747L130.95 84.4665L131.992 86.9345L129.672 88.0428L130.713 90.5108L128.393 91.6191L127.352 89.151L125.032 90.2592L123.99 87.7912L126.31 86.6829L125.268 84.2149Z" fill="white"/>
<path d="M125.268 84.2149L127.588 83.1067L128.63 85.5747L130.95 84.4665L131.992 86.9345L129.672 88.0428L130.713 90.5108L128.393 91.6191L127.352 89.151L125.032 90.2592L123.99 87.7912L126.31 86.6829L125.268 84.2149Z" stroke="white" stroke-linejoin="round"/>
</g>
<g filter="url(#filter6_dddd)">
<path d="M33.6474 100.121L35.2953 98.0606L37.2323 99.8137L38.8802 97.7531L40.8172 99.5062L39.1693 101.567L41.1063 103.32L39.4584 105.381L37.5214 103.627L35.8735 105.688L33.9365 103.935L35.5844 101.874L33.6474 100.121Z" fill="white"/>
<path d="M33.6474 100.121L35.2953 98.0606L37.2323 99.8137L38.8802 97.7531L40.8172 99.5062L39.1693 101.567L41.1063 103.32L39.4584 105.381L37.5214 103.627L35.8735 105.688L33.9365 103.935L35.5844 101.874L33.6474 100.121Z" stroke="white" stroke-linejoin="round"/>
</g>
<g filter="url(#filter7_b)">
<path d="M20.0989 74.8325C20.0989 74.8325 31.0547 76.1778 36.806 77.7586C42.8404 79.4172 50.1147 83.2339 50.1147 83.2339L46.815 93.6472C46.815 93.6472 37.6032 91.724 31.7786 91.0138C24.7861 90.1612 13.9997 89.9936 13.9997 89.9936L20.0989 74.8325Z" fill="white" fill-opacity="0.5"/>
<path d="M20.0989 74.8325C20.0989 74.8325 31.0547 76.1778 36.806 77.7586C42.8404 79.4172 50.1147 83.2339 50.1147 83.2339L46.815 93.6472C46.815 93.6472 37.6032 91.724 31.7786 91.0138C24.7861 90.1612 13.9997 89.9936 13.9997 89.9936L20.0989 74.8325Z" fill="url(#paint0_linear)"/>
</g>
<g filter="url(#filter8_b)">
<path d="M148.94 84.1163C148.94 84.1163 141.122 88.175 133.389 91.9413C125.423 95.8215 117.111 99.2007 117.111 99.2007L113.083 89.2925C113.083 89.2925 122.358 83.9313 129.184 78.9873C136.283 73.8455 142.775 68.9503 142.775 68.9503L148.94 84.1163Z" fill="white" fill-opacity="0.5"/>
<path d="M148.94 84.1163C148.94 84.1163 141.122 88.175 133.389 91.9413C125.423 95.8215 117.111 99.2007 117.111 99.2007L113.083 89.2925C113.083 89.2925 122.358 83.9313 129.184 78.9873C136.283 73.8455 142.775 68.9503 142.775 68.9503L148.94 84.1163Z" fill="url(#paint1_linear)"/>
</g>
<path d="M54.3711 64.4766H47.7969C47.1875 64.4766 46.707 64.4297 46.3555 64.3359C46.0273 64.2422 45.7812 64.0781 45.6172 63.8438C45.4766 63.5859 45.3828 63.2344 45.3359 62.7891C45.3125 62.3203 45.3008 61.7344 45.3008 61.0312C45.3008 60.3281 45.3125 59.7539 45.3359 59.3086C45.3828 58.8633 45.4766 58.5117 45.6172 58.2539C45.7812 57.9961 46.0273 57.8203 46.3555 57.7266C46.707 57.6328 47.1875 57.5859 47.7969 57.5859H59.8555H60.6641H73.5312C74.1406 57.5859 74.6094 57.6328 74.9375 57.7266C75.2891 57.8203 75.5469 57.9961 75.7109 58.2539C75.875 58.5117 75.9688 58.8633 75.9922 59.3086C76.0391 59.7539 76.0625 60.3281 76.0625 61.0312C76.0625 61.7344 76.0391 62.3203 75.9922 62.7891C75.9688 63.2344 75.875 63.5859 75.7109 63.8438C75.5469 64.0781 75.2891 64.2422 74.9375 64.3359C74.6094 64.4297 74.1406 64.4766 73.5312 64.4766H66.957L65.5508 114.785C65.5273 115.254 65.457 115.629 65.3398 115.91C65.2461 116.191 65.0352 116.414 64.707 116.578C64.3789 116.742 63.8867 116.859 63.2305 116.93C62.5977 116.977 61.7422 117 60.6641 117C59.5859 117 58.7305 116.977 58.0977 116.93C57.4648 116.883 56.9727 116.777 56.6211 116.613C56.293 116.449 56.082 116.215 55.9883 115.91C55.8945 115.582 55.8359 115.148 55.8125 114.609L54.3711 64.4766ZM95.9961 91.7227L102.43 60.75C102.594 60.0703 102.781 59.5312 102.992 59.1328C103.227 58.7109 103.566 58.3828 104.012 58.1484C104.48 57.9141 105.09 57.7617 105.84 57.6914C106.613 57.6211 107.621 57.5859 108.863 57.5859C110.902 57.5859 112.414 57.7148 113.398 57.9727C114.406 58.207 114.91 58.7578 114.91 59.625C114.91 59.9297 114.898 60.1992 114.875 60.4336C114.852 60.668 114.805 60.9023 114.734 61.1367C114.688 61.3711 114.629 61.6172 114.559 61.875C114.488 62.1094 114.406 62.3789 114.312 62.6836L105.699 91.7227L113.68 112.008C114.008 112.852 114.254 113.543 114.418 114.082C114.605 114.598 114.699 115.043 114.699 115.418C114.699 115.699 114.652 115.945 114.559 116.156C114.465 116.344 114.254 116.508 113.926 116.648C113.621 116.766 113.176 116.859 112.59 116.93C112.004 116.977 111.23 117 110.27 117C109.449 117 108.781 116.965 108.266 116.895C107.773 116.801 107.363 116.648 107.035 116.438C106.73 116.227 106.461 115.945 106.227 115.594C106.016 115.219 105.793 114.75 105.559 114.188L95.9961 91.7227ZM81.8281 60.5039C81.8047 59.8945 81.8633 59.4023 82.0039 59.0273C82.1445 58.6523 82.4375 58.3594 82.8828 58.1484C83.3516 57.9375 84.0078 57.7969 84.8516 57.7266C85.6953 57.6328 86.8203 57.5859 88.2266 57.5859C89.6094 57.5859 90.7227 57.6328 91.5664 57.7266C92.4102 57.7969 93.0547 57.9375 93.5 58.1484C93.9688 58.3594 94.2734 58.6523 94.4141 59.0273C94.5781 59.4023 94.6484 59.8945 94.625 60.5039L93.0781 114.609C93.0781 115.148 93.0195 115.582 92.9023 115.91C92.8086 116.215 92.5859 116.449 92.2344 116.613C91.9062 116.777 91.4258 116.883 90.793 116.93C90.1602 116.977 89.3047 117 88.2266 117C87.1484 117 86.2812 116.977 85.625 116.93C84.9922 116.883 84.5117 116.777 84.1836 116.613C83.8555 116.449 83.6328 116.215 83.5156 115.91C83.4219 115.582 83.3633 115.148 83.3398 114.609L81.8281 60.5039Z" fill="white" fill-opacity="0.5"/>
<defs>
<filter id="filter0_dddd" x="116.943" y="97.0648" width="20.7561" height="21.1539" filterUnits="userSpaceOnUse" color-interpolation-filters="sRGB">
<feFlood flood-opacity="0" result="BackgroundImageFix"/>
<feColorMatrix in="SourceAlpha" type="matrix" values="0 0 0 0 0 0 0 0 0 0 0 0 0 0 0 0 0 0 127 0"/>
<feOffset dy="2"/>
<feGaussianBlur stdDeviation="0.5"/>
<feColorMatrix type="matrix" values="0 0 0 0 1 0 0 0 0 1 0 0 0 0 1 0 0 0 0.16 0"/>
<feBlend mode="normal" in2="BackgroundImageFix" result="effect1_dropShadow"/>
<feColorMatrix in="SourceAlpha" type="matrix" values="0 0 0 0 0 0 0 0 0 0 0 0 0 0 0 0 0 0 127 0"/>
<feOffset/>
<feGaussianBlur stdDeviation="1.5"/>
<feColorMatrix type="matrix" values="0 0 0 0 1 0 0 0 0 1 0 0 0 0 1 0 0 0 0.5 0"/>
<feBlend mode="normal" in2="effect1_dropShadow" result="effect2_dropShadow"/>
<feColorMatrix in="SourceAlpha" type="matrix" values="0 0 0 0 0 0 0 0 0 0 0 0 0 0 0 0 0 0 127 0"/>
<feOffset/>
<feGaussianBlur stdDeviation="3"/>
<feColorMatrix type="matrix" values="0 0 0 0 1 0 0 0 0 1 0 0 0 0 1 0 0 0 0.5 0"/>
<feBlend mode="normal" in2="effect2_dropShadow" result="effect3_dropShadow"/>
<feColorMatrix in="SourceAlpha" type="matrix" values="0 0 0 0 0 0 0 0 0 0 0 0 0 0 0 0 0 0 127 0"/>
<feOffset/>
<feGaussianBlur stdDeviation="2"/>
<feColorMatrix type="matrix" values="0 0 0 0 1 0 0 0 0 1 0 0 0 0 1 0 0 0 0.64 0"/>
<feBlend mode="normal" in2="effect3_dropShadow" result="effect4_dropShadow"/>
<feBlend mode="normal" in="SourceGraphic" in2="effect4_dropShadow" result="shape"/>
</filter>
<filter id="filter1_dddd" x="122.328" y="48.3003" width="17.9193" height="18.216" filterUnits="userSpaceOnUse" color-interpolation-filters="sRGB">
<feFlood flood-opacity="0" result="BackgroundImageFix"/>
<feColorMatrix in="SourceAlpha" type="matrix" values="0 0 0 0 0 0 0 0 0 0 0 0 0 0 0 0 0 0 127 0"/>
<feOffset dy="2"/>
<feGaussianBlur stdDeviation="0.5"/>
<feColorMatrix type="matrix" values="0 0 0 0 1 0 0 0 0 1 0 0 0 0 1 0 0 0 0.16 0"/>
<feBlend mode="normal" in2="BackgroundImageFix" result="effect1_dropShadow"/>
<feColorMatrix in="SourceAlpha" type="matrix" values="0 0 0 0 0 0 0 0 0 0 0 0 0 0 0 0 0 0 127 0"/>
<feOffset/>
<feGaussianBlur stdDeviation="1.5"/>
<feColorMatrix type="matrix" values="0 0 0 0 1 0 0 0 0 1 0 0 0 0 1 0 0 0 0.5 0"/>
<feBlend mode="normal" in2="effect1_dropShadow" result="effect2_dropShadow"/>
<feColorMatrix in="SourceAlpha" type="matrix" values="0 0 0 0 0 0 0 0 0 0 0 0 0 0 0 0 0 0 127 0"/>
<feOffset/>
<feGaussianBlur stdDeviation="3"/>
<feColorMatrix type="matrix" values="0 0 0 0 1 0 0 0 0 1 0 0 0 0 1 0 0 0 0.5 0"/>
<feBlend mode="normal" in2="effect2_dropShadow" result="effect3_dropShadow"/>
<feColorMatrix in="SourceAlpha" type="matrix" values="0 0 0 0 0 0 0 0 0 0 0 0 0 0 0 0 0 0 127 0"/>
<feOffset/>
<feGaussianBlur stdDeviation="2"/>
<feColorMatrix type="matrix" values="0 0 0 0 1 0 0 0 0 1 0 0 0 0 1 0 0 0 0.64 0"/>
<feBlend mode="normal" in2="effect3_dropShadow" result="effect4_dropShadow"/>
<feBlend mode="normal" in="SourceGraphic" in2="effect4_dropShadow" result="shape"/>
</filter>
<filter id="filter2_dddd" x="111.57" y="67.5504" width="17.6222" height="17.9648" filterUnits="userSpaceOnUse" color-interpolation-filters="sRGB">
<feFlood flood-opacity="0" result="BackgroundImageFix"/>
<feColorMatrix in="SourceAlpha" type="matrix" values="0 0 0 0 0 0 0 0 0 0 0 0 0 0 0 0 0 0 127 0"/>
<feOffset dy="2"/>
<feGaussianBlur stdDeviation="0.5"/>
<feColorMatrix type="matrix" values="0 0 0 0 1 0 0 0 0 1 0 0 0 0 1 0 0 0 0.16 0"/>
<feBlend mode="normal" in2="BackgroundImageFix" result="effect1_dropShadow"/>
<feColorMatrix in="SourceAlpha" type="matrix" values="0 0 0 0 0 0 0 0 0 0 0 0 0 0 0 0 0 0 127 0"/>
<feOffset/>
<feGaussianBlur stdDeviation="1.5"/>
<feColorMatrix type="matrix" values="0 0 0 0 1 0 0 0 0 1 0 0 0 0 1 0 0 0 0.5 0"/>
<feBlend mode="normal" in2="effect1_dropShadow" result="effect2_dropShadow"/>
<feColorMatrix in="SourceAlpha" type="matrix" values="0 0 0 0 0 0 0 0 0 0 0 0 0 0 0 0 0 0 127 0"/>
<feOffset/>
<feGaussianBlur stdDeviation="3"/>
<feColorMatrix type="matrix" values="0 0 0 0 1 0 0 0 0 1 0 0 0 0 1 0 0 0 0.5 0"/>
<feBlend mode="normal" in2="effect2_dropShadow" result="effect3_dropShadow"/>
<feColorMatrix in="SourceAlpha" type="matrix" values="0 0 0 0 0 0 0 0 0 0 0 0 0 0 0 0 0 0 127 0"/>
<feOffset/>
<feGaussianBlur stdDeviation="2"/>
<feColorMatrix type="matrix" values="0 0 0 0 1 0 0 0 0 1 0 0 0 0 1 0 0 0 0.64 0"/>
<feBlend mode="normal" in2="effect3_dropShadow" result="effect4_dropShadow"/>
<feBlend mode="normal" in="SourceGraphic" in2="effect4_dropShadow" result="shape"/>
</filter>
<filter id="filter3_dddd" x="26.5522" y="81.5903" width="18.2526" height="18.646" filterUnits="userSpaceOnUse" color-interpolation-filters="sRGB">
<feFlood flood-opacity="0" result="BackgroundImageFix"/>
<feColorMatrix in="SourceAlpha" type="matrix" values="0 0 0 0 0 0 0 0 0 0 0 0 0 0 0 0 0 0 127 0"/>
<feOffset dy="2"/>
<feGaussianBlur stdDeviation="0.5"/>
<feColorMatrix type="matrix" values="0 0 0 0 1 0 0 0 0 1 0 0 0 0 1 0 0 0 0.16 0"/>
<feBlend mode="normal" in2="BackgroundImageFix" result="effect1_dropShadow"/>
<feColorMatrix in="SourceAlpha" type="matrix" values="0 0 0 0 0 0 0 0 0 0 0 0 0 0 0 0 0 0 127 0"/>
<feOffset/>
<feGaussianBlur stdDeviation="1.5"/>
<feColorMatrix type="matrix" values="0 0 0 0 1 0 0 0 0 1 0 0 0 0 1 0 0 0 0.5 0"/>
<feBlend mode="normal" in2="effect1_dropShadow" result="effect2_dropShadow"/>
<feColorMatrix in="SourceAlpha" type="matrix" values="0 0 0 0 0 0 0 0 0 0 0 0 0 0 0 0 0 0 127 0"/>
<feOffset/>
<feGaussianBlur stdDeviation="3"/>
<feColorMatrix type="matrix" values="0 0 0 0 1 0 0 0 0 1 0 0 0 0 1 0 0 0 0.5 0"/>
<feBlend mode="normal" in2="effect2_dropShadow" result="effect3_dropShadow"/>
<feColorMatrix in="SourceAlpha" type="matrix" values="0 0 0 0 0 0 0 0 0 0 0 0 0 0 0 0 0 0 127 0"/>
<feOffset/>
<feGaussianBlur stdDeviation="2"/>
<feColorMatrix type="matrix" values="0 0 0 0 1 0 0 0 0 1 0 0 0 0 1 0 0 0 0.64 0"/>
<feBlend mode="normal" in2="effect3_dropShadow" result="effect4_dropShadow"/>
<feBlend mode="normal" in="SourceGraphic" in2="effect4_dropShadow" result="shape"/>
</filter>
<filter id="filter4_dddd" x="16.8794" y="36.9009" width="20.9202" height="21.4313" filterUnits="userSpaceOnUse" color-interpolation-filters="sRGB">
<feFlood flood-opacity="0" result="BackgroundImageFix"/>
<feColorMatrix in="SourceAlpha" type="matrix" values="0 0 0 0 0 0 0 0 0 0 0 0 0 0 0 0 0 0 127 0"/>
<feOffset dy="2"/>
<feGaussianBlur stdDeviation="0.5"/>
<feColorMatrix type="matrix" values="0 0 0 0 1 0 0 0 0 1 0 0 0 0 1 0 0 0 0.16 0"/>
<feBlend mode="normal" in2="BackgroundImageFix" result="effect1_dropShadow"/>
<feColorMatrix in="SourceAlpha" type="matrix" values="0 0 0 0 0 0 0 0 0 0 0 0 0 0 0 0 0 0 127 0"/>
<feOffset/>
<feGaussianBlur stdDeviation="1.5"/>
<feColorMatrix type="matrix" values="0 0 0 0 1 0 0 0 0 1 0 0 0 0 1 0 0 0 0.5 0"/>
<feBlend mode="normal" in2="effect1_dropShadow" result="effect2_dropShadow"/>
<feColorMatrix in="SourceAlpha" type="matrix" values="0 0 0 0 0 0 0 0 0 0 0 0 0 0 0 0 0 0 127 0"/>
<feOffset/>
<feGaussianBlur stdDeviation="3"/>
<feColorMatrix type="matrix" values="0 0 0 0 1 0 0 0 0 1 0 0 0 0 1 0 0 0 0.5 0"/>
<feBlend mode="normal" in2="effect2_dropShadow" result="effect3_dropShadow"/>
<feColorMatrix in="SourceAlpha" type="matrix" values="0 0 0 0 0 0 0 0 0 0 0 0 0 0 0 0 0 0 127 0"/>
<feOffset/>
<feGaussianBlur stdDeviation="2"/>
<feColorMatrix type="matrix" values="0 0 0 0 1 0 0 0 0 1 0 0 0 0 1 0 0 0 0.64 0"/>
<feBlend mode="normal" in2="effect3_dropShadow" result="effect4_dropShadow"/>
<feBlend mode="normal" in="SourceGraphic" in2="effect4_dropShadow" result="shape"/>
</filter>
<filter id="filter5_dddd" x="117.499" y="76.5979" width="20.9845" height="21.5298" filterUnits="userSpaceOnUse" color-interpolation-filters="sRGB">
<feFlood flood-opacity="0" result="BackgroundImageFix"/>
<feColorMatrix in="SourceAlpha" type="matrix" values="0 0 0 0 0 0 0 0 0 0 0 0 0 0 0 0 0 0 127 0"/>
<feOffset dy="2"/>
<feGaussianBlur stdDeviation="0.5"/>
<feColorMatrix type="matrix" values="0 0 0 0 1 0 0 0 0 1 0 0 0 0 1 0 0 0 0.16 0"/>
<feBlend mode="normal" in2="BackgroundImageFix" result="effect1_dropShadow"/>
<feColorMatrix in="SourceAlpha" type="matrix" values="0 0 0 0 0 0 0 0 0 0 0 0 0 0 0 0 0 0 127 0"/>
<feOffset/>
<feGaussianBlur stdDeviation="1.5"/>
<feColorMatrix type="matrix" values="0 0 0 0 1 0 0 0 0 1 0 0 0 0 1 0 0 0 0.5 0"/>
<feBlend mode="normal" in2="effect1_dropShadow" result="effect2_dropShadow"/>
<feColorMatrix in="SourceAlpha" type="matrix" values="0 0 0 0 0 0 0 0 0 0 0 0 0 0 0 0 0 0 127 0"/>
<feOffset/>
<feGaussianBlur stdDeviation="3"/>
<feColorMatrix type="matrix" values="0 0 0 0 1 0 0 0 0 1 0 0 0 0 1 0 0 0 0.5 0"/>
<feBlend mode="normal" in2="effect2_dropShadow" result="effect3_dropShadow"/>
<feColorMatrix in="SourceAlpha" type="matrix" values="0 0 0 0 0 0 0 0 0 0 0 0 0 0 0 0 0 0 127 0"/>
<feOffset/>
<feGaussianBlur stdDeviation="2"/>
<feColorMatrix type="matrix" values="0 0 0 0 1 0 0 0 0 1 0 0 0 0 1 0 0 0 0.64 0"/>
<feBlend mode="normal" in2="effect3_dropShadow" result="effect4_dropShadow"/>
<feBlend mode="normal" in="SourceGraphic" in2="effect4_dropShadow" result="shape"/>
</filter>
<filter id="filter6_dddd" x="27.1626" y="91.2383" width="20.4283" height="20.9647" filterUnits="userSpaceOnUse" color-interpolation-filters="sRGB">
<feFlood flood-opacity="0" result="BackgroundImageFix"/>
<feColorMatrix in="SourceAlpha" type="matrix" values="0 0 0 0 0 0 0 0 0 0 0 0 0 0 0 0 0 0 127 0"/>
<feOffset dy="2"/>
<feGaussianBlur stdDeviation="0.5"/>
<feColorMatrix type="matrix" values="0 0 0 0 1 0 0 0 0 1 0 0 0 0 1 0 0 0 0.16 0"/>
<feBlend mode="normal" in2="BackgroundImageFix" result="effect1_dropShadow"/>
<feColorMatrix in="SourceAlpha" type="matrix" values="0 0 0 0 0 0 0 0 0 0 0 0 0 0 0 0 0 0 127 0"/>
<feOffset/>
<feGaussianBlur stdDeviation="1.5"/>
<feColorMatrix type="matrix" values="0 0 0 0 1 0 0 0 0 1 0 0 0 0 1 0 0 0 0.5 0"/>
<feBlend mode="normal" in2="effect1_dropShadow" result="effect2_dropShadow"/>
<feColorMatrix in="SourceAlpha" type="matrix" values="0 0 0 0 0 0 0 0 0 0 0 0 0 0 0 0 0 0 127 0"/>
<feOffset/>
<feGaussianBlur stdDeviation="3"/>
<feColorMatrix type="matrix" values="0 0 0 0 1 0 0 0 0 1 0 0 0 0 1 0 0 0 0.5 0"/>
<feBlend mode="normal" in2="effect2_dropShadow" result="effect3_dropShadow"/>
<feColorMatrix in="SourceAlpha" type="matrix" values="0 0 0 0 0 0 0 0 0 0 0 0 0 0 0 0 0 0 127 0"/>
<feOffset/>
<feGaussianBlur stdDeviation="2"/>
<feColorMatrix type="matrix" values="0 0 0 0 1 0 0 0 0 1 0 0 0 0 1 0 0 0 0.64 0"/>
<feBlend mode="normal" in2="effect3_dropShadow" result="effect4_dropShadow"/>
<feBlend mode="normal" in="SourceGraphic" in2="effect4_dropShadow" result="shape"/>
</filter>
<filter id="filter7_b" x="13.4995" y="73.5" width="37.6927" height="22.9293" filterUnits="userSpaceOnUse" color-interpolation-filters="sRGB">
<feFlood flood-opacity="0" result="BackgroundImageFix"/>
<feGaussianBlur in="BackgroundImage" stdDeviation="0.25"/>
<feComposite in2="SourceAlpha" operator="in" result="effect1_backgroundBlur"/>
<feBlend mode="normal" in="SourceGraphic" in2="effect1_backgroundBlur" result="shape"/>
</filter>
<filter id="filter8_b" x="112.583" y="68.4503" width="36.8569" height="31.2504" filterUnits="userSpaceOnUse" color-interpolation-filters="sRGB">
<feFlood flood-opacity="0" result="BackgroundImageFix"/>
<feGaussianBlur in="BackgroundImage" stdDeviation="0.25"/>
<feComposite in2="SourceAlpha" operator="in" result="effect1_backgroundBlur"/>
<feBlend mode="normal" in="SourceGraphic" in2="effect1_backgroundBlur" result="shape"/>
</filter>
<linearGradient id="paint0_linear" x1="15.3778" y1="82.125" x2="49.0777" y2="89.1836" gradientUnits="userSpaceOnUse">
<stop stop-color="white" stop-opacity="0"/>
<stop offset="0.63146" stop-color="white" stop-opacity="0.2"/>
<stop offset="1" stop-color="white" stop-opacity="0"/>
</linearGradient>
<linearGradient id="paint1_linear" x1="175.045" y1="65.5333" x2="107.723" y2="85.7355" gradientUnits="userSpaceOnUse">
<stop stop-color="white"/>
<stop offset="1" stop-color="white" stop-opacity="0"/>
</linearGradient>
</defs>
</svg>
