<svg width="160" height="160" viewBox="0 0 160 160" fill="none" xmlns="http://www.w3.org/2000/svg">
<rect width="160" height="160" rx="7" fill="#8CA7F0"/>
<g filter="url(#filter0_dddd)">
<path d="M71.5174 47.0239C70.2845 47.0549 67.1171 47.313 66.5135 47.4317C65.9151 47.5505 65.5333 48.7327 65.4714 50.6584C65.4044 52.7597 65.8016 54.3447 66.4929 54.706C66.6528 54.7938 68.319 54.9126 70.4083 54.9952C71.244 55.0261 71.9405 55.0571 71.9508 55.0674C71.9611 55.0778 71.9714 56.3633 71.9766 57.9173L71.9817 60.7465L71.6928 60.3438C71.2389 59.7087 70.6302 59.0479 69.7325 58.2116C68.871 57.4113 68.3603 57.0035 67.8806 56.735C67.7258 56.6472 67.4111 56.4511 67.1841 56.3065C66.7921 56.0484 66.3329 55.7954 66.3329 55.8315C66.3329 55.8418 66.4413 55.9245 66.5702 56.0174C66.6992 56.1103 66.7921 56.1981 66.7817 56.2084C66.7714 56.2187 66.5909 56.1929 66.3794 56.1413C66.0337 56.0638 66.0079 56.0535 66.1421 56.0122C66.2194 55.9812 66.2814 55.9399 66.2814 55.9141C66.2814 55.7851 65.9667 55.7541 64.9401 55.7799C62.7425 55.8418 57.723 56.5646 56.5984 56.9828C56.3663 57.0654 56.3302 57.1222 56.4437 57.1945C56.485 57.2151 56.5262 57.2771 56.5469 57.3236C56.5933 57.4578 56.9699 57.7056 57.6972 58.0928C58.0532 58.2838 58.4246 58.5162 58.5278 58.6091C59.1365 59.1925 61.3806 61.9132 62.0357 62.8632L62.1441 63.0232L59.1984 63.6066C57.5734 63.9319 56.1084 64.2416 55.9433 64.2933C55.773 64.3501 55.5048 64.4791 55.35 64.5824C55.1901 64.6856 54.9734 64.8147 54.8651 64.8663C54.5556 65.0264 54.4834 65.1606 54.2873 65.9608C53.9417 67.3496 53.8746 67.9898 53.9211 69.6264C53.9365 70.3079 53.9778 71.1907 54.0088 71.5882C54.05 72.12 54.0449 72.7086 54.0036 73.8082C53.9675 74.6343 53.952 75.801 53.9727 76.4154C53.9881 77.0246 54.0088 77.8971 54.0088 78.3463L54.0191 79.1723L53.4826 79.2859C51.935 79.6111 50.702 79.9829 49.5465 80.4733C48.3135 80.9948 47.8854 81.3407 47.6223 82.017C47.4675 82.4248 47.2508 83.2664 47.1477 83.8756C46.9516 85.0114 46.9516 86.5499 47.1425 89.4772C47.2302 90.8659 47.2457 91.5371 47.2354 94.072L47.2199 97.0406L47.3643 97.3658C47.8183 98.3932 48.8139 99.3432 50.5782 100.433C51.3211 100.892 52.4973 101.63 54.081 102.627C57.8262 104.981 62.1337 107.185 67.2202 109.333C69.0103 110.092 70.594 110.696 73.0754 111.569C75.1286 112.291 75.6857 112.472 76.1964 112.58C76.4028 112.627 76.769 112.715 77.0115 112.771C77.6202 112.921 78.3734 112.88 79.694 112.637C81.3345 112.327 81.6853 112.229 87.7158 110.273C92.8849 108.6 97.7392 106.695 102.083 104.63C102.779 104.299 103.744 103.871 104.224 103.675C108.975 101.765 110.997 100.701 112.22 99.4671C112.607 99.0799 112.643 99.0282 112.787 98.5894L112.942 98.1248V94.6399C112.942 92.7245 112.963 90.4942 112.988 89.6837C113.035 88.0884 112.937 85.7858 112.792 84.9598C112.658 84.2112 112.405 83.6381 112.039 83.2457C111.817 83.0082 112.091 83.1167 105.503 80.6437C103.94 80.0551 103.125 79.7247 103.14 79.6834C103.151 79.6473 103.197 79.4511 103.238 79.2446C103.517 77.892 103.486 76.2037 103.115 72.182C103.084 71.8825 103.063 71.4747 103.063 71.2681C103.063 70.5402 102.893 70.0756 102.444 69.5851C102.042 69.1463 101.19 68.6971 100.226 68.4131C100.014 68.3512 99.3642 68.1395 98.7813 67.9485C98.1983 67.7523 97.1872 67.4529 96.5372 67.2877C94.711 66.8127 90.7853 65.5478 90.3829 65.3052C89.7277 64.9076 89.088 64.4069 87.2773 62.889C86.8646 62.5431 86.323 62.0991 86.065 61.9029C85.8123 61.7067 85.4047 61.397 85.1623 61.2111C84.6567 60.8187 83.4289 60.1889 82.6964 59.9462C81.9071 59.6829 81.1694 59.5332 80.4678 59.5022L79.823 59.4713L77.8936 59.8636C76.8309 60.0753 75.9488 60.2457 75.9385 60.2302C75.9282 60.2199 75.9488 59.9927 75.9849 59.7294C76.1293 58.7433 76.052 56.3633 75.8456 55.2172L75.8147 55.0571L76.9186 55.021C78.1103 54.9848 80.5091 54.8558 81.2829 54.7886C81.7059 54.7525 81.7833 54.7267 81.9123 54.6028C82.3662 54.1691 82.6551 52.8423 82.6551 51.1696C82.6551 49.2129 82.2631 47.7828 81.644 47.4885C81.3758 47.3595 78.6726 47.1375 76.2377 47.0394C75.1028 46.9929 72.9206 46.9877 71.5174 47.0239ZM75.6135 55.7747C75.6083 56.1826 75.5928 56.6421 75.567 56.797C75.5412 56.9931 75.5258 56.766 75.5206 56.0587C75.5206 55.4133 75.5361 55.0416 75.567 55.0416C75.598 55.0416 75.6186 55.3204 75.6135 55.7747ZM56.8254 57.3442C56.8099 57.3597 56.7635 57.3649 56.7274 57.3494C56.6861 57.3339 56.7016 57.3184 56.7584 57.3184C56.8151 57.3132 56.8461 57.3287 56.8254 57.3442ZM72.2551 60.3076C72.25 60.9168 72.2448 60.9323 72.2139 60.5658C72.1571 59.9566 72.1571 59.4971 72.2139 59.5848C72.2397 59.6261 72.2603 59.9514 72.2551 60.3076ZM55.1385 65.0419C55.0199 65.1451 54.8496 65.3258 54.7723 65.4342C54.6072 65.6614 54.5814 65.6511 54.7 65.4239C54.7826 65.2639 55.2211 64.8508 55.3088 64.8508C55.3397 64.8508 55.2623 64.9386 55.1385 65.0419ZM54.6949 65.2381C54.6484 65.3103 54.602 65.3671 54.5865 65.3671C54.5607 65.3671 54.6123 65.2742 54.6897 65.1709C54.7774 65.0574 54.7826 65.1038 54.6949 65.2381Z" fill="#5C67CF"/>
</g>
<defs>
<filter id="filter0_dddd" x="41" y="41.0002" width="78" height="77.8587" filterUnits="userSpaceOnUse" color-interpolation-filters="sRGB">
<feFlood flood-opacity="0" result="BackgroundImageFix"/>
<feColorMatrix in="SourceAlpha" type="matrix" values="0 0 0 0 0 0 0 0 0 0 0 0 0 0 0 0 0 0 127 0"/>
<feOffset dy="2"/>
<feGaussianBlur stdDeviation="0.5"/>
<feColorMatrix type="matrix" values="0 0 0 0 1 0 0 0 0 1 0 0 0 0 1 0 0 0 0.16 0"/>
<feBlend mode="normal" in2="BackgroundImageFix" result="effect1_dropShadow"/>
<feColorMatrix in="SourceAlpha" type="matrix" values="0 0 0 0 0 0 0 0 0 0 0 0 0 0 0 0 0 0 127 0"/>
<feOffset/>
<feGaussianBlur stdDeviation="1.5"/>
<feColorMatrix type="matrix" values="0 0 0 0 1 0 0 0 0 1 0 0 0 0 1 0 0 0 0.5 0"/>
<feBlend mode="normal" in2="effect1_dropShadow" result="effect2_dropShadow"/>
<feColorMatrix in="SourceAlpha" type="matrix" values="0 0 0 0 0 0 0 0 0 0 0 0 0 0 0 0 0 0 127 0"/>
<feOffset/>
<feGaussianBlur stdDeviation="3"/>
<feColorMatrix type="matrix" values="0 0 0 0 1 0 0 0 0 1 0 0 0 0 1 0 0 0 0.5 0"/>
<feBlend mode="normal" in2="effect2_dropShadow" result="effect3_dropShadow"/>
<feColorMatrix in="SourceAlpha" type="matrix" values="0 0 0 0 0 0 0 0 0 0 0 0 0 0 0 0 0 0 127 0"/>
<feOffset/>
<feGaussianBlur stdDeviation="2"/>
<feColorMatrix type="matrix" values="0 0 0 0 1 0 0 0 0 1 0 0 0 0 1 0 0 0 0.64 0"/>
<feBlend mode="normal" in2="effect3_dropShadow" result="effect4_dropShadow"/>
<feBlend mode="normal" in="SourceGraphic" in2="effect4_dropShadow" result="shape"/>
</filter>
</defs>
</svg>
