<svg width="160" height="160" viewBox="0 0 160 160" fill="none" xmlns="http://www.w3.org/2000/svg">
<rect width="160" height="160" rx="7" fill="#8CA7F0"/>
<g filter="url(#filter0_dddd)">
<path d="M91.3613 96.0723C91.3613 96.0723 89.0614 97.4048 88.3425 99.9318C87.5069 102.869 87.8205 104.735 87.2361 107.732C86.7441 110.256 84.3732 112.823 84.3732 112.823" stroke="#444444"/>
<path d="M115.87 81.3189C112.268 88.2361 98.5205 96.0836 92.7936 95.2187C92.7936 95.2187 92.0426 95.0764 91.6145 94.8553C91.2046 94.6435 90.672 94.1429 90.672 94.1429C86.6978 89.9094 85.3144 74.1841 88.9089 67.2807C92.7896 59.8276 101.971 56.9282 109.416 60.8047C116.861 64.6813 119.751 73.8658 115.87 81.3189Z" fill="#5C67CF"/>
<path d="M90.672 94.1429C90.672 94.1429 91.2046 94.6435 91.6145 94.8553C92.0426 95.0764 92.7936 95.2187 92.7936 95.2187L92.4769 97.6021C92.4448 97.8624 92.143 97.9904 91.9336 97.8324C91.9095 97.8142 91.8878 97.7928 91.8693 97.7689L91.2607 96.982C90.9021 96.5184 90.3935 96.1938 89.8219 96.064L89.074 95.8941C88.949 95.8657 88.8389 95.7922 88.7647 95.6877C88.5724 95.4166 88.68 95.0371 88.9861 94.9073L90.672 94.1429Z" fill="#5C67CF"/>
<path d="M95.2247 65.9349C92.2386 68.7237 91.7506 73.0283 90.4193 71.6029C89.088 70.1775 90.4295 66.7611 93.4155 63.9723C96.4016 61.1834 99.9015 60.0781 101.233 61.5035C102.564 62.9289 98.2107 63.146 95.2247 65.9349Z" fill="white" fill-opacity="0.5"/>
<path d="M68.3019 69.7104C70.7168 77.4312 65.9066 93.898 61.0151 95.428C56.1235 96.9579 42.7875 86.167 40.3726 78.4462C37.9577 70.7255 42.2522 62.511 49.9646 60.0986C57.6771 57.6863 65.8869 61.9897 68.3019 69.7104Z" fill="white"/>
<path d="M68.3019 69.7104C70.7168 77.4312 65.9066 93.898 61.0151 95.428C56.1235 96.9579 42.7875 86.167 40.3726 78.4462C37.9577 70.7255 42.2522 62.511 49.9646 60.0986C57.6771 57.6863 65.8869 61.9897 68.3019 69.7104Z" fill="#5C67CF"/>
<path d="M44.5243 70.2408C43.3639 74.1584 45.125 78.1164 43.2549 77.5624C41.3848 77.0085 40.8096 73.3836 41.9701 69.466C43.1305 65.5484 45.5873 62.8216 47.4574 63.3756C49.3275 63.9296 45.6848 66.3232 44.5243 70.2408Z" fill="white" fill-opacity="0.5"/>
<path d="M61.2754 95.2212C61.2754 95.2212 60.4749 97.7558 61.6474 100.107C63.0102 102.84 64.4997 104.007 66.0886 106.615C67.4265 108.81 67.4058 112.305 67.4058 112.305" stroke="#444444"/>
<path d="M59.2658 95.6509C59.78 94.3877 61.4689 94.1548 62.3058 95.2318L63.7469 97.0862C63.9433 97.339 63.7924 97.7096 63.4753 97.7533V97.7533C63.4387 97.7584 63.4016 97.7585 63.3649 97.7538L62.1608 97.5973C61.4513 97.505 60.7319 97.6624 60.1257 98.0423L59.3324 98.5395C59.1999 98.6226 59.0414 98.6538 58.8872 98.6273V98.6273C58.4873 98.5584 58.2536 98.1375 58.4066 97.7616L59.2658 95.6509Z" fill="#5C67CF"/>
<path d="M75.9157 89.1691C75.9157 89.1691 73.9133 92.9003 74.4125 96.0041C74.9927 99.6119 78.3252 100.471 79.2082 104.016C79.9517 107.002 76.8144 110.868 76.8144 110.868" stroke="#444444"/>
<path d="M93.001 62.5267C93.001 71.5104 83.1292 86.8424 76.8176 89.0054C76.8176 89.0054 75.9746 89.2596 75.4196 89.2613C74.8881 89.263 74.0776 89.0349 74.0776 89.0349C67.7647 86.8237 57.9854 71.4925 57.9854 62.5267C57.9854 52.847 65.8239 45 75.4932 45C85.1624 45 93.001 52.847 93.001 62.5267Z" fill="#E46070"/>
<path d="M74.0776 89.0349C74.0776 89.0349 74.8881 89.263 75.4196 89.2613C75.9746 89.2596 76.8176 89.0054 76.8176 89.0054L77.762 91.6091C77.8677 91.8921 77.6274 92.1834 77.3295 92.1335C77.2951 92.1277 77.2616 92.1174 77.23 92.1027L76.1895 91.6225C75.5764 91.3396 74.8841 91.2786 74.231 91.45L73.3765 91.6743C73.2337 91.7118 73.0821 91.6953 72.9507 91.628C72.6099 91.4533 72.518 91.0083 72.7617 90.7129L74.0776 89.0349Z" fill="#E46070"/>
<path d="M65.6171 54.1553C62.2299 57.9805 62.1319 63.397 60.3059 61.7801C58.4799 60.1632 59.7454 55.7515 63.1326 51.9262C66.5198 48.101 70.7459 46.3107 72.5719 47.9276C74.3979 49.5445 69.0043 50.33 65.6171 54.1553Z" fill="white" fill-opacity="0.5"/>
</g>
<defs>
<filter id="filter0_dddd" x="30" y="39" width="98.8968" height="80.5393" filterUnits="userSpaceOnUse" color-interpolation-filters="sRGB">
<feFlood flood-opacity="0" result="BackgroundImageFix"/>
<feColorMatrix in="SourceAlpha" type="matrix" values="0 0 0 0 0 0 0 0 0 0 0 0 0 0 0 0 0 0 127 0"/>
<feOffset dy="2"/>
<feGaussianBlur stdDeviation="0.5"/>
<feColorMatrix type="matrix" values="0 0 0 0 1 0 0 0 0 1 0 0 0 0 1 0 0 0 0.16 0"/>
<feBlend mode="normal" in2="BackgroundImageFix" result="effect1_dropShadow"/>
<feColorMatrix in="SourceAlpha" type="matrix" values="0 0 0 0 0 0 0 0 0 0 0 0 0 0 0 0 0 0 127 0"/>
<feOffset/>
<feGaussianBlur stdDeviation="1.5"/>
<feColorMatrix type="matrix" values="0 0 0 0 1 0 0 0 0 1 0 0 0 0 1 0 0 0 0.5 0"/>
<feBlend mode="normal" in2="effect1_dropShadow" result="effect2_dropShadow"/>
<feColorMatrix in="SourceAlpha" type="matrix" values="0 0 0 0 0 0 0 0 0 0 0 0 0 0 0 0 0 0 127 0"/>
<feOffset/>
<feGaussianBlur stdDeviation="3"/>
<feColorMatrix type="matrix" values="0 0 0 0 1 0 0 0 0 1 0 0 0 0 1 0 0 0 0.5 0"/>
<feBlend mode="normal" in2="effect2_dropShadow" result="effect3_dropShadow"/>
<feColorMatrix in="SourceAlpha" type="matrix" values="0 0 0 0 0 0 0 0 0 0 0 0 0 0 0 0 0 0 127 0"/>
<feOffset/>
<feGaussianBlur stdDeviation="2"/>
<feColorMatrix type="matrix" values="0 0 0 0 1 0 0 0 0 1 0 0 0 0 1 0 0 0 0.64 0"/>
<feBlend mode="normal" in2="effect3_dropShadow" result="effect4_dropShadow"/>
<feBlend mode="normal" in="SourceGraphic" in2="effect4_dropShadow" result="shape"/>
</filter>
</defs>
</svg>
