<svg width="160" height="160" viewBox="0 0 160 160" fill="none" xmlns="http://www.w3.org/2000/svg">
<rect width="160" height="160" rx="7" fill="#8CA7F0"/>
<g filter="url(#filter0_dddd)">
<path d="M53.9376 114.924C53.9376 114.924 57.3192 111.92 58.7145 111.099C60.1099 110.278 62.5722 109.474 64.3615 109.178C66.1508 108.883 67.8612 109.079 70.531 109.102C73.2007 109.126 79.1438 108.243 80.5367 107.524C81.9297 106.804 84.0439 103.137 85.0781 102.267C86.1123 101.397 87.13 101.102 88.1806 101.036C89.2312 100.97 90.5117 102.267 91.9562 102.99C93.4008 103.712 94.6156 103.728 96.7004 103.433C98.7851 103.137 100.591 103.055 101.461 103.449C102.331 103.843 103.25 104.697 103.989 104.697C104.728 104.697 105.565 105.403 106.024 105.895C106.484 106.388 106.451 107.094 106.221 107.291C105.992 107.487 105.934 107.361 104.773 107.036C103.613 106.711 102.638 106.85 101.059 107.175C99.4804 107.5 99.434 107.825 98.1803 108.522C96.9267 109.218 95.6267 109.683 93.6766 110.518C91.7265 111.354 88.8478 112.004 86.2013 112.979C83.5547 113.954 70.1828 119.294 67.4898 119.712C64.7968 120.13 60.5716 121.105 58.9466 121.43C57.3215 121.755 55.0464 121.708 53.2356 121.894C51.4248 122.08 51.2855 122.033 50.4962 121.662C49.7069 121.29 48.639 121.151 47.8497 120.872C47.0604 120.594 46.3639 119.897 45.0639 117.854C43.7638 115.812 46.3175 113.119 47.7568 111.493C49.1962 109.868 52.1677 108.615 54.0249 107.593C55.8822 106.572 62.7539 103.275 64.1468 102.672C65.5397 102.068 67.2576 101.325 67.7684 99.6537C68.2791 97.9822 67.7684 96.5893 67.9077 94.9642C68.0469 93.3392 68.4184 93.0606 68.6505 91.1105C68.8827 89.1604 68.4184 90.1355 68.372 87.7675C68.3255 85.3996 67.5259 81.9131 66.5973 78.9415V77.3555L93.9592 76.9608V78.4817C93.0306 81.4533 92.231 84.9397 92.1845 87.3077C92.1381 89.6756 91.6738 88.7006 91.906 90.6507C92.1381 92.6008 92.5096 92.8794 92.6488 94.5044C92.7881 96.1295 92.2774 97.5224 92.7881 99.1939C93.2989 100.865 95.0168 101.608 96.4097 102.212C97.8026 102.815 104.674 106.112 106.532 107.134C108.389 108.155 111.36 109.409 112.8 111.034C114.239 112.659 116.793 115.352 115.493 117.395C114.193 119.438 113.496 120.134 112.707 120.413C111.917 120.691 110.85 120.831 110.06 121.202C109.271 121.573 109.132 121.62 107.321 121.434C105.51 121.248 103.235 121.295 101.61 120.97C99.9849 120.645 95.7597 119.67 93.0667 119.252C90.3738 118.834 77.0018 113.494 74.3552 112.519C71.7087 111.544 68.83 110.894 66.8799 110.059C64.9298 109.223 63.6298 108.759 62.3762 108.062C61.1225 107.366 61.0761 107.041 59.4975 106.716C57.9188 106.391 56.9438 106.251 55.783 106.576C54.6223 106.901 54.5649 107.028 54.3351 106.831C54.1052 106.634 54.0724 105.928 54.5321 105.435C54.9917 104.943 55.8289 104.237 56.5676 104.237C57.3063 104.237 58.2256 103.383 59.0956 102.989C59.9656 102.595 61.7714 102.678 63.8561 102.973C65.9409 103.268 67.1557 103.252 68.6003 102.53C70.0448 101.808 71.3253 100.511 72.3759 100.576C73.4265 100.642 74.4442 100.937 75.4784 101.808C76.5126 102.678 78.6268 106.344 80.0198 107.064C81.4127 107.784 87.3558 108.666 90.0255 108.643C92.6953 108.619 94.4057 108.423 96.195 108.718C97.9843 109.014 100.447 109.818 101.842 110.639C103.237 111.46 106.619 114.464 106.619 114.464" fill="#5C67CF"/>
<path d="M66.9446 78.2985C65.9006 80.1295 64.6108 83.4031 64.2858 84.2853C63.9608 85.1674 63.5429 86.4211 62.8929 87.3032C62.2429 88.1854 62.0107 89.0676 61.825 89.9962C61.6393 90.9248 61.2214 92.1784 60.4321 93.6178C59.6428 95.0571 56.9962 97.4715 54.9069 99.7002C52.8175 101.929 51.5058 103.774 50.554 105.783C49.6022 107.791 49.0566 108.754 48.8593 109.416C48.662 110.077 48.8593 110.994 49.0566 111.575C49.254 112.155 49.3004 113.328 49.1843 113.734C49.0682 114.14 48.7664 115.196 48.7664 115.916C48.7664 116.636 48.8477 116.589 48.6272 116.81C48.4066 117.03 48.0932 116.926 47.861 116.671C47.6289 116.415 47.42 115.881 47.4316 115.521C47.4432 115.162 47.4896 114.198 47.4896 113.792C47.4896 113.386 47.0253 112.608 46.7119 112.608C46.3985 112.608 46.2708 112.828 46.0851 113.246C45.8994 113.664 46.0038 114.43 46.2476 115.289C46.4913 116.148 47.536 116.763 47.6869 116.926C47.8378 117.088 47.7914 117.39 47.5941 117.448C47.3967 117.506 46.9673 117.529 46.0387 117.019C45.11 116.508 44.4716 115.475 44.4716 115.475L44.3555 115.254C44.3555 115.254 44.3207 115.603 44.3207 115.777C44.3207 115.951 44.3672 116.717 44.5181 117.495C44.669 118.272 44.9824 119.677 44.9591 120.106C44.9359 120.536 44.6341 120.652 44.4832 120.675C44.3323 120.698 44.0654 120.164 43.7287 119.48C43.3921 118.795 42.8001 116.856 42.8001 116.856L42.7537 116.543C42.7537 116.543 42.6724 116.879 42.6608 117.077C42.6492 117.274 42.5912 117.913 42.7537 118.644C42.9162 119.375 42.9975 120.211 42.8814 120.362C42.7653 120.513 42.4055 120.431 42.2197 120.292C42.034 120.153 41.5813 118.992 41.4188 118.47C41.2563 117.947 41.326 115.278 41.326 115.278L41.3492 114.86C41.3492 114.86 41.1286 115.254 40.9893 115.521C40.85 115.788 40.5947 116.218 40.2116 116.81C39.8286 117.402 39.1785 117.402 39.1321 117.332C39.0857 117.263 38.7955 117.158 39.2598 116.276C39.7241 115.394 40.8849 112.794 41.5349 111.633C42.1849 110.472 43.16 109.729 44.2279 108.197C45.2958 106.665 46.6422 104.715 48.2209 101.418C49.7995 98.1215 50.1245 96.5429 51.1924 94.1285C52.2603 91.7141 53.7925 89.2069 55.464 87.0247C57.1355 84.8424 57.9249 81.9173 58.6213 79.6422C59.3178 77.3671 59.2249 75.3706 59.8749 72.3062C60.525 69.2418 61.0357 67.4774 62.5679 65.6666C64.1001 63.8559 67.1181 63.9023 68.6503 63.9487C70.1825 63.9951 70.4611 63.3915 72.829 61.9986C75.197 60.6057 75.0216 58.2034 74.743 56.9497C74.7813 57.0288 85.7379 56.6018 85.7379 56.6018C85.4593 57.8554 85.4274 60.2774 87.7954 61.6703C90.1633 63.0632 90.4419 63.6668 91.9741 63.6204C93.5063 63.574 96.5243 63.5275 98.0565 65.3383C99.5887 67.1491 100.099 68.9135 100.749 71.9779C101.4 75.0423 101.307 77.0388 102.003 79.3139C102.7 81.589 103.489 84.5141 105.16 86.6963C106.832 88.8786 108.364 91.3858 109.432 93.8002C110.5 96.2146 110.825 97.7932 112.404 101.09C113.982 104.386 115.329 106.336 116.397 107.869C117.464 109.401 118.439 110.144 119.09 111.304C119.74 112.465 120.9 115.065 121.365 115.948C121.829 116.83 121.539 116.934 121.492 117.004C121.446 117.073 120.796 117.073 120.413 116.481C120.03 115.89 119.774 115.46 119.635 115.193C119.496 114.926 119.275 114.531 119.275 114.531L119.298 114.949C119.298 114.949 119.368 117.619 119.206 118.141C119.043 118.664 118.59 119.824 118.405 119.964C118.219 120.103 117.859 120.184 117.743 120.033C117.627 119.883 117.708 119.047 117.871 118.316C118.033 117.584 117.975 116.946 117.964 116.748C117.952 116.551 117.871 116.215 117.871 116.215L117.824 116.528C117.824 116.528 117.232 118.466 116.896 119.151C116.559 119.836 116.292 120.37 116.141 120.347C115.99 120.324 115.688 120.208 115.665 119.778C115.642 119.349 115.955 117.944 116.106 117.166C116.257 116.389 116.304 115.623 116.304 115.448C116.304 115.274 116.269 114.926 116.269 114.926L116.153 115.147C116.153 115.147 115.514 116.18 114.586 116.69C113.657 117.201 113.228 117.178 113.03 117.12C112.833 117.062 112.787 116.76 112.937 116.598C113.088 116.435 114.133 115.82 114.377 114.961C114.621 114.102 114.725 113.336 114.539 112.918C114.354 112.5 114.226 112.28 113.913 112.28C113.599 112.28 113.135 113.057 113.135 113.464C113.135 113.87 113.181 114.833 113.193 115.193C113.204 115.553 112.996 116.087 112.763 116.342C112.531 116.598 112.218 116.702 111.997 116.481C111.777 116.261 111.858 116.307 111.858 115.588C111.858 114.868 111.556 113.812 111.44 113.405C111.324 112.999 111.37 111.827 111.568 111.246C111.765 110.666 111.962 109.749 111.765 109.087C111.568 108.426 111.022 107.462 110.07 105.454C109.119 103.446 107.807 101.601 105.718 99.3719C103.628 97.1432 100.982 94.7288 100.192 93.2895C99.403 91.8501 98.9851 90.5965 98.7994 89.6679C98.6137 88.7393 98.3815 87.8571 97.7315 86.9749C97.0815 86.0927 96.6636 84.8391 96.3386 83.9569C96.0136 83.0748 94.7238 79.8011 93.6798 77.9701" fill="#5C67CF"/>
<path d="M75.8361 39.5759C74.5228 40.6265 73.0454 42.9247 72.8813 44.3036C72.7171 45.6825 72.9469 47.3569 72.9469 47.3569L73.3081 48.0792C73.3081 48.0792 72.6514 47.6524 72.3231 47.7181C71.9948 47.7837 71.9292 48.8672 72.0605 49.4253C72.1918 49.9834 72.5858 50.4102 72.7171 51.3295C72.8484 52.2488 72.8156 53.1024 73.3409 53.562C73.8662 54.0217 73.899 53.6277 74.1289 53.8904C74.3587 54.153 74.0632 54.1858 74.2274 55.1708C74.3915 56.1557 74.6542 57.2063 75.7048 58.3554C76.7554 59.5045 78.136 59.6471 80.3053 59.6471C82.4746 59.6471 83.5766 59.5045 84.6272 58.3554C85.6778 57.2063 85.9405 56.1557 86.1047 55.1708C86.2688 54.1858 85.9733 54.153 86.2031 53.8904C86.433 53.6277 86.4658 54.0217 86.9911 53.562C87.5164 53.1024 87.4836 52.2488 87.6149 51.3295C87.7462 50.4102 88.1402 49.9834 88.2715 49.4253C88.4028 48.8672 88.3372 47.7837 88.0089 47.7181C87.6806 47.6524 87.0239 48.0792 87.0239 48.0792L87.3851 47.3569C87.3851 47.3569 87.6149 45.6825 87.4507 44.3036C87.2866 42.9247 85.8092 40.6265 84.4959 39.5759C83.1827 38.5253 82.0928 38 80.166 38C78.2392 38 77.1493 38.5253 75.8361 39.5759V39.5759Z" fill="#5C67CF"/>
</g>
<defs>
<filter id="filter0_dddd" x="33" y="32" width="94.6244" height="96" filterUnits="userSpaceOnUse" color-interpolation-filters="sRGB">
<feFlood flood-opacity="0" result="BackgroundImageFix"/>
<feColorMatrix in="SourceAlpha" type="matrix" values="0 0 0 0 0 0 0 0 0 0 0 0 0 0 0 0 0 0 127 0"/>
<feOffset dy="2"/>
<feGaussianBlur stdDeviation="0.5"/>
<feColorMatrix type="matrix" values="0 0 0 0 1 0 0 0 0 1 0 0 0 0 1 0 0 0 0.16 0"/>
<feBlend mode="normal" in2="BackgroundImageFix" result="effect1_dropShadow"/>
<feColorMatrix in="SourceAlpha" type="matrix" values="0 0 0 0 0 0 0 0 0 0 0 0 0 0 0 0 0 0 127 0"/>
<feOffset/>
<feGaussianBlur stdDeviation="1.5"/>
<feColorMatrix type="matrix" values="0 0 0 0 1 0 0 0 0 1 0 0 0 0 1 0 0 0 0.5 0"/>
<feBlend mode="normal" in2="effect1_dropShadow" result="effect2_dropShadow"/>
<feColorMatrix in="SourceAlpha" type="matrix" values="0 0 0 0 0 0 0 0 0 0 0 0 0 0 0 0 0 0 127 0"/>
<feOffset/>
<feGaussianBlur stdDeviation="3"/>
<feColorMatrix type="matrix" values="0 0 0 0 1 0 0 0 0 1 0 0 0 0 1 0 0 0 0.5 0"/>
<feBlend mode="normal" in2="effect2_dropShadow" result="effect3_dropShadow"/>
<feColorMatrix in="SourceAlpha" type="matrix" values="0 0 0 0 0 0 0 0 0 0 0 0 0 0 0 0 0 0 127 0"/>
<feOffset/>
<feGaussianBlur stdDeviation="2"/>
<feColorMatrix type="matrix" values="0 0 0 0 1 0 0 0 0 1 0 0 0 0 1 0 0 0 0.64 0"/>
<feBlend mode="normal" in2="effect3_dropShadow" result="effect4_dropShadow"/>
<feBlend mode="normal" in="SourceGraphic" in2="effect4_dropShadow" result="shape"/>
</filter>
</defs>
</svg>
