<svg width="160" height="160" viewBox="0 0 160 160" fill="none" xmlns="http://www.w3.org/2000/svg">
<rect width="160" height="160" rx="7" fill="#8CA7F0"/>
<g filter="url(#filter0_dddd)">
<path d="M104.215 49.0004C103.589 48.9912 102.971 49.1474 102.345 49.687C101.448 50.5018 100.804 50.637 101.254 51.996C101.663 52.9024 101.44 53.6624 103.113 53.5468C103.306 55.7048 103.023 57.3087 102.16 58.4259C100.843 58.7679 99.7731 58.1112 98.6368 57.7237C97.9509 57.1056 96.8718 56.8846 95.8093 56.6469C94.0504 56.4778 93.0699 57.0948 92.271 57.8953L91.5757 56.8186L89.6289 55.3985L89.9842 53.0733L91.5757 51.1227V50.0459C88.044 49.9865 84.1603 49.8883 80.9763 49.8743L80.6209 50.9354C82.0247 51.3752 83.3292 51.4404 84.8545 52.3711C85.3125 53.2693 86.0408 54.9634 85.0399 56.4752C83.9428 56.7998 83.1859 56.5954 81.3316 58.067C81.1299 58.7427 81.3463 59.4843 80.2655 60.0332C78.6211 60.5509 76.6634 60.8674 74.6104 61.11C72.4278 61.2471 70.4597 61.4572 67.9046 61.4689C64.5887 61.3376 62.9235 60.9062 60.1328 59.5026C58.6494 58.7417 57.0568 57.7962 54.4931 55.3985L50.5994 52.73C47.6629 51.6938 46.5123 52.3915 46.7212 53.9784L49.3634 60.2205C49.3634 60.2205 48.8388 59.956 47.7719 59.5026C46.705 59.0493 45.6307 58.2185 44.7744 58.067C43.918 57.9154 42.7304 57.5163 41.5915 58.6131C40.4525 59.71 40.3538 60.4683 40.5408 61.8122C40.7278 63.1561 40.687 63.5529 41.5915 64.6679C42.4959 65.7829 43.7083 66.2352 44.9443 65.7447C46.1804 65.2543 46.5137 63.5867 46.5358 62.7173C46.5579 61.8479 45.037 62.2647 45.0371 62.2648C45.1955 63.0306 45.2946 63.3157 45.0371 63.6068C44.7795 63.8979 44.3865 63.9747 44.0636 63.6848C43.7408 63.395 43.4327 62.9758 43.5383 62.3584C43.6439 61.741 43.8032 60.974 44.7744 60.7511C45.7456 60.5281 46.1804 60.9339 47.4165 61.4689C48.6526 62.0039 49.7187 62.8889 49.7187 62.889C49.7187 62.889 50.7827 64.4495 51.6656 66.6342C52.5485 68.8189 53.257 71.6278 53.257 71.6278L53.9523 75.0142L54.1056 78.449C53.5585 77.0952 53.0114 76.8233 52.4643 76.4087C51.7637 76.9437 50.93 77.3443 50.9708 78.6281L51.1248 82.1457C51.3424 83.2081 51.9179 83.6681 52.7162 83.753C53.2467 83.8591 53.7772 82.993 54.3077 82.1457V85.1887V87.6855L55.8992 88.3878L56.7026 89.4645L56.8571 96.362L54.3231 96.4088C53.4604 96.4388 53.3171 95.9548 52.8244 95.7066L52.33 96.8614C52.7013 97.0167 52.9276 97.6542 54.1686 97.626L57.1043 97.5792L57.3223 101.897L57.3532 97.5792L59.8392 97.548L59.8083 96.3464L57.676 96.284L57.5215 89.1992L58.3713 84.4709L58.5413 78.9467L59.9628 76.6215C62.6734 75.1561 65.2838 74.9554 68.9708 74.6552C71.8897 74.8076 74.0137 75.0842 76.7427 75.3731C79.0895 75.7633 81.0431 76.3466 82.5677 77.1521C83.5816 77.0731 85.4516 79.7736 85.3953 80.8973C85.3186 82.4281 85.8123 86.9207 85.5652 86.6088C85.5992 86.7806 84.9455 92.4211 84.8545 93.0225C84.577 94.8564 83.7056 97.0547 83.0158 98.0318C82.584 98.6433 80.5 100.867 79.1221 101.059C79.1221 101.059 72.5011 102.646 71.7983 102.838C71.1461 103.016 64.5182 104.28 63.1457 104.617C61.1783 105.1 58.0068 105.871 56.7799 105.866C56.7799 105.866 46.1746 106.856 44.249 107.114C40.2885 107.645 40.1248 109.59 40 110.719C56.4149 106.962 104.197 106.1 117.178 110.329C120.769 111.498 118.245 108.444 116.467 107.832C114.602 107.189 113.478 106.908 110.457 105.507C107.435 104.106 105.722 102.521 104.276 101.059C102.831 99.5973 102.03 98.231 100.924 96.0655C99.8173 93.9 99.3864 92.969 98.8068 90.1824C98.2272 87.3957 98.4514 81.6151 98.4514 81.6151C98.488 79.6261 98.9191 78.1353 99.3321 76.6215C99.4464 76.1626 99.5713 75.6934 99.6875 75.2326L99.8111 74.7333C100.065 73.7543 100.353 72.7544 100.754 71.6278L101.804 70.0205C102.891 71.0628 103.589 72.5076 103.581 74.6552C102.501 75.5642 101.14 75.0791 99.8111 74.7333L99.6875 75.2326C100.052 76.3149 100.643 77.1011 101.634 77.3393C102.289 78.0968 103.259 78.2191 104.462 77.8699C105.424 77.6524 105.992 77.0309 106.409 76.2626C107.347 75.7198 107.364 73.3273 107.815 71.7995C108.348 65.8059 108.09 59.4201 106.934 52.9017C106.609 51.0343 105.922 50.2554 105.343 49.1564C104.967 49.0708 104.59 49.0059 104.215 49.0004ZM53.7494 56.2972C57.0464 59.0802 61.0292 61.2474 65.5684 62.4214C66.1686 62.6755 66.5712 63.355 65.3628 63.096C60.8578 62.0408 56.2182 59.5127 53.2612 56.8941C52.9627 56.543 53.2406 56.2007 53.7494 56.2972ZM92.7175 59.03C93.9757 57.6735 95.3652 57.3967 97.4412 58.0391C98.7041 58.43 99.3843 59.5214 98.8765 59.397C98.3686 59.2726 98.0809 58.9035 97.0778 58.5529C94.9673 57.8151 93.5298 59.1151 93.2262 59.3235C92.6266 59.7352 92.676 59.0008 92.7175 59.03ZM96.8498 83.2521C96.7503 81.9468 96.8749 78.6605 98.1573 75.0346C98.8985 72.9393 99.9298 72.3183 99.5199 73.1154C99.1099 73.9124 98.9206 73.9613 98.409 75.6485C97.1594 79.77 97.326 82.2958 97.3107 83.2592C97.2954 84.2226 96.9493 84.5574 96.8498 83.2521ZM106.063 57.8532C107.089 62.7787 106.862 65.822 106.121 70.2865C106.093 70.9432 105.481 71.492 105.303 70.2574C105.848 65.6743 105.946 62.3133 105.449 57.8355C105.672 57.431 105.976 57.3377 106.063 57.8532Z" fill="#5C67CF"/>
</g>
<defs>
<filter id="filter0_dddd" x="34" y="43" width="91" height="73.7188" filterUnits="userSpaceOnUse" color-interpolation-filters="sRGB">
<feFlood flood-opacity="0" result="BackgroundImageFix"/>
<feColorMatrix in="SourceAlpha" type="matrix" values="0 0 0 0 0 0 0 0 0 0 0 0 0 0 0 0 0 0 127 0"/>
<feOffset dy="2"/>
<feGaussianBlur stdDeviation="0.5"/>
<feColorMatrix type="matrix" values="0 0 0 0 1 0 0 0 0 1 0 0 0 0 1 0 0 0 0.16 0"/>
<feBlend mode="normal" in2="BackgroundImageFix" result="effect1_dropShadow"/>
<feColorMatrix in="SourceAlpha" type="matrix" values="0 0 0 0 0 0 0 0 0 0 0 0 0 0 0 0 0 0 127 0"/>
<feOffset/>
<feGaussianBlur stdDeviation="1.5"/>
<feColorMatrix type="matrix" values="0 0 0 0 1 0 0 0 0 1 0 0 0 0 1 0 0 0 0.5 0"/>
<feBlend mode="normal" in2="effect1_dropShadow" result="effect2_dropShadow"/>
<feColorMatrix in="SourceAlpha" type="matrix" values="0 0 0 0 0 0 0 0 0 0 0 0 0 0 0 0 0 0 127 0"/>
<feOffset/>
<feGaussianBlur stdDeviation="3"/>
<feColorMatrix type="matrix" values="0 0 0 0 1 0 0 0 0 1 0 0 0 0 1 0 0 0 0.5 0"/>
<feBlend mode="normal" in2="effect2_dropShadow" result="effect3_dropShadow"/>
<feColorMatrix in="SourceAlpha" type="matrix" values="0 0 0 0 0 0 0 0 0 0 0 0 0 0 0 0 0 0 127 0"/>
<feOffset/>
<feGaussianBlur stdDeviation="2"/>
<feColorMatrix type="matrix" values="0 0 0 0 1 0 0 0 0 1 0 0 0 0 1 0 0 0 0.64 0"/>
<feBlend mode="normal" in2="effect3_dropShadow" result="effect4_dropShadow"/>
<feBlend mode="normal" in="SourceGraphic" in2="effect4_dropShadow" result="shape"/>
</filter>
</defs>
</svg>
