<svg width="160" height="160" viewBox="0 0 160 160" fill="none" xmlns="http://www.w3.org/2000/svg">
<rect width="160" height="160" rx="7" fill="#8CA7F0"/>
<g filter="url(#filter0_dddd)">
<path fill-rule="evenodd" clip-rule="evenodd" d="M41.9403 52C40.465 52 39.2773 53.1877 39.2773 54.663V55.5575C38.8057 55.848 38.3697 56.1904 37.9771 56.5769C37.9635 56.5903 37.949 56.605 37.9355 56.6186C36.5068 57.7199 35.4067 59.2204 34.8877 61.0916L26.5556 91.1331C24.9781 96.8195 26.7173 103.194 32.3182 105.051L41.1912 107.984C46.7924 109.842 52.5683 107.553 55.0988 102.222L62.0994 87.482H97.4034L104.404 102.222C106.934 107.553 112.71 109.842 118.312 107.984L127.185 105.051C132.786 103.194 134.525 96.8191 132.947 91.1331L124.615 61.0923C123.857 58.3575 121.869 56.4155 119.403 55.3713V54.6639C119.403 53.1887 118.215 52.001 116.74 52.001H101.241C99.8293 52.001 98.685 53.0907 98.5882 54.4767H60.1019C60.0053 53.0905 58.8599 52.001 57.4486 52.001H41.9389L41.9403 52ZM113.408 69.0451C114.344 68.1087 114.87 66.8387 114.87 65.5145C114.87 64.1903 114.344 62.9203 113.408 61.9839C112.471 61.0475 111.201 60.5215 109.877 60.5215C108.553 60.5215 107.283 61.0475 106.346 61.9839C105.41 62.9203 104.884 64.1903 104.884 65.5145C104.884 66.8387 105.41 68.1087 106.346 69.0451C107.283 69.9815 108.553 70.5075 109.877 70.5075C111.201 70.5075 112.471 69.9815 113.408 69.0451ZM113.408 86.1612C114.344 85.2248 114.87 83.9549 114.87 82.6306C114.87 81.3064 114.344 80.0364 113.408 79.1C112.471 78.1636 111.201 77.6376 109.877 77.6376C108.553 77.6376 107.283 78.1636 106.346 79.1C105.41 80.0364 104.884 81.3064 104.884 82.6306C104.884 83.9549 105.41 85.2248 106.346 86.1612C107.283 87.0976 108.553 87.6237 109.877 87.6237C111.201 87.6237 112.471 87.0976 113.408 86.1612ZM114.908 70.5586C113.971 71.495 113.445 72.7649 113.445 74.0892C113.445 75.4134 113.971 76.6834 114.908 77.6198C115.844 78.5562 117.114 79.0822 118.438 79.0822C119.763 79.0822 121.033 78.5562 121.969 77.6198C122.905 76.6834 123.431 75.4134 123.431 74.0892C123.431 72.7649 122.905 71.495 121.969 70.5586C121.033 69.6222 119.763 69.0961 118.438 69.0961C117.114 69.0961 115.844 69.6222 114.908 70.5586ZM97.792 70.5586C96.8556 71.495 96.3296 72.7649 96.3296 74.0892C96.3296 75.4134 96.8556 76.6834 97.792 77.6198C98.7284 78.5562 99.9984 79.0822 101.323 79.0822C102.647 79.0822 103.917 78.5562 104.853 77.6198C105.79 76.6834 106.316 75.4134 106.316 74.0892C106.316 72.7649 105.79 71.495 104.853 70.5586C103.917 69.6222 102.647 69.0961 101.323 69.0961C99.9984 69.0961 98.7284 69.6222 97.792 70.5586ZM55.0557 69.6128C55.1639 69.5527 55.2836 69.5162 55.407 69.5056C55.4379 69.504 55.469 69.504 55.5 69.5056L61.5459 69.6219C61.7767 69.6263 61.9965 69.7216 62.1575 69.887C62.3186 70.0524 62.408 70.2747 62.4062 70.5055V77.0398C62.4071 77.156 62.3848 77.2713 62.3407 77.3789C62.2966 77.4865 62.2315 77.5842 62.1493 77.6665C62.0671 77.7487 61.9693 77.8137 61.8617 77.8578C61.7542 77.9019 61.6389 77.9242 61.5226 77.9234L55.4767 77.9001C55.3414 77.8997 55.208 77.868 55.087 77.8075C54.966 77.747 54.8606 77.6593 54.7791 77.5513L52.1747 74.2261C52.0568 74.0727 51.9928 73.8847 51.9928 73.6913C51.9928 73.4978 52.0568 73.3098 52.1747 73.1564L54.7791 69.8544C54.8532 69.7553 54.9475 69.6729 55.0557 69.6128ZM43.4351 69.5462C43.3269 69.4861 43.2072 69.4495 43.0838 69.439C43.0528 69.4373 43.0218 69.4374 42.9908 69.439L36.9449 69.5553C36.7141 69.5597 36.4943 69.6549 36.3332 69.8204C36.1722 69.9858 36.0828 70.208 36.0845 70.4389V76.9731C36.0837 77.0894 36.106 77.2047 36.1501 77.3123C36.1942 77.4198 36.2592 77.5176 36.3415 77.5998C36.4237 77.682 36.5214 77.7471 36.629 77.7912C36.7366 77.8353 36.8519 77.8576 36.9682 77.8567L43.0141 77.8335C43.1494 77.8331 43.2828 77.8014 43.4038 77.7409C43.5248 77.6804 43.6302 77.5927 43.7117 77.4847L46.316 74.1594C46.434 74.0061 46.4979 73.8181 46.4979 73.6246C46.4979 73.4311 46.434 73.2431 46.316 73.0898L43.7117 69.7878C43.6376 69.6886 43.5433 69.6063 43.4351 69.5462ZM53.3128 79.49C53.3729 79.5982 53.4094 79.7179 53.42 79.8412C53.4216 79.8722 53.4216 79.9032 53.42 79.9342L53.3037 85.9801C53.2993 86.2109 53.204 86.4307 53.0386 86.5918C52.8732 86.7528 52.6509 86.8422 52.4201 86.8405H45.8858C45.7696 86.8413 45.6543 86.819 45.5467 86.7749C45.4391 86.7308 45.3414 86.6658 45.2592 86.5836C45.1769 86.5013 45.1119 86.4036 45.0678 86.296C45.0237 86.1884 45.0014 86.0731 45.0022 85.9568L45.0255 79.9109C45.0259 79.7756 45.0576 79.6423 45.1181 79.5212C45.1786 79.4002 45.2663 79.2948 45.3743 79.2133L48.6995 76.6089C48.8529 76.491 49.0409 76.427 49.2344 76.427C49.4278 76.427 49.6159 76.491 49.7692 76.6089L53.0712 79.2133C53.1703 79.2875 53.2527 79.3817 53.3128 79.49ZM53.3825 67.8697C53.4426 67.7614 53.4792 67.6417 53.4897 67.5184C53.4914 67.4874 53.4913 67.4564 53.4897 67.4254L53.3734 61.3795C53.369 61.1487 53.2737 60.9289 53.1083 60.7678C52.9429 60.6068 52.7206 60.5174 52.4898 60.5191H45.9555C45.8393 60.5183 45.724 60.5405 45.6164 60.5847C45.5088 60.6288 45.4111 60.6938 45.3288 60.776C45.2466 60.8583 45.1816 60.956 45.1375 61.0636C45.0934 61.1712 45.0711 61.2865 45.0719 61.4027L45.0952 67.4487C45.0956 67.584 45.1273 67.7173 45.1878 67.8383C45.2483 67.9594 45.336 68.0647 45.444 68.1462L48.7693 70.7506C48.9226 70.8686 49.1106 70.9325 49.3041 70.9325C49.4975 70.9325 49.6856 70.8686 49.8389 70.7506L53.1409 68.1462C53.2401 68.0721 53.3224 67.9779 53.3825 67.8697ZM90.3325 70.1014C90.1931 69.9148 89.9717 69.7919 89.7396 69.772C89.7104 69.7703 89.6809 69.7703 89.6517 69.7719L82.5363 69.8817C82.1058 69.89 81.7202 70.2857 81.7237 70.7163V76.8873C81.7206 77.3251 82.1205 77.7253 82.5583 77.7218L89.6737 77.6999C89.9281 77.6992 90.1793 77.5736 90.3325 77.3705L92.7922 74.2301C93.0129 73.943 93.0129 73.5069 92.7922 73.2199L90.3325 70.1014ZM69.277 70.0381C69.4165 69.8515 69.6378 69.7286 69.8699 69.7087C69.8992 69.707 69.9286 69.707 69.9578 69.7087L77.0732 69.8184C77.5037 69.8267 77.8893 70.2224 77.8858 70.653V76.824C77.889 77.2619 77.4891 77.662 77.0513 77.6585L69.9359 77.6366C69.6814 77.6359 69.4303 77.5103 69.277 77.3072L66.8174 74.1668C66.5966 73.8797 66.5966 73.4436 66.8174 73.1566L69.277 70.0381Z" fill="#5C67CF"/>
</g>
<defs>
<filter id="filter0_dddd" x="20" y="46" width="119.503" height="68.6215" filterUnits="userSpaceOnUse" color-interpolation-filters="sRGB">
<feFlood flood-opacity="0" result="BackgroundImageFix"/>
<feColorMatrix in="SourceAlpha" type="matrix" values="0 0 0 0 0 0 0 0 0 0 0 0 0 0 0 0 0 0 127 0"/>
<feOffset dy="2"/>
<feGaussianBlur stdDeviation="0.5"/>
<feColorMatrix type="matrix" values="0 0 0 0 1 0 0 0 0 1 0 0 0 0 1 0 0 0 0.16 0"/>
<feBlend mode="normal" in2="BackgroundImageFix" result="effect1_dropShadow"/>
<feColorMatrix in="SourceAlpha" type="matrix" values="0 0 0 0 0 0 0 0 0 0 0 0 0 0 0 0 0 0 127 0"/>
<feOffset/>
<feGaussianBlur stdDeviation="1.5"/>
<feColorMatrix type="matrix" values="0 0 0 0 1 0 0 0 0 1 0 0 0 0 1 0 0 0 0.5 0"/>
<feBlend mode="normal" in2="effect1_dropShadow" result="effect2_dropShadow"/>
<feColorMatrix in="SourceAlpha" type="matrix" values="0 0 0 0 0 0 0 0 0 0 0 0 0 0 0 0 0 0 127 0"/>
<feOffset/>
<feGaussianBlur stdDeviation="3"/>
<feColorMatrix type="matrix" values="0 0 0 0 1 0 0 0 0 1 0 0 0 0 1 0 0 0 0.5 0"/>
<feBlend mode="normal" in2="effect2_dropShadow" result="effect3_dropShadow"/>
<feColorMatrix in="SourceAlpha" type="matrix" values="0 0 0 0 0 0 0 0 0 0 0 0 0 0 0 0 0 0 127 0"/>
<feOffset/>
<feGaussianBlur stdDeviation="2"/>
<feColorMatrix type="matrix" values="0 0 0 0 1 0 0 0 0 1 0 0 0 0 1 0 0 0 0.64 0"/>
<feBlend mode="normal" in2="effect3_dropShadow" result="effect4_dropShadow"/>
<feBlend mode="normal" in="SourceGraphic" in2="effect4_dropShadow" result="shape"/>
</filter>
</defs>
</svg>
