<svg width="200" height="240" viewBox="0 0 200 240" fill="none" xmlns="http://www.w3.org/2000/svg">
<rect x="2.4" y="2.4" width="195.2" height="235.2" rx="5.6" fill="#D7E9FF"/>
<rect x="2.4" y="2.4" width="195.2" height="235.2" rx="5.6" fill="url(#paint0_linear)"/>
<rect x="2.4" y="2.4" width="195.2" height="235.2" rx="5.6" stroke="white" stroke-width="4.8"/>
<path d="M82.0915 204.224V209.196C82.0915 209.196 82.5404 209.196 83.4384 209.196C85.3649 209.196 86.3282 208.363 86.3282 206.698C86.3282 205.408 85.7976 204.633 84.7364 204.371C84.3772 204.273 83.9608 204.224 83.4874 204.224H82.0915ZM83.7812 215.122C83.2425 215.041 82.3935 215 81.2343 215C80.0751 215 79.1935 215.041 78.5894 215.122V213.971H79.3241C79.6506 213.971 79.9282 213.939 80.1568 213.873C80.2547 213.661 80.3037 213.343 80.3037 212.918L80.2792 205.253C80.2792 204.812 80.2384 204.494 80.1568 204.298C79.8629 204.249 79.5853 204.224 79.3241 204.224H78.418V203.343C79.5282 203.196 80.7853 203.122 82.1894 203.122C83.6098 203.122 84.6384 203.18 85.2751 203.294C87.2017 203.62 88.1649 204.755 88.1649 206.698C88.1649 209.049 86.5812 210.224 83.4139 210.224C83.0547 210.224 82.6139 210.208 82.0915 210.176V212.869C82.0915 213.327 82.1323 213.661 82.2139 213.873C82.4751 213.939 82.7527 213.971 83.0466 213.971H83.7812V215.122ZM96.7316 204.518C96.5357 204.551 96.3397 204.576 96.1438 204.592C95.9479 204.608 95.5071 204.616 94.8214 204.616C94.152 204.616 93.205 204.486 91.9805 204.224L91.9071 208.143C92.5928 207.816 93.2459 207.653 93.8663 207.653C95.0908 207.653 96.0622 207.996 96.7805 208.682C97.4989 209.367 97.8581 210.282 97.8581 211.424C97.8581 212.567 97.4908 213.506 96.7561 214.241C96.0377 214.959 95.0418 215.318 93.7683 215.318C92.4948 215.318 91.4663 215.09 90.6826 214.633C90.4867 214.518 90.3316 214.404 90.2173 214.29V211.718L91.2214 211.816L91.5887 213.8C92.2418 214.127 92.8622 214.29 93.4499 214.29C94.4295 214.29 95.1234 214.012 95.5316 213.457C95.9561 212.902 96.1683 212.216 96.1683 211.4C96.1683 210.567 95.9152 209.922 95.4091 209.465C94.8867 208.992 94.1846 208.755 93.303 208.755C92.4377 208.755 91.7193 209 91.1479 209.49L90.5846 209.318V203.563C90.7479 203.318 91.0336 203.196 91.4418 203.196H94.8214C95.8826 203.196 96.6826 203.139 97.2214 203.024L97.2703 204.2C97.1234 204.38 96.9438 204.486 96.7316 204.518ZM102.497 214.02C102.497 214.592 102.301 214.976 101.91 215.171C101.763 215.237 101.542 215.269 101.248 215.269C100.971 215.269 100.734 215.155 100.538 214.927C100.359 214.682 100.269 214.42 100.269 214.143C100.269 213.637 100.473 213.286 100.881 213.09C101.028 213.024 101.232 212.992 101.493 212.992C101.771 212.992 102.008 213.106 102.204 213.335C102.399 213.563 102.497 213.792 102.497 214.02ZM106.514 203.343C107.265 203.245 108.196 203.196 109.306 203.196C110.416 203.196 111.224 203.245 111.731 203.343V204.224H110.996C110.653 204.224 110.367 204.257 110.139 204.322C110.041 204.551 110 204.878 110.016 205.302V212.404C110.016 214.363 109.445 215.629 108.302 216.2C107.943 216.38 107.575 216.469 107.2 216.469C106.824 216.469 106.302 216.412 105.633 216.298C104.963 216.184 104.482 216.045 104.188 215.882C104.188 215.865 104.196 215.8 104.212 215.686L104.237 215.22C104.253 215.008 104.269 214.747 104.286 214.437C104.302 214.11 104.326 213.718 104.359 213.261L105.535 213.286C105.567 213.808 105.682 214.478 105.877 215.294C105.992 215.31 106.114 215.335 106.245 215.367C106.375 215.4 106.579 215.416 106.857 215.416C107.412 215.416 107.779 215.155 107.959 214.633C108.139 214.094 108.228 213.253 108.228 212.11V205.302C108.228 204.861 108.179 204.535 108.082 204.322C107.935 204.257 107.657 204.224 107.249 204.224H106.514V203.343ZM115.175 205.155C115.061 205.384 115.004 205.629 115.004 205.89C115.004 206.396 115.192 206.82 115.567 207.163C115.959 207.49 116.481 207.767 117.134 207.996C118.522 208.518 119.575 209.065 120.294 209.637C121.012 210.192 121.371 210.918 121.371 211.816C121.371 213.465 120.53 214.559 118.849 215.098C118.343 215.245 117.853 215.318 117.379 215.318C115.518 215.318 114.057 214.853 112.996 213.922L113.363 211.718L114.612 211.767C114.612 212.633 114.726 213.261 114.955 213.653C115.396 214.094 116.139 214.314 117.183 214.314C117.836 214.314 118.392 214.127 118.849 213.751C119.322 213.376 119.559 212.902 119.559 212.331C119.559 211.449 118.914 210.69 117.624 210.053C117.216 209.857 116.775 209.669 116.302 209.49C115.828 209.31 115.404 209.114 115.028 208.902C113.82 208.233 113.216 207.327 113.216 206.184C113.216 204.731 114.065 203.759 115.763 203.269C116.334 203.106 116.963 203.024 117.649 203.024C118.351 203.024 119.02 203.098 119.657 203.245C120.31 203.392 120.71 203.588 120.857 203.833C120.857 203.882 120.857 203.947 120.857 204.029L120.808 204.347C120.743 204.984 120.669 205.588 120.587 206.159L119.534 206.061C119.534 205.294 119.379 204.763 119.069 204.469C118.775 204.176 118.204 204.029 117.355 204.029C116.245 204.029 115.518 204.404 115.175 205.155Z" fill="white"/>
<path d="M100 107.269L84.8236 127L72.8236 117.839L87.2447 98.0177L64 90.3575L68.9412 75.9119L92.1168 83.0489L92.1168 59L107.883 59L107.883 83.0489L131.412 75.9119L136 90.3575L112.755 98.0177L127.529 117.839L114.824 127L100 107.269Z" fill="#97AAEB"/>
<defs>
<linearGradient id="paint0_linear" x1="100" y1="0" x2="100" y2="240" gradientUnits="userSpaceOnUse">
<stop offset="0.744692" stop-color="#97AAEB" stop-opacity="0"/>
<stop offset="0.744792" stop-color="#4A72DE" stop-opacity="0.126477"/>
<stop offset="0.744892" stop-color="#97AAEB"/>
<stop offset="1" stop-color="#97AAEB"/>
</linearGradient>
</defs>
</svg>
