<svg width="200" height="240" viewBox="0 0 200 240" fill="none" xmlns="http://www.w3.org/2000/svg">
<rect x="2.4" y="2.4" width="195.2" height="235.2" rx="5.6" fill="#D7E9FF"/>
<rect x="2.4" y="2.4" width="195.2" height="235.2" rx="5.6" fill="url(#paint0_linear)"/>
<rect x="2.4" y="2.4" width="195.2" height="235.2" rx="5.6" stroke="white" stroke-width="4.8"/>
<path d="M76.1928 204.273L74.356 204.298V208.412H76.7805C77.303 208.412 77.6377 208.127 77.7846 207.555H78.2009C78.2009 208.6 78.1683 209.563 78.103 210.445H77.5887C77.4581 210.037 77.3275 209.776 77.1968 209.661C77.0662 209.547 76.8458 209.49 76.5356 209.49H74.356V212.869C74.356 213.212 74.3968 213.547 74.4785 213.873C74.7397 213.939 75.0254 213.971 75.3356 213.971H76.0703V215.122L73.4744 215L71.0499 215.098L70.8785 215.122V213.971H71.5887C71.9315 213.971 72.2173 213.939 72.4458 213.873C72.5275 213.661 72.5683 213.376 72.5683 213.016V205.327C72.5683 204.935 72.5275 204.633 72.4458 204.42C72.3315 204.371 72.2091 204.347 72.0785 204.347H70.707V203.465C72.1764 203.286 74.0703 203.196 76.3887 203.196H80.0132C80.0785 203.588 80.1275 203.931 80.1601 204.224C80.1928 204.518 80.2254 204.788 80.2581 205.033C80.307 205.261 80.3315 205.457 80.3315 205.62L79.1315 205.645C79.1315 205.318 79.0581 204.935 78.9111 204.494C78.6173 204.331 77.9479 204.249 76.903 204.249L76.1928 204.273ZM86.8921 215.122C86.3697 215.041 85.5207 215 84.3452 215C83.186 215 82.3044 215.041 81.7003 215.122V213.971H82.4105C82.7207 213.971 83.0064 213.939 83.2676 213.873C83.3656 213.629 83.4064 213.31 83.3901 212.918V205.253C83.3901 204.845 83.3493 204.535 83.2676 204.322C83.088 204.257 82.8023 204.224 82.4105 204.224H81.6758V203.343C82.4268 203.245 83.3574 203.196 84.4676 203.196C85.5942 203.196 86.4023 203.245 86.8921 203.343V204.224H86.1574C85.8146 204.224 85.5289 204.257 85.3003 204.322C85.2187 204.649 85.1778 204.959 85.1778 205.253V212.869C85.1778 213.212 85.2187 213.547 85.3003 213.873C85.5615 213.939 85.8472 213.971 86.1574 213.971H86.8921V215.122ZM98.5772 214.167C97.467 214.935 96.0792 215.318 94.4139 215.318C91.6711 215.318 89.8425 214.216 88.9282 212.012C88.618 211.278 88.4629 210.388 88.4629 209.343C88.4629 207.286 89.0343 205.718 90.1772 204.641C91.3201 203.563 92.8792 203.024 94.8548 203.024C96.1772 203.024 97.3527 203.31 98.3813 203.882L98.1609 206.184H97.1568C96.8792 205.4 96.6099 204.886 96.3486 204.641C95.9241 204.233 95.3609 204.029 94.6588 204.029C93.2384 204.029 92.1772 204.486 91.4752 205.4C90.7894 206.314 90.4466 207.555 90.4466 209.122C90.4466 210.69 90.7894 211.931 91.4752 212.845C92.1772 213.759 93.165 214.216 94.4384 214.216C95.4343 214.216 96.2425 214.061 96.8629 213.751V211.841C96.8629 211.351 96.8221 211 96.7405 210.788C96.5609 210.722 96.2752 210.69 95.8833 210.69H94.9037V209.784C95.0017 209.784 95.2303 209.767 95.5894 209.735C95.965 209.686 96.4466 209.661 97.0343 209.661H98.6262C98.6099 209.922 98.6017 210.143 98.6017 210.322L98.5772 211.082V214.167ZM116.359 215.122C115.787 215.041 114.93 215 113.787 215C112.661 215 111.812 215.041 111.24 215.122L111.142 213.971H111.804C112.195 213.971 112.432 213.931 112.514 213.849C112.612 213.767 112.661 213.629 112.661 213.433C112.661 213.22 112.652 212.951 112.636 212.624C112.636 212.282 112.62 211.906 112.587 211.498C112.555 211.073 112.506 210.461 112.44 209.661C112.391 208.845 112.285 207.359 112.122 205.204C109.967 211.229 108.783 214.494 108.571 215H107.028C106.701 214.135 106.31 213.041 105.852 211.718C105.412 210.38 105.044 209.294 104.75 208.461C104.473 207.612 104.122 206.551 103.697 205.278C103.355 210.42 103.183 213.106 103.183 213.335C103.183 213.547 103.24 213.71 103.355 213.824C103.469 213.922 103.697 213.971 104.04 213.971H104.677L104.604 215.122C104.032 215.041 103.191 215 102.081 215C100.971 215 100.13 215.041 99.5586 215.122L99.7545 213.971H100.563C100.873 213.971 101.159 213.939 101.42 213.873C101.632 213.449 101.755 213.114 101.787 212.869C101.82 212.608 101.861 212.265 101.91 211.841C101.959 211.4 101.999 210.935 102.032 210.445C102.081 209.955 102.122 209.457 102.155 208.951C102.187 208.445 102.22 207.971 102.252 207.531C102.301 207.073 102.334 206.665 102.35 206.306C102.367 205.947 102.383 205.669 102.399 205.473C102.432 205.261 102.448 205.09 102.448 204.959C102.448 204.829 102.432 204.722 102.399 204.641C102.383 204.543 102.367 204.453 102.35 204.371C102.122 204.273 101.828 204.224 101.469 204.224H100.612V203.343C100.775 203.327 100.987 203.302 101.248 203.269C101.526 203.22 101.999 203.196 102.669 203.196C103.355 203.196 104.016 203.245 104.652 203.343C105.208 204.682 105.795 206.331 106.416 208.29C107.052 210.249 107.477 211.539 107.689 212.159C107.918 212.78 108.032 213.114 108.032 213.163C108.783 210.845 109.501 208.739 110.187 206.845C110.889 204.951 111.314 203.784 111.461 203.343C112.146 203.245 112.759 203.196 113.297 203.196L115.281 203.318L115.355 203.343L115.428 204.224H114.718C114.293 204.224 114.008 204.282 113.861 204.396C113.844 204.494 113.828 204.624 113.812 204.788L114.448 212.918C114.465 213.229 114.538 213.547 114.669 213.873C114.995 213.939 115.355 213.971 115.746 213.971H116.187L116.359 215.122ZM123.116 204.69L121.059 210.69H125.222L123.189 204.69H123.116ZM121.059 215.122C120.667 215.041 120.014 215 119.099 215C118.185 215 117.475 215.041 116.969 215.122L117.214 213.971H117.581C117.875 213.971 118.136 213.939 118.365 213.873C118.593 213.563 118.748 213.286 118.83 213.041C118.928 212.78 119.042 212.461 119.173 212.086C119.32 211.71 119.491 211.278 119.687 210.788C119.883 210.298 120.087 209.767 120.299 209.196C120.528 208.624 120.757 208.061 120.985 207.506L122.699 203.196H123.459C123.85 203.196 124.177 203.245 124.438 203.343L128.063 212.869C128.259 213.343 128.422 213.678 128.552 213.873C128.814 213.939 129.075 213.971 129.336 213.971H129.703L129.948 215.122C129.491 215.041 128.993 215 128.454 215H127.303C126.601 215 126.005 215.041 125.516 215.122L125.344 213.971H125.491C125.785 213.971 126.063 213.939 126.324 213.873C126.324 213.629 126.242 213.31 126.079 212.918L125.516 211.547H120.789L120.348 212.869C120.218 213.261 120.152 213.571 120.152 213.8C120.152 213.914 120.357 213.971 120.765 213.971H121.132L121.059 215.122Z" fill="white"/>
<path d="M83.4973 136.278C91.4999 136.278 97.9947 129.761 97.9947 121.731V107.185H83.4973C75.4948 107.185 69 113.702 69 121.731C69 129.761 75.4948 136.278 83.4973 136.278Z" fill="#77D283"/>
<path d="M69 92.6388C69 84.6093 75.4948 78.0925 83.4973 78.0925H97.9947V107.185H83.4973C75.4948 107.185 69 100.668 69 92.6388Z" fill="#A466FE"/>
<path d="M69 63.5463C69 55.5167 75.4948 49 83.4973 49H97.9947V78.0926H83.4973C75.4948 78.0926 69 71.5758 69 63.5463Z" fill="#E3501D"/>
<path d="M97.9946 49H112.492C120.495 49 126.989 55.5167 126.989 63.5463C126.989 71.5758 120.495 78.0926 112.492 78.0926H97.9946V49Z" fill="#E56B61"/>
<path d="M126.989 92.6388C126.989 100.668 120.495 107.185 112.492 107.185C104.489 107.185 97.9946 100.668 97.9946 92.6388C97.9946 84.6093 104.489 78.0925 112.492 78.0925C120.495 78.0925 126.989 84.6093 126.989 92.6388Z" fill="#5BBEFE"/>
<defs>
<linearGradient id="paint0_linear" x1="100" y1="0" x2="100" y2="240" gradientUnits="userSpaceOnUse">
<stop offset="0.744692" stop-color="#97AAEB" stop-opacity="0"/>
<stop offset="0.744792" stop-color="#4A72DE" stop-opacity="0.126477"/>
<stop offset="0.744892" stop-color="#97AAEB"/>
<stop offset="1" stop-color="#97AAEB"/>
</linearGradient>
</defs>
</svg>
