<svg width="200" height="240" viewBox="0 0 200 240" fill="none" xmlns="http://www.w3.org/2000/svg">
<rect x="2.4" y="2.4" width="195.2" height="235.2" rx="5.6" fill="#97AAEB" stroke="white" stroke-width="4.8"/>
<path d="M78.7954 203.343C79.4484 203.245 80.3301 203.196 81.4403 203.196C82.5668 203.196 83.3995 203.245 83.9382 203.343L84.0362 204.224H83.4484C83.1382 204.224 82.8688 204.257 82.6403 204.322C82.6566 204.453 82.6893 204.592 82.7382 204.739C82.8035 204.886 82.877 205.073 82.9586 205.302L85.5301 213.237H85.6035C85.6852 213.024 85.7586 212.804 85.8239 212.576C85.9056 212.331 85.9872 212.069 86.0688 211.792C86.1668 211.514 86.2729 211.196 86.3872 210.837C86.5015 210.478 86.6239 210.069 86.7546 209.612C86.8852 209.139 87.0321 208.6 87.1954 207.996C87.3586 207.392 87.5219 206.78 87.6852 206.159C87.8648 205.539 88.0035 204.673 88.1015 203.563H89.1056C89.3831 203.563 89.5709 203.653 89.6688 203.833C89.7015 203.882 89.7342 203.939 89.7668 204.004L92.7546 213.286H92.828C93.0566 212.518 93.2607 211.833 93.4403 211.229C93.6362 210.608 93.8076 210.053 93.9546 209.563C94.1015 209.057 94.2321 208.608 94.3464 208.216C94.4607 207.808 94.6403 207.171 94.8852 206.306C95.1464 205.441 95.277 204.918 95.277 204.739V204.42C95.277 204.388 95.2688 204.355 95.2525 204.322C95.1056 204.257 94.8362 204.224 94.4444 204.224H93.8811L93.8321 203.343C94.4852 203.245 95.277 203.196 96.2076 203.196C97.1382 203.196 97.8076 203.245 98.2158 203.343L98.0933 204.224H97.677C97.3831 204.224 97.0893 204.257 96.7954 204.322C96.6484 204.633 96.5015 205.057 96.3546 205.596C95.4893 208.878 94.4688 212.012 93.2933 215H91.9219C91.7097 215 91.5872 214.967 91.5546 214.902C91.4403 214.706 91.3668 214.551 91.3342 214.437C91.3178 214.306 91.2933 214.224 91.2607 214.192L88.8362 206.747C88.0362 209.718 87.1219 212.469 86.0933 215H84.7709C84.4607 215 84.2648 214.878 84.1831 214.633L81.0239 205.302C80.9423 205.09 80.8525 204.91 80.7546 204.763C80.6566 204.6 80.5668 204.453 80.4852 204.322C80.3056 204.257 80.0117 204.224 79.6035 204.224H78.9913L78.7954 203.343ZM98.9727 203.465C99.9359 203.286 101.34 203.196 103.185 203.196H108.205L108.426 204.273C108.442 204.404 108.483 204.608 108.548 204.886C108.613 205.163 108.646 205.408 108.646 205.62L107.446 205.645L107.397 205.253C107.365 205.024 107.299 204.771 107.201 204.494C106.875 204.331 106.173 204.249 105.095 204.249L104.36 204.273L102.548 204.298V208.461H105.34C105.732 208.461 106.001 208.322 106.148 208.045C106.213 207.947 106.279 207.784 106.344 207.555H106.76C106.76 208.6 106.728 209.563 106.662 210.445H106.148C105.969 209.89 105.732 209.563 105.438 209.465C105.34 209.433 105.218 209.416 105.071 209.416H102.548V213.971H106.32C106.94 213.971 107.332 213.873 107.495 213.678C107.593 213.4 107.675 212.951 107.74 212.331C108.083 212.331 108.426 212.331 108.769 212.331V213.286C108.769 213.547 108.752 213.824 108.72 214.118C108.703 214.396 108.687 214.633 108.671 214.829C108.116 214.992 107.552 215.082 106.981 215.098C106.426 215.114 105.92 215.122 105.462 215.122L101.667 215C100.491 215 99.6257 215.041 99.0706 215.122V213.971H99.8053C100.132 213.971 100.409 213.939 100.638 213.873C100.736 213.661 100.777 213.343 100.76 212.918V205.376C100.76 204.935 100.72 204.616 100.638 204.42C100.54 204.371 100.426 204.347 100.295 204.347H98.9727V203.465ZM115.789 213.971C117.601 213.971 118.508 213.253 118.508 211.816C118.508 211.016 118.263 210.42 117.773 210.029C117.299 209.62 116.532 209.416 115.471 209.416C115.471 209.416 115.071 209.416 114.271 209.416C113.993 209.416 113.822 209.424 113.757 209.441V213.971H115.789ZM113.757 208.388C114.442 208.437 114.965 208.461 115.324 208.461C116.173 208.461 116.867 208.282 117.406 207.922C117.961 207.563 118.238 207.016 118.238 206.282C118.238 205.188 117.716 204.518 116.671 204.273C116.312 204.176 115.871 204.127 115.348 204.127L114.222 204.176L113.757 204.2V208.388ZM116.304 214.976C115.552 214.992 114.646 215 113.585 215C112.524 215 111.406 215.041 110.23 215.122V213.971H110.94C111.283 213.971 111.569 213.939 111.797 213.873C111.895 213.661 111.936 213.343 111.92 212.918V205.547C111.92 205.041 111.879 204.641 111.797 204.347C111.601 204.314 111.381 204.298 111.136 204.298L110.059 204.347V203.416C111.691 203.204 113.585 203.098 115.74 203.098C118.614 203.098 120.05 204.143 120.05 206.233C120.05 206.869 119.822 207.441 119.365 207.947C118.924 208.453 118.336 208.755 117.601 208.853C119.446 209.098 120.361 210.069 120.344 211.767C120.344 213.155 119.74 214.069 118.532 214.51C117.797 214.788 117.055 214.943 116.304 214.976Z" fill="white"/>
<rect x="68.9521" y="83" width="61.9266" height="49.1081" fill="white" stroke="white" stroke-width="2" stroke-linecap="round" stroke-linejoin="round"/>
<path d="M72.8364 108.676H126.674V86.5637H113.215H106.485H99.7553H93.0256H86.2959H72.8364V108.676Z" fill="#97AAEB"/>
<path d="M58 138.776C57.7036 138.776 57.4225 138.907 57.2325 139.135C57.0425 139.362 56.9632 139.662 57.016 139.954L57.4967 142.61C57.5828 143.086 57.9971 143.432 58.4807 143.432H140.359C140.821 143.432 141.223 143.116 141.331 142.667L141.972 140.011C142.044 139.713 141.975 139.398 141.786 139.157C141.596 138.917 141.307 138.776 141 138.776H120.25H109.875C109.524 138.776 109.2 138.96 109.019 139.259H89.9809C89.8001 138.96 89.4756 138.776 89.125 138.776H78.75H58Z" fill="white" stroke="white" stroke-width="2" stroke-linecap="round" stroke-linejoin="round"/>
<rect x="101.678" y="111.88" width="24.9961" height="16.3436" fill="#D7E9FF"/>
<rect x="72.8364" y="111.88" width="25.6371" height="16.3436" fill="#97AAEB"/>
<path d="M84.0269 116.814C84.6602 115.652 86.3278 115.652 86.9611 116.814V116.814C87.2015 117.254 87.6272 117.564 88.1206 117.656V117.656C89.4208 117.9 89.9361 119.485 89.0273 120.447V120.447C88.6825 120.811 88.5198 121.312 88.5844 121.81V121.81C88.7546 123.122 87.4056 124.102 86.2106 123.534V123.534C85.7571 123.319 85.2309 123.319 84.7774 123.534V123.534C83.5824 124.102 82.2334 123.122 82.4036 121.81V121.81C82.4682 121.312 82.3055 120.811 81.9607 120.447V120.447C81.0519 119.485 81.5672 117.9 82.8674 117.656V117.656C83.3608 117.564 83.7866 117.254 84.0269 116.814V116.814Z" fill="#D7E9FF"/>
</svg>
