<svg width="200" height="240" viewBox="0 0 200 240" fill="none" xmlns="http://www.w3.org/2000/svg">
<rect x="2.4" y="2.4" width="195.2" height="235.2" rx="5.6" fill="#97AAEB" stroke="white" stroke-width="4.8"/>
<path d="M72.0289 60.2C72.0289 64.181 73.3908 66.1714 76.1146 66.1714C78.8384 66.1714 80.2003 64.1714 80.2003 60.1714C80.2003 58.1905 79.848 56.6952 79.1432 55.6857C78.4194 54.6952 77.4099 54.2 76.1146 54.2C74.1527 54.2 72.886 55.3238 72.3146 57.5714C72.1241 58.3143 72.0289 59.1905 72.0289 60.2ZM80.7718 54.9429C81.9337 56.2 82.5146 57.9429 82.5146 60.1714C82.5146 62.381 81.9432 64.1333 80.8003 65.4286C79.6575 66.7238 78.0956 67.3714 76.1146 67.3714C74.1527 67.3714 72.5908 66.7238 71.4289 65.4286C70.286 64.1333 69.7146 62.381 69.7146 60.1714C69.7146 57.9429 70.286 56.2 71.4289 54.9429C72.5908 53.6667 74.1527 53.0286 76.1146 53.0286C78.0765 53.0286 79.6289 53.6667 80.7718 54.9429ZM88.6419 54.4286V60.2286C88.6419 60.2286 89.1657 60.2286 90.2133 60.2286C92.4609 60.2286 93.5847 59.2571 93.5847 57.3143C93.5847 55.8095 92.9657 54.9048 91.7276 54.6C91.3085 54.4857 90.8228 54.4286 90.2704 54.4286H88.6419ZM90.6133 67.1429C89.9847 67.0476 88.9942 67 87.6419 67C86.2895 67 85.2609 67.0476 84.5561 67.1429V65.8H85.4133C85.7942 65.8 86.118 65.7619 86.3847 65.6857C86.499 65.4381 86.5561 65.0667 86.5561 64.5714L86.5276 55.6286C86.5276 55.1143 86.4799 54.7429 86.3847 54.5143C86.0419 54.4571 85.718 54.4286 85.4133 54.4286H84.3561V53.4C85.6514 53.2286 87.118 53.1429 88.7561 53.1429C90.4133 53.1429 91.6133 53.2095 92.3561 53.3429C94.6038 53.7238 95.7276 55.0476 95.7276 57.3143C95.7276 60.0571 93.8799 61.4286 90.1847 61.4286C89.7657 61.4286 89.2514 61.4095 88.6419 61.3714V64.5143C88.6419 65.0476 88.6895 65.4381 88.7847 65.6857C89.0895 65.7619 89.4133 65.8 89.7561 65.8H90.6133V67.1429ZM97.2077 53.5429C98.3315 53.3333 99.9696 53.2286 102.122 53.2286H107.979L108.236 54.4857C108.255 54.6381 108.303 54.8762 108.379 55.2C108.455 55.5238 108.493 55.8095 108.493 56.0571L107.093 56.0857L107.036 55.6286C106.998 55.3619 106.922 55.0667 106.808 54.7429C106.427 54.5524 105.608 54.4571 104.351 54.4571L103.493 54.4857L101.379 54.5143V59.3714H104.636C105.093 59.3714 105.408 59.2095 105.579 58.8857C105.655 58.7714 105.732 58.581 105.808 58.3143H106.293C106.293 59.5333 106.255 60.6571 106.179 61.6857H105.579C105.37 61.0381 105.093 60.6571 104.751 60.5429C104.636 60.5048 104.493 60.4857 104.322 60.4857H101.379V65.8H105.779C106.503 65.8 106.96 65.6857 107.151 65.4571C107.265 65.1333 107.36 64.6095 107.436 63.8857C107.836 63.8857 108.236 63.8857 108.636 63.8857V65C108.636 65.3048 108.617 65.6286 108.579 65.9714C108.56 66.2952 108.541 66.5714 108.522 66.8C107.874 66.9905 107.217 67.0952 106.551 67.1143C105.903 67.1333 105.312 67.1429 104.779 67.1429L100.351 67C98.9791 67 97.9696 67.0476 97.322 67.1429V65.8H98.1791C98.5601 65.8 98.8839 65.7619 99.1506 65.6857C99.2648 65.4381 99.3125 65.0667 99.2934 64.5714V55.7714C99.2934 55.2571 99.2458 54.8857 99.1506 54.6571C99.0363 54.6 98.9029 54.5714 98.7506 54.5714H97.2077V53.5429ZM115.913 67.1429C115.341 67.0476 114.437 67 113.198 67C111.979 67 111.037 67.0476 110.37 67.1429V65.8H111.227C111.608 65.8 111.932 65.7619 112.198 65.6857C112.313 65.4381 112.37 65.0667 112.37 64.5714L112.341 55.6857C112.341 55.1714 112.294 54.7905 112.198 54.5429C111.989 54.4667 111.656 54.4286 111.198 54.4286H110.141V53.4C111.627 53.2857 112.617 53.2286 113.113 53.2286C113.608 53.2286 114.065 53.2762 114.484 53.3714C117.475 58 119.789 61.6952 121.427 64.4571L121.284 56.7714V55.6857C121.284 55.1714 121.237 54.7905 121.141 54.5429C120.837 54.4667 120.503 54.4286 120.141 54.4286H119.17V53.4C120.008 53.2857 121.027 53.2286 122.227 53.2286C123.446 53.2286 124.294 53.2857 124.77 53.4V54.4286H124.027C123.627 54.4286 123.294 54.4667 123.027 54.5429C122.932 54.7905 122.884 55.2667 122.884 55.9714C122.884 56.6571 122.875 57.4952 122.856 58.4857C122.837 59.4571 122.817 60.4476 122.798 61.4571C122.779 62.4667 122.751 63.4571 122.713 64.4286C122.675 65.4 122.646 66.3048 122.627 67.1429H121.627C121.322 67.1429 121.037 67.0762 120.77 66.9429L113.798 55.8857C113.875 57.3333 113.913 59.1524 113.913 61.3429C113.913 63.5333 113.922 64.7714 113.941 65.0571C113.979 65.3238 114.027 65.5333 114.084 65.6857C114.389 65.7619 114.713 65.8 115.056 65.8H115.913V67.1429ZM95.7619 113.4L95.6477 116.771H94.4477C94.4477 115.705 94.3429 114.924 94.1334 114.429H90.6191V124.514C90.6191 124.99 90.6572 125.381 90.7334 125.686C91.0381 125.762 91.381 125.8 91.7619 125.8H92.6191V127.143C92.0096 127.048 91.0191 127 89.6477 127C88.2762 127 87.2381 127.048 86.5334 127.143V125.8H87.3905C87.7715 125.8 88.0953 125.762 88.3619 125.686C88.4572 125.438 88.5048 125.105 88.5048 124.686V114.429H84.9905C84.781 114.81 84.6762 115.59 84.6762 116.771H83.3619L83.2477 113.4C83.4762 113.286 84.2286 113.229 85.5048 113.229L87.5334 113.286H88.4477L89.6762 113.314L91.0762 113.286C91.3429 113.286 91.6096 113.286 91.8762 113.286L93.4762 113.229C94.7715 113.229 95.5334 113.286 95.7619 113.4ZM99.5094 120.2C99.5094 124.181 100.871 126.171 103.595 126.171C106.319 126.171 107.681 124.171 107.681 120.171C107.681 118.19 107.328 116.695 106.624 115.686C105.9 114.695 104.89 114.2 103.595 114.2C101.633 114.2 100.367 115.324 99.7951 117.571C99.6046 118.314 99.5094 119.19 99.5094 120.2ZM108.252 114.943C109.414 116.2 109.995 117.943 109.995 120.171C109.995 122.381 109.424 124.133 108.281 125.429C107.138 126.724 105.576 127.371 103.595 127.371C101.633 127.371 100.071 126.724 98.9094 125.429C97.7665 124.133 97.1951 122.381 97.1951 120.171C97.1951 117.943 97.7665 116.2 98.9094 114.943C100.071 113.667 101.633 113.029 103.595 113.029C105.557 113.029 107.109 113.667 108.252 114.943ZM66.8042 173.4C67.5661 173.286 68.5947 173.229 69.89 173.229C71.2042 173.229 72.1757 173.286 72.8042 173.4L72.9185 174.429H72.2328C71.8709 174.429 71.5566 174.467 71.29 174.543C71.309 174.695 71.3471 174.857 71.4042 175.029C71.4804 175.2 71.5661 175.419 71.6614 175.686L74.6614 184.943H74.7471C74.8423 184.695 74.9281 184.438 75.0042 184.171C75.0995 183.886 75.1947 183.581 75.29 183.257C75.4042 182.933 75.5281 182.562 75.6614 182.143C75.7947 181.724 75.9376 181.248 76.09 180.714C76.2423 180.162 76.4138 179.533 76.6042 178.829C76.7947 178.124 76.9852 177.41 77.1757 176.686C77.3852 175.962 77.5471 174.952 77.6614 173.657H78.8328C79.1566 173.657 79.3757 173.762 79.49 173.971C79.5281 174.029 79.5661 174.095 79.6042 174.171L83.09 185H83.1757C83.4423 184.105 83.6804 183.305 83.89 182.6C84.1185 181.876 84.3185 181.229 84.49 180.657C84.6614 180.067 84.8138 179.543 84.9471 179.086C85.0804 178.61 85.29 177.867 85.5757 176.857C85.8804 175.848 86.0328 175.238 86.0328 175.029V174.657C86.0328 174.619 86.0233 174.581 86.0042 174.543C85.8328 174.467 85.5185 174.429 85.0614 174.429H84.4042L84.3471 173.4C85.109 173.286 86.0328 173.229 87.1185 173.229C88.2042 173.229 88.9852 173.286 89.4614 173.4L89.3185 174.429H88.8328C88.49 174.429 88.1471 174.467 87.8042 174.543C87.6328 174.905 87.4614 175.4 87.29 176.029C86.2804 179.857 85.09 183.514 83.7185 187H82.1185C81.8709 187 81.728 186.962 81.69 186.886C81.5566 186.657 81.4709 186.476 81.4328 186.343C81.4138 186.19 81.3852 186.095 81.3471 186.057L78.5185 177.371C77.5852 180.838 76.5185 184.048 75.3185 187H73.7757C73.4138 187 73.1852 186.857 73.09 186.571L69.4042 175.686C69.309 175.438 69.2042 175.229 69.09 175.057C68.9757 174.867 68.8709 174.695 68.7757 174.543C68.5661 174.467 68.2233 174.429 67.7471 174.429H67.0328L66.8042 173.4ZM93.0016 180.2C93.0016 184.181 94.3635 186.171 97.0873 186.171C99.8111 186.171 101.173 184.171 101.173 180.171C101.173 178.19 100.821 176.695 100.116 175.686C99.392 174.695 98.3825 174.2 97.0873 174.2C95.1254 174.2 93.8587 175.324 93.2873 177.571C93.0968 178.314 93.0016 179.19 93.0016 180.2ZM101.744 174.943C102.906 176.2 103.487 177.943 103.487 180.171C103.487 182.381 102.916 184.133 101.773 185.429C100.63 186.724 99.0682 187.371 97.0873 187.371C95.1254 187.371 93.5635 186.724 92.4016 185.429C91.2587 184.133 90.6873 182.381 90.6873 180.171C90.6873 177.943 91.2587 176.2 92.4016 174.943C93.5635 173.667 95.1254 173.029 97.0873 173.029C99.0492 173.029 100.602 173.667 101.744 174.943ZM111.329 180.029C113.576 180.029 114.7 179.086 114.7 177.2C114.7 176.171 114.424 175.457 113.872 175.057C113.319 174.638 112.395 174.429 111.1 174.429H109.615V180.029C110.186 180.029 110.757 180.029 111.329 180.029ZM111.586 187.143C110.957 187.048 109.967 187 108.615 187C107.262 187 106.234 187.048 105.529 187.143V185.8H106.386C106.767 185.8 107.091 185.762 107.357 185.686C107.472 185.438 107.529 185.067 107.529 184.571L107.5 175.571C107.5 175.114 107.453 174.762 107.357 174.514C107.167 174.457 106.872 174.429 106.472 174.429H105.329V173.4C105.538 173.381 105.786 173.352 106.072 173.314C106.357 173.276 106.662 173.257 106.986 173.257C107.329 173.238 107.672 173.219 108.015 173.2C108.376 173.181 108.795 173.171 109.272 173.171H111.157C113.005 173.171 114.415 173.476 115.386 174.086C116.357 174.676 116.843 175.686 116.843 177.114C116.843 178.943 115.929 180.181 114.1 180.829C114.386 182.448 115.186 183.857 116.5 185.057C117.034 185.552 117.491 185.8 117.872 185.8H118.386V187.143H116.957C115.91 187.143 115.005 186.771 114.243 186.029C113.71 185.476 113.253 184.657 112.872 183.571C112.7 183.114 112.567 182.686 112.472 182.286C112.395 181.867 112.319 181.495 112.243 181.171C111.805 181.171 111.367 181.171 110.929 181.171C110.491 181.171 110.053 181.162 109.615 181.143V184.514C109.615 185.048 109.662 185.438 109.757 185.686C110.062 185.762 110.386 185.8 110.729 185.8H111.586V187.143ZM119.11 173.4C119.986 173.286 121.072 173.229 122.367 173.229C123.681 173.229 124.624 173.286 125.196 173.4V174.429H124.339C123.939 174.429 123.605 174.467 123.339 174.543C123.243 174.924 123.196 175.305 123.196 175.686V184.571C123.196 185.048 123.243 185.419 123.339 185.686C123.643 185.762 123.977 185.8 124.339 185.8H125.196V187.143C124.339 187.048 123.32 187 122.139 187C120.786 187 119.786 187.048 119.139 187.143V185.8H119.996C120.377 185.8 120.701 185.762 120.967 185.686C121.062 185.438 121.11 185.105 121.11 184.686V175.686C121.11 175.171 121.062 174.79 120.967 174.543C120.758 174.467 120.424 174.429 119.967 174.429H119.11V173.4ZM126.939 173.4C127.891 173.286 128.929 173.229 130.053 173.229C131.196 173.229 131.986 173.286 132.424 173.4L132.367 174.429H131.596C131.31 174.429 131.015 174.467 130.71 174.543C130.196 174.962 129.434 175.724 128.424 176.829C127.434 177.933 126.777 178.657 126.453 179C126.129 179.343 125.872 179.619 125.681 179.829L129.453 184.571C129.739 184.933 130.091 185.305 130.51 185.686C130.815 185.762 131.129 185.8 131.453 185.8H132.196L132.339 187.143C131.577 187.048 130.558 187 129.281 187C128.024 187 127.072 187.048 126.424 187.143V185.8H126.596C127.034 185.8 127.348 185.762 127.539 185.686C127.462 185.476 127.224 185.105 126.824 184.571L123.853 180.6C123.796 180.543 123.748 180.486 123.71 180.429C123.672 180.352 123.596 180.229 123.481 180.057C123.577 179.924 123.739 179.724 123.967 179.457C124.215 179.19 124.434 178.943 124.624 178.714C124.834 178.467 125.205 178.057 125.739 177.486C126.272 176.895 126.767 176.352 127.224 175.857C127.853 175.229 128.167 174.848 128.167 174.714V174.543C128.015 174.467 127.748 174.429 127.367 174.429H126.824L126.939 173.4Z" fill="white"/>
</svg>
