<svg width="200" height="240" viewBox="0 0 200 240" fill="none" xmlns="http://www.w3.org/2000/svg">
<rect x="2.4" y="2.4" width="195.2" height="235.2" rx="5.6" fill="#7995FB" stroke="white" stroke-width="4.8"/>
<path d="M67.6953 203.367C69.0668 203.188 70.5117 203.098 72.03 203.098C73.5484 203.098 74.5606 203.139 75.0668 203.22C75.5729 203.286 76.0463 203.408 76.4872 203.588C78.4137 204.42 79.377 206.282 79.377 209.171C79.377 211.718 78.5198 213.392 76.8055 214.192C75.8586 214.633 74.5361 214.886 72.8382 214.951C72.0708 214.984 71.3035 215 70.5361 215C69.7851 215 68.879 215.041 67.8178 215.122V213.947C68.6831 213.947 69.2055 213.922 69.3851 213.873C69.4668 213.629 69.5076 213.302 69.5076 212.894V205.596C69.5076 205.237 69.4668 204.853 69.3851 204.445C69.2055 204.38 68.928 204.347 68.5525 204.347H67.6953V203.367ZM73.23 204.224L71.2708 204.249V213.971C71.3688 213.988 71.4586 213.996 71.5402 213.996H72.2015C74.5361 213.996 76.0627 213.384 76.781 212.159C77.1892 211.441 77.3933 210.527 77.3933 209.416C77.3933 208.29 77.3117 207.416 77.1484 206.796C76.9851 206.176 76.7321 205.678 76.3892 205.302C75.7525 204.584 74.6994 204.224 73.23 204.224ZM80.9375 203.465C81.9008 203.286 83.3049 203.196 85.1498 203.196H90.1702L90.3906 204.273C90.4069 204.404 90.4477 204.608 90.513 204.886C90.5783 205.163 90.611 205.408 90.611 205.62L89.411 205.645L89.362 205.253C89.3294 205.024 89.264 204.771 89.1661 204.494C88.8396 204.331 88.1375 204.249 87.06 204.249L86.3253 204.273L84.513 204.298V208.461H87.3049C87.6967 208.461 87.9661 208.322 88.113 208.045C88.1783 207.947 88.2436 207.784 88.3089 207.555H88.7253C88.7253 208.6 88.6926 209.563 88.6273 210.445H88.113C87.9334 209.89 87.6967 209.563 87.4028 209.465C87.3049 209.433 87.1824 209.416 87.0355 209.416H84.513V213.971H88.2845C88.9049 213.971 89.2967 213.873 89.46 213.678C89.5579 213.4 89.6396 212.951 89.7049 212.331C90.0477 212.331 90.3906 212.331 90.7334 212.331V213.286C90.7334 213.547 90.7171 213.824 90.6845 214.118C90.6681 214.396 90.6518 214.633 90.6355 214.829C90.0804 214.992 89.5171 215.082 88.9457 215.098C88.3906 215.114 87.8845 215.122 87.4273 215.122L83.6314 215C82.4559 215 81.5906 215.041 81.0355 215.122V213.971H81.7702C82.0967 213.971 82.3743 213.939 82.6028 213.873C82.7008 213.661 82.7416 213.343 82.7253 212.918V205.376C82.7253 204.935 82.6845 204.616 82.6028 204.42C82.5049 204.371 82.3906 204.347 82.26 204.347H80.9375V203.465ZM94.3745 205.155C94.2602 205.384 94.203 205.629 94.203 205.89C94.203 206.396 94.3908 206.82 94.7663 207.163C95.1581 207.49 95.6806 207.767 96.3337 207.996C97.7214 208.518 98.7745 209.065 99.4928 209.637C100.211 210.192 100.57 210.918 100.57 211.816C100.57 213.465 99.7296 214.559 98.0479 215.098C97.5418 215.245 97.052 215.318 96.5786 215.318C94.7173 215.318 93.2561 214.853 92.1949 213.922L92.5622 211.718L93.8112 211.767C93.8112 212.633 93.9255 213.261 94.1541 213.653C94.5949 214.094 95.3377 214.314 96.3826 214.314C97.0357 214.314 97.5908 214.127 98.0479 213.751C98.5214 213.376 98.7581 212.902 98.7581 212.331C98.7581 211.449 98.1132 210.69 96.8235 210.053C96.4153 209.857 95.9745 209.669 95.501 209.49C95.0275 209.31 94.603 209.114 94.2275 208.902C93.0194 208.233 92.4153 207.327 92.4153 206.184C92.4153 204.731 93.2643 203.759 94.9622 203.269C95.5337 203.106 96.1622 203.024 96.8479 203.024C97.55 203.024 98.2194 203.098 98.8561 203.245C99.5092 203.392 99.9092 203.588 100.056 203.833C100.056 203.882 100.056 203.947 100.056 204.029L100.007 204.347C99.9418 204.984 99.8684 205.588 99.7867 206.159L98.7337 206.061C98.7337 205.294 98.5786 204.763 98.2684 204.469C97.9745 204.176 97.403 204.029 96.5541 204.029C95.4439 204.029 94.7173 204.404 94.3745 205.155ZM107.271 215.122C106.749 215.041 105.9 215 104.724 215C103.565 215 102.683 215.041 102.079 215.122V213.971H102.789C103.1 213.971 103.385 213.939 103.647 213.873C103.744 213.629 103.785 213.31 103.769 212.918V205.253C103.769 204.845 103.728 204.535 103.647 204.322C103.467 204.257 103.181 204.224 102.789 204.224H102.055V203.343C102.806 203.245 103.736 203.196 104.847 203.196C105.973 203.196 106.781 203.245 107.271 203.343V204.224H106.536C106.193 204.224 105.908 204.257 105.679 204.322C105.598 204.649 105.557 204.959 105.557 205.253V212.869C105.557 213.212 105.598 213.547 105.679 213.873C105.94 213.939 106.226 213.971 106.536 213.971H107.271V215.122ZM118.956 214.167C117.846 214.935 116.458 215.318 114.793 215.318C112.05 215.318 110.221 214.216 109.307 212.012C108.997 211.278 108.842 210.388 108.842 209.343C108.842 207.286 109.413 205.718 110.556 204.641C111.699 203.563 113.258 203.024 115.234 203.024C116.556 203.024 117.732 203.31 118.76 203.882L118.54 206.184H117.536C117.258 205.4 116.989 204.886 116.728 204.641C116.303 204.233 115.74 204.029 115.038 204.029C113.617 204.029 112.556 204.486 111.854 205.4C111.168 206.314 110.825 207.555 110.825 209.122C110.825 210.69 111.168 211.931 111.854 212.845C112.556 213.759 113.544 214.216 114.817 214.216C115.813 214.216 116.621 214.061 117.242 213.751V211.841C117.242 211.351 117.201 211 117.119 210.788C116.94 210.722 116.654 210.69 116.262 210.69H115.283V209.784C115.381 209.784 115.609 209.767 115.968 209.735C116.344 209.686 116.825 209.661 117.413 209.661H119.005C118.989 209.922 118.981 210.143 118.981 210.322L118.956 211.082V214.167ZM124.884 215.122C124.395 215.041 123.619 215 122.558 215C121.513 215 120.705 215.041 120.133 215.122V213.971H120.868C121.195 213.971 121.472 213.939 121.701 213.873C121.799 213.661 121.848 213.343 121.848 212.918L121.823 205.302C121.823 204.861 121.782 204.535 121.701 204.322C121.521 204.257 121.235 204.224 120.844 204.224H119.938V203.343C121.211 203.245 122.06 203.196 122.484 203.196C122.909 203.196 123.301 203.237 123.66 203.318C126.223 207.286 128.207 210.453 129.611 212.82L129.489 206.233V205.302C129.489 204.861 129.448 204.535 129.366 204.322C129.105 204.257 128.819 204.224 128.509 204.224H127.676V203.343C128.395 203.245 129.268 203.196 130.297 203.196C131.342 203.196 132.068 203.245 132.476 203.343V204.224H131.84C131.497 204.224 131.211 204.257 130.982 204.322C130.901 204.535 130.86 204.943 130.86 205.547C130.86 206.135 130.852 206.853 130.835 207.702C130.819 208.535 130.803 209.384 130.786 210.249C130.77 211.114 130.746 211.963 130.713 212.796C130.68 213.629 130.656 214.404 130.64 215.122H129.782C129.521 215.122 129.276 215.065 129.048 214.951L123.072 205.473C123.138 206.714 123.17 208.273 123.17 210.151C123.17 212.029 123.178 213.09 123.195 213.335C123.227 213.563 123.268 213.743 123.317 213.873C123.578 213.939 123.856 213.971 124.15 213.971H124.884V215.122Z" fill="white"/>
<rect x="51.5" y="69.5" width="80" height="61.4706" fill="white" stroke="white" stroke-width="3" stroke-linecap="round" stroke-linejoin="round"/>
<path d="M55.4707 105.588L127.941 105.588V73.0587H109.824H100.765H91.706H82.6472H73.5884H55.4707L55.4707 105.588Z" fill="#7995FB"/>
<rect x="81" y="109.706" width="21.4118" height="18.1176" fill="#7995FB"/>
<rect x="55.4707" y="109.706" width="21.4118" height="18.1176" fill="#5975DB"/>
<rect x="106.529" y="109.706" width="21.4118" height="18.1176" fill="#7995FB"/>
<path d="M90.8605 115.574C91.4133 114.29 93.2335 114.29 93.7863 115.574V115.574C94.0169 116.109 94.5216 116.476 95.1022 116.53V116.53C96.4939 116.659 97.0564 118.39 96.0063 119.312V119.312C95.5683 119.697 95.3755 120.29 95.5037 120.859V120.859C95.811 122.223 94.3385 123.292 93.1366 122.579V122.579C92.6353 122.281 92.0115 122.281 91.5102 122.579V122.579C90.3084 123.292 88.8358 122.223 89.1431 120.859V120.859C89.2713 120.29 89.0785 119.697 88.6405 119.312V119.312C87.5905 118.39 88.1529 116.659 89.5447 116.53V116.53C90.1252 116.476 90.6299 116.109 90.8605 115.574V115.574Z" fill="#E3F5FF"/>
<path d="M120 101H146.432V148.2H120V101Z" fill="white" stroke="white" stroke-width="4" stroke-linecap="round" stroke-linejoin="round"/>
<path d="M121.367 125.233H144.862V104.255H138.989H136.052H133.115H130.178H127.241H121.367V125.233Z" fill="#7995FB"/>
<rect x="129.57" y="102.036" width="7.23739" height="0.612992" fill="#5975DB" stroke="#5975DB" stroke-linecap="round" stroke-linejoin="round"/>
<ellipse cx="133.216" cy="145.981" rx="0.911455" ry="0.887781" fill="#5975DB"/>
<rect x="121.367" y="127.781" width="23.6978" height="15.0923" fill="#5975DB"/>
</svg>
