<svg width="200" height="240" viewBox="0 0 200 240" fill="none" xmlns="http://www.w3.org/2000/svg">
<rect x="2.4" y="2.4" width="195.2" height="235.2" rx="5.6" fill="#D7E9FF"/>
<rect x="2.4" y="2.4" width="195.2" height="235.2" rx="5.6" fill="url(#paint0_linear)"/>
<rect x="2.4" y="2.4" width="195.2" height="235.2" rx="5.6" stroke="white" stroke-width="4.8"/>
<path d="M69.8077 203.343L69.7097 206.233H68.6811C68.6811 205.318 68.5913 204.649 68.4118 204.224H65.3995V212.869C65.3995 213.278 65.4322 213.612 65.4975 213.873C65.7587 213.939 66.0526 213.971 66.3791 213.971H67.1138V215.122C66.5913 215.041 65.7424 215 64.5669 215C63.3913 215 62.5015 215.041 61.8975 215.122V213.971H62.6322C62.9587 213.971 63.2362 213.939 63.4648 213.873C63.5464 213.661 63.5873 213.376 63.5873 213.016V204.224H60.575C60.3954 204.551 60.3056 205.22 60.3056 206.233H59.1791L59.0811 203.343C59.2771 203.245 59.922 203.196 61.0158 203.196L62.7546 203.245H63.5383L64.5913 203.269L65.7913 203.245C66.0199 203.245 66.2485 203.245 66.4771 203.245L67.8485 203.196C68.9587 203.196 69.6118 203.245 69.8077 203.343ZM83.33 215.122C82.7749 215.041 81.9259 215 80.783 215C79.6402 215 78.7585 215.041 78.1381 215.122V213.971H78.8728C79.2157 213.971 79.5014 213.939 79.73 213.873C79.8279 213.661 79.8687 213.343 79.8524 212.918V209.465H74.2442V212.869C74.2442 213.212 74.2851 213.547 74.3667 213.873C74.6279 213.939 74.9136 213.971 75.2238 213.971H75.9585V215.122C75.4034 215.041 74.5463 215 73.3871 215C72.2279 215 71.3544 215.041 70.7667 215.122V213.971H71.5014C71.8279 213.971 72.1055 213.939 72.334 213.873C72.432 213.629 72.481 213.31 72.481 212.918V205.302C72.481 204.91 72.432 204.584 72.334 204.322C72.1544 204.257 71.8687 204.224 71.4769 204.224H70.7422V203.343C71.4932 203.245 72.4157 203.196 73.5096 203.196C74.6198 203.196 75.4442 203.245 75.983 203.343V204.224H75.2238C74.9136 204.224 74.6279 204.257 74.3667 204.322C74.2851 204.649 74.2442 204.976 74.2442 205.302V208.339H79.8524V205.302C79.8524 204.861 79.8116 204.535 79.73 204.322C79.5504 204.257 79.2647 204.224 78.8728 204.224H78.1381V203.343C78.8891 203.245 79.8198 203.196 80.93 203.196C82.0565 203.196 82.8728 203.245 83.3789 203.343V204.224H82.6198C82.3095 204.224 82.0238 204.257 81.7626 204.322C81.681 204.649 81.6402 204.976 81.6402 205.302V212.869C81.6402 213.212 81.681 213.547 81.7626 213.873C82.0238 213.939 82.3014 213.971 82.5953 213.971H83.33V215.122ZM89.7601 209.024C91.6866 209.024 92.6499 208.216 92.6499 206.6C92.6499 205.718 92.4131 205.106 91.9397 204.763C91.4662 204.404 90.6743 204.224 89.5641 204.224H88.2907V209.024C88.7805 209.024 89.2703 209.024 89.7601 209.024ZM89.9805 215.122C89.4417 215.041 88.5927 215 87.4335 215C86.2743 215 85.3927 215.041 84.7886 215.122V213.971H85.5233C85.8499 213.971 86.1274 213.939 86.356 213.873C86.4539 213.661 86.5029 213.343 86.5029 212.918L86.4784 205.204C86.4784 204.812 86.4376 204.51 86.356 204.298C86.1927 204.249 85.9397 204.224 85.5968 204.224H84.6172V203.343C84.7968 203.327 85.009 203.302 85.2539 203.269C85.4988 203.237 85.7601 203.22 86.0376 203.22C86.3315 203.204 86.6254 203.188 86.9192 203.171C87.2294 203.155 87.5886 203.147 87.9968 203.147H89.6131C91.1968 203.147 92.405 203.408 93.2376 203.931C94.0703 204.437 94.4866 205.302 94.4866 206.527C94.4866 208.094 93.7029 209.155 92.1356 209.71C92.3805 211.098 93.0662 212.306 94.1927 213.335C94.6499 213.759 95.0417 213.971 95.3682 213.971H95.809V215.122H94.5845C93.6866 215.122 92.9111 214.804 92.258 214.167C91.8009 213.694 91.409 212.992 91.0825 212.061C90.9356 211.669 90.8213 211.302 90.7397 210.959C90.6743 210.6 90.609 210.282 90.5437 210.004C90.1682 210.004 89.7927 210.004 89.4172 210.004C89.0417 210.004 88.6662 209.996 88.2907 209.98V212.869C88.2907 213.327 88.3315 213.661 88.4131 213.873C88.6743 213.939 88.9519 213.971 89.2458 213.971H89.9805V215.122ZM96.4297 203.465C97.393 203.286 98.7971 203.196 100.642 203.196H105.662L105.883 204.273C105.899 204.404 105.94 204.608 106.005 204.886C106.071 205.163 106.103 205.408 106.103 205.62L104.903 205.645L104.854 205.253C104.822 205.024 104.756 204.771 104.658 204.494C104.332 204.331 103.63 204.249 102.552 204.249L101.817 204.273L100.005 204.298V208.461H102.797C103.189 208.461 103.458 208.322 103.605 208.045C103.671 207.947 103.736 207.784 103.801 207.555H104.217C104.217 208.6 104.185 209.563 104.119 210.445H103.605C103.426 209.89 103.189 209.563 102.895 209.465C102.797 209.433 102.675 209.416 102.528 209.416H100.005V213.971H103.777C104.397 213.971 104.789 213.873 104.952 213.678C105.05 213.4 105.132 212.951 105.197 212.331C105.54 212.331 105.883 212.331 106.226 212.331V213.286C106.226 213.547 106.209 213.824 106.177 214.118C106.16 214.396 106.144 214.633 106.128 214.829C105.573 214.992 105.009 215.082 104.438 215.098C103.883 215.114 103.377 215.122 102.919 215.122L99.1236 215C97.9481 215 97.0828 215.041 96.5277 215.122V213.971H97.2624C97.5889 213.971 97.8664 213.939 98.095 213.873C98.193 213.661 98.2338 213.343 98.2175 212.918V205.376C98.2175 204.935 98.1766 204.616 98.095 204.42C97.9971 204.371 97.8828 204.347 97.7522 204.347H96.4297V203.465ZM107.516 203.465C108.479 203.286 109.883 203.196 111.728 203.196H116.748L116.969 204.273C116.985 204.404 117.026 204.608 117.091 204.886C117.156 205.163 117.189 205.408 117.189 205.62L115.989 205.645L115.94 205.253C115.907 205.024 115.842 204.771 115.744 204.494C115.418 204.331 114.716 204.249 113.638 204.249L112.903 204.273L111.091 204.298V208.461H113.883C114.275 208.461 114.544 208.322 114.691 208.045C114.756 207.947 114.822 207.784 114.887 207.555H115.303C115.303 208.6 115.271 209.563 115.205 210.445H114.691C114.512 209.89 114.275 209.563 113.981 209.465C113.883 209.433 113.761 209.416 113.614 209.416H111.091V213.971H114.863C115.483 213.971 115.875 213.873 116.038 213.678C116.136 213.4 116.218 212.951 116.283 212.331C116.626 212.331 116.969 212.331 117.312 212.331V213.286C117.312 213.547 117.295 213.824 117.263 214.118C117.246 214.396 117.23 214.633 117.214 214.829C116.658 214.992 116.095 215.082 115.524 215.098C114.969 215.114 114.463 215.122 114.005 215.122L110.21 215C109.034 215 108.169 215.041 107.614 215.122V213.971H108.348C108.675 213.971 108.952 213.939 109.181 213.873C109.279 213.661 109.32 213.343 109.303 212.918V205.376C109.303 204.935 109.263 204.616 109.181 204.42C109.083 204.371 108.969 204.347 108.838 204.347H107.516V203.465ZM121.54 214.02C121.54 214.592 121.344 214.976 120.953 215.171C120.806 215.237 120.585 215.269 120.291 215.269C120.014 215.269 119.777 215.155 119.581 214.927C119.402 214.682 119.312 214.42 119.312 214.143C119.312 213.637 119.516 213.286 119.924 213.09C120.071 213.024 120.275 212.992 120.536 212.992C120.814 212.992 121.051 213.106 121.246 213.335C121.442 213.563 121.54 213.792 121.54 214.02ZM125.557 203.343C126.308 203.245 127.239 203.196 128.349 203.196C129.459 203.196 130.267 203.245 130.773 203.343V204.224H130.039C129.696 204.224 129.41 204.257 129.182 204.322C129.084 204.551 129.043 204.878 129.059 205.302V212.404C129.059 214.363 128.488 215.629 127.345 216.2C126.986 216.38 126.618 216.469 126.243 216.469C125.867 216.469 125.345 216.412 124.676 216.298C124.006 216.184 123.525 216.045 123.231 215.882C123.231 215.865 123.239 215.8 123.255 215.686L123.28 215.22C123.296 215.008 123.312 214.747 123.329 214.437C123.345 214.11 123.369 213.718 123.402 213.261L124.578 213.286C124.61 213.808 124.725 214.478 124.92 215.294C125.035 215.31 125.157 215.335 125.288 215.367C125.418 215.4 125.622 215.416 125.9 215.416C126.455 215.416 126.822 215.155 127.002 214.633C127.182 214.094 127.271 213.253 127.271 212.11V205.302C127.271 204.861 127.222 204.535 127.125 204.322C126.978 204.257 126.7 204.224 126.292 204.224H125.557V203.343ZM134.218 205.155C134.104 205.384 134.047 205.629 134.047 205.89C134.047 206.396 134.235 206.82 134.61 207.163C135.002 207.49 135.524 207.767 136.177 207.996C137.565 208.518 138.618 209.065 139.337 209.637C140.055 210.192 140.414 210.918 140.414 211.816C140.414 213.465 139.573 214.559 137.892 215.098C137.386 215.245 136.896 215.318 136.422 215.318C134.561 215.318 133.1 214.853 132.039 213.922L132.406 211.718L133.655 211.767C133.655 212.633 133.769 213.261 133.998 213.653C134.439 214.094 135.181 214.314 136.226 214.314C136.879 214.314 137.435 214.127 137.892 213.751C138.365 213.376 138.602 212.902 138.602 212.331C138.602 211.449 137.957 210.69 136.667 210.053C136.259 209.857 135.818 209.669 135.345 209.49C134.871 209.31 134.447 209.114 134.071 208.902C132.863 208.233 132.259 207.327 132.259 206.184C132.259 204.731 133.108 203.759 134.806 203.269C135.377 203.106 136.006 203.024 136.692 203.024C137.394 203.024 138.063 203.098 138.7 203.245C139.353 203.392 139.753 203.588 139.9 203.833C139.9 203.882 139.9 203.947 139.9 204.029L139.851 204.347C139.786 204.984 139.712 205.588 139.63 206.159L138.577 206.061C138.577 205.294 138.422 204.763 138.112 204.469C137.818 204.176 137.247 204.029 136.398 204.029C135.288 204.029 134.561 204.404 134.218 205.155Z" fill="white"/>
<g filter="url(#filter0_i)">
<path d="M73.6635 76.4706L86.1272 65.7279L89.1988 81.8931L73.6635 76.4706Z" fill="#4A72DE"/>
<path d="M73.6635 76.4706L86.1272 65.7279L89.1988 81.8931L73.6635 76.4706Z" fill="url(#paint1_linear)"/>
<path d="M73.6635 76.4706L86.1272 65.7279L89.1988 81.8931L73.6635 76.4706Z" stroke="#2A52BE" stroke-width="0.5"/>
<path d="M111.429 89.6524L123.892 78.9096L126.964 95.0749L111.429 89.6524Z" fill="#4A72DE"/>
<path d="M111.429 89.6524L123.892 78.9096L126.964 95.0749L111.429 89.6524Z" fill="url(#paint2_linear)"/>
<path d="M111.429 89.6524L123.892 78.9096L126.964 95.0749L111.429 89.6524Z" stroke="#2A52BE" stroke-width="0.5"/>
<path d="M92.5458 83.0615L105.01 72.3188L108.081 88.484L92.5458 83.0615Z" fill="#4A72DE"/>
<path d="M92.5458 83.0615L105.01 72.3188L108.081 88.484L92.5458 83.0615Z" fill="url(#paint3_linear)"/>
<path d="M92.5458 83.0615L105.01 72.3188L108.081 88.484L92.5458 83.0615Z" stroke="#2A52BE" stroke-width="0.5"/>
<path d="M88.2128 65.1319L91.2844 81.2971L103.748 70.5544L88.2128 65.1319Z" fill="#4A72DE"/>
<path d="M88.2128 65.1319L91.2844 81.2971L103.748 70.5544L88.2128 65.1319Z" fill="url(#paint4_linear)"/>
<path d="M88.2128 65.1319L91.2844 81.2971L103.748 70.5544L88.2128 65.1319Z" stroke="#2A52BE" stroke-width="0.5"/>
<path d="M69.3299 58.541L72.4016 74.7062L84.8653 63.9635L69.3299 58.541Z" fill="#4A72DE"/>
<path d="M69.3299 58.541L72.4016 74.7062L84.8653 63.9635L69.3299 58.541Z" fill="url(#paint5_linear)"/>
<path d="M69.3299 58.541L72.4016 74.7062L84.8653 63.9635L69.3299 58.541Z" stroke="#2A52BE" stroke-width="0.5"/>
<path d="M125.978 78.3137L129.05 94.4789L141.514 83.7362L125.978 78.3137Z" fill="#4A72DE"/>
<path d="M125.978 78.3137L129.05 94.4789L141.514 83.7362L125.978 78.3137Z" fill="url(#paint6_linear)"/>
<path d="M125.978 78.3137L129.05 94.4789L141.514 83.7362L125.978 78.3137Z" stroke="#2A52BE" stroke-width="0.5"/>
<path d="M107.096 71.7227L110.167 87.888L122.631 77.1452L107.096 71.7227Z" fill="#4A72DE"/>
<path d="M107.096 71.7227L110.167 87.888L122.631 77.1452L107.096 71.7227Z" fill="url(#paint7_linear)"/>
<path d="M107.096 71.7227L110.167 87.888L122.631 77.1452L107.096 71.7227Z" stroke="#2A52BE" stroke-width="0.5"/>
<path d="M77.1728 96.7605L89.6365 86.0178L92.7081 102.183L77.1728 96.7605Z" fill="#4A72DE"/>
<path d="M77.1728 96.7605L89.6365 86.0178L92.7081 102.183L77.1728 96.7605Z" fill="url(#paint8_linear)"/>
<path d="M77.1728 96.7605L89.6365 86.0178L92.7081 102.183L77.1728 96.7605Z" stroke="#2A52BE" stroke-width="0.5"/>
<path d="M96.0556 103.351L108.519 92.6087L111.591 108.774L96.0556 103.351Z" fill="#4A72DE"/>
<path d="M96.0556 103.351L108.519 92.6087L111.591 108.774L96.0556 103.351Z" fill="url(#paint9_linear)"/>
<path d="M96.0556 103.351L108.519 92.6087L111.591 108.774L96.0556 103.351Z" stroke="#2A52BE" stroke-width="0.5"/>
<path d="M91.722 85.4218L94.7937 101.587L107.257 90.8443L91.722 85.4218Z" fill="#4A72DE"/>
<path d="M91.722 85.4218L94.7937 101.587L107.257 90.8443L91.722 85.4218Z" fill="url(#paint10_linear)"/>
<path d="M91.722 85.4218L94.7937 101.587L107.257 90.8443L91.722 85.4218Z" stroke="#2A52BE" stroke-width="0.5"/>
<path d="M72.8392 78.8309L75.9109 94.9961L88.3745 84.2534L72.8392 78.8309Z" fill="#4A72DE"/>
<path d="M72.8392 78.8309L75.9109 94.9961L88.3745 84.2534L72.8392 78.8309Z" fill="url(#paint11_linear)"/>
<path d="M72.8392 78.8309L75.9109 94.9961L88.3745 84.2534L72.8392 78.8309Z" stroke="#2A52BE" stroke-width="0.5"/>
<path d="M80.6826 117.051L93.1463 106.308L96.2179 122.473L80.6826 117.051Z" fill="#4A72DE"/>
<path d="M80.6826 117.051L93.1463 106.308L96.2179 122.473L80.6826 117.051Z" fill="url(#paint12_linear)"/>
<path d="M80.6826 117.051L93.1463 106.308L96.2179 122.473L80.6826 117.051Z" stroke="#2A52BE" stroke-width="0.5"/>
<path d="M95.2318 105.712L98.3034 121.877L110.767 111.134L95.2318 105.712Z" fill="#4A72DE"/>
<path d="M95.2318 105.712L98.3034 121.877L110.767 111.134L95.2318 105.712Z" fill="url(#paint13_linear)"/>
<path d="M95.2318 105.712L98.3034 121.877L110.767 111.134L95.2318 105.712Z" stroke="#2A52BE" stroke-width="0.5"/>
<path d="M76.349 99.1209L79.4206 115.286L91.8843 104.543L76.349 99.1209Z" fill="#4A72DE"/>
<path d="M76.349 99.1209L79.4206 115.286L91.8843 104.543L76.349 99.1209Z" fill="url(#paint14_linear)"/>
<path d="M76.349 99.1209L79.4206 115.286L91.8843 104.543L76.349 99.1209Z" stroke="#2A52BE" stroke-width="0.5"/>
<path d="M79.8588 119.411L82.9304 135.576L95.3941 124.833L79.8588 119.411Z" fill="#4A72DE"/>
<path d="M79.8588 119.411L82.9304 135.576L95.3941 124.833L79.8588 119.411Z" fill="url(#paint15_linear)"/>
<path d="M79.8588 119.411L82.9304 135.576L95.3941 124.833L79.8588 119.411Z" stroke="#2A52BE" stroke-width="0.5"/>
<path d="M110.605 92.0128L113.676 108.178L126.14 97.4353L110.605 92.0128Z" fill="#4A72DE"/>
<path d="M110.605 92.0128L113.676 108.178L126.14 97.4353L110.605 92.0128Z" fill="url(#paint16_linear)"/>
<path d="M110.605 92.0128L113.676 108.178L126.14 97.4353L110.605 92.0128Z" stroke="#2A52BE" stroke-width="0.5"/>
</g>
<defs>
<filter id="filter0_i" x="64.0605" y="58.1622" width="78.9446" height="81.7399" filterUnits="userSpaceOnUse" color-interpolation-filters="sRGB">
<feFlood flood-opacity="0" result="BackgroundImageFix"/>
<feBlend mode="normal" in="SourceGraphic" in2="BackgroundImageFix" result="shape"/>
<feColorMatrix in="SourceAlpha" type="matrix" values="0 0 0 0 0 0 0 0 0 0 0 0 0 0 0 0 0 0 127 0" result="hardAlpha"/>
<feOffset dx="1" dy="1"/>
<feGaussianBlur stdDeviation="0.5"/>
<feComposite in2="hardAlpha" operator="arithmetic" k2="-1" k3="1"/>
<feColorMatrix type="matrix" values="0 0 0 0 0.164706 0 0 0 0 0.321569 0 0 0 0 0.745098 0 0 0 1 0"/>
<feBlend mode="normal" in2="shape" result="effect1_innerShadow"/>
</filter>
<linearGradient id="paint0_linear" x1="100" y1="0" x2="100" y2="240" gradientUnits="userSpaceOnUse">
<stop offset="0.744692" stop-color="#6985EB" stop-opacity="0"/>
<stop offset="0.744792" stop-color="#4A72DE" stop-opacity="0.126477"/>
<stop offset="0.744892" stop-color="#6985EB"/>
</linearGradient>
<linearGradient id="paint1_linear" x1="86.292" y1="65.2558" x2="79.7011" y2="84.1386" gradientUnits="userSpaceOnUse">
<stop stop-color="#6985EB"/>
<stop offset="1" stop-color="#4E66BE"/>
</linearGradient>
<linearGradient id="paint2_linear" x1="124.057" y1="78.4375" x2="117.466" y2="97.3203" gradientUnits="userSpaceOnUse">
<stop stop-color="#6985EB"/>
<stop offset="1" stop-color="#4E66BE"/>
</linearGradient>
<linearGradient id="paint3_linear" x1="105.174" y1="71.8467" x2="98.5834" y2="90.7295" gradientUnits="userSpaceOnUse">
<stop stop-color="#6985EB"/>
<stop offset="1" stop-color="#4E66BE"/>
</linearGradient>
<linearGradient id="paint4_linear" x1="91.1196" y1="81.7692" x2="97.7105" y2="62.8864" gradientUnits="userSpaceOnUse">
<stop stop-color="#6985EB"/>
<stop offset="1" stop-color="#4E66BE"/>
</linearGradient>
<linearGradient id="paint5_linear" x1="72.2368" y1="75.1783" x2="78.8277" y2="56.2955" gradientUnits="userSpaceOnUse">
<stop stop-color="#6985EB"/>
<stop offset="1" stop-color="#4E66BE"/>
</linearGradient>
<linearGradient id="paint6_linear" x1="128.885" y1="94.951" x2="135.476" y2="76.0682" gradientUnits="userSpaceOnUse">
<stop stop-color="#6985EB"/>
<stop offset="1" stop-color="#4E66BE"/>
</linearGradient>
<linearGradient id="paint7_linear" x1="110.002" y1="88.36" x2="116.593" y2="69.4772" gradientUnits="userSpaceOnUse">
<stop stop-color="#6985EB"/>
<stop offset="1" stop-color="#4E66BE"/>
</linearGradient>
<linearGradient id="paint8_linear" x1="89.8013" y1="85.5457" x2="83.2103" y2="104.428" gradientUnits="userSpaceOnUse">
<stop stop-color="#6985EB"/>
<stop offset="1" stop-color="#4E66BE"/>
</linearGradient>
<linearGradient id="paint9_linear" x1="108.684" y1="92.1366" x2="102.093" y2="111.019" gradientUnits="userSpaceOnUse">
<stop stop-color="#6985EB"/>
<stop offset="1" stop-color="#4E66BE"/>
</linearGradient>
<linearGradient id="paint10_linear" x1="94.6289" y1="102.059" x2="101.22" y2="83.1763" gradientUnits="userSpaceOnUse">
<stop stop-color="#6985EB"/>
<stop offset="1" stop-color="#4E66BE"/>
</linearGradient>
<linearGradient id="paint11_linear" x1="75.7461" y1="95.4682" x2="82.337" y2="76.5854" gradientUnits="userSpaceOnUse">
<stop stop-color="#6985EB"/>
<stop offset="1" stop-color="#4E66BE"/>
</linearGradient>
<linearGradient id="paint12_linear" x1="93.311" y1="105.836" x2="86.7201" y2="124.719" gradientUnits="userSpaceOnUse">
<stop stop-color="#6985EB"/>
<stop offset="1" stop-color="#4E66BE"/>
</linearGradient>
<linearGradient id="paint13_linear" x1="98.1387" y1="122.349" x2="104.73" y2="103.466" gradientUnits="userSpaceOnUse">
<stop stop-color="#6985EB"/>
<stop offset="1" stop-color="#4E66BE"/>
</linearGradient>
<linearGradient id="paint14_linear" x1="79.2558" y1="115.758" x2="85.8468" y2="96.8754" gradientUnits="userSpaceOnUse">
<stop stop-color="#6985EB"/>
<stop offset="1" stop-color="#4E66BE"/>
</linearGradient>
<linearGradient id="paint15_linear" x1="82.7656" y1="136.048" x2="89.3565" y2="117.165" gradientUnits="userSpaceOnUse">
<stop stop-color="#6985EB"/>
<stop offset="1" stop-color="#4E66BE"/>
</linearGradient>
<linearGradient id="paint16_linear" x1="113.512" y1="108.65" x2="120.103" y2="89.7673" gradientUnits="userSpaceOnUse">
<stop stop-color="#6985EB"/>
<stop offset="1" stop-color="#4E66BE"/>
</linearGradient>
</defs>
</svg>
