<svg width="200" height="240" viewBox="0 0 200 240" fill="none" xmlns="http://www.w3.org/2000/svg">
<rect x="2.4" y="2.4" width="195.2" height="235.2" rx="5.6" fill="#D7E9FF"/>
<rect x="2.4" y="2.4" width="195.2" height="235.2" rx="5.6" fill="url(#paint0_linear)"/>
<rect x="2.4" y="2.4" width="195.2" height="235.2" rx="5.6" stroke="white" stroke-width="4.8"/>
<path d="M47.8853 203.343C48.6363 203.245 49.5669 203.196 50.6771 203.196C51.7873 203.196 52.5955 203.245 53.1016 203.343V204.224H52.3669C52.0241 204.224 51.7383 204.257 51.5098 204.322C51.4118 204.551 51.371 204.878 51.3873 205.302V212.404C51.3873 214.363 50.8159 215.629 49.673 216.2C49.3139 216.38 48.9465 216.469 48.571 216.469C48.1955 216.469 47.673 216.412 47.0037 216.298C46.3343 216.184 45.8526 216.045 45.5588 215.882C45.5588 215.865 45.5669 215.8 45.5832 215.686L45.6077 215.22C45.6241 215.008 45.6404 214.747 45.6567 214.437C45.673 214.11 45.6975 213.718 45.7302 213.261L46.9057 213.286C46.9383 213.808 47.0526 214.478 47.2485 215.294C47.3628 215.31 47.4853 215.335 47.6159 215.367C47.7465 215.4 47.9506 215.416 48.2281 215.416C48.7832 215.416 49.1506 215.155 49.3302 214.633C49.5098 214.094 49.5996 213.253 49.5996 212.11V205.302C49.5996 204.861 49.5506 204.535 49.4526 204.322C49.3057 204.257 49.0281 204.224 48.62 204.224H47.8853V203.343ZM59.7055 204.69L57.6484 210.69H61.8117L59.779 204.69H59.7055ZM57.6484 215.122C57.2566 215.041 56.6035 215 55.6892 215C54.7749 215 54.0647 215.041 53.5586 215.122L53.8035 213.971H54.1708C54.4647 213.971 54.7259 213.939 54.9545 213.873C55.1831 213.563 55.3382 213.286 55.4198 213.041C55.5178 212.78 55.6321 212.461 55.7627 212.086C55.9096 211.71 56.081 211.278 56.277 210.788C56.4729 210.298 56.677 209.767 56.8892 209.196C57.1178 208.624 57.3463 208.061 57.5749 207.506L59.2892 203.196H60.0484C60.4402 203.196 60.7668 203.245 61.028 203.343L64.6525 212.869C64.8484 213.343 65.0117 213.678 65.1423 213.873C65.4035 213.939 65.6647 213.971 65.9259 213.971H66.2933L66.5382 215.122C66.081 215.041 65.5831 215 65.0443 215H63.8933C63.1912 215 62.5953 215.041 62.1055 215.122L61.9341 213.971H62.081C62.3749 213.971 62.6525 213.939 62.9137 213.873C62.9137 213.629 62.8321 213.31 62.6688 212.918L62.1055 211.547H57.379L56.9382 212.869C56.8076 213.261 56.7423 213.571 56.7423 213.8C56.7423 213.914 56.9463 213.971 57.3545 213.971H57.7219L57.6484 215.122ZM71.1726 204.224C70.8624 204.224 70.593 204.257 70.3644 204.322C70.3644 204.486 70.4706 204.812 70.6828 205.302L73.744 213.237H73.8175L76.6583 205.302C76.8052 204.927 76.8787 204.6 76.8787 204.322C76.7318 204.257 76.4624 204.224 76.0706 204.224H75.4828L75.5318 203.343C76.1848 203.245 76.9767 203.196 77.9073 203.196C78.8542 203.196 79.5236 203.245 79.9154 203.343L79.7195 204.224H79.3032C78.9767 204.224 78.6828 204.257 78.4216 204.322C78.2257 204.633 78.0787 204.959 77.9808 205.302C77.6869 206.086 77.2297 207.335 76.6093 209.049C75.9889 210.747 75.2052 212.731 74.2583 215H73.4012C72.895 215 72.5848 214.878 72.4706 214.633L68.7481 205.302C68.6175 205.008 68.4379 204.682 68.2093 204.322C68.0297 204.257 67.7359 204.224 67.3277 204.224H66.7154L66.5195 203.343C67.1726 203.245 68.0542 203.196 69.1644 203.196C70.291 203.196 71.1236 203.245 71.6624 203.343L71.7603 204.224H71.1726ZM86.0493 204.69L83.9921 210.69H88.1554L86.1228 204.69H86.0493ZM83.9921 215.122C83.6003 215.041 82.9472 215 82.033 215C81.1187 215 80.4085 215.041 79.9023 215.122L80.1472 213.971H80.5146C80.8085 213.971 81.0697 213.939 81.2983 213.873C81.5268 213.563 81.6819 213.286 81.7636 213.041C81.8615 212.78 81.9758 212.461 82.1064 212.086C82.2534 211.71 82.4248 211.278 82.6207 210.788C82.8166 210.298 83.0207 209.767 83.233 209.196C83.4615 208.624 83.6901 208.061 83.9187 207.506L85.633 203.196H86.3921C86.784 203.196 87.1105 203.245 87.3717 203.343L90.9962 212.869C91.1921 213.343 91.3554 213.678 91.486 213.873C91.7472 213.939 92.0085 213.971 92.2697 213.971H92.637L92.8819 215.122C92.4248 215.041 91.9268 215 91.3881 215H90.237C89.535 215 88.9391 215.041 88.4493 215.122L88.2779 213.971H88.4248C88.7187 213.971 88.9962 213.939 89.2574 213.873C89.2574 213.629 89.1758 213.31 89.0125 212.918L88.4493 211.547H83.7228L83.2819 212.869C83.1513 213.261 83.086 213.571 83.086 213.8C83.086 213.914 83.2901 213.971 83.6983 213.971H84.0656L83.9921 215.122ZM95.851 205.155C95.7368 205.384 95.6796 205.629 95.6796 205.89C95.6796 206.396 95.8674 206.82 96.2429 207.163C96.6347 207.49 97.1572 207.767 97.8102 207.996C99.198 208.518 100.251 209.065 100.969 209.637C101.688 210.192 102.047 210.918 102.047 211.816C102.047 213.465 101.206 214.559 99.5245 215.098C99.0184 215.245 98.5286 215.318 98.0551 215.318C96.1939 215.318 94.7327 214.853 93.6714 213.922L94.0388 211.718L95.2878 211.767C95.2878 212.633 95.4021 213.261 95.6306 213.653C96.0714 214.094 96.8143 214.314 97.8592 214.314C98.5123 214.314 99.0674 214.127 99.5245 213.751C99.998 213.376 100.235 212.902 100.235 212.331C100.235 211.449 99.5898 210.69 98.3 210.053C97.8919 209.857 97.451 209.669 96.9776 209.49C96.5041 209.31 96.0796 209.114 95.7041 208.902C94.4959 208.233 93.8919 207.327 93.8919 206.184C93.8919 204.731 94.7408 203.759 96.4388 203.269C97.0102 203.106 97.6388 203.024 98.3245 203.024C99.0265 203.024 99.6959 203.098 100.333 203.245C100.986 203.392 101.386 203.588 101.533 203.833C101.533 203.882 101.533 203.947 101.533 204.029L101.484 204.347C101.418 204.984 101.345 205.588 101.263 206.159L100.21 206.061C100.21 205.294 100.055 204.763 99.7449 204.469C99.451 204.176 98.8796 204.029 98.0306 204.029C96.9204 204.029 96.1939 204.404 95.851 205.155ZM109.36 203.024C111.041 203.024 112.397 203.31 113.425 203.882L113.205 206.184H112.225C111.948 205.4 111.678 204.886 111.417 204.641C111.156 204.396 110.895 204.233 110.633 204.151C110.388 204.069 110.005 204.029 109.482 204.029C108.96 204.029 108.454 204.159 107.964 204.42C106.544 205.171 105.833 206.706 105.833 209.024C105.833 211.62 106.584 213.237 108.086 213.873C108.576 214.086 109.123 214.192 109.727 214.192C110.739 214.192 111.997 213.857 113.499 213.188L113.621 214.339C112.527 214.992 111.148 215.318 109.482 215.318C107.833 215.318 106.478 214.812 105.417 213.8C104.372 212.771 103.85 211.294 103.85 209.367C103.85 206.314 104.984 204.339 107.254 203.441C107.988 203.163 108.69 203.024 109.36 203.024ZM119.924 209.024C121.851 209.024 122.814 208.216 122.814 206.6C122.814 205.718 122.577 205.106 122.104 204.763C121.63 204.404 120.838 204.224 119.728 204.224H118.455V209.024C118.945 209.024 119.434 209.024 119.924 209.024ZM120.145 215.122C119.606 215.041 118.757 215 117.598 215C116.438 215 115.557 215.041 114.953 215.122V213.971H115.687C116.014 213.971 116.291 213.939 116.52 213.873C116.618 213.661 116.667 213.343 116.667 212.918L116.642 205.204C116.642 204.812 116.602 204.51 116.52 204.298C116.357 204.249 116.104 204.224 115.761 204.224H114.781V203.343C114.961 203.327 115.173 203.302 115.418 203.269C115.663 203.237 115.924 203.22 116.202 203.22C116.496 203.204 116.789 203.188 117.083 203.171C117.394 203.155 117.753 203.147 118.161 203.147H119.777C121.361 203.147 122.569 203.408 123.402 203.931C124.234 204.437 124.651 205.302 124.651 206.527C124.651 208.094 123.867 209.155 122.3 209.71C122.545 211.098 123.23 212.306 124.357 213.335C124.814 213.759 125.206 213.971 125.532 213.971H125.973V215.122H124.749C123.851 215.122 123.075 214.804 122.422 214.167C121.965 213.694 121.573 212.992 121.247 212.061C121.1 211.669 120.985 211.302 120.904 210.959C120.838 210.6 120.773 210.282 120.708 210.004C120.332 210.004 119.957 210.004 119.581 210.004C119.206 210.004 118.83 209.996 118.455 209.98V212.869C118.455 213.327 118.496 213.661 118.577 213.873C118.838 213.939 119.116 213.971 119.41 213.971H120.145V215.122ZM131.81 215.122C131.288 215.041 130.439 215 129.263 215C128.104 215 127.222 215.041 126.618 215.122V213.971H127.328C127.639 213.971 127.924 213.939 128.186 213.873C128.284 213.629 128.324 213.31 128.308 212.918V205.253C128.308 204.845 128.267 204.535 128.186 204.322C128.006 204.257 127.72 204.224 127.328 204.224H126.594V203.343C127.345 203.245 128.275 203.196 129.386 203.196C130.512 203.196 131.32 203.245 131.81 203.343V204.224H131.075C130.733 204.224 130.447 204.257 130.218 204.322C130.137 204.649 130.096 204.959 130.096 205.253V212.869C130.096 213.212 130.137 213.547 130.218 213.873C130.479 213.939 130.765 213.971 131.075 213.971H131.81V215.122ZM136.736 204.224V209.196C136.736 209.196 137.185 209.196 138.083 209.196C140.009 209.196 140.973 208.363 140.973 206.698C140.973 205.408 140.442 204.633 139.381 204.371C139.022 204.273 138.605 204.224 138.132 204.224H136.736ZM138.426 215.122C137.887 215.041 137.038 215 135.879 215C134.72 215 133.838 215.041 133.234 215.122V213.971H133.969C134.295 213.971 134.573 213.939 134.801 213.873C134.899 213.661 134.948 213.343 134.948 212.918L134.924 205.253C134.924 204.812 134.883 204.494 134.801 204.298C134.507 204.249 134.23 204.224 133.969 204.224H133.063V203.343C134.173 203.196 135.43 203.122 136.834 203.122C138.254 203.122 139.283 203.18 139.92 203.294C141.846 203.62 142.809 204.755 142.809 206.698C142.809 209.049 141.226 210.224 138.058 210.224C137.699 210.224 137.258 210.208 136.736 210.176V212.869C136.736 213.327 136.777 213.661 136.858 213.873C137.12 213.939 137.397 213.971 137.691 213.971H138.426V215.122ZM154.511 203.343L154.413 206.233H153.384C153.384 205.318 153.294 204.649 153.115 204.224H150.103V212.869C150.103 213.278 150.135 213.612 150.201 213.873C150.462 213.939 150.756 213.971 151.082 213.971H151.817V215.122C151.294 215.041 150.445 215 149.27 215C148.094 215 147.205 215.041 146.601 215.122V213.971H147.335C147.662 213.971 147.939 213.939 148.168 213.873C148.25 213.661 148.29 213.376 148.29 213.016V204.224H145.278C145.099 204.551 145.009 205.22 145.009 206.233H143.882L143.784 203.343C143.98 203.245 144.625 203.196 145.719 203.196L147.458 203.245H148.241L149.294 203.269L150.494 203.245C150.723 203.245 150.952 203.245 151.18 203.245L152.552 203.196C153.662 203.196 154.315 203.245 154.511 203.343Z" fill="white"/>
<path d="M136 57H64V129H136V57Z" fill="#F7DF1E"/>
<path d="M112.366 113.25C113.816 115.618 115.703 117.359 119.04 117.359C121.843 117.359 123.634 115.958 123.634 114.022C123.634 111.702 121.794 110.88 118.708 109.53L117.017 108.805C112.135 106.725 108.891 104.119 108.891 98.6104C108.891 93.5361 112.758 89.6732 118.8 89.6732C123.102 89.6732 126.194 91.1704 128.423 95.0904L123.154 98.4732C121.994 96.3932 120.743 95.5738 118.8 95.5738C116.818 95.5738 115.562 96.8309 115.562 98.4732C115.562 100.503 116.819 101.325 119.722 102.582L121.414 103.306C127.162 105.771 130.408 108.285 130.408 113.935C130.408 120.026 125.623 123.363 119.196 123.363C112.913 123.363 108.854 120.369 106.867 116.445L112.366 113.25ZM88.4649 113.837C89.5278 115.722 90.4947 117.317 92.8192 117.317C95.0421 117.317 96.4444 116.447 96.4444 113.065V90.0595H103.21V113.157C103.21 120.162 99.1027 123.351 93.1072 123.351C87.6901 123.351 84.5529 120.547 82.9575 117.171L88.4649 113.837Z" fill="black"/>
<defs>
<linearGradient id="paint0_linear" x1="100" y1="0" x2="100" y2="240" gradientUnits="userSpaceOnUse">
<stop offset="0.744692" stop-color="#97AAEB" stop-opacity="0"/>
<stop offset="0.744792" stop-color="#4A72DE" stop-opacity="0.126477"/>
<stop offset="0.744892" stop-color="#97AAEB"/>
<stop offset="1" stop-color="#97AAEB"/>
</linearGradient>
</defs>
</svg>
