<svg width="200" height="240" viewBox="0 0 200 240" fill="none" xmlns="http://www.w3.org/2000/svg">
<rect x="2.4" y="2.4" width="195.2" height="235.2" rx="5.6" fill="#D7E9FF"/>
<rect x="2.4" y="2.4" width="195.2" height="235.2" rx="5.6" fill="url(#paint0_linear)"/>
<rect x="2.4" y="2.4" width="195.2" height="235.2" rx="5.6" stroke="white" stroke-width="4.8"/>
<path d="M33.8911 203.024C35.5727 203.024 36.9278 203.31 37.9564 203.882L37.736 206.184H36.7564C36.4788 205.4 36.2095 204.886 35.9482 204.641C35.687 204.396 35.4258 204.233 35.1646 204.151C34.9197 204.069 34.536 204.029 34.0135 204.029C33.4911 204.029 32.985 204.159 32.4952 204.42C31.0748 205.171 30.3646 206.706 30.3646 209.024C30.3646 211.62 31.1156 213.237 32.6176 213.873C33.1074 214.086 33.6544 214.192 34.2584 214.192C35.2707 214.192 36.5278 213.857 38.0299 213.188L38.1523 214.339C37.0584 214.992 35.6788 215.318 34.0135 215.318C32.3646 215.318 31.0095 214.812 29.9482 213.8C28.9033 212.771 28.3809 211.294 28.3809 209.367C28.3809 206.314 29.5156 204.339 31.785 203.441C32.5197 203.163 33.2217 203.024 33.8911 203.024ZM44.4554 209.024C46.3819 209.024 47.3452 208.216 47.3452 206.6C47.3452 205.718 47.1084 205.106 46.635 204.763C46.1615 204.404 45.3697 204.224 44.2595 204.224H42.986V209.024C43.4758 209.024 43.9656 209.024 44.4554 209.024ZM44.6758 215.122C44.137 215.041 43.288 215 42.1288 215C40.9697 215 40.088 215.041 39.4839 215.122V213.971H40.2186C40.5452 213.971 40.8227 213.939 41.0513 213.873C41.1493 213.661 41.1982 213.343 41.1982 212.918L41.1737 205.204C41.1737 204.812 41.1329 204.51 41.0513 204.298C40.888 204.249 40.635 204.224 40.2921 204.224H39.3125V203.343C39.4921 203.327 39.7044 203.302 39.9493 203.269C40.1941 203.237 40.4554 203.22 40.7329 203.22C41.0268 203.204 41.3207 203.188 41.6146 203.171C41.9248 203.155 42.2839 203.147 42.6921 203.147H44.3084C45.8921 203.147 47.1003 203.408 47.9329 203.931C48.7656 204.437 49.1819 205.302 49.1819 206.527C49.1819 208.094 48.3982 209.155 46.8309 209.71C47.0758 211.098 47.7615 212.306 48.888 213.335C49.3452 213.759 49.737 213.971 50.0635 213.971H50.5044V215.122H49.2799C48.3819 215.122 47.6064 214.804 46.9533 214.167C46.4962 213.694 46.1044 212.992 45.7778 212.061C45.6309 211.669 45.5166 211.302 45.435 210.959C45.3697 210.6 45.3044 210.282 45.239 210.004C44.8635 210.004 44.488 210.004 44.1125 210.004C43.737 210.004 43.3615 209.996 42.986 209.98V212.869C42.986 213.327 43.0268 213.661 43.1084 213.873C43.3697 213.939 43.6472 213.971 43.9411 213.971H44.6758V215.122ZM51.125 203.465C52.0883 203.286 53.4924 203.196 55.3373 203.196H60.3577L60.5781 204.273C60.5944 204.404 60.6352 204.608 60.7005 204.886C60.7658 205.163 60.7985 205.408 60.7985 205.62L59.5985 205.645L59.5495 205.253C59.5169 205.024 59.4515 204.771 59.3536 204.494C59.0271 204.331 58.325 204.249 57.2475 204.249L56.5128 204.273L54.7005 204.298V208.461H57.4924C57.8842 208.461 58.1536 208.322 58.3005 208.045C58.3658 207.947 58.4311 207.784 58.4964 207.555H58.9128C58.9128 208.6 58.8801 209.563 58.8148 210.445H58.3005C58.1209 209.89 57.8842 209.563 57.5903 209.465C57.4924 209.433 57.3699 209.416 57.223 209.416H54.7005V213.971H58.472C59.0924 213.971 59.4842 213.873 59.6475 213.678C59.7454 213.4 59.8271 212.951 59.8924 212.331C60.2352 212.331 60.5781 212.331 60.9209 212.331V213.286C60.9209 213.547 60.9046 213.824 60.872 214.118C60.8556 214.396 60.8393 214.633 60.823 214.829C60.2679 214.992 59.7046 215.082 59.1332 215.098C58.5781 215.114 58.072 215.122 57.6148 215.122L53.8189 215C52.6434 215 51.7781 215.041 51.223 215.122V213.971H51.9577C52.2842 213.971 52.5618 213.939 52.7903 213.873C52.8883 213.661 52.9291 213.343 52.9128 212.918V205.376C52.9128 204.935 52.872 204.616 52.7903 204.42C52.6924 204.371 52.5781 204.347 52.4475 204.347H51.125V203.465ZM67.7212 204.69L65.664 210.69H69.8273L67.7946 204.69H67.7212ZM65.664 215.122C65.2722 215.041 64.6191 215 63.7048 215C62.7905 215 62.0803 215.041 61.5742 215.122L61.8191 213.971H62.1865C62.4803 213.971 62.7416 213.939 62.9701 213.873C63.1987 213.563 63.3538 213.286 63.4354 213.041C63.5334 212.78 63.6477 212.461 63.7783 212.086C63.9252 211.71 64.0967 211.278 64.2926 210.788C64.4885 210.298 64.6926 209.767 64.9048 209.196C65.1334 208.624 65.362 208.061 65.5905 207.506L67.3048 203.196H68.064C68.4559 203.196 68.7824 203.245 69.0436 203.343L72.6681 212.869C72.864 213.343 73.0273 213.678 73.1579 213.873C73.4191 213.939 73.6803 213.971 73.9416 213.971H74.3089L74.5538 215.122C74.0967 215.041 73.5987 215 73.0599 215H71.9089C71.2069 215 70.611 215.041 70.1212 215.122L69.9497 213.971H70.0967C70.3905 213.971 70.6681 213.939 70.9293 213.873C70.9293 213.629 70.8477 213.31 70.6844 212.918L70.1212 211.547H65.3946L64.9538 212.869C64.8232 213.261 64.7579 213.571 64.7579 213.8C64.7579 213.914 64.962 213.971 65.3701 213.971H65.7375L65.664 215.122ZM85.6045 203.343L85.5066 206.233H84.478C84.478 205.318 84.3882 204.649 84.2086 204.224H81.1964V212.869C81.1964 213.278 81.229 213.612 81.2943 213.873C81.5556 213.939 81.8494 213.971 82.176 213.971H82.9107V215.122C82.3882 215.041 81.5392 215 80.3637 215C79.1882 215 78.2984 215.041 77.6943 215.122V213.971H78.429C78.7556 213.971 79.0331 213.939 79.2617 213.873C79.3433 213.661 79.3841 213.376 79.3841 213.016V204.224H76.3719C76.1923 204.551 76.1025 205.22 76.1025 206.233H74.976L74.878 203.343C75.0739 203.245 75.7188 203.196 76.8127 203.196L78.5515 203.245H79.3352L80.3882 203.269L81.5882 203.245C81.8168 203.245 82.0454 203.245 82.2739 203.245L83.6454 203.196C84.7556 203.196 85.4086 203.245 85.6045 203.343ZM91.7554 215.122C91.233 215.041 90.384 215 89.2085 215C88.0493 215 87.1676 215.041 86.5636 215.122V213.971H87.2738C87.584 213.971 87.8697 213.939 88.1309 213.873C88.2289 213.629 88.2697 213.31 88.2534 212.918V205.253C88.2534 204.845 88.2125 204.535 88.1309 204.322C87.9513 204.257 87.6656 204.224 87.2738 204.224H86.5391V203.343C87.2901 203.245 88.2207 203.196 89.3309 203.196C90.4574 203.196 91.2656 203.245 91.7554 203.343V204.224H91.0207C90.6779 204.224 90.3921 204.257 90.1636 204.322C90.0819 204.649 90.0411 204.959 90.0411 205.253V212.869C90.0411 213.212 90.0819 213.547 90.1636 213.873C90.4248 213.939 90.7105 213.971 91.0207 213.971H91.7554V215.122ZM97.0242 204.224C96.714 204.224 96.4446 204.257 96.216 204.322C96.216 204.486 96.3221 204.812 96.5344 205.302L99.5956 213.237H99.6691L102.51 205.302C102.657 204.927 102.73 204.6 102.73 204.322C102.583 204.257 102.314 204.224 101.922 204.224H101.334L101.383 203.343C102.036 203.245 102.828 203.196 103.759 203.196C104.706 203.196 105.375 203.245 105.767 203.343L105.571 204.224H105.155C104.828 204.224 104.534 204.257 104.273 204.322C104.077 204.633 103.93 204.959 103.832 205.302C103.538 206.086 103.081 207.335 102.461 209.049C101.84 210.747 101.057 212.731 100.11 215H99.2527C98.7466 215 98.4364 214.878 98.3221 214.633L94.5997 205.302C94.4691 205.008 94.2895 204.682 94.0609 204.322C93.8813 204.257 93.5874 204.224 93.1793 204.224H92.567L92.3711 203.343C93.0242 203.245 93.9058 203.196 95.016 203.196C96.1425 203.196 96.9752 203.245 97.514 203.343L97.6119 204.224H97.0242ZM106.391 203.465C107.354 203.286 108.758 203.196 110.603 203.196H115.623L115.844 204.273C115.86 204.404 115.901 204.608 115.966 204.886C116.031 205.163 116.064 205.408 116.064 205.62L114.864 205.645L114.815 205.253C114.782 205.024 114.717 204.771 114.619 204.494C114.293 204.331 113.591 204.249 112.513 204.249L111.778 204.273L109.966 204.298V208.461H112.758C113.15 208.461 113.419 208.322 113.566 208.045C113.631 207.947 113.697 207.784 113.762 207.555H114.178C114.178 208.6 114.146 209.563 114.08 210.445H113.566C113.387 209.89 113.15 209.563 112.856 209.465C112.758 209.433 112.636 209.416 112.489 209.416H109.966V213.971H113.738C114.358 213.971 114.75 213.873 114.913 213.678C115.011 213.4 115.093 212.951 115.158 212.331C115.501 212.331 115.844 212.331 116.187 212.331V213.286C116.187 213.547 116.17 213.824 116.138 214.118C116.121 214.396 116.105 214.633 116.089 214.829C115.533 214.992 114.97 215.082 114.399 215.098C113.844 215.114 113.338 215.122 112.88 215.122L109.085 215C107.909 215 107.044 215.041 106.489 215.122V213.971H107.223C107.55 213.971 107.827 213.939 108.056 213.873C108.154 213.661 108.195 213.343 108.178 212.918V205.376C108.178 204.935 108.138 204.616 108.056 204.42C107.958 204.371 107.844 204.347 107.713 204.347H106.391V203.465ZM138.613 215.122C138.041 215.041 137.184 215 136.041 215C134.915 215 134.066 215.041 133.494 215.122L133.396 213.971H134.057C134.449 213.971 134.686 213.931 134.768 213.849C134.866 213.767 134.915 213.629 134.915 213.433C134.915 213.22 134.906 212.951 134.89 212.624C134.89 212.282 134.874 211.906 134.841 211.498C134.808 211.073 134.759 210.461 134.694 209.661C134.645 208.845 134.539 207.359 134.376 205.204C132.221 211.229 131.037 214.494 130.825 215H129.282C128.955 214.135 128.564 213.041 128.106 211.718C127.666 210.38 127.298 209.294 127.004 208.461C126.727 207.612 126.376 206.551 125.951 205.278C125.608 210.42 125.437 213.106 125.437 213.335C125.437 213.547 125.494 213.71 125.608 213.824C125.723 213.922 125.951 213.971 126.294 213.971H126.931L126.857 215.122C126.286 215.041 125.445 215 124.335 215C123.225 215 122.384 215.041 121.813 215.122L122.008 213.971H122.817C123.127 213.971 123.413 213.939 123.674 213.873C123.886 213.449 124.008 213.114 124.041 212.869C124.074 212.608 124.115 212.265 124.164 211.841C124.213 211.4 124.253 210.935 124.286 210.445C124.335 209.955 124.376 209.457 124.408 208.951C124.441 208.445 124.474 207.971 124.506 207.531C124.555 207.073 124.588 206.665 124.604 206.306C124.621 205.947 124.637 205.669 124.653 205.473C124.686 205.261 124.702 205.09 124.702 204.959C124.702 204.829 124.686 204.722 124.653 204.641C124.637 204.543 124.621 204.453 124.604 204.371C124.376 204.273 124.082 204.224 123.723 204.224H122.866V203.343C123.029 203.327 123.241 203.302 123.502 203.269C123.78 203.22 124.253 203.196 124.923 203.196C125.608 203.196 126.27 203.245 126.906 203.343C127.461 204.682 128.049 206.331 128.67 208.29C129.306 210.249 129.731 211.539 129.943 212.159C130.172 212.78 130.286 213.114 130.286 213.163C131.037 210.845 131.755 208.739 132.441 206.845C133.143 204.951 133.568 203.784 133.715 203.343C134.4 203.245 135.013 203.196 135.551 203.196L137.535 203.318L137.608 203.343L137.682 204.224H136.972C136.547 204.224 136.261 204.282 136.115 204.396C136.098 204.494 136.082 204.624 136.066 204.788L136.702 212.918C136.719 213.229 136.792 213.547 136.923 213.873C137.249 213.939 137.608 213.971 138 213.971H138.441L138.613 215.122ZM145.076 215.122C144.553 215.041 143.704 215 142.529 215C141.37 215 140.488 215.041 139.884 215.122V213.971H140.594C140.904 213.971 141.19 213.939 141.451 213.873C141.549 213.629 141.59 213.31 141.574 212.918V205.253C141.574 204.845 141.533 204.535 141.451 204.322C141.272 204.257 140.986 204.224 140.594 204.224H139.859V203.343C140.61 203.245 141.541 203.196 142.651 203.196C143.778 203.196 144.586 203.245 145.076 203.343V204.224H144.341C143.998 204.224 143.712 204.257 143.484 204.322C143.402 204.649 143.361 204.959 143.361 205.253V212.869C143.361 213.212 143.402 213.547 143.484 213.873C143.745 213.939 144.031 213.971 144.341 213.971H145.076V215.122ZM151.275 215.122C150.785 215.041 150.01 215 148.949 215C147.904 215 147.095 215.041 146.524 215.122V213.971H147.259C147.585 213.971 147.863 213.939 148.091 213.873C148.189 213.661 148.238 213.343 148.238 212.918L148.214 205.302C148.214 204.861 148.173 204.535 148.091 204.322C147.912 204.257 147.626 204.224 147.234 204.224H146.328V203.343C147.602 203.245 148.451 203.196 148.875 203.196C149.3 203.196 149.691 203.237 150.051 203.318C152.614 207.286 154.598 210.453 156.002 212.82L155.879 206.233V205.302C155.879 204.861 155.838 204.535 155.757 204.322C155.495 204.257 155.21 204.224 154.9 204.224H154.067V203.343C154.785 203.245 155.659 203.196 156.687 203.196C157.732 203.196 158.459 203.245 158.867 203.343V204.224H158.23C157.887 204.224 157.602 204.257 157.373 204.322C157.291 204.535 157.251 204.943 157.251 205.547C157.251 206.135 157.242 206.853 157.226 207.702C157.21 208.535 157.193 209.384 157.177 210.249C157.161 211.114 157.136 211.963 157.104 212.796C157.071 213.629 157.047 214.404 157.03 215.122H156.173C155.912 215.122 155.667 215.065 155.438 214.951L149.463 205.473C149.528 206.714 149.561 208.273 149.561 210.151C149.561 212.029 149.569 213.09 149.585 213.335C149.618 213.563 149.659 213.743 149.708 213.873C149.969 213.939 150.247 213.971 150.54 213.971H151.275V215.122ZM159.969 203.367C161.34 203.188 162.785 203.098 164.303 203.098C165.822 203.098 166.834 203.139 167.34 203.22C167.846 203.286 168.32 203.408 168.761 203.588C170.687 204.42 171.65 206.282 171.65 209.171C171.65 211.718 170.793 213.392 169.079 214.192C168.132 214.633 166.81 214.886 165.112 214.951C164.344 214.984 163.577 215 162.81 215C162.059 215 161.152 215.041 160.091 215.122V213.947C160.957 213.947 161.479 213.922 161.659 213.873C161.74 213.629 161.781 213.302 161.781 212.894V205.596C161.781 205.237 161.74 204.853 161.659 204.445C161.479 204.38 161.201 204.347 160.826 204.347H159.969V203.367ZM165.503 204.224L163.544 204.249V213.971C163.642 213.988 163.732 213.996 163.814 213.996H164.475C166.81 213.996 168.336 213.384 169.054 212.159C169.463 211.441 169.667 210.527 169.667 209.416C169.667 208.29 169.585 207.416 169.422 206.796C169.259 206.176 169.006 205.678 168.663 205.302C168.026 204.584 166.973 204.224 165.503 204.224Z" fill="white"/>
<g filter="url(#filter0_d)">
<path d="M147.279 93.2567C143.556 102.288 126.371 113.856 120.649 111.497C114.927 109.138 110.886 88.8206 114.609 79.789C118.332 70.7575 128.663 66.4509 137.685 70.1698C146.707 73.8888 151.002 84.2251 147.279 93.2567Z" fill="white"/>
<path d="M147.279 93.2567C143.556 102.288 126.371 113.856 120.649 111.497C114.927 109.138 110.886 88.8206 114.609 79.789C118.332 70.7575 128.663 66.4509 137.685 70.1698C146.707 73.8888 151.002 84.2251 147.279 93.2567Z" fill="#5975DB"/>
<path d="M124.801 75.3802C120.697 78.1198 119.274 83.1539 117.966 81.1951C116.659 79.2363 118.925 75.4275 123.028 72.6879C127.132 69.9483 131.519 69.3154 132.826 71.2742C134.134 73.233 128.904 72.6406 124.801 75.3802Z" fill="white" fill-opacity="0.5"/>
<path d="M121.049 111.506C121.049 111.506 118.348 113.24 117.62 116.328C116.774 119.917 117.255 122.151 116.715 125.799C116.261 128.87 113.542 132.097 113.542 132.097" stroke="#3955BB" stroke-width="3"/>
<path d="M119.031 110.856C120.178 110.245 121.556 111.103 121.512 112.402L121.437 114.637C121.427 114.942 121.091 115.121 120.832 114.96V114.96C120.802 114.941 120.775 114.919 120.751 114.893L119.965 114.045C119.502 113.545 118.879 113.222 118.204 113.131L117.32 113.011C117.173 112.991 117.037 112.918 116.941 112.804V112.804C116.69 112.51 116.775 112.06 117.116 111.878L119.031 110.856Z" fill="#5975DB"/>
</g>
<g filter="url(#filter1_d)">
<path d="M93.767 79.0229C96.6831 88.3462 90.8745 108.231 84.9676 110.079C79.0608 111.926 62.9567 98.8953 60.0405 89.572C57.1243 80.2486 62.3102 70.3291 71.6235 67.416C80.9368 64.503 90.8508 69.6995 93.767 79.0229Z" fill="white"/>
<path d="M93.767 79.0229C96.6831 88.3462 90.8745 108.231 84.9676 110.079C79.0608 111.926 62.9567 98.8953 60.0405 89.572C57.1243 80.2486 62.3102 70.3291 71.6235 67.416C80.9368 64.503 90.8508 69.6995 93.767 79.0229Z" fill="#6985EB"/>
<path d="M65.0534 79.6633C63.6521 84.394 65.7788 89.1736 63.5205 88.5047C61.2622 87.8357 60.5676 83.4584 61.969 78.7277C63.3703 73.9969 66.337 70.7042 68.5953 71.3731C70.8535 72.0421 66.4548 74.9325 65.0534 79.6633Z" fill="white" fill-opacity="0.5"/>
<path d="M85.2812 109.829C85.2812 109.829 84.3145 112.89 85.7304 115.729C87.3762 119.029 89.1748 120.438 91.0936 123.587C92.7091 126.239 92.6842 130.458 92.6842 130.458" stroke="#3955BB" stroke-width="3"/>
<path d="M83.3144 110.621C83.8042 109.418 85.4127 109.196 86.2098 110.222L87.5823 111.988C87.7694 112.229 87.6257 112.582 87.3237 112.623V112.623C87.2888 112.628 87.2535 112.628 87.2186 112.624L86.0717 112.474C85.396 112.387 84.7108 112.537 84.1334 112.898L83.3779 113.372C83.2517 113.451 83.1007 113.481 82.9538 113.456V113.456C82.573 113.39 82.3504 112.989 82.4961 112.631L83.3144 110.621Z" fill="#6985EB"/>
</g>
<g filter="url(#filter2_d)">
<path d="M124.42 70.4703C124.42 82.8803 109.837 104.787 101.974 104.787C94.112 104.787 79.5283 82.8803 79.5283 70.4703C79.5283 58.0603 89.5778 48 101.974 48C114.371 48 124.42 58.0603 124.42 70.4703Z" fill="white"/>
<path d="M124.42 70.4703C124.42 82.8803 109.837 104.787 101.974 104.787C94.112 104.787 79.5283 82.8803 79.5283 70.4703C79.5283 58.0603 89.5778 48 101.974 48C114.371 48 124.42 58.0603 124.42 70.4703Z" fill="#5975DB"/>
<path d="M102.449 104.603C102.449 104.603 99.8818 109.387 100.522 113.366C101.266 117.991 105.538 119.092 106.67 123.638C107.623 127.466 103.601 132.423 103.601 132.423" stroke="#3955BB" stroke-width="3"/>
<path d="M100.012 104.299C101.062 103.026 103.096 103.367 103.673 104.913L104.668 107.575C104.803 107.938 104.495 108.312 104.113 108.247V108.247C104.069 108.24 104.026 108.227 103.986 108.208L102.652 107.592C101.866 107.23 100.978 107.151 100.141 107.371L99.0451 107.659C98.862 107.707 98.6677 107.686 98.4993 107.599V107.599C98.0624 107.375 97.9445 106.805 98.2569 106.426L100.012 104.299Z" fill="#5975DB"/>
</g>
<path d="M89.2383 61.6459C85.7452 66.8503 86.511 73.4518 84.0267 71.7843C81.5424 70.1168 82.3602 64.5461 85.8533 59.3418C89.3465 54.1374 94.1922 51.2702 96.6765 52.9377C99.1608 54.6052 92.7314 56.4416 89.2383 61.6459Z" fill="white" fill-opacity="0.5"/>
<defs>
<filter id="filter0_d" x="102.313" y="63.436" width="53.7068" height="84.0423" filterUnits="userSpaceOnUse" color-interpolation-filters="sRGB">
<feFlood flood-opacity="0" result="BackgroundImageFix"/>
<feColorMatrix in="SourceAlpha" type="matrix" values="0 0 0 0 0 0 0 0 0 0 0 0 0 0 0 0 0 0 127 0"/>
<feOffset dy="12"/>
<feGaussianBlur stdDeviation="1"/>
<feColorMatrix type="matrix" values="0 0 0 0 0 0 0 0 0 0 0 0 0 0 0 0 0 0 0.2 0"/>
<feBlend mode="normal" in2="BackgroundImageFix" result="effect1_dropShadow"/>
<feBlend mode="normal" in="SourceGraphic" in2="effect1_dropShadow" result="shape"/>
</filter>
<filter id="filter1_d" x="52.7603" y="62.1415" width="51.0706" height="83.6631" filterUnits="userSpaceOnUse" color-interpolation-filters="sRGB">
<feFlood flood-opacity="0" result="BackgroundImageFix"/>
<feColorMatrix in="SourceAlpha" type="matrix" values="0 0 0 0 0 0 0 0 0 0 0 0 0 0 0 0 0 0 127 0"/>
<feOffset dy="12"/>
<feGaussianBlur stdDeviation="1"/>
<feColorMatrix type="matrix" values="0 0 0 0 0 0 0 0 0 0 0 0 0 0 0 0 0 0 0.2 0"/>
<feBlend mode="normal" in2="BackgroundImageFix" result="effect1_dropShadow"/>
<feBlend mode="normal" in="SourceGraphic" in2="effect1_dropShadow" result="shape"/>
</filter>
<filter id="filter2_d" x="75.5283" y="48" width="52.8922" height="97.7552" filterUnits="userSpaceOnUse" color-interpolation-filters="sRGB">
<feFlood flood-opacity="0" result="BackgroundImageFix"/>
<feColorMatrix in="SourceAlpha" type="matrix" values="0 0 0 0 0 0 0 0 0 0 0 0 0 0 0 0 0 0 127 0"/>
<feOffset dy="8"/>
<feGaussianBlur stdDeviation="2"/>
<feColorMatrix type="matrix" values="0 0 0 0 0 0 0 0 0 0 0 0 0 0 0 0 0 0 0.25 0"/>
<feBlend mode="normal" in2="BackgroundImageFix" result="effect1_dropShadow"/>
<feBlend mode="normal" in="SourceGraphic" in2="effect1_dropShadow" result="shape"/>
</filter>
<linearGradient id="paint0_linear" x1="100" y1="0" x2="100" y2="240" gradientUnits="userSpaceOnUse">
<stop offset="0.744692" stop-color="#6985EB" stop-opacity="0"/>
<stop offset="0.744792" stop-color="#4A72DE" stop-opacity="0.126477"/>
<stop offset="0.744892" stop-color="#6985EB"/>
</linearGradient>
</defs>
</svg>
