<svg width="200" height="240" viewBox="0 0 200 240" fill="none" xmlns="http://www.w3.org/2000/svg">
<rect x="2.4" y="2.4" width="195.2" height="235.2" rx="5.6" fill="#97AAEB" stroke="white" stroke-width="4.8"/>
<path d="M50.0804 209.024C52.0069 209.024 52.9702 208.216 52.9702 206.6C52.9702 205.718 52.7334 205.106 52.26 204.763C51.7865 204.404 50.9947 204.224 49.8845 204.224H48.611V209.024C49.1008 209.024 49.5906 209.024 50.0804 209.024ZM50.3008 215.122C49.762 215.041 48.913 215 47.7538 215C46.5947 215 45.713 215.041 45.1089 215.122V213.971H45.8436C46.1702 213.971 46.4477 213.939 46.6763 213.873C46.7743 213.661 46.8232 213.343 46.8232 212.918L46.7987 205.204C46.7987 204.812 46.7579 204.51 46.6763 204.298C46.513 204.249 46.26 204.224 45.9171 204.224H44.9375V203.343C45.1171 203.327 45.3294 203.302 45.5743 203.269C45.8191 203.237 46.0804 203.22 46.3579 203.22C46.6518 203.204 46.9457 203.188 47.2396 203.171C47.5498 203.155 47.9089 203.147 48.3171 203.147H49.9334C51.5171 203.147 52.7253 203.408 53.5579 203.931C54.3906 204.437 54.8069 205.302 54.8069 206.527C54.8069 208.094 54.0232 209.155 52.4559 209.71C52.7008 211.098 53.3865 212.306 54.513 213.335C54.9702 213.759 55.362 213.971 55.6885 213.971H56.1294V215.122H54.9049C54.0069 215.122 53.2314 214.804 52.5783 214.167C52.1212 213.694 51.7294 212.992 51.4028 212.061C51.2559 211.669 51.1416 211.302 51.06 210.959C50.9947 210.6 50.9294 210.282 50.864 210.004C50.4885 210.004 50.113 210.004 49.7375 210.004C49.362 210.004 48.9865 209.996 48.611 209.98V212.869C48.611 213.327 48.6518 213.661 48.7334 213.873C48.9947 213.939 49.2722 213.971 49.5661 213.971H50.3008V215.122ZM56.75 203.465C57.7133 203.286 59.1174 203.196 60.9623 203.196H65.9827L66.2031 204.273C66.2194 204.404 66.2602 204.608 66.3255 204.886C66.3908 205.163 66.4235 205.408 66.4235 205.62L65.2235 205.645L65.1745 205.253C65.1419 205.024 65.0765 204.771 64.9786 204.494C64.6521 204.331 63.95 204.249 62.8725 204.249L62.1378 204.273L60.3255 204.298V208.461H63.1174C63.5092 208.461 63.7786 208.322 63.9255 208.045C63.9908 207.947 64.0561 207.784 64.1214 207.555H64.5378C64.5378 208.6 64.5051 209.563 64.4398 210.445H63.9255C63.7459 209.89 63.5092 209.563 63.2153 209.465C63.1174 209.433 62.9949 209.416 62.848 209.416H60.3255V213.971H64.097C64.7174 213.971 65.1092 213.873 65.2725 213.678C65.3704 213.4 65.4521 212.951 65.5174 212.331C65.8602 212.331 66.2031 212.331 66.5459 212.331V213.286C66.5459 213.547 66.5296 213.824 66.497 214.118C66.4806 214.396 66.4643 214.633 66.448 214.829C65.8929 214.992 65.3296 215.082 64.7582 215.098C64.2031 215.114 63.697 215.122 63.2398 215.122L59.4439 215C58.2684 215 57.4031 215.041 56.848 215.122V213.971H57.5827C57.9092 213.971 58.1868 213.939 58.4153 213.873C58.5133 213.661 58.5541 213.343 58.5378 212.918V205.376C58.5378 204.935 58.497 204.616 58.4153 204.42C58.3174 204.371 58.2031 204.347 58.0725 204.347H56.75V203.465ZM70.187 205.155C70.0727 205.384 70.0155 205.629 70.0155 205.89C70.0155 206.396 70.2033 206.82 70.5788 207.163C70.9706 207.49 71.4931 207.767 72.1462 207.996C73.5339 208.518 74.587 209.065 75.3053 209.637C76.0237 210.192 76.3829 210.918 76.3829 211.816C76.3829 213.465 75.5421 214.559 73.8604 215.098C73.3543 215.245 72.8645 215.318 72.3911 215.318C70.5298 215.318 69.0686 214.853 68.0074 213.922L68.3747 211.718L69.6237 211.767C69.6237 212.633 69.738 213.261 69.9666 213.653C70.4074 214.094 71.1502 214.314 72.1951 214.314C72.8482 214.314 73.4033 214.127 73.8604 213.751C74.3339 213.376 74.5706 212.902 74.5706 212.331C74.5706 211.449 73.9257 210.69 72.636 210.053C72.2278 209.857 71.787 209.669 71.3135 209.49C70.84 209.31 70.4155 209.114 70.04 208.902C68.8319 208.233 68.2278 207.327 68.2278 206.184C68.2278 204.731 69.0768 203.759 70.7747 203.269C71.3462 203.106 71.9747 203.024 72.6604 203.024C73.3625 203.024 74.0319 203.098 74.6686 203.245C75.3217 203.392 75.7217 203.588 75.8686 203.833C75.8686 203.882 75.8686 203.947 75.8686 204.029L75.8196 204.347C75.7543 204.984 75.6809 205.588 75.5992 206.159L74.5462 206.061C74.5462 205.294 74.3911 204.763 74.0809 204.469C73.787 204.176 73.2155 204.029 72.3666 204.029C71.2564 204.029 70.5298 204.404 70.187 205.155ZM81.5407 204.224V209.196C81.5407 209.196 81.9897 209.196 82.8876 209.196C84.8141 209.196 85.7774 208.363 85.7774 206.698C85.7774 205.408 85.2468 204.633 84.1856 204.371C83.8264 204.273 83.4101 204.224 82.9366 204.224H81.5407ZM83.2305 215.122C82.6917 215.041 81.8427 215 80.6835 215C79.5243 215 78.6427 215.041 78.0386 215.122V213.971H78.7733C79.0999 213.971 79.3774 213.939 79.606 213.873C79.7039 213.661 79.7529 213.343 79.7529 212.918L79.7284 205.253C79.7284 204.812 79.6876 204.494 79.606 204.298C79.3121 204.249 79.0346 204.224 78.7733 204.224H77.8672V203.343C78.9774 203.196 80.2346 203.122 81.6386 203.122C83.059 203.122 84.0876 203.18 84.7243 203.294C86.6509 203.62 87.6141 204.755 87.6141 206.698C87.6141 209.049 86.0305 210.224 82.8631 210.224C82.5039 210.224 82.0631 210.208 81.5407 210.176V212.869C81.5407 213.327 81.5815 213.661 81.6631 213.873C81.9243 213.939 82.2019 213.971 82.4958 213.971H83.2305V215.122ZM91.1604 209.171C91.1604 212.584 92.3277 214.29 94.6624 214.29C96.9971 214.29 98.1645 212.576 98.1645 209.147C98.1645 207.449 97.8624 206.167 97.2583 205.302C96.6379 204.453 95.7726 204.029 94.6624 204.029C92.9808 204.029 91.8951 204.992 91.4053 206.918C91.242 207.555 91.1604 208.306 91.1604 209.171ZM98.6543 204.665C99.6502 205.743 100.148 207.237 100.148 209.147C100.148 211.041 99.6583 212.543 98.6787 213.653C97.6992 214.763 96.3604 215.318 94.6624 215.318C92.9808 215.318 91.642 214.763 90.6461 213.653C89.6665 212.543 89.1767 211.041 89.1767 209.147C89.1767 207.237 89.6665 205.743 90.6461 204.665C91.642 203.571 92.9808 203.024 94.6624 203.024C96.3441 203.024 97.6747 203.571 98.6543 204.665ZM106.674 215.122C106.184 215.041 105.408 215 104.347 215C103.302 215 102.494 215.041 101.922 215.122V213.971H102.657C102.984 213.971 103.261 213.939 103.49 213.873C103.588 213.661 103.637 213.343 103.637 212.918L103.612 205.302C103.612 204.861 103.571 204.535 103.49 204.322C103.31 204.257 103.025 204.224 102.633 204.224H101.727V203.343C103 203.245 103.849 203.196 104.274 203.196C104.698 203.196 105.09 203.237 105.449 203.318C108.012 207.286 109.996 210.453 111.4 212.82L111.278 206.233V205.302C111.278 204.861 111.237 204.535 111.155 204.322C110.894 204.257 110.608 204.224 110.298 204.224H109.465V203.343C110.184 203.245 111.057 203.196 112.086 203.196C113.131 203.196 113.857 203.245 114.265 203.343V204.224H113.629C113.286 204.224 113 204.257 112.771 204.322C112.69 204.535 112.649 204.943 112.649 205.547C112.649 206.135 112.641 206.853 112.625 207.702C112.608 208.535 112.592 209.384 112.576 210.249C112.559 211.114 112.535 211.963 112.502 212.796C112.469 213.629 112.445 214.404 112.429 215.122H111.571C111.31 215.122 111.065 215.065 110.837 214.951L104.861 205.473C104.927 206.714 104.959 208.273 104.959 210.151C104.959 212.029 104.967 213.09 104.984 213.335C105.016 213.563 105.057 213.743 105.106 213.873C105.367 213.939 105.645 213.971 105.939 213.971H106.674V215.122ZM117.718 205.155C117.604 205.384 117.547 205.629 117.547 205.89C117.547 206.396 117.735 206.82 118.11 207.163C118.502 207.49 119.024 207.767 119.677 207.996C121.065 208.518 122.118 209.065 122.837 209.637C123.555 210.192 123.914 210.918 123.914 211.816C123.914 213.465 123.073 214.559 121.392 215.098C120.886 215.245 120.396 215.318 119.922 215.318C118.061 215.318 116.6 214.853 115.539 213.922L115.906 211.718L117.155 211.767C117.155 212.633 117.269 213.261 117.498 213.653C117.939 214.094 118.681 214.314 119.726 214.314C120.379 214.314 120.935 214.127 121.392 213.751C121.865 213.376 122.102 212.902 122.102 212.331C122.102 211.449 121.457 210.69 120.167 210.053C119.759 209.857 119.318 209.669 118.845 209.49C118.371 209.31 117.947 209.114 117.571 208.902C116.363 208.233 115.759 207.327 115.759 206.184C115.759 204.731 116.608 203.759 118.306 203.269C118.877 203.106 119.506 203.024 120.192 203.024C120.894 203.024 121.563 203.098 122.2 203.245C122.853 203.392 123.253 203.588 123.4 203.833C123.4 203.882 123.4 203.947 123.4 204.029L123.351 204.347C123.286 204.984 123.212 205.588 123.13 206.159L122.077 206.061C122.077 205.294 121.922 204.763 121.612 204.469C121.318 204.176 120.747 204.029 119.898 204.029C118.788 204.029 118.061 204.404 117.718 205.155ZM130.615 215.122C130.092 215.041 129.243 215 128.068 215C126.909 215 126.027 215.041 125.423 215.122V213.971H126.133C126.443 213.971 126.729 213.939 126.99 213.873C127.088 213.629 127.129 213.31 127.113 212.918V205.253C127.113 204.845 127.072 204.535 126.99 204.322C126.811 204.257 126.525 204.224 126.133 204.224H125.398V203.343C126.149 203.245 127.08 203.196 128.19 203.196C129.317 203.196 130.125 203.245 130.615 203.343V204.224H129.88C129.537 204.224 129.252 204.257 129.023 204.322C128.941 204.649 128.9 204.959 128.9 205.253V212.869C128.9 213.212 128.941 213.547 129.023 213.873C129.284 213.939 129.57 213.971 129.88 213.971H130.615V215.122ZM135.884 204.224C135.573 204.224 135.304 204.257 135.075 204.322C135.075 204.486 135.181 204.812 135.394 205.302L138.455 213.237H138.528L141.369 205.302C141.516 204.927 141.59 204.6 141.59 204.322C141.443 204.257 141.173 204.224 140.781 204.224H140.194L140.243 203.343C140.896 203.245 141.688 203.196 142.618 203.196C143.565 203.196 144.235 203.245 144.626 203.343L144.43 204.224H144.014C143.688 204.224 143.394 204.257 143.133 204.322C142.937 204.633 142.79 204.959 142.692 205.302C142.398 206.086 141.941 207.335 141.32 209.049C140.7 210.747 139.916 212.731 138.969 215H138.112C137.606 215 137.296 214.878 137.181 214.633L133.459 205.302C133.328 205.008 133.149 204.682 132.92 204.322C132.741 204.257 132.447 204.224 132.039 204.224H131.426L131.23 203.343C131.884 203.245 132.765 203.196 133.875 203.196C135.002 203.196 135.835 203.245 136.373 203.343L136.471 204.224H135.884ZM145.25 203.465C146.213 203.286 147.617 203.196 149.462 203.196H154.483L154.703 204.273C154.719 204.404 154.76 204.608 154.826 204.886C154.891 205.163 154.923 205.408 154.923 205.62L153.723 205.645L153.675 205.253C153.642 205.024 153.577 204.771 153.479 204.494C153.152 204.331 152.45 204.249 151.372 204.249L150.638 204.273L148.826 204.298V208.461H151.617C152.009 208.461 152.279 208.322 152.426 208.045C152.491 207.947 152.556 207.784 152.621 207.555H153.038C153.038 208.6 153.005 209.563 152.94 210.445H152.426C152.246 209.89 152.009 209.563 151.715 209.465C151.617 209.433 151.495 209.416 151.348 209.416H148.826V213.971H152.597C153.217 213.971 153.609 213.873 153.772 213.678C153.87 213.4 153.952 212.951 154.017 212.331C154.36 212.331 154.703 212.331 155.046 212.331V213.286C155.046 213.547 155.03 213.824 154.997 214.118C154.981 214.396 154.964 214.633 154.948 214.829C154.393 214.992 153.83 215.082 153.258 215.098C152.703 215.114 152.197 215.122 151.74 215.122L147.944 215C146.768 215 145.903 215.041 145.348 215.122V213.971H146.083C146.409 213.971 146.687 213.939 146.915 213.873C147.013 213.661 147.054 213.343 147.038 212.918V205.376C147.038 204.935 146.997 204.616 146.915 204.42C146.817 204.371 146.703 204.347 146.572 204.347H145.25V203.465Z" fill="white"/>
<path d="M91.9404 130.369H106.79L108.775 137.725H90.0649L91.9404 130.369Z" fill="white"/>
<path d="M78.1578 140.743C77.974 140.743 77.8049 140.844 77.7177 141.006L76.511 143.245C76.4275 143.4 76.4316 143.587 76.5219 143.738C76.6121 143.889 76.7752 143.982 76.9512 143.982H122.048C122.227 143.982 122.391 143.887 122.481 143.733C122.57 143.579 122.571 143.388 122.482 143.234L121.203 140.995C121.114 140.839 120.948 140.743 120.769 140.743H78.1578Z" fill="white" stroke="white" stroke-linejoin="round"/>
<rect x="60" y="68" width="79" height="58.8502" rx="7" fill="white"/>
<path d="M63 103H136V71H117.75H108.625H99.5H90.375H81.25H63V103Z" fill="#97AAEB"/>
<rect x="88.7856" y="106.381" width="21.749" height="17.9109" fill="#97AAEB"/>
<rect x="62.8784" y="106.381" width="21.749" height="17.9109" fill="#97AAEB"/>
<rect x="114.692" y="106.381" width="21.749" height="17.9109" fill="#D7E9FF"/>
</svg>
