<svg width="200" height="240" viewBox="0 0 200 240" fill="none" xmlns="http://www.w3.org/2000/svg">
<rect x="2.4" y="2.4" width="195.2" height="235.2" rx="5.6" fill="#D7E9FF"/>
<rect x="2.4" y="2.4" width="195.2" height="235.2" rx="5.6" fill="url(#paint0_linear)"/>
<rect x="2.4" y="2.4" width="195.2" height="235.2" rx="5.6" stroke="white" stroke-width="4.8"/>
<path d="M76.6163 203.343L76.5183 206.233H75.4897C75.4897 205.318 75.3999 204.649 75.2203 204.224H72.2081V212.869C72.2081 213.278 72.2408 213.612 72.3061 213.873C72.5673 213.939 72.8612 213.971 73.1877 213.971H73.9224V215.122C73.3999 215.041 72.551 215 71.3754 215C70.1999 215 69.3101 215.041 68.7061 215.122V213.971H69.4408C69.7673 213.971 70.0448 213.939 70.2734 213.873C70.355 213.661 70.3959 213.376 70.3959 213.016V204.224H67.3836C67.204 204.551 67.1142 205.22 67.1142 206.233H65.9877L65.8897 203.343C66.0857 203.245 66.7305 203.196 67.8244 203.196L69.5632 203.245H70.3469L71.3999 203.269L72.5999 203.245C72.8285 203.245 73.0571 203.245 73.2857 203.245L74.6571 203.196C75.7673 203.196 76.4203 203.245 76.6163 203.343ZM82.6937 209.024C84.6202 209.024 85.5834 208.216 85.5834 206.6C85.5834 205.718 85.3467 205.106 84.8732 204.763C84.3998 204.404 83.6079 204.224 82.4977 204.224H81.2243V209.024C81.7141 209.024 82.2039 209.024 82.6937 209.024ZM82.9141 215.122C82.3753 215.041 81.5263 215 80.3671 215C79.2079 215 78.3263 215.041 77.7222 215.122V213.971H78.4569C78.7835 213.971 79.061 213.939 79.2896 213.873C79.3875 213.661 79.4365 213.343 79.4365 212.918L79.412 205.204C79.412 204.812 79.3712 204.51 79.2896 204.298C79.1263 204.249 78.8732 204.224 78.5304 204.224H77.5508V203.343C77.7304 203.327 77.9426 203.302 78.1875 203.269C78.4324 203.237 78.6937 203.22 78.9712 203.22C79.2651 203.204 79.559 203.188 79.8528 203.171C80.163 203.155 80.5222 203.147 80.9304 203.147H82.5467C84.1304 203.147 85.3386 203.408 86.1712 203.931C87.0039 204.437 87.4202 205.302 87.4202 206.527C87.4202 208.094 86.6365 209.155 85.0692 209.71C85.3141 211.098 85.9998 212.306 87.1263 213.335C87.5835 213.759 87.9753 213.971 88.3018 213.971H88.7426V215.122H87.5181C86.6202 215.122 85.8447 214.804 85.1916 214.167C84.7345 213.694 84.3426 212.992 84.0161 212.061C83.8692 211.669 83.7549 211.302 83.6732 210.959C83.6079 210.6 83.5426 210.282 83.4773 210.004C83.1018 210.004 82.7263 210.004 82.3508 210.004C81.9753 210.004 81.5998 209.996 81.2243 209.98V212.869C81.2243 213.327 81.2651 213.661 81.3467 213.873C81.6079 213.939 81.8855 213.971 82.1794 213.971H82.9141V215.122ZM89.3633 203.465C90.3266 203.286 91.7306 203.196 93.5755 203.196H98.596L98.8164 204.273C98.8327 204.404 98.8735 204.608 98.9388 204.886C99.0041 205.163 99.0368 205.408 99.0368 205.62L97.8368 205.645L97.7878 205.253C97.7551 205.024 97.6898 204.771 97.5919 204.494C97.2653 204.331 96.5633 204.249 95.4857 204.249L94.7511 204.273L92.9388 204.298V208.461H95.7306C96.1225 208.461 96.3919 208.322 96.5388 208.045C96.6041 207.947 96.6694 207.784 96.7347 207.555H97.1511C97.1511 208.6 97.1184 209.563 97.0531 210.445H96.5388C96.3592 209.89 96.1225 209.563 95.8286 209.465C95.7306 209.433 95.6082 209.416 95.4613 209.416H92.9388V213.971H96.7102C97.3306 213.971 97.7225 213.873 97.8857 213.678C97.9837 213.4 98.0653 212.951 98.1306 212.331C98.4735 212.331 98.8164 212.331 99.1592 212.331V213.286C99.1592 213.547 99.1429 213.824 99.1102 214.118C99.0939 214.396 99.0776 214.633 99.0613 214.829C98.5062 214.992 97.9429 215.082 97.3715 215.098C96.8164 215.114 96.3102 215.122 95.8531 215.122L92.0572 215C90.8817 215 90.0164 215.041 89.4613 215.122V213.971H90.196C90.5225 213.971 90.8 213.939 91.0286 213.873C91.1266 213.661 91.1674 213.343 91.1511 212.918V205.376C91.1511 204.935 91.1102 204.616 91.0286 204.42C90.9306 204.371 90.8164 204.347 90.6857 204.347H89.3633V203.465ZM106.964 215.122L103.045 215C101.886 215 101.029 215.041 100.474 215.122V213.971H101.184C101.494 213.971 101.78 213.939 102.041 213.873C102.139 213.629 102.18 213.31 102.164 212.918V205.302C102.164 204.861 102.123 204.535 102.041 204.322C101.861 204.257 101.576 204.224 101.184 204.224H100.449V203.343C101.2 203.245 102.131 203.196 103.241 203.196C104.368 203.196 105.184 203.245 105.69 203.343V204.224H104.931C104.621 204.224 104.335 204.257 104.074 204.322C103.992 204.649 103.951 204.976 103.951 205.302V213.971H107.086C107.723 213.971 108.164 213.906 108.408 213.776C108.817 213.563 109.119 213.082 109.315 212.331L110.025 212.404L109.731 215C108.539 215.082 107.617 215.122 106.964 215.122ZM117.862 215.122L113.944 215C112.784 215 111.927 215.041 111.372 215.122V213.971H112.082C112.393 213.971 112.678 213.939 112.94 213.873C113.037 213.629 113.078 213.31 113.062 212.918V205.302C113.062 204.861 113.021 204.535 112.94 204.322C112.76 204.257 112.474 204.224 112.082 204.224H111.348V203.343C112.099 203.245 113.029 203.196 114.14 203.196C115.266 203.196 116.082 203.245 116.588 203.343V204.224H115.829C115.519 204.224 115.233 204.257 114.972 204.322C114.891 204.649 114.85 204.976 114.85 205.302V213.971H117.984C118.621 213.971 119.062 213.906 119.307 213.776C119.715 213.563 120.017 213.082 120.213 212.331L120.923 212.404L120.629 215C119.437 215.082 118.515 215.122 117.862 215.122ZM124.524 209.171C124.524 212.584 125.691 214.29 128.026 214.29C130.36 214.29 131.528 212.576 131.528 209.147C131.528 207.449 131.226 206.167 130.622 205.302C130.001 204.453 129.136 204.029 128.026 204.029C126.344 204.029 125.258 204.992 124.769 206.918C124.605 207.555 124.524 208.306 124.524 209.171ZM132.018 204.665C133.013 205.743 133.511 207.237 133.511 209.147C133.511 211.041 133.022 212.543 132.042 213.653C131.062 214.763 129.724 215.318 128.026 215.318C126.344 215.318 125.005 214.763 124.009 213.653C123.03 212.543 122.54 211.041 122.54 209.147C122.54 207.237 123.03 205.743 124.009 204.665C125.005 203.571 126.344 203.024 128.026 203.024C129.707 203.024 131.038 203.571 132.018 204.665Z" fill="white"/>
<path d="M128.578 55H67.4219C63.3229 55 60 58.3229 60 62.4219V123.578C60 127.677 63.3229 131 67.4219 131H128.578C132.677 131 136 127.677 136 123.578V62.4219C136 58.3229 132.677 55 128.578 55Z" fill="url(#paint1_linear)"/>
<path d="M122.557 64.8801H106.502C104.535 64.8801 102.94 66.4751 102.94 68.4426V94.5676C102.94 96.5351 104.535 98.1301 106.502 98.1301H122.557C124.525 98.1301 126.12 96.5351 126.12 94.5676V68.4426C126.12 66.4751 124.525 64.8801 122.557 64.8801Z" fill="white"/>
<path d="M89.4974 64.8801H73.4424C71.4749 64.8801 69.8799 66.4751 69.8799 68.4426V113.568C69.8799 115.535 71.4749 117.13 73.4424 117.13H89.4974C91.4649 117.13 93.0599 115.535 93.0599 113.568V68.4426C93.0599 66.4751 91.4649 64.8801 89.4974 64.8801Z" fill="white"/>
<defs>
<linearGradient id="paint0_linear" x1="100" y1="0" x2="100" y2="240" gradientUnits="userSpaceOnUse">
<stop offset="0.744692" stop-color="#97AAEB" stop-opacity="0"/>
<stop offset="0.744792" stop-color="#4A72DE" stop-opacity="0.126477"/>
<stop offset="0.744892" stop-color="#97AAEB"/>
<stop offset="1" stop-color="#97AAEB"/>
</linearGradient>
<linearGradient id="paint1_linear" x1="98" y1="55" x2="98" y2="131" gradientUnits="userSpaceOnUse">
<stop stop-color="#0091E6"/>
<stop offset="1" stop-color="#0079BF"/>
</linearGradient>
</defs>
</svg>
