<svg width="200" height="240" viewBox="0 0 200 240" fill="none" xmlns="http://www.w3.org/2000/svg">
<rect x="2.4" y="2.4" width="195.2" height="235.2" rx="5.6" fill="#D7E9FF"/>
<rect x="2.4" y="2.4" width="195.2" height="235.2" rx="5.6" fill="url(#paint0_linear)"/>
<rect x="2.4" y="2.4" width="195.2" height="235.2" rx="5.6" stroke="white" stroke-width="4.8"/>
<path d="M52.6866 214.167C51.5764 214.935 50.1886 215.318 48.5233 215.318C45.7805 215.318 43.9519 214.216 43.0376 212.012C42.7274 211.278 42.5723 210.388 42.5723 209.343C42.5723 207.286 43.1437 205.718 44.2866 204.641C45.4294 203.563 46.9886 203.024 48.9641 203.024C50.2866 203.024 51.4621 203.31 52.4907 203.882L52.2702 206.184H51.2662C50.9886 205.4 50.7192 204.886 50.458 204.641C50.0335 204.233 49.4702 204.029 48.7682 204.029C47.3478 204.029 46.2866 204.486 45.5845 205.4C44.8988 206.314 44.556 207.555 44.556 209.122C44.556 210.69 44.8988 211.931 45.5845 212.845C46.2866 213.759 47.2743 214.216 48.5478 214.216C49.5437 214.216 50.3519 214.061 50.9723 213.751V211.841C50.9723 211.351 50.9315 211 50.8498 210.788C50.6702 210.722 50.3845 210.69 49.9927 210.69H49.0131V209.784C49.1111 209.784 49.3396 209.767 49.6988 209.735C50.0743 209.686 50.556 209.661 51.1437 209.661H52.7356C52.7192 209.922 52.7111 210.143 52.7111 210.322L52.6866 211.082V214.167ZM58.8108 209.024C60.7374 209.024 61.7006 208.216 61.7006 206.6C61.7006 205.718 61.4639 205.106 60.9904 204.763C60.517 204.404 59.7251 204.224 58.6149 204.224H57.3415V209.024C57.8312 209.024 58.321 209.024 58.8108 209.024ZM59.0312 215.122C58.4925 215.041 57.6435 215 56.4843 215C55.3251 215 54.4435 215.041 53.8394 215.122V213.971H54.5741C54.9006 213.971 55.1782 213.939 55.4068 213.873C55.5047 213.661 55.5537 213.343 55.5537 212.918L55.5292 205.204C55.5292 204.812 55.4884 204.51 55.4068 204.298C55.2435 204.249 54.9904 204.224 54.6476 204.224H53.668V203.343C53.8476 203.327 54.0598 203.302 54.3047 203.269C54.5496 203.237 54.8108 203.22 55.0884 203.22C55.3823 203.204 55.6761 203.188 55.97 203.171C56.2802 203.155 56.6394 203.147 57.0476 203.147H58.6639C60.2476 203.147 61.4557 203.408 62.2884 203.931C63.121 204.437 63.5374 205.302 63.5374 206.527C63.5374 208.094 62.7537 209.155 61.1864 209.71C61.4312 211.098 62.117 212.306 63.2435 213.335C63.7006 213.759 64.0925 213.971 64.419 213.971H64.8598V215.122H63.6353C62.7374 215.122 61.9619 214.804 61.3088 214.167C60.8517 213.694 60.4598 212.992 60.1333 212.061C59.9864 211.669 59.8721 211.302 59.7904 210.959C59.7251 210.6 59.6598 210.282 59.5945 210.004C59.219 210.004 58.8435 210.004 58.468 210.004C58.0925 210.004 57.717 209.996 57.3415 209.98V212.869C57.3415 213.327 57.3823 213.661 57.4639 213.873C57.7251 213.939 58.0027 213.971 58.2966 213.971H59.0312V215.122ZM65.4805 203.465C66.4437 203.286 67.8478 203.196 69.6927 203.196H74.7131L74.9335 204.273C74.9499 204.404 74.9907 204.608 75.056 204.886C75.1213 205.163 75.154 205.408 75.154 205.62L73.954 205.645L73.905 205.253C73.8723 205.024 73.807 204.771 73.7091 204.494C73.3825 204.331 72.6805 204.249 71.6029 204.249L70.8682 204.273L69.056 204.298V208.461H71.8478C72.2397 208.461 72.5091 208.322 72.656 208.045C72.7213 207.947 72.7866 207.784 72.8519 207.555H73.2682C73.2682 208.6 73.2356 209.563 73.1703 210.445H72.656C72.4764 209.89 72.2397 209.563 71.9458 209.465C71.8478 209.433 71.7254 209.416 71.5784 209.416H69.056V213.971H72.8274C73.4478 213.971 73.8397 213.873 74.0029 213.678C74.1009 213.4 74.1825 212.951 74.2478 212.331C74.5907 212.331 74.9335 212.331 75.2764 212.331V213.286C75.2764 213.547 75.2601 213.824 75.2274 214.118C75.2111 214.396 75.1948 214.633 75.1784 214.829C74.6233 214.992 74.0601 215.082 73.4886 215.098C72.9335 215.114 72.4274 215.122 71.9703 215.122L68.1744 215C66.9989 215 66.1335 215.041 65.5784 215.122V213.971H66.3131C66.6397 213.971 66.9172 213.939 67.1458 213.873C67.2437 213.661 67.2846 213.343 67.2682 212.918V205.376C67.2682 204.935 67.2274 204.616 67.1458 204.42C67.0478 204.371 66.9335 204.347 66.8029 204.347H65.4805V203.465ZM82.0766 204.69L80.0195 210.69H84.1827L82.1501 204.69H82.0766ZM80.0195 215.122C79.6276 215.041 78.9746 215 78.0603 215C77.146 215 76.4358 215.041 75.9297 215.122L76.1746 213.971H76.5419C76.8358 213.971 77.097 213.939 77.3256 213.873C77.5542 213.563 77.7093 213.286 77.7909 213.041C77.8889 212.78 78.0032 212.461 78.1338 212.086C78.2807 211.71 78.4521 211.278 78.6481 210.788C78.844 210.298 79.0481 209.767 79.2603 209.196C79.4889 208.624 79.7174 208.061 79.946 207.506L81.6603 203.196H82.4195C82.8113 203.196 83.1379 203.245 83.3991 203.343L87.0236 212.869C87.2195 213.343 87.3827 213.678 87.5134 213.873C87.7746 213.939 88.0358 213.971 88.297 213.971H88.6644L88.9093 215.122C88.4521 215.041 87.9542 215 87.4154 215H86.2644C85.5623 215 84.9664 215.041 84.4766 215.122L84.3052 213.971H84.4521C84.746 213.971 85.0236 213.939 85.2848 213.873C85.2848 213.629 85.2032 213.31 85.0399 212.918L84.4766 211.547H79.7501L79.3093 212.869C79.1787 213.261 79.1134 213.571 79.1134 213.8C79.1134 213.914 79.3174 213.971 79.7256 213.971H80.093L80.0195 215.122ZM99.96 203.343L99.8621 206.233H98.8335C98.8335 205.318 98.7437 204.649 98.5641 204.224H95.5518V212.869C95.5518 213.278 95.5845 213.612 95.6498 213.873C95.911 213.939 96.2049 213.971 96.5314 213.971H97.2661V215.122C96.7437 215.041 95.8947 215 94.7192 215C93.5437 215 92.6539 215.041 92.0498 215.122V213.971H92.7845C93.111 213.971 93.3886 213.939 93.6172 213.873C93.6988 213.661 93.7396 213.376 93.7396 213.016V204.224H90.7274C90.5478 204.551 90.458 205.22 90.458 206.233H89.3314L89.2335 203.343C89.4294 203.245 90.0743 203.196 91.1682 203.196L92.907 203.245H93.6906L94.7437 203.269L95.9437 203.245C96.1723 203.245 96.4008 203.245 96.6294 203.245L98.0008 203.196C99.111 203.196 99.7641 203.245 99.96 203.343ZM110.447 215.122C109.924 215.041 109.075 215 107.9 215C106.741 215 105.859 215.041 105.255 215.122V213.971H105.965C106.275 213.971 106.561 213.939 106.822 213.873C106.92 213.629 106.961 213.31 106.945 212.918V205.253C106.945 204.845 106.904 204.535 106.822 204.322C106.643 204.257 106.357 204.224 105.965 204.224H105.23V203.343C105.982 203.245 106.912 203.196 108.022 203.196C109.149 203.196 109.957 203.245 110.447 203.343V204.224H109.712C109.369 204.224 109.084 204.257 108.855 204.322C108.773 204.649 108.733 204.959 108.733 205.253V212.869C108.733 213.212 108.773 213.547 108.855 213.873C109.116 213.939 109.402 213.971 109.712 213.971H110.447V215.122ZM111.699 203.367C113.071 203.188 114.516 203.098 116.034 203.098C117.552 203.098 118.565 203.139 119.071 203.22C119.577 203.286 120.05 203.408 120.491 203.588C122.418 204.42 123.381 206.282 123.381 209.171C123.381 211.718 122.524 213.392 120.809 214.192C119.862 214.633 118.54 214.886 116.842 214.951C116.075 214.984 115.307 215 114.54 215C113.789 215 112.883 215.041 111.822 215.122V213.947C112.687 213.947 113.209 213.922 113.389 213.873C113.471 213.629 113.511 213.302 113.511 212.894V205.596C113.511 205.237 113.471 204.853 113.389 204.445C113.209 204.38 112.932 204.347 112.556 204.347H111.699V203.367ZM117.234 204.224L115.275 204.249V213.971C115.373 213.988 115.462 213.996 115.544 213.996H116.205C118.54 213.996 120.067 213.384 120.785 212.159C121.193 211.441 121.397 210.527 121.397 209.416C121.397 208.29 121.316 207.416 121.152 206.796C120.989 206.176 120.736 205.678 120.393 205.302C119.756 204.584 118.703 204.224 117.234 204.224ZM124.941 203.465C125.905 203.286 127.309 203.196 129.154 203.196H134.174L134.394 204.273C134.411 204.404 134.452 204.608 134.517 204.886C134.582 205.163 134.615 205.408 134.615 205.62L133.415 205.645L133.366 205.253C133.333 205.024 133.268 204.771 133.17 204.494C132.843 204.331 132.141 204.249 131.064 204.249L130.329 204.273L128.517 204.298V208.461H131.309C131.701 208.461 131.97 208.322 132.117 208.045C132.182 207.947 132.248 207.784 132.313 207.555H132.729C132.729 208.6 132.697 209.563 132.631 210.445H132.117C131.937 209.89 131.701 209.563 131.407 209.465C131.309 209.433 131.186 209.416 131.039 209.416H128.517V213.971H132.288C132.909 213.971 133.301 213.873 133.464 213.678C133.562 213.4 133.643 212.951 133.709 212.331C134.052 212.331 134.394 212.331 134.737 212.331V213.286C134.737 213.547 134.721 213.824 134.688 214.118C134.672 214.396 134.656 214.633 134.639 214.829C134.084 214.992 133.521 215.082 132.95 215.098C132.394 215.114 131.888 215.122 131.431 215.122L127.635 215C126.46 215 125.594 215.041 125.039 215.122V213.971H125.774C126.101 213.971 126.378 213.939 126.607 213.873C126.705 213.661 126.746 213.343 126.729 212.918V205.376C126.729 204.935 126.688 204.616 126.607 204.42C126.509 204.371 126.394 204.347 126.264 204.347H124.941V203.465ZM141.538 204.69L139.48 210.69H143.644L141.611 204.69H141.538ZM139.48 215.122C139.089 215.041 138.436 215 137.521 215C136.607 215 135.897 215.041 135.391 215.122L135.636 213.971H136.003C136.297 213.971 136.558 213.939 136.787 213.873C137.015 213.563 137.17 213.286 137.252 213.041C137.35 212.78 137.464 212.461 137.595 212.086C137.742 211.71 137.913 211.278 138.109 210.788C138.305 210.298 138.509 209.767 138.721 209.196C138.95 208.624 139.178 208.061 139.407 207.506L141.121 203.196H141.88C142.272 203.196 142.599 203.245 142.86 203.343L146.485 212.869C146.68 213.343 146.844 213.678 146.974 213.873C147.236 213.939 147.497 213.971 147.758 213.971H148.125L148.37 215.122C147.913 215.041 147.415 215 146.876 215H145.725C145.023 215 144.427 215.041 143.938 215.122L143.766 213.971H143.913C144.207 213.971 144.485 213.939 144.746 213.873C144.746 213.629 144.664 213.31 144.501 212.918L143.938 211.547H139.211L138.77 212.869C138.64 213.261 138.574 213.571 138.574 213.8C138.574 213.914 138.778 213.971 139.187 213.971H139.554L139.48 215.122ZM151.339 205.155C151.225 205.384 151.168 205.629 151.168 205.89C151.168 206.396 151.356 206.82 151.731 207.163C152.123 207.49 152.645 207.767 153.299 207.996C154.686 208.518 155.739 209.065 156.458 209.637C157.176 210.192 157.535 210.918 157.535 211.816C157.535 213.465 156.694 214.559 155.013 215.098C154.507 215.245 154.017 215.318 153.543 215.318C151.682 215.318 150.221 214.853 149.16 213.922L149.527 211.718L150.776 211.767C150.776 212.633 150.89 213.261 151.119 213.653C151.56 214.094 152.303 214.314 153.347 214.314C154.001 214.314 154.556 214.127 155.013 213.751C155.486 213.376 155.723 212.902 155.723 212.331C155.723 211.449 155.078 210.69 153.788 210.053C153.38 209.857 152.939 209.669 152.466 209.49C151.992 209.31 151.568 209.114 151.192 208.902C149.984 208.233 149.38 207.327 149.38 206.184C149.38 204.731 150.229 203.759 151.927 203.269C152.499 203.106 153.127 203.024 153.813 203.024C154.515 203.024 155.184 203.098 155.821 203.245C156.474 203.392 156.874 203.588 157.021 203.833C157.021 203.882 157.021 203.947 157.021 204.029L156.972 204.347C156.907 204.984 156.833 205.588 156.752 206.159L155.699 206.061C155.699 205.294 155.543 204.763 155.233 204.469C154.939 204.176 154.368 204.029 153.519 204.029C152.409 204.029 151.682 204.404 151.339 205.155Z" fill="white"/>
<path d="M106.224 115.51H95.2097" stroke="#5975DB" stroke-width="4"/>
<path d="M106.35 121.024H95.2095" stroke="#5975DB" stroke-width="4"/>
<path d="M100.274 58L100.274 70.6708" stroke="#5975DB" stroke-width="5"/>
<path d="M117.912 64.7578L110.87 74.6965" stroke="#5975DB" stroke-width="5"/>
<path d="M131 84.1871L119.609 86.2997" stroke="#5975DB" stroke-width="5"/>
<path d="M70 84.0656L81.1936 86.6288" stroke="#5975DB" stroke-width="5"/>
<path d="M81.3525 64.7578L88.3945 74.6965" stroke="#5975DB" stroke-width="5"/>
<path d="M115.411 89.9813C115.411 93.8204 113.632 97.2823 110.782 99.725C109.449 100.867 110.113 106.15 107.464 109.529C104.815 112.908 97.2808 112.79 94.5974 109.867C91.2431 106.213 93.1657 101.99 90.5226 99.725C87.6723 97.2823 85.8936 93.8204 85.8936 89.9813C85.8936 82.582 92.5012 76.5837 100.652 76.5837C108.803 76.5837 115.411 82.582 115.411 89.9813Z" fill="#5975DB"/>
<path d="M92.8725 85.7537C90.7751 88.8785 91.8908 90.6058 89.1335 90.6058C86.8673 89.0848 87.8272 84.4601 89.7967 82.4905C92.554 79.3393 95.1393 78.0555 97.4055 79.5765C99.6717 81.0976 94.9698 82.6289 92.8725 85.7537Z" fill="white" fill-opacity="0.7"/>
<defs>
<linearGradient id="paint0_linear" x1="100" y1="0" x2="100" y2="240" gradientUnits="userSpaceOnUse">
<stop offset="0.744692" stop-color="#6985EB" stop-opacity="0"/>
<stop offset="0.744792" stop-color="#4A72DE" stop-opacity="0.126477"/>
<stop offset="0.744892" stop-color="#6985EB"/>
</linearGradient>
</defs>
</svg>
