<svg width="200" height="245" viewBox="0 0 200 245" fill="none" xmlns="http://www.w3.org/2000/svg">
<path d="M197.6 57.3118V232.5C197.6 237.802 193.302 242.1 188 242.1H12C6.69807 242.1 2.4 237.802 2.4 232.5V57.3118C2.4 55.3475 2.97592 53.5374 4.11122 52.0975C12.8783 40.9788 47.1564 2.4002 100 2.4C152.844 2.3998 187.122 40.9788 195.889 52.0975C197.024 53.5374 197.6 55.3475 197.6 57.3118Z" fill="#7995FB" stroke="white" stroke-width="4.8"/>
<g filter="url(#filter0_d)">
<path d="M130.926 110.312V146.812L104.168 153.656L69.0005 146.812V110.312L83.5263 95.8645L117.93 93.5833L130.926 110.312Z" fill="#99B5FF"/>
</g>
<path d="M117.929 160.5L140.865 152.896V131.604" stroke="#F9FBFF" stroke-width="3"/>
<path d="M83.5259 87.5L69 87.5L69 98.9063" stroke="#F9FBFF" stroke-width="3"/>
<path d="M78.1743 138.6V129.019V119.438H86.584H94.9937V130.083V140.729L86.584 139.665L78.1743 138.6Z" fill="white"/>
<path d="M110.284 151.375V119.438H124.046V147.649L110.284 151.375Z" fill="white"/>
<path d="M84.8485 189.643C84.2009 189.548 83.2104 189.5 81.8771 189.5C80.5437 189.5 79.5152 189.548 78.7913 189.643V188.3H79.6485C80.0485 188.3 80.3818 188.262 80.6485 188.186C80.7628 187.938 80.8104 187.567 80.7914 187.071V183.043H74.2485V187.014C74.2485 187.414 74.2961 187.805 74.3914 188.186C74.6961 188.262 75.0294 188.3 75.3914 188.3H76.2485V189.643C75.6009 189.548 74.6009 189.5 73.2485 189.5C71.8961 189.5 70.8771 189.548 70.1914 189.643V188.3H71.0485C71.4294 188.3 71.7533 188.262 72.0199 188.186C72.1342 187.9 72.1914 187.529 72.1914 187.071V178.186C72.1914 177.729 72.1342 177.348 72.0199 177.043C71.8104 176.967 71.4771 176.929 71.0199 176.929H70.1628V175.9C71.039 175.786 72.1152 175.729 73.3914 175.729C74.6866 175.729 75.6485 175.786 76.2771 175.9V176.929H75.3914C75.0294 176.929 74.6961 176.967 74.3914 177.043C74.2961 177.424 74.2485 177.805 74.2485 178.186V181.729H80.7914V178.186C80.7914 177.671 80.7437 177.29 80.6485 177.043C80.439 176.967 80.1056 176.929 79.6485 176.929H78.7913V175.9C79.6675 175.786 80.7533 175.729 82.0485 175.729C83.3628 175.729 84.3152 175.786 84.9056 175.9V176.929H84.0199C83.658 176.929 83.3247 176.967 83.0199 177.043C82.9247 177.424 82.8771 177.805 82.8771 178.186V187.014C82.8771 187.414 82.9247 187.805 83.0199 188.186C83.3247 188.262 83.6485 188.3 83.9914 188.3H84.8485V189.643ZM89.0074 182.7C89.0074 186.681 90.3693 188.671 93.0931 188.671C95.8169 188.671 97.1788 186.671 97.1788 182.671C97.1788 180.69 96.8265 179.195 96.1217 178.186C95.3979 177.195 94.3884 176.7 93.0931 176.7C91.1312 176.7 89.8646 177.824 89.2931 180.071C89.1027 180.814 89.0074 181.69 89.0074 182.7ZM97.7503 177.443C98.9122 178.7 99.4931 180.443 99.4931 182.671C99.4931 184.881 98.9217 186.633 97.7789 187.929C96.636 189.224 95.0741 189.871 93.0931 189.871C91.1312 189.871 89.5693 189.224 88.4074 187.929C87.2646 186.633 86.6931 184.881 86.6931 182.671C86.6931 180.443 87.2646 178.7 88.4074 177.443C89.5693 176.167 91.1312 175.529 93.0931 175.529C95.055 175.529 96.6074 176.167 97.7503 177.443ZM120.935 189.643C120.268 189.548 119.268 189.5 117.935 189.5C116.62 189.5 115.63 189.548 114.963 189.643L114.849 188.3H115.62C116.078 188.3 116.354 188.252 116.449 188.157C116.563 188.062 116.62 187.9 116.62 187.671C116.62 187.424 116.611 187.11 116.592 186.729C116.592 186.329 116.573 185.89 116.535 185.414C116.497 184.919 116.439 184.205 116.363 183.271C116.306 182.319 116.182 180.586 115.992 178.071C113.478 185.1 112.097 188.91 111.849 189.5H110.049C109.668 188.49 109.211 187.214 108.678 185.671C108.163 184.11 107.735 182.843 107.392 181.871C107.068 180.881 106.658 179.643 106.163 178.157C105.763 184.157 105.563 187.29 105.563 187.557C105.563 187.805 105.63 187.995 105.763 188.129C105.897 188.243 106.163 188.3 106.563 188.3H107.306L107.22 189.643C106.554 189.548 105.573 189.5 104.278 189.5C102.982 189.5 102.001 189.548 101.335 189.643L101.563 188.3H102.506C102.868 188.3 103.201 188.262 103.506 188.186C103.754 187.69 103.897 187.3 103.935 187.014C103.973 186.71 104.02 186.31 104.078 185.814C104.135 185.3 104.182 184.757 104.22 184.186C104.278 183.614 104.325 183.033 104.363 182.443C104.401 181.852 104.439 181.3 104.478 180.786C104.535 180.252 104.573 179.776 104.592 179.357C104.611 178.938 104.63 178.614 104.649 178.386C104.687 178.138 104.706 177.938 104.706 177.786C104.706 177.633 104.687 177.51 104.649 177.414C104.63 177.3 104.611 177.195 104.592 177.1C104.325 176.986 103.982 176.929 103.563 176.929H102.563V175.9C102.754 175.881 103.001 175.852 103.306 175.814C103.63 175.757 104.182 175.729 104.963 175.729C105.763 175.729 106.535 175.786 107.278 175.9C107.925 177.462 108.611 179.386 109.335 181.671C110.078 183.957 110.573 185.462 110.82 186.186C111.087 186.91 111.22 187.3 111.22 187.357C112.097 184.652 112.935 182.195 113.735 179.986C114.554 177.776 115.049 176.414 115.22 175.9C116.02 175.786 116.735 175.729 117.363 175.729L119.678 175.871L119.763 175.9L119.849 176.929H119.02C118.525 176.929 118.192 176.995 118.02 177.129C118.001 177.243 117.982 177.395 117.963 177.586L118.706 187.071C118.725 187.433 118.811 187.805 118.963 188.186C119.344 188.262 119.763 188.3 120.22 188.3H120.735L120.935 189.643ZM122.389 176.043C123.513 175.833 125.151 175.729 127.304 175.729H133.161L133.418 176.986C133.437 177.138 133.485 177.376 133.561 177.7C133.637 178.024 133.675 178.31 133.675 178.557L132.275 178.586L132.218 178.129C132.18 177.862 132.104 177.567 131.989 177.243C131.608 177.052 130.789 176.957 129.532 176.957L128.675 176.986L126.561 177.014V181.871H129.818C130.275 181.871 130.589 181.71 130.761 181.386C130.837 181.271 130.913 181.081 130.989 180.814H131.475C131.475 182.033 131.437 183.157 131.361 184.186H130.761C130.551 183.538 130.275 183.157 129.932 183.043C129.818 183.005 129.675 182.986 129.504 182.986H126.561V188.3H130.961C131.685 188.3 132.142 188.186 132.332 187.957C132.446 187.633 132.542 187.11 132.618 186.386C133.018 186.386 133.418 186.386 133.818 186.386V187.5C133.818 187.805 133.799 188.129 133.761 188.471C133.742 188.795 133.723 189.071 133.704 189.3C133.056 189.49 132.399 189.595 131.732 189.614C131.085 189.633 130.494 189.643 129.961 189.643L125.532 189.5C124.161 189.5 123.151 189.548 122.504 189.643V188.3H123.361C123.742 188.3 124.066 188.262 124.332 188.186C124.446 187.938 124.494 187.567 124.475 187.071V178.271C124.475 177.757 124.427 177.386 124.332 177.157C124.218 177.1 124.085 177.071 123.932 177.071H122.389V176.043Z" fill="white"/>
<defs>
<filter id="filter0_d" x="63.0005" y="93.5833" width="67.926" height="66.0729" filterUnits="userSpaceOnUse" color-interpolation-filters="sRGB">
<feFlood flood-opacity="0" result="BackgroundImageFix"/>
<feColorMatrix in="SourceAlpha" type="matrix" values="0 0 0 0 0 0 0 0 0 0 0 0 0 0 0 0 0 0 127 0"/>
<feOffset dx="-6" dy="6"/>
<feColorMatrix type="matrix" values="0 0 0 0 0 0 0 0 0 0 0 0 0 0 0 0 0 0 0.25 0"/>
<feBlend mode="normal" in2="BackgroundImageFix" result="effect1_dropShadow"/>
<feBlend mode="normal" in="SourceGraphic" in2="effect1_dropShadow" result="shape"/>
</filter>
</defs>
</svg>
