<svg width="200" height="245" viewBox="0 0 200 245" fill="none" xmlns="http://www.w3.org/2000/svg">
<path d="M197.6 57.8118V233C197.6 238.302 193.302 242.6 188 242.6H12C6.69807 242.6 2.4 238.302 2.4 233V57.8118C2.4 55.8475 2.97592 54.0374 4.11122 52.5975C12.8783 41.4788 47.1564 2.9002 100 2.9C152.844 2.8998 187.122 41.4788 195.889 52.5975C197.024 54.0374 197.6 55.8475 197.6 57.8118Z" fill="#7995FB" stroke="white" stroke-width="4.8"/>
<path d="M71.8047 129.584C71.8047 129.584 68.8518 127.202 63.3047 128.584C56.5595 130.265 56.8047 139.084 56.8047 139.084L169.746 139.084C169.746 139.084 173.498 129.136 161.548 123.57C153.456 119.801 146.194 122.248 146.194 122.248C146.194 122.248 147.286 100.974 121.805 99.584C86.9998 97.6855 94.4998 128.584 94.4998 128.584C94.4998 128.584 88.4998 121.084 78.9998 122.248C69.4998 123.412 71.8047 129.584 71.8047 129.584Z" fill="#F9FBFF"/>
<path d="M90 133.584C90 133.584 92.1767 133.816 95.5 134.584C99.5412 135.518 97.9993 139.084 97.9993 139.084L30.3344 139.084C30.3344 139.084 28.0866 133.555 35.2464 130.462C40.0945 128.367 44.4448 129.727 44.4448 129.727C44.4448 129.727 43.7909 117.903 59.057 117.131C79.9091 116.076 78.5 129.727 78.5 129.727C78.5 129.727 79.0104 129.08 84.702 129.727C90.3935 130.374 90 133.584 90 133.584Z" fill="#99B5FF"/>
<path d="M73.7362 174.529C75.6981 174.529 77.2791 174.862 78.4791 175.529L78.2219 178.214H77.0791C76.7553 177.3 76.441 176.7 76.1362 176.414C75.8315 176.129 75.5267 175.938 75.2219 175.843C74.9362 175.748 74.4886 175.7 73.8791 175.7C73.2695 175.7 72.6791 175.852 72.1076 176.157C70.4505 177.033 69.6219 178.824 69.6219 181.529C69.6219 184.557 70.4981 186.443 72.2505 187.186C72.8219 187.433 73.46 187.557 74.1648 187.557C75.3457 187.557 76.8124 187.167 78.5648 186.386L78.7076 187.729C77.4315 188.49 75.8219 188.871 73.8791 188.871C71.9553 188.871 70.3743 188.281 69.1362 187.1C67.9172 185.9 67.3076 184.176 67.3076 181.929C67.3076 178.367 68.6315 176.062 71.2791 175.014C72.1362 174.69 72.9553 174.529 73.7362 174.529ZM87.6612 188.643L83.0898 188.5C81.7374 188.5 80.7374 188.548 80.0898 188.643V187.3H80.9184C81.2803 187.3 81.6136 187.262 81.9184 187.186C82.0326 186.9 82.0803 186.529 82.0612 186.071V177.186C82.0612 176.671 82.0136 176.29 81.9184 176.043C81.7088 175.967 81.3755 175.929 80.9184 175.929H80.0612V174.9C80.9374 174.786 82.0231 174.729 83.3184 174.729C84.6326 174.729 85.585 174.786 86.1755 174.9V175.929H85.2898C84.9279 175.929 84.5945 175.967 84.2898 176.043C84.1945 176.424 84.1469 176.805 84.1469 177.186V187.3H87.8041C88.5469 187.3 89.0612 187.224 89.3469 187.071C89.8231 186.824 90.1755 186.262 90.4041 185.386L91.2326 185.471L90.8898 188.5C89.4993 188.595 88.4231 188.643 87.6612 188.643ZM95.4332 181.7C95.4332 185.681 96.7951 187.671 99.5189 187.671C102.243 187.671 103.605 185.671 103.605 181.671C103.605 179.69 103.252 178.195 102.547 177.186C101.824 176.195 100.814 175.7 99.5189 175.7C97.557 175.7 96.2903 176.824 95.7189 179.071C95.5284 179.814 95.4332 180.69 95.4332 181.7ZM104.176 176.443C105.338 177.7 105.919 179.443 105.919 181.671C105.919 183.881 105.347 185.633 104.205 186.929C103.062 188.224 101.5 188.871 99.5189 188.871C97.557 188.871 95.9951 188.224 94.8332 186.929C93.6903 185.633 93.1189 183.881 93.1189 181.671C93.1189 179.443 93.6903 177.7 94.8332 176.443C95.9951 175.167 97.557 174.529 99.5189 174.529C101.481 174.529 103.033 175.167 104.176 176.443ZM116.446 174.871C117.151 174.776 118.122 174.729 119.36 174.729C120.618 174.729 121.532 174.786 122.103 174.9V175.929H121.218C120.818 175.929 120.484 175.967 120.218 176.043C120.122 176.29 120.075 176.671 120.075 177.186V183.557C120.075 185.233 119.57 186.538 118.56 187.471C117.57 188.405 116.256 188.871 114.618 188.871C111.075 188.871 109.303 186.881 109.303 182.9V177.186C109.303 176.671 109.256 176.29 109.16 176.043C108.951 175.967 108.627 175.929 108.189 175.929H107.303V174.871C108.027 174.776 109.084 174.729 110.475 174.729C111.865 174.729 112.846 174.786 113.418 174.9V175.929H112.532C112.17 175.929 111.837 175.967 111.532 176.043C111.437 176.31 111.399 176.69 111.418 177.186V183.7C111.418 185.662 112.103 186.9 113.475 187.414C113.894 187.586 114.37 187.671 114.903 187.671C116.122 187.671 117.018 187.29 117.589 186.529C118.16 185.767 118.446 184.586 118.446 182.986V177.186C118.446 176.671 118.399 176.29 118.303 176.043C118.094 175.967 117.76 175.929 117.303 175.929H116.446V174.871ZM123.1 174.929C124.7 174.719 126.386 174.614 128.157 174.614C129.929 174.614 131.11 174.662 131.7 174.757C132.291 174.833 132.843 174.976 133.357 175.186C135.605 176.157 136.729 178.329 136.729 181.7C136.729 184.671 135.729 186.624 133.729 187.557C132.624 188.071 131.081 188.367 129.1 188.443C128.205 188.481 127.31 188.5 126.415 188.5C125.538 188.5 124.481 188.548 123.243 188.643V187.271C124.253 187.271 124.862 187.243 125.072 187.186C125.167 186.9 125.215 186.519 125.215 186.043V177.529C125.215 177.11 125.167 176.662 125.072 176.186C124.862 176.11 124.538 176.071 124.1 176.071H123.1V174.929ZM129.557 175.929L127.272 175.957V187.3C127.386 187.319 127.491 187.329 127.586 187.329H128.357C131.081 187.329 132.862 186.614 133.7 185.186C134.176 184.348 134.415 183.281 134.415 181.986C134.415 180.671 134.319 179.652 134.129 178.929C133.938 178.205 133.643 177.624 133.243 177.186C132.5 176.348 131.272 175.929 129.557 175.929Z" fill="white"/>
</svg>
