<svg width="200" height="245" viewBox="0 0 200 245" fill="none" xmlns="http://www.w3.org/2000/svg">
<path d="M2.4 57.3118C2.4 55.3475 2.97592 53.5374 4.11122 52.0975C12.8783 40.9788 47.1564 2.4002 100 2.4C152.844 2.3998 187.122 40.9788 195.889 52.0975C197.024 53.5374 197.6 55.3475 197.6 57.3118V232.5C197.6 237.802 193.302 242.1 188 242.1H12C6.69807 242.1 2.4 237.802 2.4 232.5V57.3118Z" fill="#97AAEB" stroke="white" stroke-width="4.8"/>
<path d="M105.319 109L179.063 128.761L105.319 168.5L17.4998 128.761L105.319 109Z" fill="#D7E9FF"/>
<path d="M85.3008 87.9015L113.696 92.1748L142.091 96.4481L136.38 115.439L130.669 134.43L109.056 128.281L87.4424 122.131L86.3716 105.016L85.3008 87.9015Z" fill="white"/>
<path d="M91.0526 120.453L90.7208 115.15L108.62 104.35L112.094 108.973L126.413 100.333L133.541 112.471L127.754 130.257L91.0526 120.453Z" fill="#FF99C1"/>
<ellipse rx="5.82126" ry="5.94577" transform="matrix(0.989927 0.141578 -0.0699919 0.997548 94.7649 97.6698)" fill="#97AAEB"/>
<path d="M71.5156 91.77L99.9108 96.0433L128.306 100.317L122.595 119.308L116.884 138.299L95.2705 132.149L73.6572 125.999L72.5864 108.885L71.5156 91.77Z" fill="white"/>
<path d="M77.2674 124.322L76.9356 119.018L94.8349 108.219L98.3084 112.841L112.628 104.202L119.756 116.339L113.969 134.125L77.2674 124.322Z" fill="#D7E9FF"/>
<ellipse rx="5.82126" ry="5.94577" transform="matrix(0.989927 0.141578 -0.0699919 0.997548 80.9798 101.538)" fill="#97AAEB"/>
<path d="M56.7319 95.7008L85.1271 99.9741L113.522 104.247L107.811 123.238L102.1 142.229L80.4869 136.08L58.8736 129.93L57.8027 112.816L56.7319 95.7008Z" fill="white"/>
<path d="M62.4837 128.252L62.1519 122.949L80.0512 112.15L83.5247 116.772L97.8441 108.132L104.972 120.27L99.1856 138.056L62.4837 128.252Z" fill="#00FFCC"/>
<ellipse rx="5.82126" ry="5.94577" transform="matrix(0.989927 0.141578 -0.0699919 0.997548 66.1961 105.469)" fill="#97AAEB"/>
<path d="M65.4907 188.643C64.8812 188.548 63.8907 188.5 62.5193 188.5C61.1669 188.5 60.1383 188.548 59.4335 188.643V187.3H60.2621C60.624 187.3 60.9573 187.262 61.2621 187.186C61.3764 186.9 61.424 186.529 61.405 186.071V177.129C61.405 176.652 61.3573 176.29 61.2621 176.043C61.0526 175.967 60.7193 175.929 60.2621 175.929H59.405V174.9C60.2812 174.786 61.3669 174.729 62.6621 174.729C63.9764 174.729 64.9193 174.786 65.4907 174.9V175.929H64.6335C64.2335 175.929 63.9002 175.967 63.6335 176.043C63.5383 176.424 63.4907 176.786 63.4907 177.129V186.014C63.4907 186.414 63.5383 186.805 63.6335 187.186C63.9383 187.262 64.2716 187.3 64.6335 187.3H65.4907V188.643ZM86.5518 188.643C85.8852 188.548 84.8852 188.5 83.5518 188.5C82.2376 188.5 81.2471 188.548 80.5804 188.643L80.4661 187.3H81.2376C81.6947 187.3 81.9709 187.252 82.0661 187.157C82.1804 187.062 82.2376 186.9 82.2376 186.671C82.2376 186.424 82.228 186.11 82.209 185.729C82.209 185.329 82.1899 184.89 82.1518 184.414C82.1137 183.919 82.0566 183.205 81.9804 182.271C81.9233 181.319 81.7995 179.586 81.609 177.071C79.0947 184.1 77.7137 187.91 77.4661 188.5H75.6661C75.2852 187.49 74.828 186.214 74.2947 184.671C73.7804 183.11 73.3518 181.843 73.009 180.871C72.6852 179.881 72.2757 178.643 71.7804 177.157C71.3804 183.157 71.1804 186.29 71.1804 186.557C71.1804 186.805 71.2471 186.995 71.3804 187.129C71.5137 187.243 71.7804 187.3 72.1804 187.3H72.9233L72.8376 188.643C72.1709 188.548 71.1899 188.5 69.8947 188.5C68.5995 188.5 67.6185 188.548 66.9518 188.643L67.1804 187.3H68.1233C68.4852 187.3 68.8185 187.262 69.1233 187.186C69.3709 186.69 69.5137 186.3 69.5518 186.014C69.5899 185.71 69.6376 185.31 69.6947 184.814C69.7518 184.3 69.7995 183.757 69.8376 183.186C69.8947 182.614 69.9423 182.033 69.9804 181.443C70.0185 180.852 70.0566 180.3 70.0947 179.786C70.1518 179.252 70.1899 178.776 70.209 178.357C70.228 177.938 70.2471 177.614 70.2661 177.386C70.3042 177.138 70.3233 176.938 70.3233 176.786C70.3233 176.633 70.3042 176.51 70.2661 176.414C70.2471 176.3 70.228 176.195 70.209 176.1C69.9423 175.986 69.5995 175.929 69.1804 175.929H68.1804V174.9C68.3709 174.881 68.6185 174.852 68.9233 174.814C69.2471 174.757 69.7995 174.729 70.5804 174.729C71.3804 174.729 72.1518 174.786 72.8947 174.9C73.5423 176.462 74.228 178.386 74.9518 180.671C75.6947 182.957 76.1899 184.462 76.4376 185.186C76.7042 185.91 76.8376 186.3 76.8376 186.357C77.7137 183.652 78.5518 181.195 79.3518 178.986C80.1709 176.776 80.6661 175.414 80.8376 174.9C81.6376 174.786 82.3518 174.729 82.9804 174.729L85.2947 174.871L85.3804 174.9L85.4661 175.929H84.6376C84.1423 175.929 83.809 175.995 83.6376 176.129C83.6185 176.243 83.5995 176.395 83.5804 176.586L84.3233 186.071C84.3423 186.433 84.428 186.805 84.5804 187.186C84.9614 187.262 85.3804 187.3 85.8376 187.3H86.3518L86.5518 188.643ZM94.4351 176.471L92.0351 183.471H96.8922L94.5208 176.471H94.4351ZM92.0351 188.643C91.578 188.548 90.8161 188.5 89.7494 188.5C88.6827 188.5 87.8541 188.548 87.2637 188.643L87.5494 187.3H87.978C88.3208 187.3 88.6256 187.262 88.8922 187.186C89.1589 186.824 89.3399 186.5 89.4351 186.214C89.5494 185.91 89.6827 185.538 89.8351 185.1C90.0065 184.662 90.2065 184.157 90.4351 183.586C90.6637 183.014 90.9018 182.395 91.1494 181.729C91.4161 181.062 91.6827 180.405 91.9494 179.757L93.9494 174.729H94.8351C95.2922 174.729 95.6732 174.786 95.978 174.9L100.207 186.014C100.435 186.567 100.626 186.957 100.778 187.186C101.083 187.262 101.387 187.3 101.692 187.3H102.121L102.407 188.643C101.873 188.548 101.292 188.5 100.664 188.5H99.3208C98.5018 188.5 97.8065 188.548 97.2351 188.643L97.0351 187.3H97.2065C97.5494 187.3 97.8732 187.262 98.178 187.186C98.178 186.9 98.0827 186.529 97.8922 186.071L97.2351 184.471H91.7208L91.2065 186.014C91.0541 186.471 90.978 186.833 90.978 187.1C90.978 187.233 91.2161 187.3 91.6922 187.3H92.1208L92.0351 188.643ZM115.299 187.529C114.004 188.424 112.385 188.871 110.442 188.871C107.242 188.871 105.109 187.586 104.042 185.014C103.68 184.157 103.499 183.119 103.499 181.9C103.499 179.5 104.166 177.671 105.499 176.414C106.832 175.157 108.651 174.529 110.956 174.529C112.499 174.529 113.87 174.862 115.07 175.529L114.813 178.214H113.642C113.318 177.3 113.004 176.7 112.699 176.414C112.204 175.938 111.547 175.7 110.728 175.7C109.07 175.7 107.832 176.233 107.013 177.3C106.213 178.367 105.813 179.814 105.813 181.643C105.813 183.471 106.213 184.919 107.013 185.986C107.832 187.052 108.985 187.586 110.47 187.586C111.632 187.586 112.575 187.405 113.299 187.043V184.814C113.299 184.243 113.251 183.833 113.156 183.586C112.947 183.51 112.613 183.471 112.156 183.471H111.013V182.414C111.128 182.414 111.394 182.395 111.813 182.357C112.251 182.3 112.813 182.271 113.499 182.271H115.356C115.337 182.576 115.328 182.833 115.328 183.043L115.299 183.929V187.529ZM116.444 175.043C117.568 174.833 119.206 174.729 121.358 174.729H127.215L127.473 175.986C127.492 176.138 127.539 176.376 127.615 176.7C127.692 177.024 127.73 177.31 127.73 177.557L126.33 177.586L126.273 177.129C126.235 176.862 126.158 176.567 126.044 176.243C125.663 176.052 124.844 175.957 123.587 175.957L122.73 175.986L120.615 176.014V180.871H123.873C124.33 180.871 124.644 180.71 124.815 180.386C124.892 180.271 124.968 180.081 125.044 179.814H125.53C125.53 181.033 125.492 182.157 125.415 183.186H124.815C124.606 182.538 124.33 182.157 123.987 182.043C123.873 182.005 123.73 181.986 123.558 181.986H120.615V187.3H125.015C125.739 187.3 126.196 187.186 126.387 186.957C126.501 186.633 126.596 186.11 126.673 185.386C127.073 185.386 127.473 185.386 127.873 185.386V186.5C127.873 186.805 127.854 187.129 127.815 187.471C127.796 187.795 127.777 188.071 127.758 188.3C127.111 188.49 126.454 188.595 125.787 188.614C125.139 188.633 124.549 188.643 124.015 188.643L119.587 188.5C118.215 188.5 117.206 188.548 116.558 188.643V187.3H117.415C117.796 187.3 118.12 187.262 118.387 187.186C118.501 186.938 118.549 186.567 118.53 186.071V177.271C118.53 176.757 118.482 176.386 118.387 176.157C118.273 176.1 118.139 176.071 117.987 176.071H116.444V175.043ZM132.12 177.014C131.987 177.281 131.92 177.567 131.92 177.871C131.92 178.462 132.14 178.957 132.578 179.357C133.035 179.738 133.644 180.062 134.406 180.329C136.025 180.938 137.254 181.576 138.092 182.243C138.93 182.89 139.349 183.738 139.349 184.786C139.349 186.71 138.368 187.986 136.406 188.614C135.816 188.786 135.244 188.871 134.692 188.871C132.52 188.871 130.816 188.329 129.578 187.243L130.006 184.671L131.463 184.729C131.463 185.738 131.597 186.471 131.863 186.929C132.378 187.443 133.244 187.7 134.463 187.7C135.225 187.7 135.873 187.481 136.406 187.043C136.959 186.605 137.235 186.052 137.235 185.386C137.235 184.357 136.482 183.471 134.978 182.729C134.501 182.5 133.987 182.281 133.435 182.071C132.882 181.862 132.387 181.633 131.949 181.386C130.54 180.605 129.835 179.548 129.835 178.214C129.835 176.519 130.825 175.386 132.806 174.814C133.473 174.624 134.206 174.529 135.006 174.529C135.825 174.529 136.606 174.614 137.349 174.786C138.111 174.957 138.578 175.186 138.749 175.471C138.749 175.529 138.749 175.605 138.749 175.7L138.692 176.071C138.616 176.814 138.53 177.519 138.435 178.186L137.206 178.071C137.206 177.176 137.025 176.557 136.663 176.214C136.32 175.871 135.654 175.7 134.663 175.7C133.368 175.7 132.52 176.138 132.12 177.014Z" fill="white"/>
</svg>
