<svg width="200" height="240" viewBox="0 0 200 240" fill="none" xmlns="http://www.w3.org/2000/svg">
<rect x="2.4" y="2.4" width="195.2" height="235.2" rx="5.6" fill="#D7E9FF"/>
<rect x="2.4" y="2.4" width="195.2" height="235.2" rx="5.6" fill="url(#paint0_linear)"/>
<rect x="2.4" y="2.4" width="195.2" height="235.2" rx="5.6" stroke="white" stroke-width="4.8"/>
<path d="M68.7351 204.224C68.4249 204.224 68.1555 204.257 67.9269 204.322C67.9269 204.486 68.0331 204.812 68.2453 205.302L71.3065 213.237H71.38L74.2208 205.302C74.3677 204.927 74.4412 204.6 74.4412 204.322C74.2943 204.257 74.0249 204.224 73.6331 204.224H73.0453L73.0943 203.343C73.7473 203.245 74.5392 203.196 75.4698 203.196C76.4167 203.196 77.0861 203.245 77.4779 203.343L77.282 204.224H76.8657C76.5392 204.224 76.2453 204.257 75.9841 204.322C75.7882 204.633 75.6412 204.959 75.5433 205.302C75.2494 206.086 74.7922 207.335 74.1718 209.049C73.5514 210.747 72.7677 212.731 71.8208 215H70.9637C70.4575 215 70.1473 214.878 70.0331 214.633L66.3106 205.302C66.18 205.008 66.0004 204.682 65.7718 204.322C65.5922 204.257 65.2984 204.224 64.8902 204.224H64.2779L64.082 203.343C64.7351 203.245 65.6167 203.196 66.7269 203.196C67.8535 203.196 68.6861 203.245 69.2249 203.343L69.3228 204.224H68.7351ZM80.4526 205.155C80.3383 205.384 80.2812 205.629 80.2812 205.89C80.2812 206.396 80.4689 206.82 80.8444 207.163C81.2363 207.49 81.7587 207.767 82.4118 207.996C83.7995 208.518 84.8526 209.065 85.571 209.637C86.2893 210.192 86.6485 210.918 86.6485 211.816C86.6485 213.465 85.8077 214.559 84.1261 215.098C83.6199 215.245 83.1301 215.318 82.6567 215.318C80.7955 215.318 79.3342 214.853 78.273 213.922L78.6404 211.718L79.8893 211.767C79.8893 212.633 80.0036 213.261 80.2322 213.653C80.673 214.094 81.4159 214.314 82.4608 214.314C83.1138 214.314 83.6689 214.127 84.1261 213.751C84.5995 213.376 84.8363 212.902 84.8363 212.331C84.8363 211.449 84.1914 210.69 82.9016 210.053C82.4934 209.857 82.0526 209.669 81.5791 209.49C81.1057 209.31 80.6812 209.114 80.3057 208.902C79.0975 208.233 78.4934 207.327 78.4934 206.184C78.4934 204.731 79.3424 203.759 81.0404 203.269C81.6118 203.106 82.2404 203.024 82.9261 203.024C83.6281 203.024 84.2975 203.098 84.9342 203.245C85.5873 203.392 85.9873 203.588 86.1342 203.833C86.1342 203.882 86.1342 203.947 86.1342 204.029L86.0853 204.347C86.0199 204.984 85.9465 205.588 85.8648 206.159L84.8118 206.061C84.8118 205.294 84.6567 204.763 84.3465 204.469C84.0526 204.176 83.4812 204.029 82.6322 204.029C81.522 204.029 80.7955 204.404 80.4526 205.155ZM93.9614 203.024C95.643 203.024 96.9981 203.31 98.0267 203.882L97.8063 206.184H96.8267C96.5492 205.4 96.2798 204.886 96.0185 204.641C95.7573 204.396 95.4961 204.233 95.2349 204.151C94.99 204.069 94.6063 204.029 94.0838 204.029C93.5614 204.029 93.0553 204.159 92.5655 204.42C91.1451 205.171 90.4349 206.706 90.4349 209.024C90.4349 211.62 91.1859 213.237 92.6879 213.873C93.1777 214.086 93.7247 214.192 94.3287 214.192C95.341 214.192 96.5981 213.857 98.1002 213.188L98.2226 214.339C97.1287 214.992 95.7492 215.318 94.0838 215.318C92.4349 215.318 91.0798 214.812 90.0185 213.8C88.9736 212.771 88.4512 211.294 88.4512 209.367C88.4512 206.314 89.5859 204.339 91.8553 203.441C92.59 203.163 93.292 203.024 93.9614 203.024ZM101.66 209.171C101.66 212.584 102.828 214.29 105.162 214.29C107.497 214.29 108.664 212.576 108.664 209.147C108.664 207.449 108.362 206.167 107.758 205.302C107.138 204.453 106.273 204.029 105.162 204.029C103.481 204.029 102.395 204.992 101.905 206.918C101.742 207.555 101.66 208.306 101.66 209.171ZM109.154 204.665C110.15 205.743 110.648 207.237 110.648 209.147C110.648 211.041 110.158 212.543 109.179 213.653C108.199 214.763 106.86 215.318 105.162 215.318C103.481 215.318 102.142 214.763 101.146 213.653C100.167 212.543 99.6767 211.041 99.6767 209.147C99.6767 207.237 100.167 205.743 101.146 204.665C102.142 203.571 103.481 203.024 105.162 203.024C106.844 203.024 108.175 203.571 109.154 204.665ZM112.227 203.367C113.598 203.188 115.043 203.098 116.561 203.098C118.08 203.098 119.092 203.139 119.598 203.22C120.104 203.286 120.578 203.408 121.018 203.588C122.945 204.42 123.908 206.282 123.908 209.171C123.908 211.718 123.051 213.392 121.337 214.192C120.39 214.633 119.067 214.886 117.369 214.951C116.602 214.984 115.835 215 115.067 215C114.316 215 113.41 215.041 112.349 215.122V213.947C113.214 213.947 113.737 213.922 113.916 213.873C113.998 213.629 114.039 213.302 114.039 212.894V205.596C114.039 205.237 113.998 204.853 113.916 204.445C113.737 204.38 113.459 204.347 113.084 204.347H112.227V203.367ZM117.761 204.224L115.802 204.249V213.971C115.9 213.988 115.99 213.996 116.071 213.996H116.733C119.067 213.996 120.594 213.384 121.312 212.159C121.72 211.441 121.925 210.527 121.925 209.416C121.925 208.29 121.843 207.416 121.68 206.796C121.516 206.176 121.263 205.678 120.92 205.302C120.284 204.584 119.231 204.224 117.761 204.224ZM125.469 203.465C126.432 203.286 127.836 203.196 129.681 203.196H134.701L134.922 204.273C134.938 204.404 134.979 204.608 135.044 204.886C135.11 205.163 135.142 205.408 135.142 205.62L133.942 205.645L133.893 205.253C133.861 205.024 133.795 204.771 133.697 204.494C133.371 204.331 132.669 204.249 131.591 204.249L130.857 204.273L129.044 204.298V208.461H131.836C132.228 208.461 132.497 208.322 132.644 208.045C132.71 207.947 132.775 207.784 132.84 207.555H133.257C133.257 208.6 133.224 209.563 133.159 210.445H132.644C132.465 209.89 132.228 209.563 131.934 209.465C131.836 209.433 131.714 209.416 131.567 209.416H129.044V213.971H132.816C133.436 213.971 133.828 213.873 133.991 213.678C134.089 213.4 134.171 212.951 134.236 212.331C134.579 212.331 134.922 212.331 135.265 212.331V213.286C135.265 213.547 135.248 213.824 135.216 214.118C135.199 214.396 135.183 214.633 135.167 214.829C134.612 214.992 134.048 215.082 133.477 215.098C132.922 215.114 132.416 215.122 131.959 215.122L128.163 215C126.987 215 126.122 215.041 125.567 215.122V213.971H126.301C126.628 213.971 126.906 213.939 127.134 213.873C127.232 213.661 127.273 213.343 127.257 212.918V205.376C127.257 204.935 127.216 204.616 127.134 204.42C127.036 204.371 126.922 204.347 126.791 204.347H125.469V203.465Z" fill="white"/>
<path d="M135.357 64.01L119.697 56.4703C117.885 55.5975 115.719 55.9657 114.296 57.3882L63.0331 104.128C61.6543 105.385 61.6559 107.556 63.0365 108.811L67.2239 112.618C68.3526 113.644 70.0526 113.72 71.2679 112.798L133 65.966C135.071 64.3948 138.046 65.872 138.046 68.4715V68.2897C138.046 66.465 137.001 64.8016 135.357 64.01Z" fill="#0065A9"/>
<path d="M135.357 123.599L119.697 131.139C117.885 132.011 115.719 131.643 114.296 130.221L63.0331 83.4809C61.6543 82.2237 61.6559 80.0529 63.0365 78.7977L67.2239 74.991C68.3526 73.9649 70.0526 73.8893 71.2679 74.8113L133 121.643C135.071 123.214 138.046 121.737 138.046 119.137V119.319C138.046 121.144 137.001 122.807 135.357 123.599Z" fill="#007ACC"/>
<path d="M119.698 131.14C117.885 132.012 115.719 131.644 114.296 130.221C116.049 131.974 119.046 130.732 119.046 128.253V59.3549C119.046 56.876 116.049 55.6345 114.296 57.3874C115.719 55.9648 117.885 55.5961 119.698 56.4681L135.355 63.9974C137 64.7886 138.046 66.4526 138.046 68.2782V119.33C138.046 121.156 137 122.82 135.355 123.611L119.698 131.14Z" fill="#1F9CF0"/>
<defs>
<linearGradient id="paint0_linear" x1="100" y1="0" x2="100" y2="240" gradientUnits="userSpaceOnUse">
<stop offset="0.744692" stop-color="#97AAEB" stop-opacity="0"/>
<stop offset="0.744792" stop-color="#4A72DE" stop-opacity="0.126477"/>
<stop offset="0.744892" stop-color="#97AAEB"/>
<stop offset="1" stop-color="#97AAEB"/>
</linearGradient>
</defs>
</svg>
