<svg width="200" height="240" viewBox="0 0 200 240" fill="none" xmlns="http://www.w3.org/2000/svg">
<rect x="2.4" y="2.4" width="195.2" height="235.2" rx="5.6" fill="#D7E9FF"/>
<rect x="2.4" y="2.4" width="195.2" height="235.2" rx="5.6" fill="url(#paint0_linear)"/>
<rect x="2.4" y="2.4" width="195.2" height="235.2" rx="5.6" stroke="white" stroke-width="4.8"/>
<path d="M47.9628 211.816C47.9628 210.265 46.7791 209.49 44.4118 209.49H44.0934V208.51H44.6322C45.3342 208.51 46.0036 208.29 46.6403 207.849C47.2771 207.392 47.5954 206.812 47.5954 206.11C47.5954 205.408 47.3913 204.894 46.9832 204.567C46.5913 204.224 46.175 204.053 45.7342 204.053C45.2934 204.053 44.926 204.094 44.6322 204.176C44.0607 204.339 43.5954 204.698 43.2362 205.253C43.073 205.514 42.9587 205.808 42.8934 206.135L41.7669 205.229C41.8975 204.543 42.2975 204.012 42.9669 203.637C43.6362 203.245 44.4444 203.049 45.3913 203.049C47.122 203.049 48.2811 203.555 48.8689 204.567C49.0811 204.959 49.1873 205.367 49.1873 205.792C49.1873 206.576 48.9342 207.229 48.4281 207.751C47.922 208.273 47.2036 208.641 46.273 208.853C48.4934 209.114 49.6036 210.127 49.6036 211.89C49.6036 213.49 48.8036 214.551 47.2036 215.073C46.7138 215.237 46.1015 215.318 45.3669 215.318C44.6322 215.318 43.8811 215.155 43.1138 214.829C42.3628 214.486 41.9056 214.094 41.7424 213.653C41.873 212.641 41.9628 212.012 42.0118 211.767L42.9179 211.939C42.9179 212.788 43.1628 213.392 43.6526 213.751C44.1424 214.11 44.6648 214.29 45.2199 214.29C46.1505 214.29 46.8362 214.053 47.2771 213.58C47.7342 213.106 47.9628 212.518 47.9628 211.816ZM51.1953 203.367C52.5668 203.188 54.0117 203.098 55.53 203.098C57.0484 203.098 58.0606 203.139 58.5668 203.22C59.0729 203.286 59.5463 203.408 59.9872 203.588C61.9137 204.42 62.877 206.282 62.877 209.171C62.877 211.718 62.0198 213.392 60.3055 214.192C59.3586 214.633 58.0361 214.886 56.3382 214.951C55.5708 214.984 54.8035 215 54.0361 215C53.2851 215 52.379 215.041 51.3178 215.122V213.947C52.1831 213.947 52.7055 213.922 52.8851 213.873C52.9668 213.629 53.0076 213.302 53.0076 212.894V205.596C53.0076 205.237 52.9668 204.853 52.8851 204.445C52.7055 204.38 52.428 204.347 52.0525 204.347H51.1953V203.367ZM56.73 204.224L54.7708 204.249V213.971C54.8688 213.988 54.9586 213.996 55.0402 213.996H55.7015C58.0361 213.996 59.5627 213.384 60.281 212.159C60.6892 211.441 60.8933 210.527 60.8933 209.416C60.8933 208.29 60.8117 207.416 60.6484 206.796C60.4851 206.176 60.2321 205.678 59.8892 205.302C59.2525 204.584 58.1994 204.224 56.73 204.224ZM74.2592 204.273L72.4224 204.298V208.412H74.8469C75.3694 208.412 75.7041 208.127 75.851 207.555H76.2673C76.2673 208.6 76.2347 209.563 76.1694 210.445H75.6551C75.5245 210.037 75.3939 209.776 75.2632 209.661C75.1326 209.547 74.9122 209.49 74.602 209.49H72.4224V212.869C72.4224 213.212 72.4632 213.547 72.5449 213.873C72.8061 213.939 73.0918 213.971 73.402 213.971H74.1367V215.122L71.5408 215L69.1163 215.098L68.9449 215.122V213.971H69.6551C69.9979 213.971 70.2837 213.939 70.5122 213.873C70.5939 213.661 70.6347 213.376 70.6347 213.016V205.327C70.6347 204.935 70.5939 204.633 70.5122 204.42C70.3979 204.371 70.2755 204.347 70.1449 204.347H68.7735V203.465C70.2428 203.286 72.1367 203.196 74.4551 203.196H78.0796C78.1449 203.588 78.1939 203.931 78.2265 204.224C78.2592 204.518 78.2918 204.788 78.3245 205.033C78.3735 205.261 78.3979 205.457 78.3979 205.62L77.1979 205.645C77.1979 205.318 77.1245 204.935 76.9775 204.494C76.6837 204.331 76.0143 204.249 74.9694 204.249L74.2592 204.273ZM84.8851 209.024C86.8116 209.024 87.7749 208.216 87.7749 206.6C87.7749 205.718 87.5381 205.106 87.0647 204.763C86.5912 204.404 85.7993 204.224 84.6891 204.224H83.4157V209.024C83.9055 209.024 84.3953 209.024 84.8851 209.024ZM85.1055 215.122C84.5667 215.041 83.7177 215 82.5585 215C81.3993 215 80.5177 215.041 79.9136 215.122V213.971H80.6483C80.9749 213.971 81.2524 213.939 81.481 213.873C81.5789 213.661 81.6279 213.343 81.6279 212.918L81.6034 205.204C81.6034 204.812 81.5626 204.51 81.481 204.298C81.3177 204.249 81.0647 204.224 80.7218 204.224H79.7422V203.343C79.9218 203.327 80.134 203.302 80.3789 203.269C80.6238 203.237 80.8851 203.22 81.1626 203.22C81.4565 203.204 81.7504 203.188 82.0442 203.171C82.3544 203.155 82.7136 203.147 83.1218 203.147H84.7381C86.3218 203.147 87.53 203.408 88.3626 203.931C89.1953 204.437 89.6116 205.302 89.6116 206.527C89.6116 208.094 88.8279 209.155 87.2606 209.71C87.5055 211.098 88.1912 212.306 89.3177 213.335C89.7749 213.759 90.1667 213.971 90.4932 213.971H90.934V215.122H89.7095C88.8116 215.122 88.0361 214.804 87.383 214.167C86.9259 213.694 86.534 212.992 86.2075 212.061C86.0606 211.669 85.9463 211.302 85.8647 210.959C85.7993 210.6 85.734 210.282 85.6687 210.004C85.2932 210.004 84.9177 210.004 84.5422 210.004C84.1667 210.004 83.7912 209.996 83.4157 209.98V212.869C83.4157 213.327 83.4565 213.661 83.5381 213.873C83.7993 213.939 84.0769 213.971 84.3708 213.971H85.1055V215.122ZM96.771 215.122C96.2486 215.041 95.3996 215 94.2241 215C93.0649 215 92.1833 215.041 91.5792 215.122V213.971H92.2894C92.5996 213.971 92.8853 213.939 93.1465 213.873C93.2445 213.629 93.2853 213.31 93.269 212.918V205.253C93.269 204.845 93.2282 204.535 93.1465 204.322C92.9669 204.257 92.6812 204.224 92.2894 204.224H91.5547V203.343C92.3057 203.245 93.2363 203.196 94.3465 203.196C95.4731 203.196 96.2812 203.245 96.771 203.343V204.224H96.0363C95.6935 204.224 95.4078 204.257 95.1792 204.322C95.0976 204.649 95.0567 204.959 95.0567 205.253V212.869C95.0567 213.212 95.0976 213.547 95.1792 213.873C95.4404 213.939 95.7261 213.971 96.0363 213.971H96.771V215.122ZM98.0235 203.465C98.9867 203.286 100.391 203.196 102.236 203.196H107.256L107.477 204.273C107.493 204.404 107.534 204.608 107.599 204.886C107.664 205.163 107.697 205.408 107.697 205.62L106.497 205.645L106.448 205.253C106.415 205.024 106.35 204.771 106.252 204.494C105.925 204.331 105.223 204.249 104.146 204.249L103.411 204.273L101.599 204.298V208.461H104.391C104.783 208.461 105.052 208.322 105.199 208.045C105.264 207.947 105.33 207.784 105.395 207.555H105.811C105.811 208.6 105.779 209.563 105.713 210.445H105.199C105.019 209.89 104.783 209.563 104.489 209.465C104.391 209.433 104.268 209.416 104.121 209.416H101.599V213.971H105.37C105.991 213.971 106.383 213.873 106.546 213.678C106.644 213.4 106.725 212.951 106.791 212.331C107.134 212.331 107.477 212.331 107.819 212.331V213.286C107.819 213.547 107.803 213.824 107.77 214.118C107.754 214.396 107.738 214.633 107.721 214.829C107.166 214.992 106.603 215.082 106.032 215.098C105.477 215.114 104.97 215.122 104.513 215.122L100.717 215C99.5418 215 98.6765 215.041 98.1214 215.122V213.971H98.8561C99.1826 213.971 99.4602 213.939 99.6888 213.873C99.7867 213.661 99.8275 213.343 99.8112 212.918V205.376C99.8112 204.935 99.7704 204.616 99.6888 204.42C99.5908 204.371 99.4765 204.347 99.3459 204.347H98.0235V203.465ZM114.056 215.122C113.567 215.041 112.791 215 111.73 215C110.685 215 109.877 215.041 109.305 215.122V213.971H110.04C110.367 213.971 110.644 213.939 110.873 213.873C110.971 213.661 111.02 213.343 111.02 212.918L110.995 205.302C110.995 204.861 110.954 204.535 110.873 204.322C110.693 204.257 110.407 204.224 110.016 204.224H109.109V203.343C110.383 203.245 111.232 203.196 111.656 203.196C112.081 203.196 112.473 203.237 112.832 203.318C115.395 207.286 117.379 210.453 118.783 212.82L118.66 206.233V205.302C118.66 204.861 118.62 204.535 118.538 204.322C118.277 204.257 117.991 204.224 117.681 204.224H116.848V203.343C117.567 203.245 118.44 203.196 119.469 203.196C120.513 203.196 121.24 203.245 121.648 203.343V204.224H121.011C120.669 204.224 120.383 204.257 120.154 204.322C120.073 204.535 120.032 204.943 120.032 205.547C120.032 206.135 120.024 206.853 120.007 207.702C119.991 208.535 119.975 209.384 119.958 210.249C119.942 211.114 119.918 211.963 119.885 212.796C119.852 213.629 119.828 214.404 119.811 215.122H118.954C118.693 215.122 118.448 215.065 118.22 214.951L112.244 205.473C112.309 206.714 112.342 208.273 112.342 210.151C112.342 212.029 112.35 213.09 112.367 213.335C112.399 213.563 112.44 213.743 112.489 213.873C112.75 213.939 113.028 213.971 113.322 213.971H114.056V215.122ZM122.75 203.367C124.121 203.188 125.566 203.098 127.085 203.098C128.603 203.098 129.615 203.139 130.121 203.22C130.628 203.286 131.101 203.408 131.542 203.588C133.468 204.42 134.432 206.282 134.432 209.171C134.432 211.718 133.575 213.392 131.86 214.192C130.913 214.633 129.591 214.886 127.893 214.951C127.126 214.984 126.358 215 125.591 215C124.84 215 123.934 215.041 122.872 215.122V213.947C123.738 213.947 124.26 213.922 124.44 213.873C124.521 213.629 124.562 213.302 124.562 212.894V205.596C124.562 205.237 124.521 204.853 124.44 204.445C124.26 204.38 123.983 204.347 123.607 204.347H122.75V203.367ZM128.285 204.224L126.326 204.249V213.971C126.423 213.988 126.513 213.996 126.595 213.996H127.256C129.591 213.996 131.117 213.384 131.836 212.159C132.244 211.441 132.448 210.527 132.448 209.416C132.448 208.29 132.366 207.416 132.203 206.796C132.04 206.176 131.787 205.678 131.444 205.302C130.807 204.584 129.754 204.224 128.285 204.224ZM142.506 215.122L138.588 215C137.429 215 136.572 215.041 136.017 215.122V213.971H136.727C137.037 213.971 137.323 213.939 137.584 213.873C137.682 213.629 137.723 213.31 137.706 212.918V205.302C137.706 204.861 137.666 204.535 137.584 204.322C137.404 204.257 137.119 204.224 136.727 204.224H135.992V203.343C136.743 203.245 137.674 203.196 138.784 203.196C139.911 203.196 140.727 203.245 141.233 203.343V204.224H140.474C140.164 204.224 139.878 204.257 139.617 204.322C139.535 204.649 139.494 204.976 139.494 205.302V213.971H142.629C143.266 213.971 143.706 213.906 143.951 213.776C144.36 213.563 144.662 213.082 144.858 212.331L145.568 212.404L145.274 215C144.082 215.082 143.16 215.122 142.506 215.122ZM150.882 204.224C150.54 204.224 150.27 204.257 150.074 204.322C150.074 204.453 150.115 204.592 150.197 204.739C150.278 204.886 150.344 205.008 150.393 205.106L153.038 209.612C153.429 208.894 153.74 208.314 153.968 207.873C154.213 207.433 154.409 207.082 154.556 206.82C154.703 206.543 154.915 206.135 155.193 205.596C155.487 205.057 155.658 204.633 155.707 204.322C155.576 204.257 155.315 204.224 154.923 204.224H154.336L154.531 203.343C155.25 203.245 156.123 203.196 157.152 203.196C158.18 203.196 158.907 203.245 159.331 203.343L159.013 204.224H158.303C158.009 204.224 157.715 204.257 157.421 204.322C157.356 204.42 157.291 204.51 157.225 204.592C157.16 204.673 157.111 204.747 157.078 204.812C157.046 204.878 156.972 205.008 156.858 205.204C156.76 205.384 156.629 205.612 156.466 205.89C156.303 206.167 156.115 206.486 155.903 206.845C155.707 207.188 155.421 207.661 155.046 208.265C154.687 208.869 154.189 209.702 153.552 210.763V212.869C153.552 213.278 153.601 213.612 153.699 213.873C153.96 213.939 154.229 213.971 154.507 213.971H155.266V215.122C154.744 215.041 153.903 215 152.744 215C151.585 215 150.695 215.041 150.074 215.122V213.971H150.809C151.103 213.971 151.38 213.939 151.642 213.873C151.723 213.661 151.78 213.343 151.813 212.918V210.984L148.458 205.302C148.327 205.09 148.221 204.91 148.14 204.763C148.074 204.6 147.993 204.453 147.895 204.322C147.715 204.257 147.429 204.224 147.038 204.224H146.401L146.156 203.343C146.842 203.245 147.731 203.196 148.825 203.196C149.919 203.196 150.752 203.245 151.323 203.343L151.47 204.224H150.882Z" fill="white"/>
<path d="M81.0541 86.9909L99.8798 76.1829L118.914 87.0091L100 97.8171L81.0541 86.9909Z" fill="white" stroke="#3955BB" stroke-width="9"/>
<path d="M76.5 94.7157L95.5 105.607V127.003L76.5 115.468V94.7157ZM104.5 127.003V105.607L123.5 94.7157V115.468L104.5 127.003Z" fill="white" stroke="#5975DB" stroke-width="9"/>
<defs>
<linearGradient id="paint0_linear" x1="100" y1="0" x2="100" y2="240" gradientUnits="userSpaceOnUse">
<stop offset="0.744692" stop-color="#6985EB" stop-opacity="0"/>
<stop offset="0.744792" stop-color="#4A72DE" stop-opacity="0.126477"/>
<stop offset="0.744892" stop-color="#6985EB"/>
</linearGradient>
</defs>
</svg>
