<svg width="60" height="60" viewBox="0 0 60 60" fill="none" xmlns="http://www.w3.org/2000/svg">
<rect x="21.1426" y="11" width="16.7143" height="1.34483" fill="#44FF00"/>
<rect x="21.1426" y="13.6896" width="16.7143" height="2.68966" fill="#44FF00"/>
<rect x="21.1426" y="17.7241" width="16.7143" height="5.37931" fill="#44FF00"/>
<path d="M21.1429 24.4482H37.8571V33.862H49L37.8571 43.2758L29.5 50L21.1429 43.2758L10 33.862H21.1429V24.4482Z" fill="#44FF00"/>
<path d="M22.8573 33.2495C22.8495 32.9565 22.8983 32.689 23.0037 32.4468C23.1092 32.2046 23.2752 31.9976 23.5018 31.8257C23.7323 31.6538 24.0272 31.521 24.3866 31.4272C24.7498 31.3296 25.1854 31.2808 25.6932 31.2808C26.1971 31.2808 26.6287 31.3296 26.9881 31.4272C27.3514 31.521 27.6483 31.6538 27.8787 31.8257C28.1092 31.9976 28.2772 32.2046 28.3827 32.4468C28.4881 32.689 28.537 32.9565 28.5291 33.2495L28.4588 36.0972C28.4549 36.2144 28.4373 36.3101 28.4061 36.3843C28.3748 36.4546 28.3221 36.5093 28.2479 36.5483C28.1737 36.5835 28.0741 36.6069 27.9491 36.6187C27.828 36.6304 27.6776 36.6362 27.4979 36.6362C27.3143 36.6362 27.162 36.6304 27.0409 36.6187C26.9198 36.6069 26.8221 36.5835 26.7479 36.5483C26.6776 36.5093 26.6268 36.4546 26.5955 36.3843C26.5643 36.3101 26.5467 36.2144 26.5428 36.0972L26.4666 33.0679C26.4627 32.896 26.4432 32.7593 26.408 32.6577C26.3729 32.5562 26.3221 32.478 26.2557 32.4233C26.1932 32.3687 26.1151 32.3335 26.0213 32.3179C25.9276 32.2983 25.8182 32.2886 25.6932 32.2886C25.5682 32.2886 25.4588 32.2983 25.3651 32.3179C25.2713 32.3335 25.1912 32.3687 25.1248 32.4233C25.0623 32.478 25.0135 32.5562 24.9784 32.6577C24.9432 32.7593 24.9237 32.896 24.9198 33.0679L24.7498 39.5132C24.7459 39.6772 24.7596 39.814 24.7909 39.9233C24.826 40.0327 24.8807 40.1206 24.9549 40.187C25.033 40.2495 25.1327 40.2944 25.2537 40.3218C25.3748 40.3491 25.5213 40.3628 25.6932 40.3628C25.8651 40.3628 26.0116 40.3491 26.1327 40.3218C26.2577 40.2944 26.3573 40.2495 26.4315 40.187C26.5096 40.1206 26.5643 40.0327 26.5955 39.9233C26.6268 39.814 26.6405 39.6772 26.6366 39.5132L26.6131 38.8159C26.6092 38.6987 26.6209 38.605 26.6483 38.5347C26.6795 38.4604 26.7303 38.4058 26.8006 38.3706C26.8748 38.3315 26.9725 38.3062 27.0936 38.2944C27.2147 38.2827 27.3651 38.2769 27.5448 38.2769C27.7205 38.2769 27.8631 38.2827 27.9725 38.2944C28.0858 38.3062 28.1717 38.3315 28.2303 38.3706C28.2928 38.4058 28.3338 38.4604 28.3534 38.5347C28.3729 38.605 28.3807 38.6987 28.3768 38.8159L28.3592 39.4722C28.3514 39.7261 28.2967 39.9663 28.1952 40.1929C28.0936 40.4155 27.9354 40.6108 27.7205 40.7788C27.5096 40.9468 27.2362 41.0796 26.9002 41.1772C26.5682 41.271 26.1659 41.3179 25.6932 41.3179C25.2205 41.3179 24.8162 41.269 24.4803 41.1714C24.1444 41.0737 23.869 40.9409 23.6541 40.7729C23.4432 40.605 23.287 40.4077 23.1854 40.1812C23.0838 39.9546 23.0291 39.7144 23.0213 39.4604L22.8573 33.2495ZM29.3729 31.8315C29.3495 31.7339 29.3475 31.6538 29.367 31.5913C29.3905 31.5288 29.4393 31.48 29.5135 31.4448C29.5916 31.4058 29.701 31.3804 29.8416 31.3687C29.9823 31.353 30.162 31.3452 30.3807 31.3452C30.6268 31.3452 30.8202 31.353 30.9608 31.3687C31.1053 31.3804 31.2147 31.4038 31.2889 31.439C31.367 31.4741 31.4198 31.5249 31.4471 31.5913C31.4745 31.6538 31.494 31.7339 31.5057 31.8315L32.408 38.9097H32.5955L33.4745 31.8315C33.4862 31.7339 33.5037 31.6538 33.5272 31.5913C33.5545 31.5249 33.6034 31.4741 33.6737 31.439C33.7479 31.4038 33.8514 31.3804 33.9842 31.3687C34.1209 31.353 34.3065 31.3452 34.5409 31.3452C34.7596 31.3452 34.9393 31.353 35.0799 31.3687C35.2205 31.3804 35.328 31.4058 35.4022 31.4448C35.4803 31.48 35.5291 31.5288 35.5487 31.5913C35.5682 31.6538 35.5682 31.7339 35.5487 31.8315L33.5975 40.8491C33.5741 40.9351 33.5428 41.0054 33.5037 41.0601C33.4686 41.1108 33.412 41.1499 33.3338 41.1772C33.2557 41.2046 33.1502 41.2241 33.0174 41.2358C32.8885 41.2437 32.7205 41.2476 32.5135 41.2476C32.2948 41.2476 32.117 41.2437 31.9803 41.2358C31.8436 41.2241 31.7342 41.2046 31.6522 41.1772C31.5702 41.1499 31.5077 41.1108 31.4647 41.0601C31.4256 41.0054 31.3944 40.9351 31.3709 40.8491L29.3729 31.8315Z" fill="#F6F9FF"/>
</svg>
