<svg width="60" height="60" viewBox="0 0 60 60" fill="none" xmlns="http://www.w3.org/2000/svg">
<path d="M12 14.5788C12 13.1554 13.1917 12 14.6606 12H45.3394C46.8089 12 48 13.1554 48 14.5788V45.4216C48 46.8455 46.8089 48 45.3394 48H14.6606C13.1918 48 12 46.8456 12 45.4221V14.5784V14.5788Z" fill="#44FF00"/>
<path d="M22.9399 42.1274V25.92H17.5529V42.1274H22.9405H22.9399ZM20.2475 23.7076C22.1257 23.7076 23.295 22.463 23.295 20.9077C23.2599 19.317 22.1257 18.1072 20.2833 18.1072C18.4395 18.1072 17.2354 19.317 17.2354 20.9076C17.2354 22.4629 18.4042 23.7074 20.2122 23.7074H20.2471L20.2475 23.7076ZM25.9218 42.1274H31.3084V33.0774C31.3084 32.5937 31.3436 32.1087 31.4859 31.7631C31.8751 30.7949 32.7615 29.7927 34.25 29.7927C36.1988 29.7927 36.9788 31.2788 36.9788 33.4578V42.1274H42.3653V32.8346C42.3653 27.8566 39.7081 25.5401 36.1639 25.5401C33.2582 25.5401 31.982 27.1641 31.273 28.2703H31.3088V25.9206H25.922C25.9924 27.441 25.9216 42.1279 25.9216 42.1279L25.9218 42.1274Z" fill="white"/>
</svg>
