<svg width="64" height="64" viewBox="0 0 64 64" fill="none" xmlns="http://www.w3.org/2000/svg">
<mask id="path-1-inside-1" fill="white">
<path d="M0 32C0 49.6731 14.3269 64 32 64C49.6731 64 64 49.6731 64 32C64 14.3269 49.6731 0 32 0C14.3269 0 0 14.3269 0 32ZM60.8 32C60.8 47.9058 47.9058 60.8 32 60.8C16.0942 60.8 3.2 47.9058 3.2 32C3.2 16.0942 16.0942 3.2 32 3.2C47.9058 3.2 60.8 16.0942 60.8 32Z"/>
</mask>
<path d="M0 32C0 49.6731 14.3269 64 32 64C49.6731 64 64 49.6731 64 32C64 14.3269 49.6731 0 32 0C14.3269 0 0 14.3269 0 32ZM60.8 32C60.8 47.9058 47.9058 60.8 32 60.8C16.0942 60.8 3.2 47.9058 3.2 32C3.2 16.0942 16.0942 3.2 32 3.2C47.9058 3.2 60.8 16.0942 60.8 32Z" stroke="white" stroke-width="6" mask="url(#path-1-inside-1)"/>
<circle cx="32" cy="31" r="22" fill="white"/>
<path d="M31.4557 20L41 25.4286L31.5 30.8571L22 25.4286L31.4557 20Z" fill="white"/>
<path d="M31.0541 25.4194L31.4661 25.1829L31.914 25.4377L31.5 25.6743L31.0541 25.4194Z" stroke="#A9C8FF" stroke-opacity="0.8" stroke-width="9"/>
<path d="M31.5 30.8571V41.7142L22 35.9463V25.4113L31.5 30.8571Z" fill="white"/>
<path d="M31.5 30.8571V41.7142L41 35.9463V25.4113L31.5 30.8571Z" fill="white"/>
<path d="M26.5 33.1778L27 33.4644V33.7176L26.5 33.414V33.1778ZM36 33.7176V33.4644L36.5 33.1778V33.414L36 33.7176Z" stroke="#84A3F7" stroke-opacity="0.8" stroke-width="9"/>
</svg>
