<svg width="52" height="52" viewBox="0 0 52 52" fill="none" xmlns="http://www.w3.org/2000/svg">
<circle cx="26" cy="24" r="17" fill="white"/>
<g filter="url(#filter0_d)">
<mask id="path-2-inside-1" fill="white">
<path d="M26 -1.04907e-06C12.7452 -1.62846e-06 2 10.7452 2 24C2 37.2548 12.7452 48 26 48C39.2548 48 50 37.2548 50 24C50 10.7452 39.2548 -4.69686e-07 26 -1.04907e-06ZM26 45.6C14.0707 45.6 4.4 35.9293 4.4 24C4.4 12.0706 14.0707 2.4 26 2.4C37.9294 2.4 47.6 12.0707 47.6 24C47.6 35.9293 37.9293 45.6 26 45.6Z"/>
</mask>
<path d="M26 -1.04907e-06C12.7452 -1.62846e-06 2 10.7452 2 24C2 37.2548 12.7452 48 26 48C39.2548 48 50 37.2548 50 24C50 10.7452 39.2548 -4.69686e-07 26 -1.04907e-06ZM26 45.6C14.0707 45.6 4.4 35.9293 4.4 24C4.4 12.0706 14.0707 2.4 26 2.4C37.9294 2.4 47.6 12.0707 47.6 24C47.6 35.9293 37.9293 45.6 26 45.6Z" stroke="white" stroke-width="6" mask="url(#path-2-inside-1)"/>
</g>
<path d="M14.6211 28.8287L26.4156 18.345L38.2096 28.828" stroke="#CCCCCC" stroke-width="5"/>
<path d="M20.0005 17.4712L20.0132 19.2312L15.0582 23.5866L15.0581 17.4712L17.5292 17.4711L20.0005 17.4712Z" fill="#CCCCCC"/>
<defs>
<filter id="filter0_d" x="0" y="0" width="52" height="52" filterUnits="userSpaceOnUse" color-interpolation-filters="sRGB">
<feFlood flood-opacity="0" result="BackgroundImageFix"/>
<feColorMatrix in="SourceAlpha" type="matrix" values="0 0 0 0 0 0 0 0 0 0 0 0 0 0 0 0 0 0 127 0"/>
<feOffset dy="2"/>
<feGaussianBlur stdDeviation="1"/>
<feColorMatrix type="matrix" values="0 0 0 0 0.164706 0 0 0 0 0.321569 0 0 0 0 0.745098 0 0 0 0.25 0"/>
<feBlend mode="normal" in2="BackgroundImageFix" result="effect1_dropShadow"/>
<feBlend mode="normal" in="SourceGraphic" in2="effect1_dropShadow" result="shape"/>
</filter>
</defs>
</svg>
