<svg width="64" height="64" viewBox="0 0 64 64" fill="none" xmlns="http://www.w3.org/2000/svg">
<mask id="path-1-inside-1" fill="white">
<path d="M0 32C0 49.6731 14.3269 64 32 64C49.6731 64 64 49.6731 64 32C64 14.3269 49.6731 0 32 0C14.3269 0 0 14.3269 0 32ZM60.8 32C60.8 47.9058 47.9058 60.8 32 60.8C16.0942 60.8 3.2 47.9058 3.2 32C3.2 16.0942 16.0942 3.2 32 3.2C47.9058 3.2 60.8 16.0942 60.8 32Z"/>
</mask>
<path d="M0 32C0 49.6731 14.3269 64 32 64C49.6731 64 64 49.6731 64 32C64 14.3269 49.6731 0 32 0C14.3269 0 0 14.3269 0 32ZM60.8 32C60.8 47.9058 47.9058 60.8 32 60.8C16.0942 60.8 3.2 47.9058 3.2 32C3.2 16.0942 16.0942 3.2 32 3.2C47.9058 3.2 60.8 16.0942 60.8 32Z" stroke="white" stroke-width="6" mask="url(#path-1-inside-1)"/>
<circle cx="31.4074" cy="32.5926" r="17.1852" fill="white"/>
<rect x="0.608349" y="-0.341973" width="16.9661" height="11.1506" transform="matrix(0.25739 -0.966308 0.959308 0.282362 27.6421 36.5242)" fill="#84A3F7" stroke="white" stroke-linejoin="round"/>
<rect x="0.493914" y="-0.493034" width="16.9661" height="11.1506" transform="matrix(-0.0120767 -0.999927 0.999904 0.0138582 25.623 40.4223)" fill="#84A3F7" stroke="white" stroke-linejoin="round"/>
<rect x="0.34152" y="-0.608603" width="16.9661" height="11.1506" transform="matrix(-0.283076 -0.959098 0.966116 -0.258108 25.2632 45.1743)" fill="#84A3F7" stroke="white" stroke-linejoin="round"/>
</svg>
