<svg width="52" height="52" viewBox="0 0 52 52" fill="none" xmlns="http://www.w3.org/2000/svg">
<g filter="url(#filter0_d)">
<circle r="24" transform="matrix(4.37114e-08 -1 -1 -4.37114e-08 26 24)" fill="white"/>
<circle r="22.5" transform="matrix(4.37114e-08 -1 -1 -4.37114e-08 26 24)" stroke="white" stroke-width="3"/>
</g>
<rect x="14" y="13" width="5.01815" height="5.01815" fill="#4A72DE"/>
<rect x="32.9814" y="13" width="5.01815" height="5.01815" fill="#4A72DE"/>
<rect x="19.8906" y="13" width="12.2181" height="5.01815" fill="#4A72DE"/>
<rect x="14" y="24.7817" width="5.01815" height="5.01815" fill="#4A72DE"/>
<rect x="32.9814" y="24.7817" width="5.01815" height="5.01815" fill="#4A72DE"/>
<rect x="19.8906" y="24.7817" width="12.2181" height="5.01815" fill="#4A72DE"/>
<rect x="14" y="18.8909" width="11.7817" height="5.01815" fill="#4A72DE"/>
<rect x="26.6543" y="18.8909" width="11.3454" height="5.01815" fill="#4A72DE"/>
<rect x="14" y="30.6726" width="11.7817" height="5.01815" fill="#4A72DE"/>
<rect x="26.6543" y="30.6726" width="11.3454" height="5.01815" fill="#4A72DE"/>
<defs>
<filter id="filter0_d" x="0" y="0" width="52" height="52" filterUnits="userSpaceOnUse" color-interpolation-filters="sRGB">
<feFlood flood-opacity="0" result="BackgroundImageFix"/>
<feColorMatrix in="SourceAlpha" type="matrix" values="0 0 0 0 0 0 0 0 0 0 0 0 0 0 0 0 0 0 127 0"/>
<feOffset dy="2"/>
<feGaussianBlur stdDeviation="1"/>
<feColorMatrix type="matrix" values="0 0 0 0 0.164706 0 0 0 0 0.321569 0 0 0 0 0.745098 0 0 0 0.25 0"/>
<feBlend mode="normal" in2="BackgroundImageFix" result="effect1_dropShadow"/>
<feBlend mode="normal" in="SourceGraphic" in2="effect1_dropShadow" result="shape"/>
</filter>
</defs>
</svg>
