<svg width="64" height="64" viewBox="0 0 64 64" fill="none" xmlns="http://www.w3.org/2000/svg">
<circle cx="32.1852" cy="32.1852" r="17.1852" fill="white"/>
<mask id="path-2-inside-1" fill="white">
<path d="M0 32C0 49.6731 14.3269 64 32 64C49.6731 64 64 49.6731 64 32C64 14.3269 49.6731 0 32 0C14.3269 0 0 14.3269 0 32ZM60.8 32C60.8 47.9058 47.9058 60.8 32 60.8C16.0942 60.8 3.2 47.9058 3.2 32C3.2 16.0942 16.0942 3.2 32 3.2C47.9058 3.2 60.8 16.0942 60.8 32Z"/>
</mask>
<path d="M0 32C0 49.6731 14.3269 64 32 64C49.6731 64 64 49.6731 64 32C64 14.3269 49.6731 0 32 0C14.3269 0 0 14.3269 0 32ZM60.8 32C60.8 47.9058 47.9058 60.8 32 60.8C16.0942 60.8 3.2 47.9058 3.2 32C3.2 16.0942 16.0942 3.2 32 3.2C47.9058 3.2 60.8 16.0942 60.8 32Z" stroke="white" stroke-width="6" mask="url(#path-2-inside-1)"/>
<rect x="19" y="21.8364" width="26.4727" height="16.6545" fill="white" stroke="#84A3F7" stroke-width="2" stroke-linejoin="round"/>
<path d="M33.3522 41.0364L33.3522 45.5L31.5818 45.5L31.5818 41.0364C31.5818 40.8331 31.4587 40.65 31.2704 40.5733C31.0821 40.4966 30.8661 40.5416 30.7241 40.687L26.2334 45.2844L25.5536 44.5885L31.2868 38.9364L33.6525 38.9364L39.6049 44.595L38.9233 45.2929L34.2017 40.6788C34.0578 40.5382 33.8437 40.4975 33.6582 40.5755C33.4728 40.6536 33.3522 40.8352 33.3522 41.0364Z" fill="#84A3F7" stroke="#84A3F7" stroke-linejoin="round"/>
<path d="M33.1594 31.3452L37.7769 27.0907L40.5572 32.9998L40.5572 35.9853L24.386 35.9853L24.386 32.9998L30.3889 29.218L33.1594 31.3452Z" fill="#84A3F7"/>
<circle cx="26.6523" cy="26.5" r="2.5" fill="#FFFF44"/>
<rect x="31.543" y="19" width="1.84699" height="1.41818" fill="#84A3F7" stroke="#84A3F7" stroke-linejoin="round"/>
</svg>
