<svg width="64" height="64" viewBox="0 0 64 64" fill="none" xmlns="http://www.w3.org/2000/svg">
<path d="M55 6L50.8093 52.7946L31.9718 58L13.1863 52.8019L9 6H55Z" fill="#7D92D8"/>
<path d="M47.2216 49.097L50.8028 9.10889H32V53.3033L47.2216 49.097Z" fill="#9CAEE6"/>
<path d="M18.5967 26.4669L19.1128 32.2069H31.9997V26.4669H18.5967Z" fill="#9CAEE6"/>
<path d="M31.9997 14.8489H31.9798H17.5596L18.0831 20.589H31.9997V14.8489Z" fill="#9CAEE6"/>
<path d="M31.9997 47.3467V41.3746L31.9745 41.3813L25.561 39.6551L25.151 35.0771H22.0345H19.3701L20.1769 44.0899L31.9732 47.354L31.9997 47.3467Z" fill="#9CAEE6"/>
<path d="M39.0707 32.2069L38.4023 39.6513L31.9795 41.3793V47.3511L43.7852 44.0897L43.8718 43.12L45.225 28.0083L45.3655 26.4669L46.4052 14.8489H31.9795V20.589H40.0941L39.5701 26.4669H31.9795V32.2069H39.0707Z" fill="#DAE4FF"/>
</svg>
