<svg width="48" height="48" viewBox="0 0 48 48" fill="none" xmlns="http://www.w3.org/2000/svg">
<path fill-rule="evenodd" clip-rule="evenodd" d="M5 11C5 9.89543 5.89543 9 7 9H41C42.1046 9 43 9.89543 43 11V31.3596C43 32.4642 42.1046 33.3596 41 33.3596H7C5.89543 33.3596 5 32.4642 5 31.3596V11Z" fill="white"/>
<path d="M25.806 34L21.8657 34L13 42.125L14.9701 44L21.8657 37.4375L21.8657 44L25.806 44L25.806 37.4375L33.0298 44L35 42.125L25.806 34Z" fill="white"/>
<path d="M25.2818 22.1515L31.6969 16.2406L35.5595 24.4502L35.5595 28.5979L13.0928 28.5979L13.0928 24.4502L21.4327 19.196L25.2818 22.1515Z" fill="#84A3F7" fill-opacity="0.8"/>
<path d="M19.7151 15.4199C19.7151 17.3381 18.16 18.8932 16.2418 18.8932C14.3236 18.8932 12.7686 17.3381 12.7686 15.4199C12.7686 13.5017 14.3236 11.9467 16.2418 11.9467C18.16 11.9467 19.7151 13.5017 19.7151 15.4199Z" fill="#84A3F7" fill-opacity="0.8"/>
<path fill-rule="evenodd" clip-rule="evenodd" d="M22 5.5C22 5.22386 22.2239 5 22.5 5H25.066C25.3422 5 25.566 5.22386 25.566 5.5V7.47029C25.566 7.74643 25.3422 7.97029 25.066 7.97029H22.5C22.2239 7.97029 22 7.74643 22 7.47029V5.5Z" fill="white"/>
</svg>
