<svg width="52" height="52" viewBox="0 0 52 52" fill="none" xmlns="http://www.w3.org/2000/svg">
<g filter="url(#filter0_d)">
<circle r="24" transform="matrix(4.37114e-08 -1 -1 -4.37114e-08 26 24)" fill="white"/>
<circle r="22.5" transform="matrix(4.37114e-08 -1 -1 -4.37114e-08 26 24)" stroke="white" stroke-width="3"/>
</g>
<rect x="19.6846" y="12.6843" width="12.6316" height="24.4211" fill="#4A72DE"/>
<path d="M18.8421 11.0001L18 11V37.1054H18.8421V11.8422H33.1579V37.1054H34V11.0001H33.1579H18.8421Z" fill="white"/>
<rect x="21.8682" y="14.8684" width="2.36842" height="4.05263" fill="white" stroke="white"/>
<rect x="27.7627" y="14.8684" width="2.36842" height="4.05263" fill="white" stroke="white"/>
<rect x="21.8682" y="20.7632" width="2.36842" height="3.21053" fill="white" stroke="white"/>
<rect x="27.7627" y="20.7632" width="2.36842" height="3.21053" fill="white" stroke="white"/>
<circle cx="22.6313" cy="26.5788" r="0.763158" fill="white" stroke="white"/>
<defs>
<filter id="filter0_d" x="0" y="0" width="52" height="52" filterUnits="userSpaceOnUse" color-interpolation-filters="sRGB">
<feFlood flood-opacity="0" result="BackgroundImageFix"/>
<feColorMatrix in="SourceAlpha" type="matrix" values="0 0 0 0 0 0 0 0 0 0 0 0 0 0 0 0 0 0 127 0"/>
<feOffset dy="2"/>
<feGaussianBlur stdDeviation="1"/>
<feColorMatrix type="matrix" values="0 0 0 0 0.164706 0 0 0 0 0.321569 0 0 0 0 0.745098 0 0 0 0.25 0"/>
<feBlend mode="normal" in2="BackgroundImageFix" result="effect1_dropShadow"/>
<feBlend mode="normal" in="SourceGraphic" in2="effect1_dropShadow" result="shape"/>
</filter>
</defs>
</svg>
