<svg width="48" height="48" viewBox="0 0 48 48" fill="none" xmlns="http://www.w3.org/2000/svg">
<rect x="11" y="13.8364" width="26.4727" height="16.6545" fill="#769EFF" stroke="white" stroke-width="2" stroke-linejoin="round"/>
<path d="M25.3518 33.0364L25.3518 37.5L23.5813 37.5L23.5813 33.0364C23.5813 32.8331 23.4582 32.65 23.2699 32.5733C23.0816 32.4966 22.8656 32.5416 22.7236 32.687L18.2329 37.2844L17.5531 36.5885L23.2863 30.9364L25.652 30.9364L31.6044 36.595L30.9228 37.2929L26.2012 32.6788C26.0573 32.5382 25.8432 32.4975 25.6578 32.5755C25.4723 32.6536 25.3518 32.8352 25.3518 33.0364Z" fill="white" stroke="white" stroke-linejoin="round"/>
<path d="M25.1592 23.3452L29.7767 19.0907L32.557 24.9998L32.557 27.9853L16.3857 27.9853L16.3857 24.9998L22.3887 21.218L25.1592 23.3452Z" fill="#00FF44"/>
<circle cx="18.6523" cy="18.5" r="2.5" fill="#FFFF44"/>
<rect x="23.543" y="11" width="1.84699" height="1.41818" fill="white" stroke="white" stroke-linejoin="round"/>
</svg>
