<svg width="121" height="121" viewBox="0 0 121 121" fill="none" xmlns="http://www.w3.org/2000/svg">
<path d="M7 91C7 89.8954 7.89543 89 9 89H15.1647C16.2693 89 17.1647 89.8954 17.1647 91V98.4696C17.1647 99.4841 17.9201 100.337 18.9285 100.448C25.1502 101.137 46.4782 103.374 61 103.374C75.5218 103.374 96.8498 101.137 103.072 100.448C104.08 100.337 104.835 99.4841 104.835 98.4696V91C104.835 89.8954 105.731 89 106.835 89H113C114.105 89 115 89.8954 115 91V107.878C115 108.878 114.279 109.721 113.288 109.85C106.279 110.761 79.2802 114.102 61 113.998C42.6826 113.893 15.6616 110.23 8.68985 109.242C7.70868 109.103 7 108.264 7 107.273V91Z" fill="#DAE4FF"/>
</svg>
