<svg width="64" height="64" viewBox="0 0 64 64" fill="none" xmlns="http://www.w3.org/2000/svg">
<path d="M58 6H6V58H58V6Z" fill="#7D92D8"/>
<path d="M40.9305 46.6252C41.9779 48.3354 43.3407 49.5925 45.7508 49.5925C47.7755 49.5925 49.0689 48.5806 49.0689 47.1824C49.0689 45.5068 47.74 44.9133 45.5115 43.9386L44.2899 43.4144C40.7638 41.9122 38.4213 40.0303 38.4213 36.0519C38.4213 32.3871 41.2136 29.5973 45.5775 29.5973C48.6843 29.5973 50.9178 30.6786 52.5273 33.5097L48.7223 35.9528C47.8845 34.4506 46.9807 33.8588 45.5775 33.8588C44.1463 33.8588 43.2391 34.7667 43.2391 35.9528C43.2391 37.4187 44.1471 38.0122 46.2436 38.9201L47.4652 39.4434C51.6169 41.2238 53.9611 43.0389 53.9611 47.1196C53.9611 51.519 50.5051 53.9292 45.8639 53.9292C41.3259 53.9292 38.3941 51.7666 36.9595 48.9322L40.9305 46.6252ZM23.669 47.0487C24.4366 48.4106 25.1349 49.562 26.8138 49.562C28.4192 49.562 29.4319 48.9339 29.4319 46.4915V29.8763H34.3183V46.5575C34.3183 51.6172 31.3518 53.9201 27.0218 53.9201C23.1094 53.9201 20.8437 51.8954 19.6914 49.4567L23.669 47.0487Z" fill="white"/>
</svg>
