<svg width="52" height="52" viewBox="0 0 52 52" fill="none" xmlns="http://www.w3.org/2000/svg">
<g filter="url(#filter0_d)">
<circle r="24" transform="matrix(4.37114e-08 -1 -1 -4.37114e-08 26 24)" fill="white"/>
<circle r="22.5" transform="matrix(4.37114e-08 -1 -1 -4.37114e-08 26 24)" stroke="white" stroke-width="3"/>
</g>
<path d="M16 37V13L20.5 13.8599L25 14.7197L29.5 15.5796L34 16.4395V34.0955L29.5 34.8217L25 35.5478L20.5 36.2739L16 37Z" fill="#4A72DE"/>
<path d="M25 14.7197V35.5478M25 14.7197L29.5 15.5796M25 14.7197L20.5 13.8599M25 35.5478L29.5 34.8217M25 35.5478L20.5 36.2739M29.5 34.8217L34 34.0955V16.4395L29.5 15.5796M29.5 34.8217V15.5796M20.5 13.8599L16 13V37L20.5 36.2739M20.5 13.8599V36.2739" stroke="white" stroke-width="2"/>
<path d="M26.012 20.7291C26.8369 20.0071 27.572 19.917 28.3505 20.1199C32.332 14.9941 38.2617 7.56526 38.5423 7.25728C38.8229 6.94931 39.4937 5.56033 41.3456 6.94929C43.1975 8.33825 42.3968 9.2618 42.2462 9.57213C42.0957 9.88246 31.1199 22.3857 31.1199 22.3857C31.1199 22.3857 31.8716 23.0681 31.3717 24.3998L27.252 30.2263L21.3715 25.2952L26.012 20.7291Z" fill="white"/>
<path d="M31.1199 22.3857C31.1199 22.3857 31.8716 23.0681 31.3717 24.3998L27.252 30.2263L21.3715 25.2952L26.012 20.7291C26.8369 20.0071 27.572 19.917 28.3505 20.1199M31.1199 22.3857C31.1199 22.3857 42.0957 9.88246 42.2462 9.57213C42.3968 9.2618 43.1975 8.33825 41.3456 6.94929C39.4937 5.56033 38.8229 6.94931 38.5423 7.25728C38.2617 7.56526 32.332 14.9941 28.3505 20.1199M31.1199 22.3857C31.1199 22.3857 30.3809 21.5607 29.8611 21.1269C29.3553 20.7048 28.3505 20.1199 28.3505 20.1199" stroke="#4A72DE"/>
<defs>
<filter id="filter0_d" x="0" y="0" width="52" height="52" filterUnits="userSpaceOnUse" color-interpolation-filters="sRGB">
<feFlood flood-opacity="0" result="BackgroundImageFix"/>
<feColorMatrix in="SourceAlpha" type="matrix" values="0 0 0 0 0 0 0 0 0 0 0 0 0 0 0 0 0 0 127 0"/>
<feOffset dy="2"/>
<feGaussianBlur stdDeviation="1"/>
<feColorMatrix type="matrix" values="0 0 0 0 0.164706 0 0 0 0 0.321569 0 0 0 0 0.745098 0 0 0 0.25 0"/>
<feBlend mode="normal" in2="BackgroundImageFix" result="effect1_dropShadow"/>
<feBlend mode="normal" in="SourceGraphic" in2="effect1_dropShadow" result="shape"/>
</filter>
</defs>
</svg>
