<svg width="64" height="64" viewBox="0 0 64 64" fill="none" xmlns="http://www.w3.org/2000/svg">
<mask id="path-1-inside-1" fill="white">
<path d="M0 32C0 49.6731 14.3269 64 32 64C49.6731 64 64 49.6731 64 32C64 14.3269 49.6731 0 32 0C14.3269 0 0 14.3269 0 32ZM60.8 32C60.8 47.9058 47.9058 60.8 32 60.8C16.0942 60.8 3.2 47.9058 3.2 32C3.2 16.0942 16.0942 3.2 32 3.2C47.9058 3.2 60.8 16.0942 60.8 32Z"/>
</mask>
<path d="M0 32C0 49.6731 14.3269 64 32 64C49.6731 64 64 49.6731 64 32C64 14.3269 49.6731 0 32 0C14.3269 0 0 14.3269 0 32ZM60.8 32C60.8 47.9058 47.9058 60.8 32 60.8C16.0942 60.8 3.2 47.9058 3.2 32C3.2 16.0942 16.0942 3.2 32 3.2C47.9058 3.2 60.8 16.0942 60.8 32Z" stroke="white" stroke-width="6" mask="url(#path-1-inside-1)"/>
<rect x="15.6667" y="48.3333" width="31.3333" height="31.3333" rx="15.6667" transform="rotate(-90 15.6667 48.3333)" fill="white" stroke="white" stroke-width="2" stroke-linejoin="round"/>
<path d="M49.3333 42.6667V50.6666H41.3333" stroke="white" stroke-width="2.4"/>
<path d="M21.3333 50.6667L13.3333 50.6667L13.3333 42.6667" stroke="white" stroke-width="2.4"/>
<path d="M41.3333 14.6667L49.3332 14.6667L49.3332 22.6667" stroke="white" stroke-width="2.4"/>
<path d="M13.3333 23.3136V14.6667H21.3333" stroke="white" stroke-width="2.4"/>
<path d="M37.5386 25.9422C37.5386 29.0899 34.9603 31.75 31.7886 31.75C28.6169 31.75 26.0386 29.0899 26.0386 25.9422C26.0386 22.8008 28.6106 20.25 31.7886 20.25C34.9665 20.25 37.5386 22.8008 37.5386 25.9422Z" fill="#84A3F7" stroke="white" stroke-width="0.5"/>
<path d="M25.5803 34.6663C27.4002 32.9538 29.6997 32 31.9997 32C34.2997 32 36.6 32.9538 38.4199 34.6663C40.9211 37.0199 39.7039 43.9997 39.7039 43.9997L24.296 44C24.296 44 23.079 37.0199 25.5803 34.6663Z" fill="#84A3F7"/>
</svg>
