<svg width="48" height="48" viewBox="0 0 48 48" fill="none" xmlns="http://www.w3.org/2000/svg">
<rect x="6" y="41" width="34" height="34" rx="17" transform="rotate(-90 6 41)" fill="white" stroke="white" stroke-width="2" stroke-linejoin="round"/>
<path d="M35.7582 28.0402C35.8679 27.4344 35.8679 26.8156 35.7582 26.2098L36.8467 25.5695C36.9733 25.4965 37.0282 25.3461 36.986 25.2043C36.7033 24.2762 36.2181 23.434 35.5852 22.7379C35.4882 22.6305 35.332 22.6047 35.2055 22.6777L34.1169 23.318C33.657 22.9184 33.1296 22.609 32.56 22.4027V21.1223C32.56 20.9762 32.4588 20.8473 32.3195 20.8172C31.3787 20.6023 30.4209 20.6109 29.5264 20.8172C29.3872 20.8473 29.2859 20.9762 29.2859 21.1223V22.4027C28.7163 22.609 28.1889 22.9184 27.7291 23.318L26.6405 22.6777C26.5181 22.6047 26.3578 22.6305 26.2608 22.7379C25.6279 23.434 25.1427 24.2762 24.86 25.2043C24.8178 25.3461 24.8769 25.4965 24.9992 25.5695L26.0878 26.2098C25.9781 26.8156 25.9781 27.4344 26.0878 28.0402L24.9992 28.6805C24.8727 28.7535 24.8178 28.9039 24.86 29.0457C25.1427 29.9738 25.6279 30.8117 26.2608 31.5121C26.3578 31.6195 26.5139 31.6453 26.6405 31.5723L27.7291 30.932C28.1889 31.3316 28.7163 31.641 29.2859 31.8473V33.1277C29.2859 33.2738 29.3872 33.4027 29.5264 33.4328C30.4673 33.6477 31.4251 33.6391 32.3195 33.4328C32.4588 33.4027 32.56 33.2738 32.56 33.1277V31.8473C33.1296 31.641 33.657 31.3316 34.1169 30.932L35.2055 31.5723C35.3278 31.6453 35.4882 31.6195 35.5852 31.5121C36.2181 30.816 36.7033 29.9738 36.986 29.0457C37.0282 28.9039 36.9691 28.7535 36.8467 28.6805L35.7582 28.0402V28.0402ZM30.9272 29.209C29.7965 29.209 28.8809 28.2723 28.8809 27.125C28.8809 25.9777 29.8007 25.041 30.9272 25.041C32.0537 25.041 32.9735 25.9777 32.9735 27.125C32.9735 28.2723 32.058 29.209 30.9272 29.209ZM19.451 23C22.434 23 24.8516 20.5379 24.8516 17.5C24.8516 14.4621 22.434 12 19.451 12C16.468 12 14.0504 14.4621 14.0504 17.5C14.0504 20.5379 16.468 23 19.451 23ZM27.94 32.7324C27.843 32.6809 27.7459 32.6207 27.6531 32.5648L27.3198 32.7625C27.0666 32.9086 26.7797 32.9902 26.4928 32.9902C26.0329 32.9902 25.5899 32.7926 25.2735 32.4488C24.5014 31.598 23.9107 30.5625 23.5774 29.4582C23.3453 28.6977 23.6575 27.8941 24.3326 27.4945L24.6659 27.2969C24.6617 27.1852 24.6617 27.0734 24.6659 26.9617L24.3326 26.7641C23.6575 26.3688 23.3453 25.5609 23.5774 24.8004C23.6153 24.6758 23.6702 24.5512 23.7124 24.4266C23.5521 24.4137 23.3959 24.375 23.2314 24.375H22.5268C21.5901 24.8133 20.548 25.0625 19.451 25.0625C18.354 25.0625 17.3161 24.8133 16.3752 24.375H15.6706C12.54 24.375 10 26.9617 10 30.15V31.9375C10 33.0762 10.9071 34 12.0252 34H26.8768C27.3029 34 27.6995 33.8625 28.0244 33.6348C27.9738 33.4715 27.94 33.3039 27.94 33.1277V32.7324Z" fill="#9CAEE6"/>
</svg>
