<svg width="64" height="64" viewBox="0 0 64 64" fill="none" xmlns="http://www.w3.org/2000/svg">
<mask id="path-1-inside-1" fill="white">
<path d="M0 32C0 49.6731 14.3269 64 32 64C49.6731 64 64 49.6731 64 32C64 14.3269 49.6731 0 32 0C14.3269 0 0 14.3269 0 32ZM60.8 32C60.8 47.9058 47.9058 60.8 32 60.8C16.0942 60.8 3.2 47.9058 3.2 32C3.2 16.0942 16.0942 3.2 32 3.2C47.9058 3.2 60.8 16.0942 60.8 32Z"/>
</mask>
<path d="M0 32C0 49.6731 14.3269 64 32 64C49.6731 64 64 49.6731 64 32C64 14.3269 49.6731 0 32 0C14.3269 0 0 14.3269 0 32ZM60.8 32C60.8 47.9058 47.9058 60.8 32 60.8C16.0942 60.8 3.2 47.9058 3.2 32C3.2 16.0942 16.0942 3.2 32 3.2C47.9058 3.2 60.8 16.0942 60.8 32Z" stroke="white" stroke-width="6" mask="url(#path-1-inside-1)"/>
<circle cx="32" cy="31" r="22" fill="white"/>
<path d="M31.1063 25.1646C31.2602 25.2246 31.3928 25.2769 31.5 25.3195V42.1451C31.0845 41.9178 30.5205 41.6181 29.8702 41.296C28.4933 40.614 26.7017 39.8176 25.1076 39.4049C23.74 39.0507 21.9576 38.8538 20.5376 38.7446C19.8233 38.6897 19.1928 38.6564 18.7407 38.6368C18.6536 38.633 18.5732 38.6298 18.5 38.6269V22.5129C18.5587 22.5147 18.6219 22.5168 18.6892 22.5191C19.1266 22.5343 19.7382 22.5605 20.4343 22.6048C21.833 22.6937 23.5486 22.854 24.8781 23.1372C26.2093 23.4207 27.9365 23.9938 29.3463 24.5034C30.0479 24.7569 30.6648 24.9925 31.1063 25.1646ZM45.3079 22.5191C45.3763 22.5167 45.4405 22.5147 45.5 22.5128V38.2769C45.4161 38.287 45.3216 38.2985 45.2178 38.3113C44.766 38.3671 44.136 38.4487 43.4225 38.5521C42.0008 38.758 40.2279 39.0528 38.8741 39.405C37.2835 39.8188 35.4963 40.6153 34.123 41.297C33.4757 41.6183 32.9142 41.9173 32.5 42.1443V25.319C32.6067 25.2765 32.7385 25.2243 32.8916 25.1644C33.3313 24.9923 33.946 24.7567 34.6453 24.5032C36.0506 23.9937 37.7732 23.4206 39.1041 23.1372C40.4336 22.8541 42.1535 22.6937 43.5568 22.6048C44.2551 22.5605 44.8689 22.5343 45.3079 22.5191Z" fill="#84A3F7" stroke="#84A3F7"/>
<path d="M31.1063 24.1646C31.2602 24.2246 31.3928 24.2769 31.5 24.3195V41.1451C31.0845 40.9178 30.5205 40.6181 29.8702 40.296C28.4933 39.614 26.7017 38.8176 25.1076 38.4049C23.74 38.0507 21.9576 37.8538 20.5376 37.7446C19.8233 37.6897 19.1928 37.6564 18.7407 37.6368C18.6536 37.633 18.5732 37.6298 18.5 37.6269V21.5129C18.5587 21.5147 18.6219 21.5168 18.6892 21.5191C19.1266 21.5343 19.7382 21.5605 20.4343 21.6048C21.833 21.6937 23.5486 21.854 24.8781 22.1372C26.2093 22.4207 27.9365 22.9938 29.3463 23.5034C30.0479 23.7569 30.6648 23.9925 31.1063 24.1646ZM45.3079 21.5191C45.3763 21.5167 45.4405 21.5147 45.5 21.5128V37.2769C45.4161 37.287 45.3216 37.2985 45.2178 37.3113C44.766 37.3671 44.136 37.4487 43.4225 37.5521C42.0008 37.758 40.2279 38.0528 38.8741 38.405C37.2835 38.8188 35.4963 39.6153 34.123 40.297C33.4757 40.6183 32.9142 40.9173 32.5 41.1443V24.319C32.6067 24.2765 32.7385 24.2243 32.8916 24.1644C33.3313 23.9923 33.946 23.7567 34.6453 23.5032C36.0506 22.9937 37.7732 22.4206 39.1041 22.1372C40.4336 21.8541 42.1535 21.6937 43.5568 21.6048C44.2551 21.5605 44.8689 21.5343 45.3079 21.5191Z" fill="#84A3F7" stroke="#84A3F7"/>
</svg>
