<svg width="48" height="48" viewBox="0 0 48 48" fill="none" xmlns="http://www.w3.org/2000/svg">
<path d="M13.8955 14.4618C13.8955 13.9095 14.3432 13.4618 14.8955 13.4618H18.3431C18.8954 13.4618 19.3431 13.9095 19.3431 14.4618V17.9094C19.3431 18.4617 18.8954 18.9094 18.3431 18.9094H14.8955C14.3432 18.9094 13.8955 18.4617 13.8955 17.9094V14.4618Z" fill="white"/>
<path d="M19.3418 39.6995C19.3418 40.2517 18.8941 40.6995 18.3418 40.6995L14.8942 40.6995C14.3419 40.6995 13.8942 40.2517 13.8942 39.6995L13.8942 36.2519C13.8942 35.6996 14.3419 35.2519 14.8942 35.2519L18.3418 35.2519C18.8941 35.2519 19.3418 35.6996 19.3418 36.2519L19.3418 39.6995Z" fill="white"/>
<path d="M29.2383 24.3568C29.7906 24.3568 30.2383 24.8045 30.2383 25.3568L30.2383 28.8044C30.2383 29.3567 29.7906 29.8044 29.2383 29.8044L25.7907 29.8044C25.2384 29.8044 24.7907 29.3567 24.7907 28.8044L24.7907 25.3568C24.7907 24.8045 25.2384 24.3568 25.7907 24.3568L29.2383 24.3568Z" fill="white"/>
<path d="M4 29.8046C3.44772 29.8046 3 29.3569 3 28.8046L3 25.357C3 24.8047 3.44772 24.357 4 24.357L7.44757 24.357C7.99986 24.357 8.44757 24.8047 8.44757 25.357L8.44757 28.8046C8.44757 29.3569 7.99986 29.8046 7.44757 29.8046L4 29.8046Z" fill="white"/>
<path d="M23.6142 16.2315C24.0047 15.841 24.6379 15.841 25.0284 16.2315L27.4662 18.6693C27.8567 19.0598 27.8567 19.693 27.4662 20.0835L25.0284 22.5213C24.6379 22.9119 24.0047 22.9119 23.6142 22.5213L21.1764 20.0835C20.7859 19.693 20.7859 19.0598 21.1764 18.6693L23.6142 16.2315Z" fill="white"/>
<path d="M9.62312 37.9297C9.2326 38.3203 8.59943 38.3203 8.20891 37.9297L5.77111 35.4919C5.38058 35.1014 5.38058 34.4682 5.77111 34.0777L8.20891 31.6399C8.59943 31.2494 9.2326 31.2494 9.62312 31.6399L12.0609 34.0777C12.4514 34.4682 12.4514 35.1014 12.0609 35.4919L9.62312 37.9297Z" fill="white"/>
<path d="M27.4677 34.0763C27.8582 34.4669 27.8582 35.1 27.4677 35.4906L25.0299 37.9284C24.6394 38.3189 24.0062 38.3189 23.6157 37.9284L21.1779 35.4906C20.7874 35.1 20.7874 34.4669 21.1779 34.0763L23.6157 31.6385C24.0062 31.248 24.6394 31.248 25.0299 31.6385L27.4677 34.0763Z" fill="white"/>
<path d="M5.76961 20.0842C5.37908 19.6937 5.37908 19.0605 5.76961 18.67L8.20741 16.2322C8.59793 15.8416 9.2311 15.8416 9.62162 16.2322L12.0594 18.67C12.45 19.0605 12.45 19.6937 12.0594 20.0842L9.62162 22.522C9.2311 22.9125 8.59793 22.9125 8.20741 22.522L5.76961 20.0842Z" fill="white"/>
<path d="M26.6063 27.0807C26.6063 32.5965 22.1348 37.0679 16.6191 37.0679C11.1033 37.0679 6.63184 32.5965 6.63184 27.0807C6.63184 21.5649 11.1033 17.0935 16.6191 17.0935C22.1348 17.0935 26.6063 21.5649 26.6063 27.0807ZM13.6229 27.0807C13.6229 28.7355 14.9643 30.0769 16.6191 30.0769C18.2738 30.0769 19.6152 28.7355 19.6152 27.0807C19.6152 25.426 18.2738 24.0846 16.6191 24.0846C14.9643 24.0846 13.6229 25.426 13.6229 27.0807Z" fill="white"/>
<path d="M34.6621 8C34.6621 7.44772 35.1098 7 35.6621 7H37.1084C37.6607 7 38.1084 7.44772 38.1084 8V9.4463C38.1084 9.99858 37.6607 10.4463 37.1084 10.4463H35.6621C35.1098 10.4463 34.6621 9.99858 34.6621 9.4463V8Z" fill="white"/>
<path d="M38.1084 23.2314C38.1084 23.7837 37.6607 24.2314 37.1084 24.2314L35.6621 24.2314C35.1098 24.2314 34.6621 23.7837 34.6621 23.2314L34.6621 21.7851C34.6621 21.2329 35.1098 20.7851 35.6621 20.7851L37.1084 20.7851C37.6607 20.7851 38.1084 21.2329 38.1084 21.7851L38.1084 23.2314Z" fill="white"/>
<path d="M44.001 13.8926C44.5533 13.8926 45.001 14.3403 45.001 14.8926L45.001 16.3389C45.001 16.8912 44.5533 17.3389 44.001 17.3389L42.5547 17.3389C42.0024 17.3389 41.5547 16.8912 41.5547 16.3389L41.5547 14.8926C41.5547 14.3403 42.0024 13.8926 42.5547 13.8926L44.001 13.8926Z" fill="white"/>
<path d="M28.7695 17.339C28.2172 17.339 27.7695 16.8913 27.7695 16.339L27.7695 14.8927C27.7695 14.3404 28.2172 13.8927 28.7695 13.8927L30.2158 13.8927C30.7681 13.8927 31.2158 14.3404 31.2158 14.8927L31.2158 16.339C31.2158 16.8913 30.7681 17.339 30.2158 17.339L28.7695 17.339Z" fill="white"/>
<path d="M40.5527 9.01192C40.9432 8.62139 41.5763 8.62139 41.9669 9.01192L42.9896 10.0346C43.3801 10.4251 43.3801 11.0583 42.9896 11.4488L41.9669 12.4715C41.5763 12.862 40.9432 12.862 40.5527 12.4715L39.53 11.4488C39.1394 11.0583 39.1394 10.4251 39.53 10.0346L40.5527 9.01192Z" fill="white"/>
<path d="M32.2198 22.2194C31.8293 22.6099 31.1961 22.6099 30.8056 22.2194L29.7829 21.1967C29.3924 20.8062 29.3924 20.173 29.7829 19.7825L30.8056 18.7598C31.1961 18.3693 31.8293 18.3693 32.2198 18.7598L33.2425 19.7825C33.633 20.173 33.633 20.8062 33.2425 21.1967L32.2198 22.2194Z" fill="white"/>
<path d="M42.9892 19.7815C43.3797 20.1721 43.3797 20.8052 42.9892 21.1958L41.9665 22.2184C41.576 22.609 40.9428 22.609 40.5523 22.2184L39.5296 21.1958C39.1391 20.8052 39.1391 20.1721 39.5296 19.7815L40.5523 18.7589C40.9428 18.3683 41.576 18.3683 41.9665 18.7589L42.9892 19.7815Z" fill="white"/>
<path d="M29.7803 11.4493C29.3898 11.0588 29.3898 10.4256 29.7803 10.0351L30.803 9.01239C31.1936 8.62187 31.8267 8.62187 32.2172 9.01239L33.2399 10.0351C33.6305 10.4256 33.6305 11.0588 33.2399 11.4493L32.2172 12.472C31.8267 12.8625 31.1936 12.8625 30.803 12.472L29.7803 11.4493Z" fill="white"/>
<path d="M42.7038 15.6157C42.7038 19.1051 39.875 21.9339 36.3856 21.9339C32.8961 21.9339 30.0674 19.1051 30.0674 15.6157C30.0674 12.1262 32.8961 9.29749 36.3856 9.29749C39.875 9.29749 42.7038 12.1262 42.7038 15.6157ZM34.4901 15.6157C34.4901 16.6625 35.3388 17.5112 36.3856 17.5112C37.4324 17.5112 38.2811 16.6625 38.2811 15.6157C38.2811 14.5689 37.4324 13.7202 36.3856 13.7202C35.3388 13.7202 34.4901 14.5689 34.4901 15.6157Z" fill="white"/>
</svg>
