<svg width="48" height="48" viewBox="0 0 48 48" fill="none" xmlns="http://www.w3.org/2000/svg">
<path d="M23.6445 8.75171L23.6445 37.6567" stroke="white" stroke-width="2"/>
<path d="M13.0029 15H34" stroke="white" stroke-width="2"/>
<path d="M34.48 39.7844L32.8862 37.0861L23.6452 37.0861H14.4041L12.8098 39.7844L23.6452 39.7844L34.48 39.7844Z" fill="white" stroke="white"/>
<path d="M7.64631 24.3872L13.0093 14.9924L18.6098 24.3919C18.4015 24.5368 18.0811 24.7322 17.6363 24.9299C16.7158 25.339 15.2523 25.7627 13.1313 25.7627C11.0104 25.7627 9.54686 25.339 8.62641 24.9299C8.17684 24.7301 7.85438 24.5327 7.64631 24.3872ZM18.911 24.1554L18.9114 24.1552L18.911 24.1554Z" fill="white"/>
<path d="M7.64631 24.3872L13.0093 14.9924L18.6098 24.3919C18.4015 24.5368 18.0811 24.7322 17.6363 24.9299C16.7158 25.339 15.2523 25.7627 13.1313 25.7627C11.0104 25.7627 9.54686 25.339 8.62641 24.9299C8.17684 24.7301 7.85438 24.5327 7.64631 24.3872ZM18.911 24.1554L18.9114 24.1552L18.911 24.1554Z" fill="white"/>
<path d="M7.64631 24.3872L13.0093 14.9924L18.6098 24.3919C18.4015 24.5368 18.0811 24.7322 17.6363 24.9299C16.7158 25.339 15.2523 25.7627 13.1313 25.7627C11.0104 25.7627 9.54686 25.339 8.62641 24.9299C8.17684 24.7301 7.85438 24.5327 7.64631 24.3872ZM18.911 24.1554L18.9114 24.1552L18.911 24.1554Z" fill="white"/>
<path d="M7.64631 24.3872L13.0093 14.9924L18.6098 24.3919C18.4015 24.5368 18.0811 24.7322 17.6363 24.9299C16.7158 25.339 15.2523 25.7627 13.1313 25.7627C11.0104 25.7627 9.54686 25.339 8.62641 24.9299C8.17684 24.7301 7.85438 24.5327 7.64631 24.3872ZM18.911 24.1554L18.9114 24.1552L18.911 24.1554Z" stroke="white"/>
<path d="M28.6463 24.3872L34.0093 14.9924L39.6098 24.3919C39.4015 24.5368 39.0811 24.7322 38.6363 24.9299C37.7158 25.339 36.2523 25.7627 34.1313 25.7627C32.0104 25.7627 30.5469 25.339 29.6264 24.9299C29.1768 24.7301 28.8544 24.5327 28.6463 24.3872ZM39.911 24.1554L39.9114 24.1552L39.911 24.1554Z" fill="white"/>
<path d="M28.6463 24.3872L34.0093 14.9924L39.6098 24.3919C39.4015 24.5368 39.0811 24.7322 38.6363 24.9299C37.7158 25.339 36.2523 25.7627 34.1313 25.7627C32.0104 25.7627 30.5469 25.339 29.6264 24.9299C29.1768 24.7301 28.8544 24.5327 28.6463 24.3872ZM39.911 24.1554L39.9114 24.1552L39.911 24.1554Z" fill="white"/>
<path d="M28.6463 24.3872L34.0093 14.9924L39.6098 24.3919C39.4015 24.5368 39.0811 24.7322 38.6363 24.9299C37.7158 25.339 36.2523 25.7627 34.1313 25.7627C32.0104 25.7627 30.5469 25.339 29.6264 24.9299C29.1768 24.7301 28.8544 24.5327 28.6463 24.3872ZM39.911 24.1554L39.9114 24.1552L39.911 24.1554Z" fill="white"/>
<path d="M28.6463 24.3872L34.0093 14.9924L39.6098 24.3919C39.4015 24.5368 39.0811 24.7322 38.6363 24.9299C37.7158 25.339 36.2523 25.7627 34.1313 25.7627C32.0104 25.7627 30.5469 25.339 29.6264 24.9299C29.1768 24.7301 28.8544 24.5327 28.6463 24.3872ZM39.911 24.1554L39.9114 24.1552L39.911 24.1554Z" stroke="white"/>
<path d="M25.7213 7.5C25.6325 7.93145 25.4303 8.32783 25.1376 8.63998C25.0306 8.75414 24.912 8.79391 24.6717 8.78345C24.5566 8.77844 24.4368 8.76293 24.288 8.74366C24.2669 8.74094 24.2452 8.73813 24.2229 8.73527C24.0535 8.71355 23.8533 8.68977 23.6443 8.68977C23.4353 8.68977 23.2352 8.71355 23.0657 8.73527C23.0434 8.73813 23.0217 8.74094 23.0007 8.74367C22.8518 8.76293 22.732 8.77844 22.617 8.78345C22.3767 8.79392 22.258 8.75414 22.151 8.63998C21.8584 8.32783 21.6561 7.93145 21.5674 7.5L23.6443 7.5H25.7213Z" fill="white" stroke="white"/>
</svg>
