<svg width="52" height="52" viewBox="0 0 52 52" fill="none" xmlns="http://www.w3.org/2000/svg">
<g filter="url(#filter0_d)">
<mask id="path-1-inside-1" fill="white">
<path d="M26 48C39.2548 48 50 37.2548 50 24C50 10.7452 39.2548 4.44259e-07 26 2.86197e-07C12.7452 1.28135e-07 2 10.7452 2 24C2 37.2548 12.7452 48 26 48ZM26 2.4C37.9293 2.4 47.6 12.0707 47.6 24C47.6 35.9294 37.9293 45.6 26 45.6C14.0706 45.6 4.4 35.9293 4.4 24C4.4 12.0707 14.0707 2.4 26 2.4Z"/>
</mask>
<path d="M26 48C39.2548 48 50 37.2548 50 24C50 10.7452 39.2548 4.44259e-07 26 2.86197e-07C12.7452 1.28135e-07 2 10.7452 2 24C2 37.2548 12.7452 48 26 48ZM26 2.4C37.9293 2.4 47.6 12.0707 47.6 24C47.6 35.9294 37.9293 45.6 26 45.6C14.0706 45.6 4.4 35.9293 4.4 24C4.4 12.0707 14.0707 2.4 26 2.4Z" stroke="white" stroke-width="6" mask="url(#path-1-inside-1)"/>
</g>
<path d="M14.1515 23.1515C13.6828 23.6201 13.6828 24.3799 14.1515 24.8485L21.7882 32.4853C22.2569 32.9539 23.0167 32.9539 23.4853 32.4853C23.9539 32.0167 23.9539 31.2569 23.4853 30.7882L16.6971 24L23.4853 17.2118C23.9539 16.7431 23.9539 15.9833 23.4853 15.5147C23.0167 15.0461 22.2569 15.0461 21.7882 15.5147L14.1515 23.1515ZM38 22.8L15 22.8L15 25.2L38 25.2L38 22.8Z" fill="white"/>
<defs>
<filter id="filter0_d" x="0" y="0" width="52" height="52" filterUnits="userSpaceOnUse" color-interpolation-filters="sRGB">
<feFlood flood-opacity="0" result="BackgroundImageFix"/>
<feColorMatrix in="SourceAlpha" type="matrix" values="0 0 0 0 0 0 0 0 0 0 0 0 0 0 0 0 0 0 127 0"/>
<feOffset dy="2"/>
<feGaussianBlur stdDeviation="1"/>
<feColorMatrix type="matrix" values="0 0 0 0 0.164706 0 0 0 0 0.321569 0 0 0 0 0.745098 0 0 0 0.25 0"/>
<feBlend mode="normal" in2="BackgroundImageFix" result="effect1_dropShadow"/>
<feBlend mode="normal" in="SourceGraphic" in2="effect1_dropShadow" result="shape"/>
</filter>
</defs>
</svg>
