<svg width="64" height="64" viewBox="0 0 64 64" fill="none" xmlns="http://www.w3.org/2000/svg">
<mask id="path-1-inside-1" fill="white">
<path d="M0 32C0 49.6731 14.3269 64 32 64C49.6731 64 64 49.6731 64 32C64 14.3269 49.6731 0 32 0C14.3269 0 0 14.3269 0 32ZM60.8 32C60.8 47.9058 47.9058 60.8 32 60.8C16.0942 60.8 3.2 47.9058 3.2 32C3.2 16.0942 16.0942 3.2 32 3.2C47.9058 3.2 60.8 16.0942 60.8 32Z"/>
</mask>
<path d="M0 32C0 49.6731 14.3269 64 32 64C49.6731 64 64 49.6731 64 32C64 14.3269 49.6731 0 32 0C14.3269 0 0 14.3269 0 32ZM60.8 32C60.8 47.9058 47.9058 60.8 32 60.8C16.0942 60.8 3.2 47.9058 3.2 32C3.2 16.0942 16.0942 3.2 32 3.2C47.9058 3.2 60.8 16.0942 60.8 32Z" stroke="white" stroke-width="6" mask="url(#path-1-inside-1)"/>
<circle cx="32.1852" cy="32.1852" r="17.1852" fill="white"/>
<path d="M31.7778 19.9609L31.7778 42.5399" stroke="#84A3F7" stroke-width="2"/>
<line x1="23.5674" y1="25.1188" x2="39.9884" y2="25.1188" stroke="#84A3F7" stroke-width="2"/>
<path d="M23.5061 44.0925L31.7783 44.0925L40.0501 44.0925L38.9344 42.2036L31.7783 42.2036H24.6222L23.5061 44.0925Z" fill="#84A3F7" stroke="#84A3F7"/>
<path d="M35.802 32.4528L39.9379 25.3627L44.0738 32.4528C43.918 32.5547 43.6995 32.6806 43.4125 32.8082C42.7077 33.1214 41.5796 33.4493 39.9379 33.4493C38.2962 33.4493 37.1681 33.1214 36.4633 32.8082C36.1763 32.6806 35.9578 32.5547 35.802 32.4528Z" fill="#84A3F7"/>
<path d="M35.802 32.4528L39.9379 25.3627L44.0738 32.4528C43.918 32.5547 43.6995 32.6806 43.4125 32.8082C42.7077 33.1214 41.5796 33.4493 39.9379 33.4493C38.2962 33.4493 37.1681 33.1214 36.4633 32.8082C36.1763 32.6806 35.9578 32.5547 35.802 32.4528Z" fill="#84A3F7"/>
<path d="M35.802 32.4528L39.9379 25.3627L44.0738 32.4528C43.918 32.5547 43.6995 32.6806 43.4125 32.8082C42.7077 33.1214 41.5796 33.4493 39.9379 33.4493C38.2962 33.4493 37.1681 33.1214 36.4633 32.8082C36.1763 32.6806 35.9578 32.5547 35.802 32.4528Z" fill="#84A3F7"/>
<path d="M35.802 32.4528L39.9379 25.3627L44.0738 32.4528C43.918 32.5547 43.6995 32.6806 43.4125 32.8082C42.7077 33.1214 41.5796 33.4493 39.9379 33.4493C38.2962 33.4493 37.1681 33.1214 36.4633 32.8082C36.1763 32.6806 35.9578 32.5547 35.802 32.4528Z" stroke="#84A3F7"/>
<path d="M19.4314 32.4528L23.5673 25.3627L27.7032 32.4528C27.5474 32.5547 27.3289 32.6806 27.0419 32.8082C26.3371 33.1214 25.209 33.4493 23.5673 33.4493C21.9256 33.4493 20.7975 33.1214 20.0927 32.8082C19.8057 32.6806 19.5872 32.5547 19.4314 32.4528Z" fill="#84A3F7"/>
<path d="M19.4314 32.4528L23.5673 25.3627L27.7032 32.4528C27.5474 32.5547 27.3289 32.6806 27.0419 32.8082C26.3371 33.1214 25.209 33.4493 23.5673 33.4493C21.9256 33.4493 20.7975 33.1214 20.0927 32.8082C19.8057 32.6806 19.5872 32.5547 19.4314 32.4528Z" fill="#84A3F7"/>
<path d="M19.4314 32.4528L23.5673 25.3627L27.7032 32.4528C27.5474 32.5547 27.3289 32.6806 27.0419 32.8082C26.3371 33.1214 25.209 33.4493 23.5673 33.4493C21.9256 33.4493 20.7975 33.1214 20.0927 32.8082C19.8057 32.6806 19.5872 32.5547 19.4314 32.4528Z" fill="#84A3F7"/>
<path d="M19.4314 32.4528L23.5673 25.3627L27.7032 32.4528C27.5474 32.5547 27.3289 32.6806 27.0419 32.8082C26.3371 33.1214 25.209 33.4493 23.5673 33.4493C21.9256 33.4493 20.7975 33.1214 20.0927 32.8082C19.8057 32.6806 19.5872 32.5547 19.4314 32.4528Z" stroke="#84A3F7"/>
<path d="M33.2607 19.0925C33.1847 19.359 33.0488 19.602 32.8644 19.7988C32.8113 19.8554 32.7562 19.8838 32.585 19.8763C32.5001 19.8726 32.4115 19.8612 32.2945 19.8461C32.2782 19.8439 32.2612 19.8417 32.2436 19.8395C32.111 19.8225 31.9486 19.8031 31.7777 19.8031C31.6069 19.8031 31.4444 19.8225 31.3118 19.8395C31.2943 19.8417 31.2773 19.8439 31.2609 19.8461C31.1439 19.8612 31.0554 19.8726 30.9705 19.8763C30.7993 19.8838 30.7442 19.8554 30.6911 19.7988C30.5067 19.602 30.3707 19.359 30.2947 19.0925L31.7777 19.0925H33.2607Z" fill="#84A3F7" stroke="#84A3F7"/>
</svg>
