<svg width="52" height="52" viewBox="0 0 52 52" fill="none" xmlns="http://www.w3.org/2000/svg">
<circle cx="26" cy="24" r="17" fill="white"/>
<g filter="url(#filter0_d)">
<mask id="path-2-inside-1" fill="white">
<path d="M26 -1.04907e-06C12.7452 -1.62846e-06 2 10.7452 2 24C2 37.2548 12.7452 48 26 48C39.2548 48 50 37.2548 50 24C50 10.7452 39.2548 -4.69686e-07 26 -1.04907e-06ZM26 45.6C14.0707 45.6 4.4 35.9293 4.4 24C4.4 12.0707 14.0707 2.4 26 2.4C37.9294 2.4 47.6 12.0707 47.6 24C47.6 35.9293 37.9294 45.6 26 45.6Z"/>
</mask>
<path d="M26 -1.04907e-06C12.7452 -1.62846e-06 2 10.7452 2 24C2 37.2548 12.7452 48 26 48C39.2548 48 50 37.2548 50 24C50 10.7452 39.2548 -4.69686e-07 26 -1.04907e-06ZM26 45.6C14.0707 45.6 4.4 35.9293 4.4 24C4.4 12.0707 14.0707 2.4 26 2.4C37.9294 2.4 47.6 12.0707 47.6 24C47.6 35.9293 37.9294 45.6 26 45.6Z" stroke="white" stroke-width="6" mask="url(#path-2-inside-1)"/>
</g>
<path d="M21.2586 12.8348L27.1552 14.8417V33.6662L21.2586 35.3386V12.8348ZM34.4828 31.7195L28.1552 33.3945V15.2074L34.4828 17.6002V31.7195ZM35.4828 31.4548V17.9784L37.5 18.7413V30.9208L35.4828 31.4548ZM20.2586 12.9125V35.2241L13.5 32.1571V15.9795L20.2586 12.9125Z" fill="#CCCCCC" stroke="white"/>
<path d="M25.5 33.6543V14.842L32.5 11.7659V35.3632L25.5 33.6543Z" fill="#CCCCCC" stroke="white"/>
<defs>
<filter id="filter0_d" x="0" y="0" width="52" height="52" filterUnits="userSpaceOnUse" color-interpolation-filters="sRGB">
<feFlood flood-opacity="0" result="BackgroundImageFix"/>
<feColorMatrix in="SourceAlpha" type="matrix" values="0 0 0 0 0 0 0 0 0 0 0 0 0 0 0 0 0 0 127 0"/>
<feOffset dy="2"/>
<feGaussianBlur stdDeviation="1"/>
<feColorMatrix type="matrix" values="0 0 0 0 0.164706 0 0 0 0 0.321569 0 0 0 0 0.745098 0 0 0 0.25 0"/>
<feBlend mode="normal" in2="BackgroundImageFix" result="effect1_dropShadow"/>
<feBlend mode="normal" in="SourceGraphic" in2="effect1_dropShadow" result="shape"/>
</filter>
</defs>
</svg>
