<svg width="48" height="48" viewBox="0 0 48 48" fill="none" xmlns="http://www.w3.org/2000/svg">
<path d="M42 34V41.9999H34" stroke="white" stroke-width="4"/>
<path d="M14 42L6.00007 42L6.00007 34" stroke="white" stroke-width="4"/>
<path d="M34 6L41.9999 6L41.9999 14" stroke="white" stroke-width="4"/>
<path d="M6 14.647V6.00008H14" stroke="white" stroke-width="4"/>
<path d="M30.4551 17.2756C30.4551 20.5573 27.7688 23.3334 24.4551 23.3334C21.1414 23.3334 18.4551 20.5573 18.4551 17.2756C18.4551 13.9938 21.1414 11.3334 24.4551 11.3334C27.7688 11.3334 30.4551 13.9938 30.4551 17.2756Z" fill="white"/>
<path d="M18.2472 25.9997C20.0672 24.2872 22.3667 23.3334 24.6667 23.3334C26.9666 23.3334 29.267 24.2872 31.0869 25.9997C33.5881 28.3533 32.3708 35.333 32.3708 35.333L16.963 35.3334C16.963 35.3334 15.746 28.3533 18.2472 25.9997Z" fill="white"/>
</svg>
