<svg width="48" height="48" viewBox="0 0 48 48" fill="none" xmlns="http://www.w3.org/2000/svg">
<path d="M20 18L30 24.515L20 31V18Z" fill="white" stroke="white" stroke-width="2" stroke-linejoin="round"/>
<mask id="path-2-inside-1" fill="white">
<path d="M10.7504 12.5126C7.90875 15.5349 6.23318 19.4685 6.02257 23.6115C5.81195 27.7546 7.08 31.8378 9.6005 35.1327C12.121 38.4276 15.73 40.72 19.7839 41.6009C23.8377 42.4818 28.0726 41.894 31.7332 39.9423C35.3939 37.9906 38.2421 34.8019 39.7699 30.9451C41.2978 27.0882 41.4058 22.8141 40.0747 18.885C38.7437 14.9559 36.0601 11.6274 32.5027 9.49332C28.9454 7.35919 24.7455 6.5582 20.6524 7.23323L21.0151 9.43274C24.5869 8.8437 28.2517 9.54266 31.3559 11.4049C34.4602 13.2672 36.8019 16.1717 37.9634 19.6003C39.1249 23.0288 39.0306 26.7585 37.6974 30.1241C36.3642 33.4896 33.8788 36.2721 30.6844 37.9752C27.4901 39.6783 23.7947 40.1912 20.2572 39.4225C16.7198 38.6538 13.5705 36.6534 11.3711 33.7782C9.17164 30.9031 8.06513 27.34 8.24891 23.7247C8.4327 20.1094 9.89483 16.6769 12.3745 14.0396L10.7504 12.5126Z"/>
</mask>
<path d="M10.7504 12.5126C7.90875 15.5349 6.23318 19.4685 6.02257 23.6115C5.81195 27.7546 7.08 31.8378 9.6005 35.1327C12.121 38.4276 15.73 40.72 19.7839 41.6009C23.8377 42.4818 28.0726 41.894 31.7332 39.9423C35.3939 37.9906 38.2421 34.8019 39.7699 30.9451C41.2978 27.0882 41.4058 22.8141 40.0747 18.885C38.7437 14.9559 36.0601 11.6274 32.5027 9.49332C28.9454 7.35919 24.7455 6.5582 20.6524 7.23323L21.0151 9.43274C24.5869 8.8437 28.2517 9.54266 31.3559 11.4049C34.4602 13.2672 36.8019 16.1717 37.9634 19.6003C39.1249 23.0288 39.0306 26.7585 37.6974 30.1241C36.3642 33.4896 33.8788 36.2721 30.6844 37.9752C27.4901 39.6783 23.7947 40.1912 20.2572 39.4225C16.7198 38.6538 13.5705 36.6534 11.3711 33.7782C9.17164 30.9031 8.06513 27.34 8.24891 23.7247C8.4327 20.1094 9.89483 16.6769 12.3745 14.0396L10.7504 12.5126Z" stroke="white" stroke-width="6" mask="url(#path-2-inside-1)"/>
<path d="M13.4535 11.0558L12.7858 18.1225L11.4538 17.176L11.871 13.2828L8.44628 15.0387L6.99978 14.0108L13.4535 11.0558Z" fill="white" stroke="white" stroke-width="1.4" stroke-linejoin="round"/>
</svg>
