<svg width="64" height="64" viewBox="0 0 64 64" fill="none" xmlns="http://www.w3.org/2000/svg">
<mask id="path-1-inside-1" fill="white">
<path d="M0 32C0 49.6731 14.3269 64 32 64C49.6731 64 64 49.6731 64 32C64 14.3269 49.6731 0 32 0C14.3269 0 0 14.3269 0 32ZM60.8 32C60.8 47.9058 47.9058 60.8 32 60.8C16.0942 60.8 3.2 47.9058 3.2 32C3.2 16.0942 16.0942 3.2 32 3.2C47.9058 3.2 60.8 16.0942 60.8 32Z"/>
</mask>
<path d="M0 32C0 49.6731 14.3269 64 32 64C49.6731 64 64 49.6731 64 32C64 14.3269 49.6731 0 32 0C14.3269 0 0 14.3269 0 32ZM60.8 32C60.8 47.9058 47.9058 60.8 32 60.8C16.0942 60.8 3.2 47.9058 3.2 32C3.2 16.0942 16.0942 3.2 32 3.2C47.9058 3.2 60.8 16.0942 60.8 32Z" stroke="white" stroke-width="6" mask="url(#path-1-inside-1)"/>
<g filter="url(#filter0_dddd)">
<path d="M32.1406 18.5937L32.1406 44.8905" stroke="white" stroke-width="2"/>
<line x1="22.5781" y1="24.7655" x2="41.703" y2="24.7655" stroke="white" stroke-width="2"/>
<path d="M41.9192 46.781L40.5225 44.4164L32.1411 44.4164H23.7597L22.3625 46.781L32.1411 46.781L41.9192 46.781Z" fill="white" stroke="white"/>
<path d="M36.7172 33.1678L41.6442 24.7214L46.5713 33.1678C46.3837 33.2957 46.1046 33.4625 45.7244 33.6315C44.8928 34.0011 43.5676 34.3853 41.6442 34.3853C39.7209 34.3853 38.3957 34.0011 37.5641 33.6315C37.1839 33.4625 36.9048 33.2957 36.7172 33.1678Z" fill="white"/>
<path d="M36.7172 33.1678L41.6442 24.7214L46.5713 33.1678C46.3837 33.2957 46.1046 33.4625 45.7244 33.6315C44.8928 34.0011 43.5676 34.3853 41.6442 34.3853C39.7209 34.3853 38.3957 34.0011 37.5641 33.6315C37.1839 33.4625 36.9048 33.2957 36.7172 33.1678Z" fill="white"/>
<path d="M36.7172 33.1678L41.6442 24.7214L46.5713 33.1678C46.3837 33.2957 46.1046 33.4625 45.7244 33.6315C44.8928 34.0011 43.5676 34.3853 41.6442 34.3853C39.7209 34.3853 38.3957 34.0011 37.5641 33.6315C37.1839 33.4625 36.9048 33.2957 36.7172 33.1678Z" fill="white"/>
<path d="M36.7172 33.1678L41.6442 24.7214L46.5713 33.1678C46.3837 33.2957 46.1046 33.4625 45.7244 33.6315C44.8928 34.0011 43.5676 34.3853 41.6442 34.3853C39.7209 34.3853 38.3957 34.0011 37.5641 33.6315C37.1839 33.4625 36.9048 33.2957 36.7172 33.1678Z" stroke="white"/>
<path d="M17.6511 33.1678L22.5781 24.7214L27.5051 33.1678C27.3176 33.2957 27.0384 33.4625 26.6582 33.6315C25.8266 34.0011 24.5014 34.3853 22.5781 34.3853C20.6547 34.3853 19.3295 34.0011 18.498 33.6315C18.1178 33.4625 17.8386 33.2957 17.6511 33.1678Z" fill="white"/>
<path d="M17.6511 33.1678L22.5781 24.7214L27.5051 33.1678C27.3176 33.2957 27.0384 33.4625 26.6582 33.6315C25.8266 34.0011 24.5014 34.3853 22.5781 34.3853C20.6547 34.3853 19.3295 34.0011 18.498 33.6315C18.1178 33.4625 17.8386 33.2957 17.6511 33.1678Z" fill="white"/>
<path d="M17.6511 33.1678L22.5781 24.7214L27.5051 33.1678C27.3176 33.2957 27.0384 33.4625 26.6582 33.6315C25.8266 34.0011 24.5014 34.3853 22.5781 34.3853C20.6547 34.3853 19.3295 34.0011 18.498 33.6315C18.1178 33.4625 17.8386 33.2957 17.6511 33.1678Z" fill="white"/>
<path d="M17.6511 33.1678L22.5781 24.7214L27.5051 33.1678C27.3176 33.2957 27.0384 33.4625 26.6582 33.6315C25.8266 34.0011 24.5014 34.3853 22.5781 34.3853C20.6547 34.3853 19.3295 34.0011 18.498 33.6315C18.1178 33.4625 17.8386 33.2957 17.6511 33.1678Z" stroke="white"/>
<path d="M33.9738 17.5C33.8894 17.8635 33.7141 18.1965 33.466 18.4611C33.3812 18.5516 33.2888 18.5867 33.077 18.5774C32.9744 18.573 32.8674 18.5591 32.7317 18.5416C32.7126 18.5391 32.6929 18.5366 32.6725 18.5339C32.5182 18.5142 32.3336 18.4922 32.1404 18.4922C31.9471 18.4922 31.7625 18.5142 31.6082 18.5339C31.5879 18.5366 31.5681 18.5391 31.549 18.5416C31.4133 18.5591 31.3064 18.573 31.2038 18.5774C30.992 18.5867 30.8995 18.5516 30.8147 18.4611C30.5666 18.1965 30.3913 17.8635 30.3069 17.5L32.1404 17.5H33.9738Z" fill="white" stroke="white"/>
</g>
<defs>
<filter id="filter0_dddd" x="11" y="11" width="42.2223" height="42.2811" filterUnits="userSpaceOnUse" color-interpolation-filters="sRGB">
<feFlood flood-opacity="0" result="BackgroundImageFix"/>
<feColorMatrix in="SourceAlpha" type="matrix" values="0 0 0 0 0 0 0 0 0 0 0 0 0 0 0 0 0 0 127 0"/>
<feOffset dy="2"/>
<feGaussianBlur stdDeviation="0.5"/>
<feColorMatrix type="matrix" values="0 0 0 0 1 0 0 0 0 1 0 0 0 0 1 0 0 0 0.16 0"/>
<feBlend mode="normal" in2="BackgroundImageFix" result="effect1_dropShadow"/>
<feColorMatrix in="SourceAlpha" type="matrix" values="0 0 0 0 0 0 0 0 0 0 0 0 0 0 0 0 0 0 127 0"/>
<feOffset/>
<feGaussianBlur stdDeviation="1.5"/>
<feColorMatrix type="matrix" values="0 0 0 0 1 0 0 0 0 1 0 0 0 0 1 0 0 0 0.5 0"/>
<feBlend mode="normal" in2="effect1_dropShadow" result="effect2_dropShadow"/>
<feColorMatrix in="SourceAlpha" type="matrix" values="0 0 0 0 0 0 0 0 0 0 0 0 0 0 0 0 0 0 127 0"/>
<feOffset/>
<feGaussianBlur stdDeviation="3"/>
<feColorMatrix type="matrix" values="0 0 0 0 1 0 0 0 0 1 0 0 0 0 1 0 0 0 0.5 0"/>
<feBlend mode="normal" in2="effect2_dropShadow" result="effect3_dropShadow"/>
<feColorMatrix in="SourceAlpha" type="matrix" values="0 0 0 0 0 0 0 0 0 0 0 0 0 0 0 0 0 0 127 0"/>
<feOffset/>
<feGaussianBlur stdDeviation="2"/>
<feColorMatrix type="matrix" values="0 0 0 0 1 0 0 0 0 1 0 0 0 0 1 0 0 0 0.64 0"/>
<feBlend mode="normal" in2="effect3_dropShadow" result="effect4_dropShadow"/>
<feBlend mode="normal" in="SourceGraphic" in2="effect4_dropShadow" result="shape"/>
</filter>
</defs>
</svg>
