<svg width="48" height="48" viewBox="0 0 48 48" fill="none" xmlns="http://www.w3.org/2000/svg">
<path d="M22.9412 14.5055C23.2104 14.6104 23.4317 14.6981 23.594 14.7629V38.1419C23.5421 38.1132 23.4879 38.0832 23.4313 38.0521C22.858 37.7368 22.0497 37.3051 21.1086 36.839C19.2336 35.9104 16.8037 34.8309 14.6482 34.2728C12.7993 33.794 10.3818 33.5264 8.44693 33.3776C7.47526 33.3029 6.61739 33.2575 6.00227 33.2309C5.80988 33.2226 5.64115 33.216 5.5 33.211L5.5 10.8709C5.62792 10.8746 5.77761 10.8792 5.94633 10.8851C6.54417 10.9058 7.38006 10.9416 8.33157 11.0021C10.2411 11.1235 12.5918 11.3428 14.4187 11.7319C16.2472 12.1213 18.6128 12.9067 20.5366 13.602C21.4952 13.9485 22.3381 14.2703 22.9412 14.5055ZM24.7539 38.0527C24.6984 38.0833 24.6451 38.1128 24.594 38.1411V14.7624C24.7557 14.6976 24.9759 14.6101 25.2437 14.5052C25.8445 14.2701 26.6843 13.9483 27.6398 13.6019C29.5576 12.9066 31.917 12.1212 33.7452 11.7319C35.572 11.3429 37.9287 11.1236 39.8443 11.0021C40.7989 10.9416 41.6378 10.9058 42.2379 10.8851C42.4082 10.8792 42.5592 10.8745 42.6881 10.8709V32.7199C42.5389 32.7375 42.3556 32.7596 42.1435 32.7858C41.5283 32.8618 40.6704 32.9729 39.6988 33.1137C37.761 33.3943 35.3513 33.7952 33.5152 34.2729C31.3643 34.8325 28.9404 35.9119 27.0704 36.8402C26.1317 37.3062 25.3256 37.7376 24.7539 38.0527Z" fill="white" stroke="#84A3F7"/>
<path d="M22.9412 14.1466C23.2104 14.2515 23.4317 14.3392 23.594 14.404V37.783C23.5421 37.7543 23.4879 37.7243 23.4313 37.6932C22.858 37.3779 22.0497 36.9462 21.1086 36.4801C19.2336 35.5515 16.8037 34.472 14.6482 33.9139C12.7993 33.4352 10.3818 33.1675 8.44693 33.0187C7.47526 32.944 6.61739 32.8987 6.00227 32.872C5.80988 32.8637 5.64115 32.8572 5.5 32.8521L5.5 10.512C5.62792 10.5157 5.77761 10.5203 5.94633 10.5262C6.54417 10.5469 7.38006 10.5827 8.33157 10.6432C10.2411 10.7647 12.5918 10.984 14.4187 11.373C16.2472 11.7624 18.6128 12.5478 20.5366 13.2431C21.4952 13.5896 22.3381 13.9114 22.9412 14.1466ZM24.7539 37.6938C24.6984 37.7244 24.6451 37.7539 24.594 37.7822V14.4035C24.7557 14.3387 24.9759 14.2512 25.2437 14.1463C25.8445 13.9112 26.6843 13.5894 27.6398 13.243C29.5576 12.5477 31.917 11.7624 33.7452 11.373C35.572 10.984 37.9287 10.7647 39.8443 10.6432C40.7989 10.5827 41.6378 10.5469 42.2379 10.5262C42.4082 10.5203 42.5592 10.5156 42.6881 10.512V32.361C42.5389 32.3786 42.3556 32.4007 42.1435 32.4269C41.5283 32.5029 40.6704 32.6141 39.6988 32.7548C37.761 33.0354 35.3513 33.4364 33.5152 33.914C31.3643 34.4736 28.9404 35.553 27.0704 36.4813C26.1317 36.9473 25.3256 37.3787 24.7539 37.6938Z" fill="white" stroke="white"/>
</svg>
