<svg width="64" height="64" viewBox="0 0 64 64" fill="none" xmlns="http://www.w3.org/2000/svg">
<mask id="path-1-inside-1" fill="white">
<path d="M0 32C0 49.6731 14.3269 64 32 64C49.6731 64 64 49.6731 64 32C64 14.3269 49.6731 0 32 0C14.3269 0 0 14.3269 0 32ZM60.8 32C60.8 47.9058 47.9058 60.8 32 60.8C16.0942 60.8 3.2 47.9058 3.2 32C3.2 16.0942 16.0942 3.2 32 3.2C47.9058 3.2 60.8 16.0942 60.8 32Z"/>
</mask>
<path d="M0 32C0 49.6731 14.3269 64 32 64C49.6731 64 64 49.6731 64 32C64 14.3269 49.6731 0 32 0C14.3269 0 0 14.3269 0 32ZM60.8 32C60.8 47.9058 47.9058 60.8 32 60.8C16.0942 60.8 3.2 47.9058 3.2 32C3.2 16.0942 16.0942 3.2 32 3.2C47.9058 3.2 60.8 16.0942 60.8 32Z" stroke="white" stroke-width="6" mask="url(#path-1-inside-1)"/>
<g filter="url(#filter0_dddd)">
<mask id="path-2-inside-2" fill="white">
<path d="M32 24.9815C32 24.9815 36.2663 23.2303 39 22.6481C41.7337 22.066 46 22 46 22V38.7222C46 38.7222 41.6511 39.1992 39 39.8889C35.9208 40.69 32 43 32 43C32 43 28.0681 40.6879 24.9823 39.8889C22.3371 39.204 18 39.1111 18 39.1111V22C18 22 22.2486 22.066 24.9823 22.6481C27.716 23.2303 32 24.9815 32 24.9815Z"/>
</mask>
<path d="M32 24.9815C32 24.9815 36.2663 23.2303 39 22.6481C41.7337 22.066 46 22 46 22V38.7222C46 38.7222 41.6511 39.1992 39 39.8889C35.9208 40.69 32 43 32 43C32 43 28.0681 40.6879 24.9823 39.8889C22.3371 39.204 18 39.1111 18 39.1111V22C18 22 22.2486 22.066 24.9823 22.6481C27.716 23.2303 32 24.9815 32 24.9815Z" fill="white"/>
<path d="M31 24.9815V43H33V24.9815H31ZM32 24.9815L31.2433 26.8328L32.0016 27.1428L32.7594 26.8317L32 24.9815ZM46 22H48V19.9688L45.9691 20.0002L46 22ZM46 38.7222L46.218 40.7103L48 40.5149V38.7222H46ZM32 43L30.9862 44.724L32.001 45.3207L33.0152 44.7232L32 43ZM18 39.1111H16V41.0688L17.9572 41.1107L18 39.1111ZM18 22L18.0311 20.0002L16 19.9687V22H18ZM39 39.8889L38.4964 37.9533L39 39.8889ZM24.9823 39.8889L25.4836 37.9527L24.9823 39.8889ZM39 22.6481L38.5834 20.692L39 22.6481ZM44 22V38.7222H48V22H44ZM20 39.1111V22H16V39.1111H20ZM46 38.7222C45.782 36.7341 45.7819 36.7342 45.7817 36.7342C45.7817 36.7342 45.7815 36.7342 45.7814 36.7342C45.7812 36.7342 45.7808 36.7343 45.7805 36.7343C45.7797 36.7344 45.7787 36.7345 45.7774 36.7346C45.7748 36.7349 45.7712 36.7353 45.7665 36.7358C45.7572 36.7369 45.7439 36.7384 45.7266 36.7403C45.692 36.7442 45.6419 36.7499 45.5776 36.7574C45.449 36.7723 45.2638 36.7942 45.0338 36.8226C44.5743 36.8794 43.9336 36.9624 43.2075 37.0676C41.7767 37.2748 39.9351 37.579 38.4964 37.9533L39.5036 41.8245C40.716 41.509 42.3744 41.23 43.7808 41.0263C44.4733 40.926 45.0856 40.8466 45.5243 40.7924C45.7434 40.7654 45.9187 40.7446 46.0383 40.7308C46.0981 40.7238 46.144 40.7186 46.1744 40.7152C46.1897 40.7135 46.201 40.7122 46.2084 40.7114C46.212 40.711 46.2147 40.7107 46.2163 40.7105C46.2171 40.7104 46.2177 40.7103 46.218 40.7103C46.2181 40.7103 46.2182 40.7103 46.2182 40.7103C46.2182 40.7103 46.2182 40.7103 46.2182 40.7103C46.2181 40.7103 46.218 40.7103 46 38.7222ZM38.4964 37.9533C36.7526 38.407 34.8541 39.2594 33.456 39.9534C32.7425 40.3076 32.1304 40.6352 31.6954 40.8749C31.4776 40.995 31.3033 41.0935 31.1819 41.1629C31.1211 41.1976 31.0736 41.2251 31.0403 41.2444C31.0237 41.254 31.0107 41.2616 31.0014 41.2671C30.9967 41.2698 30.993 41.272 30.9902 41.2736C30.9888 41.2744 30.9877 41.2751 30.9868 41.2757C30.9863 41.2759 30.9859 41.2762 30.9856 41.2764C30.9854 41.2765 30.9852 41.2766 30.9851 41.2766C30.9849 41.2767 30.9848 41.2768 32 43C33.0152 44.7232 33.0151 44.7232 33.015 44.7233C33.0149 44.7233 33.0148 44.7234 33.0148 44.7234C33.0147 44.7235 33.0146 44.7235 33.0147 44.7235C33.0147 44.7235 33.015 44.7233 33.0155 44.723C33.0165 44.7224 33.0184 44.7213 33.0213 44.7196C33.027 44.7163 33.0364 44.7108 33.0492 44.7033C33.0749 44.6884 33.1146 44.6655 33.1671 44.6355C33.2721 44.5754 33.4282 44.4872 33.626 44.3782C34.0225 44.1597 34.583 43.8597 35.2346 43.5363C36.5667 42.875 38.1682 42.1719 39.5036 41.8245L38.4964 37.9533ZM32 43C33.0138 41.276 33.0136 41.2759 33.0134 41.2758C33.0133 41.2757 33.0131 41.2756 33.0129 41.2755C33.0126 41.2753 33.0122 41.2751 33.0118 41.2748C33.0108 41.2743 33.0097 41.2736 33.0083 41.2728C33.0055 41.2711 33.0018 41.2689 32.9971 41.2662C32.9878 41.2608 32.9747 41.2532 32.9581 41.2435C32.9247 41.2242 32.8771 41.1967 32.8162 41.162C32.6944 41.0925 32.5196 40.9939 32.3012 40.8738C31.8651 40.6339 31.2513 40.3062 30.536 39.9519C29.1343 39.2576 27.2311 38.4052 25.4836 37.9527L24.4809 41.825C25.8193 42.1716 27.425 42.8748 28.7607 43.5363C29.414 43.8599 29.9761 44.1601 30.3736 44.3787C30.572 44.4878 30.7285 44.5761 30.8339 44.6362C30.8865 44.6663 30.9263 44.6892 30.9521 44.7042C30.965 44.7116 30.9744 44.7171 30.9801 44.7205C30.983 44.7221 30.985 44.7233 30.986 44.7239C30.9865 44.7242 30.9868 44.7243 30.9868 44.7244C30.9868 44.7244 30.9868 44.7244 30.9867 44.7243C30.9866 44.7243 30.9865 44.7242 30.9865 44.7242C30.9864 44.7241 30.9862 44.724 32 43ZM25.4836 37.9527C23.9808 37.5636 22.0878 37.3594 20.6526 37.249C19.918 37.1925 19.2703 37.1583 18.8056 37.1382C18.5729 37.1281 18.3851 37.1215 18.2541 37.1174C18.1887 37.1154 18.1373 37.1139 18.1016 37.113C18.0838 37.1125 18.0698 37.1122 18.06 37.112C18.055 37.1118 18.0511 37.1118 18.0482 37.1117C18.0468 37.1117 18.0456 37.1116 18.0447 37.1116C18.0443 37.1116 18.0439 37.1116 18.0436 37.1116C18.0434 37.1116 18.0432 37.1116 18.0431 37.1116C18.043 37.1116 18.0428 37.1116 18 39.1111C17.9572 41.1107 17.9571 41.1106 17.957 41.1106C17.9569 41.1106 17.9569 41.1106 17.9568 41.1106C17.9568 41.1106 17.9568 41.1106 17.9568 41.1106C17.957 41.1106 17.9574 41.1107 17.9581 41.1107C17.9594 41.1107 17.9617 41.1108 17.9651 41.1108C17.9718 41.111 17.9825 41.1113 17.9971 41.1116C18.0262 41.1124 18.0706 41.1136 18.1289 41.1155C18.2455 41.1191 18.4172 41.1251 18.6324 41.1344C19.0636 41.1531 19.6655 41.1849 20.3458 41.2373C21.7405 41.3445 23.3387 41.5293 24.4809 41.825L25.4836 37.9527ZM32 24.9815C32.7594 26.8317 32.7594 26.8317 32.7593 26.8317C32.7593 26.8317 32.7592 26.8318 32.7592 26.8318C32.7592 26.8318 32.7593 26.8317 32.7594 26.8317C32.7597 26.8316 32.7602 26.8314 32.761 26.8311C32.7625 26.8304 32.765 26.8294 32.7686 26.828C32.7756 26.8251 32.7866 26.8206 32.8015 26.8146C32.8311 26.8025 32.8759 26.7844 32.9343 26.7609C33.0514 26.7139 33.2231 26.6454 33.4383 26.5612C33.8692 26.3925 34.4718 26.1616 35.1565 25.9134C36.553 25.4071 38.1935 24.8648 39.4166 24.6043L38.5834 20.692C37.0728 21.0137 35.2134 21.638 33.7932 22.1529C33.0697 22.4152 32.4348 22.6585 31.9804 22.8363C31.7529 22.9254 31.57 22.9983 31.443 23.0493C31.3795 23.0748 31.3299 23.0949 31.2957 23.1088C31.2786 23.1157 31.2653 23.1211 31.2561 23.1249C31.2515 23.1268 31.2478 23.1283 31.2452 23.1294C31.244 23.1299 31.2429 23.1303 31.2421 23.1306C31.2417 23.1308 31.2414 23.1309 31.2411 23.131C31.241 23.1311 31.2409 23.1311 31.2408 23.1312C31.2407 23.1312 31.2406 23.1313 32 24.9815ZM39.4166 24.6043C40.634 24.345 42.2636 24.1897 43.6516 24.1018C44.3325 24.0586 44.9316 24.033 45.3597 24.0182C45.5734 24.0108 45.7438 24.0062 45.8595 24.0034C45.9174 24.002 45.9616 24.0011 45.9906 24.0005C46.0051 24.0002 46.0159 24 46.0226 23.9999C46.026 23.9998 46.0284 23.9998 46.0298 23.9998C46.0305 23.9998 46.031 23.9998 46.0311 23.9998C46.0312 23.9998 46.0313 23.9998 46.0312 23.9998C46.0312 23.9998 46.0311 23.9998 46.0311 23.9998C46.031 23.9998 46.0309 23.9998 46 22C45.9691 20.0002 45.9689 20.0002 45.9688 20.0002C45.9687 20.0002 45.9685 20.0002 45.9684 20.0002C45.9681 20.0003 45.9677 20.0003 45.9673 20.0003C45.9665 20.0003 45.9653 20.0003 45.964 20.0003C45.9612 20.0004 45.9575 20.0004 45.9527 20.0005C45.9432 20.0007 45.9296 20.0009 45.9122 20.0013C45.8775 20.0019 45.8273 20.003 45.7631 20.0046C45.6349 20.0076 45.4506 20.0127 45.2217 20.0206C44.7644 20.0364 44.126 20.0637 43.3986 20.1098C41.9701 20.2003 40.0997 20.3691 38.5834 20.692L39.4166 24.6043ZM18 22C17.9689 23.9998 17.9688 23.9998 17.9687 23.9998C17.9687 23.9998 17.9687 23.9998 17.9686 23.9998C17.9686 23.9998 17.9686 23.9998 17.9687 23.9998C17.9689 23.9998 17.9693 23.9998 17.97 23.9998C17.9714 23.9998 17.9738 23.9998 17.9772 23.9999C17.9839 24 17.9946 24.0002 18.009 24.0005C18.0379 24.0011 18.0819 24.002 18.1395 24.0034C18.2547 24.0062 18.4244 24.0108 18.6373 24.0182C19.0637 24.033 19.6605 24.0586 20.3391 24.1017C21.7224 24.1897 23.3479 24.3449 24.5657 24.6043L25.3989 20.692C23.883 20.3692 22.0174 20.2004 20.5929 20.1098C19.8677 20.0637 19.2315 20.0364 18.7758 20.0206C18.5477 20.0127 18.3641 20.0077 18.2363 20.0046C18.1724 20.003 18.1224 20.002 18.0877 20.0013C18.0704 20.0009 18.0569 20.0007 18.0474 20.0005C18.0426 20.0004 18.0389 20.0004 18.0361 20.0003C18.0348 20.0003 18.0337 20.0003 18.0328 20.0003C18.0324 20.0003 18.032 20.0003 18.0317 20.0003C18.0316 20.0002 18.0314 20.0002 18.0314 20.0002C18.0312 20.0002 18.0311 20.0002 18 22ZM24.5657 24.6043C25.7897 24.8649 27.4353 25.4077 28.8365 25.9141C29.5237 26.1624 30.1286 26.3934 30.5613 26.5621C30.7774 26.6464 30.9499 26.7149 31.0674 26.7619C31.1262 26.7854 31.1712 26.8036 31.201 26.8156C31.2158 26.8216 31.2269 26.8261 31.234 26.829C31.2376 26.8305 31.2402 26.8315 31.2417 26.8322C31.2425 26.8325 31.243 26.8327 31.2432 26.8328C31.2434 26.8328 31.2434 26.8329 31.2434 26.8329C31.2434 26.8329 31.2434 26.8328 31.2434 26.8328C31.2433 26.8328 31.2433 26.8328 32 24.9815C32.7567 23.1302 32.7566 23.1301 32.7565 23.1301C32.7564 23.13 32.7563 23.13 32.7562 23.1299C32.7559 23.1298 32.7556 23.1297 32.7552 23.1295C32.7544 23.1292 32.7534 23.1288 32.7521 23.1283C32.7495 23.1272 32.7458 23.1257 32.7412 23.1238C32.7319 23.1201 32.7186 23.1147 32.7015 23.1077C32.6672 23.0938 32.6175 23.0738 32.5537 23.0483C32.4263 22.9973 32.2427 22.9244 32.0145 22.8354C31.5585 22.6576 30.9216 22.4144 30.196 22.1522C28.7718 21.6375 26.9085 21.0135 25.3989 20.692L24.5657 24.6043Z" fill="white" mask="url(#path-2-inside-2)"/>
<mask id="path-4-inside-3" fill="white">
<path d="M32 23.9815C32 23.9815 36.2663 22.2303 39 21.6481C41.7337 21.066 46 21 46 21V37.7222C46 37.7222 41.6511 38.1992 39 38.8889C35.9208 39.69 32 42 32 42C32 42 28.0681 39.6879 24.9823 38.8889C22.3371 38.204 18 38.1111 18 38.1111V21C18 21 22.2486 21.066 24.9823 21.6481C27.716 22.2303 32 23.9815 32 23.9815Z"/>
</mask>
<path d="M32 23.9815C32 23.9815 36.2663 22.2303 39 21.6481C41.7337 21.066 46 21 46 21V37.7222C46 37.7222 41.6511 38.1992 39 38.8889C35.9208 39.69 32 42 32 42C32 42 28.0681 39.6879 24.9823 38.8889C22.3371 38.204 18 38.1111 18 38.1111V21C18 21 22.2486 21.066 24.9823 21.6481C27.716 22.2303 32 23.9815 32 23.9815Z" fill="white"/>
<path d="M31 23.9815V42H33V23.9815H31ZM32 23.9815L31.2433 25.8328L32.0016 26.1428L32.7594 25.8317L32 23.9815ZM46 21H48V18.9688L45.9691 19.0002L46 21ZM46 37.7222L46.218 39.7103L48 39.5149V37.7222H46ZM32 42L30.9862 43.724L32.001 44.3207L33.0152 43.7232L32 42ZM18 38.1111H16V40.0688L17.9572 40.1107L18 38.1111ZM18 21L18.0311 19.0002L16 18.9687V21H18ZM39 38.8889L38.4964 36.9533L39 38.8889ZM24.9823 38.8889L25.4836 36.9527L24.9823 38.8889ZM39 21.6481L38.5834 19.692L39 21.6481ZM44 21V37.7222H48V21H44ZM20 38.1111V21H16V38.1111H20ZM46 37.7222C45.782 35.7341 45.7819 35.7342 45.7817 35.7342C45.7817 35.7342 45.7815 35.7342 45.7814 35.7342C45.7812 35.7342 45.7808 35.7343 45.7805 35.7343C45.7797 35.7344 45.7787 35.7345 45.7774 35.7346C45.7748 35.7349 45.7712 35.7353 45.7665 35.7358C45.7572 35.7369 45.7439 35.7384 45.7266 35.7403C45.692 35.7442 45.6419 35.7499 45.5776 35.7574C45.449 35.7723 45.2638 35.7942 45.0338 35.8226C44.5743 35.8794 43.9336 35.9624 43.2075 36.0676C41.7767 36.2748 39.9351 36.579 38.4964 36.9533L39.5036 40.8245C40.716 40.509 42.3744 40.23 43.7808 40.0263C44.4733 39.926 45.0856 39.8466 45.5243 39.7924C45.7434 39.7654 45.9187 39.7446 46.0383 39.7308C46.0981 39.7238 46.144 39.7186 46.1744 39.7152C46.1897 39.7135 46.201 39.7122 46.2084 39.7114C46.212 39.711 46.2147 39.7107 46.2163 39.7105C46.2171 39.7104 46.2177 39.7103 46.218 39.7103C46.2181 39.7103 46.2182 39.7103 46.2182 39.7103C46.2182 39.7103 46.2182 39.7103 46.2182 39.7103C46.2181 39.7103 46.218 39.7103 46 37.7222ZM38.4964 36.9533C36.7526 37.407 34.8541 38.2594 33.456 38.9534C32.7425 39.3076 32.1304 39.6352 31.6954 39.8749C31.4776 39.995 31.3033 40.0935 31.1819 40.1629C31.1211 40.1976 31.0736 40.2251 31.0403 40.2444C31.0237 40.254 31.0107 40.2616 31.0014 40.2671C30.9967 40.2698 30.993 40.272 30.9902 40.2736C30.9888 40.2744 30.9877 40.2751 30.9868 40.2757C30.9863 40.2759 30.9859 40.2762 30.9856 40.2764C30.9854 40.2765 30.9852 40.2766 30.9851 40.2766C30.9849 40.2767 30.9848 40.2768 32 42C33.0152 43.7232 33.0151 43.7232 33.015 43.7233C33.0149 43.7233 33.0148 43.7234 33.0148 43.7234C33.0147 43.7235 33.0146 43.7235 33.0147 43.7235C33.0147 43.7235 33.015 43.7233 33.0155 43.723C33.0165 43.7224 33.0184 43.7213 33.0213 43.7196C33.027 43.7163 33.0364 43.7108 33.0492 43.7033C33.0749 43.6884 33.1146 43.6655 33.1671 43.6355C33.2721 43.5754 33.4282 43.4872 33.626 43.3782C34.0225 43.1597 34.583 42.8597 35.2346 42.5363C36.5667 41.875 38.1682 41.1719 39.5036 40.8245L38.4964 36.9533ZM32 42C33.0138 40.276 33.0136 40.2759 33.0134 40.2758C33.0133 40.2757 33.0131 40.2756 33.0129 40.2755C33.0126 40.2753 33.0122 40.2751 33.0118 40.2748C33.0108 40.2743 33.0097 40.2736 33.0083 40.2728C33.0055 40.2711 33.0018 40.2689 32.9971 40.2662C32.9878 40.2608 32.9747 40.2532 32.9581 40.2435C32.9247 40.2242 32.8771 40.1967 32.8162 40.162C32.6944 40.0925 32.5196 39.9939 32.3012 39.8738C31.8651 39.6339 31.2513 39.3062 30.536 38.9519C29.1343 38.2576 27.2311 37.4052 25.4836 36.9527L24.4809 40.825C25.8193 41.1716 27.425 41.8748 28.7607 42.5363C29.414 42.8599 29.9761 43.1601 30.3736 43.3787C30.572 43.4878 30.7285 43.5761 30.8339 43.6362C30.8865 43.6663 30.9263 43.6892 30.9521 43.7042C30.965 43.7116 30.9744 43.7171 30.9801 43.7205C30.983 43.7221 30.985 43.7233 30.986 43.7239C30.9865 43.7242 30.9868 43.7243 30.9868 43.7244C30.9868 43.7244 30.9868 43.7244 30.9867 43.7243C30.9866 43.7243 30.9865 43.7242 30.9865 43.7242C30.9864 43.7241 30.9862 43.724 32 42ZM25.4836 36.9527C23.9808 36.5636 22.0878 36.3594 20.6526 36.249C19.918 36.1925 19.2703 36.1583 18.8056 36.1382C18.5729 36.1281 18.3851 36.1215 18.2541 36.1174C18.1887 36.1154 18.1373 36.1139 18.1016 36.113C18.0838 36.1125 18.0698 36.1122 18.06 36.112C18.055 36.1118 18.0511 36.1118 18.0482 36.1117C18.0468 36.1117 18.0456 36.1116 18.0447 36.1116C18.0443 36.1116 18.0439 36.1116 18.0436 36.1116C18.0434 36.1116 18.0432 36.1116 18.0431 36.1116C18.043 36.1116 18.0428 36.1116 18 38.1111C17.9572 40.1107 17.9571 40.1106 17.957 40.1106C17.9569 40.1106 17.9569 40.1106 17.9568 40.1106C17.9568 40.1106 17.9568 40.1106 17.9568 40.1106C17.957 40.1106 17.9574 40.1107 17.9581 40.1107C17.9594 40.1107 17.9617 40.1108 17.9651 40.1108C17.9718 40.111 17.9825 40.1113 17.9971 40.1116C18.0262 40.1124 18.0706 40.1136 18.1289 40.1155C18.2455 40.1191 18.4172 40.1251 18.6324 40.1344C19.0636 40.1531 19.6655 40.1849 20.3458 40.2373C21.7405 40.3445 23.3387 40.5293 24.4809 40.825L25.4836 36.9527ZM32 23.9815C32.7594 25.8317 32.7594 25.8317 32.7593 25.8317C32.7593 25.8317 32.7592 25.8318 32.7592 25.8318C32.7592 25.8318 32.7593 25.8317 32.7594 25.8317C32.7597 25.8316 32.7602 25.8314 32.761 25.8311C32.7625 25.8304 32.765 25.8294 32.7686 25.828C32.7756 25.8251 32.7866 25.8206 32.8015 25.8146C32.8311 25.8025 32.8759 25.7844 32.9343 25.7609C33.0514 25.7139 33.2231 25.6454 33.4383 25.5612C33.8692 25.3925 34.4718 25.1616 35.1565 24.9134C36.553 24.4071 38.1935 23.8648 39.4166 23.6043L38.5834 19.692C37.0728 20.0137 35.2134 20.638 33.7932 21.1529C33.0697 21.4152 32.4348 21.6585 31.9804 21.8363C31.7529 21.9254 31.57 21.9983 31.443 22.0493C31.3795 22.0748 31.3299 22.0949 31.2957 22.1088C31.2786 22.1157 31.2653 22.1211 31.2561 22.1249C31.2515 22.1268 31.2478 22.1283 31.2452 22.1294C31.244 22.1299 31.2429 22.1303 31.2421 22.1306C31.2417 22.1308 31.2414 22.1309 31.2411 22.131C31.241 22.1311 31.2409 22.1311 31.2408 22.1312C31.2407 22.1312 31.2406 22.1313 32 23.9815ZM39.4166 23.6043C40.634 23.345 42.2636 23.1897 43.6516 23.1018C44.3325 23.0586 44.9316 23.033 45.3597 23.0182C45.5734 23.0108 45.7438 23.0062 45.8595 23.0034C45.9174 23.002 45.9616 23.0011 45.9906 23.0005C46.0051 23.0002 46.0159 23 46.0226 22.9999C46.026 22.9998 46.0284 22.9998 46.0298 22.9998C46.0305 22.9998 46.031 22.9998 46.0311 22.9998C46.0312 22.9998 46.0313 22.9998 46.0312 22.9998C46.0312 22.9998 46.0311 22.9998 46.0311 22.9998C46.031 22.9998 46.0309 22.9998 46 21C45.9691 19.0002 45.9689 19.0002 45.9688 19.0002C45.9687 19.0002 45.9685 19.0002 45.9684 19.0002C45.9681 19.0003 45.9677 19.0003 45.9673 19.0003C45.9665 19.0003 45.9653 19.0003 45.964 19.0003C45.9612 19.0004 45.9575 19.0004 45.9527 19.0005C45.9432 19.0007 45.9296 19.0009 45.9122 19.0013C45.8775 19.0019 45.8273 19.003 45.7631 19.0046C45.6349 19.0076 45.4506 19.0127 45.2217 19.0206C44.7644 19.0364 44.126 19.0637 43.3986 19.1098C41.9701 19.2003 40.0997 19.3691 38.5834 19.692L39.4166 23.6043ZM18 21C17.9689 22.9998 17.9688 22.9998 17.9687 22.9998C17.9687 22.9998 17.9687 22.9998 17.9686 22.9998C17.9686 22.9998 17.9686 22.9998 17.9687 22.9998C17.9689 22.9998 17.9693 22.9998 17.97 22.9998C17.9714 22.9998 17.9738 22.9998 17.9772 22.9999C17.9839 23 17.9946 23.0002 18.009 23.0005C18.0379 23.0011 18.0819 23.002 18.1395 23.0034C18.2547 23.0062 18.4244 23.0108 18.6373 23.0182C19.0637 23.033 19.6605 23.0586 20.3391 23.1017C21.7224 23.1897 23.3479 23.3449 24.5657 23.6043L25.3989 19.692C23.883 19.3692 22.0174 19.2004 20.5929 19.1098C19.8677 19.0637 19.2315 19.0364 18.7758 19.0206C18.5477 19.0127 18.3641 19.0077 18.2363 19.0046C18.1724 19.003 18.1224 19.002 18.0877 19.0013C18.0704 19.0009 18.0569 19.0007 18.0474 19.0005C18.0426 19.0004 18.0389 19.0004 18.0361 19.0003C18.0348 19.0003 18.0337 19.0003 18.0328 19.0003C18.0324 19.0003 18.032 19.0003 18.0317 19.0003C18.0316 19.0002 18.0314 19.0002 18.0314 19.0002C18.0312 19.0002 18.0311 19.0002 18 21ZM24.5657 23.6043C25.7897 23.8649 27.4353 24.4077 28.8365 24.9141C29.5237 25.1624 30.1286 25.3934 30.5613 25.5621C30.7774 25.6464 30.9499 25.7149 31.0674 25.7619C31.1262 25.7854 31.1712 25.8036 31.201 25.8156C31.2158 25.8216 31.2269 25.8261 31.234 25.829C31.2376 25.8305 31.2402 25.8315 31.2417 25.8322C31.2425 25.8325 31.243 25.8327 31.2432 25.8328C31.2434 25.8328 31.2434 25.8329 31.2434 25.8329C31.2434 25.8329 31.2434 25.8328 31.2434 25.8328C31.2433 25.8328 31.2433 25.8328 32 23.9815C32.7567 22.1302 32.7566 22.1301 32.7565 22.1301C32.7564 22.13 32.7563 22.13 32.7562 22.1299C32.7559 22.1298 32.7556 22.1297 32.7552 22.1295C32.7544 22.1292 32.7534 22.1288 32.7521 22.1283C32.7495 22.1272 32.7458 22.1257 32.7412 22.1238C32.7319 22.1201 32.7186 22.1147 32.7015 22.1077C32.6672 22.0938 32.6175 22.0738 32.5537 22.0483C32.4263 21.9973 32.2427 21.9244 32.0145 21.8354C31.5585 21.6576 30.9216 21.4144 30.196 21.1522C28.7718 20.6375 26.9085 20.0135 25.3989 19.692L24.5657 23.6043Z" fill="white" mask="url(#path-4-inside-3)"/>
</g>
<defs>
<filter id="filter0_dddd" x="12" y="15" width="40" height="34" filterUnits="userSpaceOnUse" color-interpolation-filters="sRGB">
<feFlood flood-opacity="0" result="BackgroundImageFix"/>
<feColorMatrix in="SourceAlpha" type="matrix" values="0 0 0 0 0 0 0 0 0 0 0 0 0 0 0 0 0 0 127 0"/>
<feOffset dy="2"/>
<feGaussianBlur stdDeviation="0.5"/>
<feColorMatrix type="matrix" values="0 0 0 0 1 0 0 0 0 1 0 0 0 0 1 0 0 0 0.16 0"/>
<feBlend mode="normal" in2="BackgroundImageFix" result="effect1_dropShadow"/>
<feColorMatrix in="SourceAlpha" type="matrix" values="0 0 0 0 0 0 0 0 0 0 0 0 0 0 0 0 0 0 127 0"/>
<feOffset/>
<feGaussianBlur stdDeviation="1.5"/>
<feColorMatrix type="matrix" values="0 0 0 0 1 0 0 0 0 1 0 0 0 0 1 0 0 0 0.5 0"/>
<feBlend mode="normal" in2="effect1_dropShadow" result="effect2_dropShadow"/>
<feColorMatrix in="SourceAlpha" type="matrix" values="0 0 0 0 0 0 0 0 0 0 0 0 0 0 0 0 0 0 127 0"/>
<feOffset/>
<feGaussianBlur stdDeviation="3"/>
<feColorMatrix type="matrix" values="0 0 0 0 1 0 0 0 0 1 0 0 0 0 1 0 0 0 0.5 0"/>
<feBlend mode="normal" in2="effect2_dropShadow" result="effect3_dropShadow"/>
<feColorMatrix in="SourceAlpha" type="matrix" values="0 0 0 0 0 0 0 0 0 0 0 0 0 0 0 0 0 0 127 0"/>
<feOffset/>
<feGaussianBlur stdDeviation="2"/>
<feColorMatrix type="matrix" values="0 0 0 0 1 0 0 0 0 1 0 0 0 0 1 0 0 0 0.64 0"/>
<feBlend mode="normal" in2="effect3_dropShadow" result="effect4_dropShadow"/>
<feBlend mode="normal" in="SourceGraphic" in2="effect4_dropShadow" result="shape"/>
</filter>
</defs>
</svg>
