<svg width="52" height="52" viewBox="0 0 52 52" fill="none" xmlns="http://www.w3.org/2000/svg">
<g filter="url(#filter0_d)">
<circle r="24" transform="matrix(4.37114e-08 -1 -1 -4.37114e-08 26 24)" fill="white"/>
<circle r="22.5" transform="matrix(4.37114e-08 -1 -1 -4.37114e-08 26 24)" stroke="white" stroke-width="3"/>
</g>
<path d="M33.25 24.4501L36.2398 25.9933L33.1803 27.5139L30.2471 26L33.25 24.4501ZM29.375 26.4501L32.2917 27.9555L29.0821 29.5507L26.2526 28.0617L29.375 26.4501ZM25.3853 28.5093L28.3591 30.0742L25.5 31.5499L22.4971 30L25.3853 28.5093ZM24.5217 28.0548L21.625 29.5499L18.6221 28L21.548 26.4899L24.5217 28.0548ZM20.6843 26.0354L17.75 27.5499L14.7471 26L17.7106 24.4705L20.6843 26.0354ZM16.8469 24.016L13.875 25.5499L10.8721 24L13.8732 22.4511L16.8469 24.016ZM17.7142 23.5684L14.7405 22.0034L17.75 20.4501L20.7529 22L17.7142 23.5684ZM21.625 21.5499L18.6221 20L21.625 18.4501L24.6279 20L21.625 21.5499ZM25.5 19.5499L22.4971 18L25.5 16.4501L28.5029 18L25.5 19.5499ZM26.3721 20L29.375 18.4501L32.3779 20L29.375 21.5499L26.3721 20ZM30.2471 22L33.25 20.4501L36.2529 22L33.25 23.5499L30.2471 22ZM37.125 22.4501L40.1279 24L37.125 25.5499L34.1221 24L37.125 22.4501ZM29.375 22.4501L32.3779 24L29.375 25.5499L26.3721 24L29.375 22.4501ZM25.5 24.4501L28.5029 26L25.3889 27.6072L22.4152 26.0423L25.5 24.4501ZM24.6279 24L21.5516 25.5878L18.5778 24.0229L21.625 22.4501L24.6279 24ZM25.5 23.5499L22.4971 22L25.5 20.4501L28.5029 22L25.5 23.5499Z" fill="#4A72DE" stroke="white" stroke-width="0.8"/>
<defs>
<filter id="filter0_d" x="0" y="0" width="52" height="52" filterUnits="userSpaceOnUse" color-interpolation-filters="sRGB">
<feFlood flood-opacity="0" result="BackgroundImageFix"/>
<feColorMatrix in="SourceAlpha" type="matrix" values="0 0 0 0 0 0 0 0 0 0 0 0 0 0 0 0 0 0 127 0"/>
<feOffset dy="2"/>
<feGaussianBlur stdDeviation="1"/>
<feColorMatrix type="matrix" values="0 0 0 0 0.164706 0 0 0 0 0.321569 0 0 0 0 0.745098 0 0 0 0.25 0"/>
<feBlend mode="normal" in2="BackgroundImageFix" result="effect1_dropShadow"/>
<feBlend mode="normal" in="SourceGraphic" in2="effect1_dropShadow" result="shape"/>
</filter>
</defs>
</svg>
