<svg width="48" height="48" viewBox="0 0 48 48" fill="none" xmlns="http://www.w3.org/2000/svg">
<path d="M24.094 14.4252L23.9049 14.888L24.0944 14.9655L24.2839 14.8878L24.094 14.4252ZM24.094 14.4252L23.9048 14.888L23.9047 14.888L23.904 14.8877L23.901 14.8865L23.8888 14.8815L23.8399 14.8617C23.7968 14.8442 23.7328 14.8184 23.6499 14.7852C23.4841 14.7189 23.2427 14.623 22.9412 14.5055C22.3381 14.2703 21.4952 13.9485 20.5366 13.602C18.6128 12.9067 16.2472 12.1213 14.4187 11.7319C12.5918 11.3428 10.2411 11.1235 8.33157 11.0021C7.38006 10.9416 6.54417 10.9058 5.94633 10.8851C5.77761 10.8792 5.62792 10.8746 5.5 10.8709L5.5 33.211C5.64115 33.216 5.80988 33.2226 6.00227 33.2309C6.61739 33.2575 7.47526 33.3029 8.44692 33.3776C10.3818 33.5264 12.7993 33.794 14.6482 34.2728C16.8037 34.8309 19.2336 35.9104 21.1086 36.839C22.0497 37.3051 22.858 37.7368 23.4313 38.0521C23.7124 38.2067 23.9372 38.3334 24.0938 38.4227C24.2499 38.3335 24.4739 38.207 24.7539 38.0527C25.3256 37.7376 26.1317 37.3062 27.0704 36.8402C28.9404 35.9119 31.3643 34.8325 33.5152 34.2729C35.3513 33.7952 37.761 33.3943 39.6988 33.1137C40.6704 32.9729 41.5283 32.8618 42.1435 32.7858C42.3556 32.7596 42.5389 32.7375 42.6881 32.7199V10.8709C42.5592 10.8745 42.4082 10.8792 42.2379 10.8851C41.6378 10.9058 40.7989 10.9416 39.8443 11.0021C37.9287 11.1236 35.572 11.3429 33.7452 11.7319C31.917 12.1212 29.5576 12.9066 27.6398 13.6019C26.6843 13.9483 25.8445 14.2701 25.2437 14.5052C24.9434 14.6228 24.7029 14.7186 24.5378 14.785C24.4552 14.8182 24.3915 14.844 24.3485 14.8614L24.2999 14.8812L24.2877 14.8862L24.2848 14.8874L24.2841 14.8877L24.2839 14.8878L24.094 14.4252Z" fill="white" stroke="#9CAEE6"/>
<path d="M24.094 14.0663L23.9049 14.5291L24.0944 14.6066L24.2839 14.5289L24.094 14.0663ZM24.094 14.0663L23.9048 14.5291L23.9047 14.5291L23.904 14.5288L23.901 14.5276L23.8888 14.5226L23.8399 14.5028C23.7968 14.4853 23.7328 14.4595 23.6499 14.4263C23.4841 14.36 23.2427 14.2641 22.9412 14.1466C22.3381 13.9114 21.4952 13.5896 20.5366 13.2431C18.6128 12.5478 16.2472 11.7624 14.4187 11.373C12.5918 10.984 10.2411 10.7647 8.33157 10.6432C7.38006 10.5827 6.54417 10.5469 5.94633 10.5262C5.77761 10.5203 5.62792 10.5157 5.5 10.512L5.5 32.8521C5.64115 32.8572 5.80988 32.8637 6.00227 32.872C6.61739 32.8987 7.47526 32.944 8.44692 33.0187C10.3818 33.1675 12.7993 33.4352 14.6482 33.9139C16.8037 34.472 19.2336 35.5515 21.1086 36.4801C22.0497 36.9462 22.858 37.3779 23.4313 37.6932C23.7124 37.8478 23.9372 37.9745 24.0938 38.0638C24.2499 37.9746 24.4739 37.8481 24.7539 37.6938C25.3256 37.3787 26.1317 36.9473 27.0704 36.4813C28.9404 35.553 31.3643 34.4736 33.5152 33.914C35.3513 33.4364 37.761 33.0354 39.6988 32.7548C40.6704 32.6141 41.5283 32.5029 42.1435 32.4269C42.3556 32.4007 42.5389 32.3786 42.6881 32.361V10.512C42.5592 10.5156 42.4082 10.5203 42.2379 10.5262C41.6378 10.5469 40.7989 10.5827 39.8443 10.6432C37.9287 10.7647 35.572 10.984 33.7452 11.373C31.917 11.7624 29.5576 12.5477 27.6398 13.243C26.6843 13.5894 25.8445 13.9112 25.2437 14.1463C24.9434 14.2639 24.7029 14.3597 24.5378 14.4261C24.4552 14.4593 24.3915 14.4851 24.3485 14.5025L24.2999 14.5223L24.2877 14.5273L24.2848 14.5285L24.2841 14.5288L24.2839 14.5289L24.094 14.0663Z" fill="white" stroke="white"/>
</svg>
