<svg width="48" height="48" viewBox="0 0 48 48" fill="none" xmlns="http://www.w3.org/2000/svg">
<mask id="path-1-inside-1" fill="white">
<path d="M0 24C0 37.2548 10.7452 48 24 48C37.2548 48 48 37.2548 48 24C48 10.7452 37.2548 0 24 0C10.7452 0 0 10.7452 0 24ZM45.6 24C45.6 35.9293 35.9293 45.6 24 45.6C12.0707 45.6 2.4 35.9293 2.4 24C2.4 12.0707 12.0707 2.4 24 2.4C35.9293 2.4 45.6 12.0707 45.6 24Z"/>
</mask>
<path d="M0 24C0 37.2548 10.7452 48 24 48C37.2548 48 48 37.2548 48 24C48 10.7452 37.2548 0 24 0C10.7452 0 0 10.7452 0 24ZM45.6 24C45.6 35.9293 35.9293 45.6 24 45.6C12.0707 45.6 2.4 35.9293 2.4 24C2.4 12.0707 12.0707 2.4 24 2.4C35.9293 2.4 45.6 12.0707 45.6 24Z" stroke="white" stroke-width="6" mask="url(#path-1-inside-1)"/>
<path d="M24.8485 12.1515C24.3799 11.6828 23.6201 11.6828 23.1515 12.1515L15.5147 19.7882C15.0461 20.2569 15.0461 21.0167 15.5147 21.4853C15.9833 21.9539 16.7431 21.9539 17.2118 21.4853L24 14.6971L30.7882 21.4853C31.2569 21.9539 32.0167 21.9539 32.4853 21.4853C32.9539 21.0167 32.9539 20.2569 32.4853 19.7882L24.8485 12.1515ZM25.2 36L25.2 13L22.8 13L22.8 36L25.2 36Z" fill="white"/>
</svg>
