<svg width="1024" height="1024" viewBox="0 0 1024 1024" fill="none" xmlns="http://www.w3.org/2000/svg">
<rect width="1024" height="1024" fill="#AAFF22"/>
<rect y="512" width="512" height="512" fill="#4488FF"/>
<rect x="512" width="512" height="512" fill="#4488FF"/>
<path d="M452.548 495.424L473.946 494.41L473.94 494.411L475.556 528.511L454.164 529.524L452.548 495.424Z" fill="#222222" fill-opacity="0.5"/>
<path d="M419.666 516.313L426.941 510.397L435.212 515.172L436.444 531.951L420.898 533.092L419.666 516.313Z" fill="black" fill-opacity="0.5"/>
<path d="M439.077 509.885L447.268 501.959L456.747 508.841L458.034 530.621L440.364 531.665L439.077 509.885Z" fill="black" fill-opacity="0.5"/>
<path d="M463.51 512.204L476.329 502.788L490.167 510.628L491.187 527.885L464.53 529.461L463.51 512.204Z" fill="black" fill-opacity="0.5"/>
<path d="M510.909 499.636L508 501.818L508 499.636L508 496.727L510.909 496.727L510.909 499.636Z" fill="black" fill-opacity="0.5"/>
<path d="M556.1 506.349L553.091 507.777L553.197 506.158L553.339 504L556.242 504.191L556.1 506.349Z" fill="black" fill-opacity="0.5"/>
<path d="M568.18 499.922L593.683 501.034L593.676 501.034L592.412 530.013L566.916 528.902L568.18 499.922Z" fill="#333333" fill-opacity="0.5"/>
<path d="M574.91 500.216L572.001 500.089L572.083 498.182L574.99 498.31L574.91 500.216Z" fill="#333333" fill-opacity="0.5"/>
<path d="M467.317 509.818L464.441 512.044L464.408 509.862L464.364 506.953L467.272 506.909L467.317 509.818Z" fill="black" fill-opacity="0.5"/>
<path d="M486.525 479.855L505.979 478.933L505.973 478.933L508.27 527.408L488.822 528.329L486.525 479.855Z" fill="#222222" fill-opacity="0.5"/>
<path d="M534.479 472L553.379 472.599L553.374 472.6L551.622 527.844L532.728 527.245L534.479 472Z" fill="#222222" fill-opacity="0.5"/>
<path d="M602.313 514.445L612.947 515.284L612.947 515.28L611.724 530.857L601.091 530.022L602.313 514.445Z" fill="black" fill-opacity="0.5"/>
<path d="M505.091 503.991L518.126 492.364L532.711 502.449L532.71 527.273L505.199 527.121L505.091 503.991Z" fill="black" fill-opacity="0.5"/>
<path d="M532.708 508.29L541.455 514.842L541.437 527.273H532.71L532.708 508.29Z" fill="black" fill-opacity="0.5"/>
<path d="M549.506 509.726L563.233 501.692L576.183 510.928L575.404 528.197L548.728 526.995L549.506 509.726Z" fill="black" fill-opacity="0.5"/>
<path d="M628.728 533.091C628.728 533.091 594.622 527.148 524 527.274C455.078 527.397 396 536 396 536" stroke="black" stroke-opacity="0.5"/>
<path d="M529.62 530.001C591.524 529.871 619.12 539.002 619.12 539.002C619.12 539.002 586.892 532.736 551.12 536.501C523.031 539.458 505.433 542.343 484.062 545.847L483.12 546.001C452.62 551.001 415.62 555.501 418.12 546.001C420.62 536.501 469.206 530.129 529.62 530.001Z" fill="black" fill-opacity="0.5" stroke="black" stroke-opacity="0.5"/>
<path d="M414.909 526.051L416.759 525.818L417.615 532.627L415.765 532.859L414.909 526.051Z" fill="black" fill-opacity="0.5"/>
<circle cx="415.636" cy="523.636" r="3.63637" fill="black" fill-opacity="0.5"/>
<path d="M411.671 528.276L413.312 528.069L414.071 534.108L412.43 534.314L411.671 528.276Z" fill="black" fill-opacity="0.5"/>
<circle cx="412.316" cy="526.134" r="3.22505" fill="black" fill-opacity="0.5"/>
<path d="M405.386 525.965L407.654 525.68L408.703 534.029L406.435 534.314L405.386 525.965Z" fill="black" fill-opacity="0.5"/>
<circle cx="406.277" cy="523.005" r="4.45902" fill="black" fill-opacity="0.5"/>
<path d="M618.221 525.007L620.083 525.097L619.753 531.951L617.891 531.861L618.221 525.007Z" fill="black" fill-opacity="0.5"/>
<circle cx="619.353" cy="522.754" r="3.63637" transform="rotate(9.92148 619.353 522.754)" fill="black" fill-opacity="0.5"/>
<path d="M613.441 524.688L615.094 524.725L614.956 530.81L613.303 530.772L613.441 524.688Z" fill="#222222" fill-opacity="0.5"/>
<circle cx="614.394" cy="522.665" r="3.22505" transform="rotate(8.4667 614.394 522.665)" fill="#222222" fill-opacity="0.5"/>
<path d="M624.009 527.242L625.259 527.414L624.626 532.015L623.376 531.843L624.009 527.242Z" fill="#222222" fill-opacity="0.5"/>
<circle cx="624.907" cy="525.791" r="2.46124" transform="rotate(15 624.907 525.791)" fill="#222222" fill-opacity="0.5"/>
<path d="M597.781 520.871L600.066 520.93L599.849 529.342L597.564 529.283L597.781 520.871Z" fill="#222222" fill-opacity="0.5"/>
<circle cx="599.108" cy="518.078" r="4.45902" transform="rotate(8.64157 599.108 518.078)" fill="#222222" fill-opacity="0.5"/>
<path d="M533.581 520.377L535.379 520.423L535.209 527.043L533.41 526.996L533.581 520.377Z" fill="#222222" fill-opacity="0.5"/>
<circle cx="534.625" cy="518.179" r="3.5092" transform="rotate(8.64157 534.625 518.179)" fill="#222222" fill-opacity="0.5"/>
<path d="M539.048 524.295L539.959 524.33L539.925 527.348L539.013 527.313L539.048 524.295Z" fill="#222222" fill-opacity="0.5"/>
<ellipse cx="539.56" cy="523.301" rx="1.78184" ry="1.59648" transform="rotate(8.64157 539.56 523.301)" fill="#222222" fill-opacity="0.5"/>
<path d="M453.474 515.286L453.393 517.694H452.536C452.536 516.932 452.461 516.374 452.311 516.02H449.801V523.224C449.801 523.565 449.828 523.844 449.883 524.061C450.1 524.116 450.345 524.143 450.617 524.143H451.23V525.102C450.794 525.034 450.087 525 449.107 525C448.128 525 447.386 525.034 446.883 525.102V524.143H447.495C447.767 524.143 447.998 524.116 448.189 524.061C448.257 523.884 448.291 523.646 448.291 523.347V516.02H445.781C445.631 516.293 445.556 516.85 445.556 517.694H444.617L444.536 515.286C444.699 515.204 445.236 515.163 446.148 515.163L447.597 515.204H448.25L449.128 515.224L450.128 515.204C450.318 515.204 450.509 515.204 450.699 515.204L451.842 515.163C452.767 515.163 453.311 515.204 453.474 515.286ZM459.345 516.408L457.631 521.408H461.1L459.406 516.408H459.345ZM457.631 525.102C457.304 525.034 456.76 525 455.998 525C455.236 525 454.644 525.034 454.223 525.102L454.427 524.143H454.733C454.978 524.143 455.195 524.116 455.386 524.061C455.576 523.803 455.706 523.571 455.774 523.367C455.855 523.15 455.951 522.884 456.059 522.571C456.182 522.259 456.325 521.898 456.488 521.49C456.651 521.082 456.821 520.639 456.998 520.163C457.189 519.687 457.379 519.218 457.57 518.755L458.998 515.163H459.631C459.957 515.163 460.229 515.204 460.447 515.286L463.468 523.224C463.631 523.619 463.767 523.898 463.876 524.061C464.093 524.116 464.311 524.143 464.529 524.143H464.835L465.039 525.102C464.658 525.034 464.243 525 463.794 525H462.835C462.25 525 461.753 525.034 461.345 525.102L461.202 524.143H461.325C461.57 524.143 461.801 524.116 462.019 524.061C462.019 523.857 461.951 523.592 461.814 523.265L461.345 522.122H457.406L457.039 523.224C456.93 523.551 456.876 523.81 456.876 524C456.876 524.095 457.046 524.143 457.386 524.143H457.692L457.631 525.102ZM470.34 520.02C471.945 520.02 472.748 519.347 472.748 518C472.748 517.265 472.551 516.755 472.156 516.469C471.762 516.17 471.102 516.02 470.176 516.02H469.115V520.02C469.523 520.02 469.932 520.02 470.34 520.02ZM470.523 525.102C470.074 525.034 469.367 525 468.401 525C467.435 525 466.7 525.034 466.197 525.102V524.143H466.809C467.081 524.143 467.313 524.116 467.503 524.061C467.585 523.884 467.625 523.619 467.625 523.265L467.605 516.837C467.605 516.51 467.571 516.259 467.503 516.082C467.367 516.041 467.156 516.02 466.87 516.02H466.054V515.286C466.204 515.272 466.381 515.252 466.585 515.224C466.789 515.197 467.006 515.184 467.238 515.184C467.483 515.17 467.728 515.156 467.972 515.143C468.231 515.129 468.53 515.122 468.87 515.122H470.217C471.537 515.122 472.544 515.34 473.238 515.776C473.932 516.197 474.279 516.918 474.279 517.939C474.279 519.245 473.625 520.129 472.319 520.592C472.523 521.748 473.095 522.755 474.034 523.612C474.415 523.966 474.741 524.143 475.013 524.143H475.381V525.102H474.36C473.612 525.102 472.966 524.837 472.421 524.306C472.04 523.912 471.714 523.327 471.442 522.551C471.319 522.224 471.224 521.918 471.156 521.633C471.102 521.333 471.047 521.068 470.993 520.837C470.68 520.837 470.367 520.837 470.054 520.837C469.741 520.837 469.428 520.83 469.115 520.816V523.224C469.115 523.605 469.149 523.884 469.217 524.061C469.435 524.116 469.666 524.143 469.911 524.143H470.523V525.102ZM480.745 525.102C480.309 525.034 479.602 525 478.622 525C477.656 525 476.922 525.034 476.418 525.102V524.143H477.01C477.269 524.143 477.507 524.116 477.724 524.061C477.806 523.857 477.84 523.592 477.826 523.265V516.878C477.826 516.537 477.792 516.279 477.724 516.102C477.575 516.048 477.337 516.02 477.01 516.02H476.398V515.286C477.024 515.204 477.799 515.163 478.724 515.163C479.663 515.163 480.337 515.204 480.745 515.286V516.02H480.132C479.847 516.02 479.609 516.048 479.418 516.102C479.35 516.374 479.316 516.633 479.316 516.878V523.224C479.316 523.51 479.35 523.789 479.418 524.061C479.636 524.116 479.874 524.143 480.132 524.143H480.745V525.102ZM482.288 515.286C482.914 515.204 483.69 515.163 484.615 515.163C485.554 515.163 486.227 515.204 486.635 515.286V516.02H486.023C485.737 516.02 485.499 516.048 485.309 516.102C485.241 516.374 485.207 516.646 485.207 516.918V523.265C485.207 523.605 485.241 523.871 485.309 524.061C485.527 524.116 485.765 524.143 486.023 524.143H486.635V525.102C486.023 525.034 485.295 525 484.452 525C483.486 525 482.771 525.034 482.309 525.102V524.143H482.921C483.193 524.143 483.424 524.116 483.615 524.061C483.683 523.884 483.717 523.646 483.717 523.347V516.918C483.717 516.551 483.683 516.279 483.615 516.102C483.465 516.048 483.227 516.02 482.901 516.02H482.288V515.286ZM487.88 515.286C488.561 515.204 489.302 515.163 490.105 515.163C490.921 515.163 491.486 515.204 491.799 515.286L491.758 516.02H491.207C491.003 516.02 490.792 516.048 490.574 516.102C490.207 516.401 489.663 516.946 488.941 517.735C488.234 518.524 487.765 519.041 487.533 519.286C487.302 519.531 487.118 519.728 486.982 519.878L489.676 523.265C489.88 523.524 490.132 523.789 490.431 524.061C490.649 524.116 490.873 524.143 491.105 524.143H491.635L491.737 525.102C491.193 525.034 490.465 525 489.554 525C488.656 525 487.975 525.034 487.513 525.102V524.143H487.635C487.948 524.143 488.173 524.116 488.309 524.061C488.254 523.912 488.084 523.646 487.799 523.265L485.676 520.429C485.635 520.388 485.601 520.347 485.574 520.306C485.547 520.252 485.493 520.163 485.411 520.041C485.479 519.946 485.595 519.803 485.758 519.612C485.935 519.422 486.091 519.245 486.227 519.082C486.377 518.905 486.642 518.612 487.023 518.204C487.404 517.782 487.758 517.395 488.084 517.041C488.533 516.592 488.758 516.32 488.758 516.224V516.102C488.649 516.048 488.458 516.02 488.186 516.02H487.799L487.88 515.286ZM502.33 525.102L499.065 525C498.099 525 497.385 525.034 496.922 525.102V524.143H497.514C497.772 524.143 498.011 524.116 498.228 524.061C498.31 523.857 498.344 523.592 498.33 523.265V516.918C498.33 516.551 498.296 516.279 498.228 516.102C498.079 516.048 497.84 516.02 497.514 516.02H496.902V515.286C497.528 515.204 498.303 515.163 499.228 515.163C500.167 515.163 500.847 515.204 501.269 515.286V516.02H500.636C500.378 516.02 500.14 516.048 499.922 516.102C499.854 516.374 499.82 516.646 499.82 516.918V524.143H502.432C502.963 524.143 503.33 524.088 503.534 523.98C503.874 523.803 504.126 523.401 504.289 522.776L504.881 522.837L504.636 525C503.643 525.068 502.874 525.102 502.33 525.102ZM508.382 520.143C508.382 522.986 509.354 524.408 511.3 524.408C513.246 524.408 514.218 522.98 514.218 520.122C514.218 518.707 513.967 517.639 513.463 516.918C512.946 516.211 512.225 515.857 511.3 515.857C509.899 515.857 508.994 516.66 508.586 518.265C508.45 518.796 508.382 519.422 508.382 520.143ZM514.627 516.388C515.457 517.286 515.871 518.531 515.871 520.122C515.871 521.701 515.463 522.952 514.647 523.878C513.831 524.803 512.715 525.265 511.3 525.265C509.899 525.265 508.783 524.803 507.953 523.878C507.137 522.952 506.729 521.701 506.729 520.122C506.729 518.531 507.137 517.286 507.953 516.388C508.783 515.476 509.899 515.02 511.3 515.02C512.701 515.02 513.81 515.476 514.627 516.388ZM523.891 515.265C524.394 515.197 525.088 515.163 525.973 515.163C526.871 515.163 527.524 515.204 527.932 515.286V516.02H527.299C527.013 516.02 526.775 516.048 526.585 516.102C526.517 516.279 526.483 516.551 526.483 516.918V521.469C526.483 522.667 526.122 523.599 525.401 524.265C524.694 524.932 523.755 525.265 522.585 525.265C520.054 525.265 518.789 523.844 518.789 521V516.918C518.789 516.551 518.755 516.279 518.687 516.102C518.537 516.048 518.306 516.02 517.993 516.02H517.36V515.265C517.877 515.197 518.632 515.163 519.626 515.163C520.619 515.163 521.32 515.204 521.728 515.286V516.02H521.095C520.837 516.02 520.598 516.048 520.381 516.102C520.313 516.293 520.286 516.565 520.299 516.918V521.571C520.299 522.973 520.789 523.857 521.768 524.224C522.068 524.347 522.408 524.408 522.789 524.408C523.66 524.408 524.299 524.136 524.707 523.592C525.115 523.048 525.32 522.204 525.32 521.061V516.918C525.32 516.551 525.286 516.279 525.217 516.102C525.068 516.048 524.83 516.02 524.503 516.02H523.891V515.265ZM533.736 516.408L532.021 521.408H535.491L533.797 516.408H533.736ZM532.021 525.102C531.695 525.034 531.151 525 530.389 525C529.627 525 529.035 525.034 528.613 525.102L528.817 524.143H529.123C529.368 524.143 529.586 524.116 529.777 524.061C529.967 523.803 530.096 523.571 530.164 523.367C530.246 523.15 530.341 522.884 530.45 522.571C530.572 522.259 530.715 521.898 530.879 521.49C531.042 521.082 531.212 520.639 531.389 520.163C531.579 519.687 531.77 519.218 531.96 518.755L533.389 515.163H534.021C534.348 515.163 534.62 515.204 534.838 515.286L537.858 523.224C538.021 523.619 538.157 523.898 538.266 524.061C538.484 524.116 538.702 524.143 538.919 524.143H539.226L539.43 525.102C539.049 525.034 538.634 525 538.185 525H537.226C536.64 525 536.144 525.034 535.736 525.102L535.593 524.143H535.715C535.96 524.143 536.192 524.116 536.409 524.061C536.409 523.857 536.341 523.592 536.205 523.265L535.736 522.122H531.797L531.43 523.224C531.321 523.551 531.266 523.81 531.266 524C531.266 524.095 531.436 524.143 531.777 524.143H532.083L532.021 525.102ZM549.139 515.286L549.057 517.694H548.2C548.2 516.932 548.125 516.374 547.975 516.02H545.465V523.224C545.465 523.565 545.492 523.844 545.547 524.061C545.764 524.116 546.009 524.143 546.281 524.143H546.894V525.102C546.458 525.034 545.751 525 544.771 525C543.792 525 543.05 525.034 542.547 525.102V524.143H543.159C543.431 524.143 543.662 524.116 543.853 524.061C543.921 523.884 543.955 523.646 543.955 523.347V516.02H541.445C541.295 516.293 541.22 516.85 541.22 517.694H540.281L540.2 515.286C540.363 515.204 540.9 515.163 541.812 515.163L543.261 515.204H543.914L544.792 515.224L545.792 515.204C545.982 515.204 546.173 515.204 546.363 515.204L547.506 515.163C548.431 515.163 548.975 515.204 549.139 515.286ZM555.009 516.408L553.295 521.408H556.764L555.07 516.408H555.009ZM553.295 525.102C552.968 525.034 552.424 525 551.662 525C550.9 525 550.308 525.034 549.887 525.102L550.091 524.143H550.397C550.642 524.143 550.86 524.116 551.05 524.061C551.24 523.803 551.37 523.571 551.438 523.367C551.519 523.15 551.615 522.884 551.723 522.571C551.846 522.259 551.989 521.898 552.152 521.49C552.315 521.082 552.485 520.639 552.662 520.163C552.853 519.687 553.043 519.218 553.234 518.755L554.662 515.163H555.295C555.621 515.163 555.894 515.204 556.111 515.286L559.132 523.224C559.295 523.619 559.431 523.898 559.54 524.061C559.757 524.116 559.975 524.143 560.193 524.143H560.499L560.703 525.102C560.322 525.034 559.907 525 559.458 525H558.499C557.914 525 557.417 525.034 557.009 525.102L556.866 524.143H556.989C557.234 524.143 557.465 524.116 557.683 524.061C557.683 523.857 557.615 523.592 557.479 523.265L557.009 522.122H553.07L552.703 523.224C552.594 523.551 552.54 523.81 552.54 524C552.54 524.095 552.71 524.143 553.05 524.143H553.356L553.295 525.102ZM572.208 525.102C571.745 525.034 571.038 525 570.085 525C569.133 525 568.398 525.034 567.881 525.102V524.143H568.494C568.779 524.143 569.017 524.116 569.208 524.061C569.29 523.884 569.324 523.619 569.31 523.265V520.388H564.636V523.224C564.636 523.51 564.67 523.789 564.739 524.061C564.956 524.116 565.194 524.143 565.453 524.143H566.065V525.102C565.602 525.034 564.888 525 563.922 525C562.956 525 562.228 525.034 561.739 525.102V524.143H562.351C562.623 524.143 562.854 524.116 563.045 524.061C563.126 523.857 563.167 523.592 563.167 523.265V516.918C563.167 516.592 563.126 516.32 563.045 516.102C562.895 516.048 562.657 516.02 562.33 516.02H561.718V515.286C562.344 515.204 563.113 515.163 564.024 515.163C564.949 515.163 565.636 515.204 566.085 515.286V516.02H565.453C565.194 516.02 564.956 516.048 564.739 516.102C564.67 516.374 564.636 516.646 564.636 516.918V519.449H569.31V516.918C569.31 516.551 569.276 516.279 569.208 516.102C569.058 516.048 568.82 516.02 568.494 516.02H567.881V515.286C568.507 515.204 569.283 515.163 570.208 515.163C571.147 515.163 571.827 515.204 572.249 515.286V516.02H571.616C571.358 516.02 571.119 516.048 570.902 516.102C570.834 516.374 570.8 516.646 570.8 516.918V523.224C570.8 523.51 570.834 523.789 570.902 524.061C571.119 524.116 571.351 524.143 571.596 524.143H572.208V525.102Z" fill="white" fill-opacity="0.5"/>
</svg>
