<svg width="160" height="160" viewBox="0 0 160 160" fill="none" xmlns="http://www.w3.org/2000/svg">
<path d="M136.215 88.6106C130.805 88.6411 126.119 89.9406 122.19 91.8755C120.739 89.0038 119.288 86.4946 119.047 84.6208C118.775 82.4444 118.442 81.114 118.775 78.5147C119.107 75.9148 120.618 72.2269 120.618 71.9247C120.588 71.6526 120.285 70.3226 117.172 70.2924C114.059 70.2621 111.369 70.8969 111.066 71.7131C110.764 72.5292 110.16 74.4034 109.767 76.338C109.223 79.1794 103.54 89.2454 100.306 94.5353C99.2476 92.4798 98.3408 90.6661 98.1592 89.2148C97.8874 87.0387 97.5546 85.7084 97.8874 83.1091C98.2199 80.5091 99.7313 76.8216 99.7313 76.5193C99.701 76.2473 99.3988 74.9173 96.2857 74.887C93.172 74.8568 90.4821 75.4916 90.1798 76.3077C89.8776 77.1239 89.5451 79.0585 88.8801 80.9326C88.245 82.8068 80.6882 99.6136 78.7235 103.997C77.726 106.234 76.8497 108.017 76.2146 109.226C75.5799 110.435 76.1844 109.317 76.124 109.438C75.5799 110.466 75.2776 111.04 75.2776 111.04V111.07C74.8544 111.826 74.401 112.551 74.1891 112.551C74.038 112.551 73.7357 110.526 74.2496 107.745C75.368 101.911 78.0884 92.8126 78.0585 92.4801C78.0585 92.3289 78.572 90.7265 76.305 89.9107C74.0984 89.0945 73.3128 90.4548 73.1312 90.4548C72.9498 90.4548 72.7987 90.9384 72.7987 90.9384C72.7987 90.9384 75.2471 80.6914 68.1135 80.6914C63.6399 80.6914 57.4736 85.5581 54.4206 90.0017C52.4861 91.0597 48.3752 93.2962 44.0225 95.6846C42.36 96.5914 40.6371 97.5587 39.0048 98.4353L38.6726 98.072C30.0277 88.8524 14.0376 82.3231 14.7026 69.9296C14.9444 65.4256 16.5162 53.546 45.4136 39.1574C69.0814 27.3684 88.0337 30.6029 91.3282 37.7971C96.0134 48.0747 81.2021 67.1789 56.5976 69.9296C47.2272 70.9876 42.2999 67.3602 41.0609 66C39.7611 64.5792 39.5798 64.5188 39.0961 64.7908C38.3102 65.214 38.7939 66.4836 39.0961 67.2393C39.8216 69.1437 42.8443 72.5292 47.9829 74.222C52.4864 75.7032 63.4894 76.5193 76.7893 71.3806C91.6912 65.607 103.329 49.5861 99.9129 36.1951C96.4368 22.5622 73.827 18.0884 52.4565 25.6757C39.7306 30.2099 25.9471 37.2833 16.0326 46.5633C4.24404 57.5663 2.36997 67.1789 3.15587 71.169C5.90683 85.4064 25.5239 94.6864 33.3829 101.548C32.99 101.76 32.6272 101.971 32.2947 102.153C28.3652 104.087 13.4028 111.916 9.65468 120.199C5.4229 129.569 10.3197 136.311 13.5842 137.217C23.68 140.029 34.0177 134.98 39.6097 126.668C45.1712 118.355 44.5065 107.564 41.9372 102.636L41.8462 102.455L44.9293 100.641C46.9246 99.4625 48.8894 98.3743 50.612 97.4369C49.6451 100.067 48.9495 103.18 48.5871 107.714C48.1639 113.035 50.3403 119.927 53.2119 122.647C54.4814 123.826 55.9927 123.856 56.9298 123.856C60.2548 123.856 61.7661 121.105 63.4286 117.811C65.484 113.79 67.2977 109.135 67.2977 109.135C67.2977 109.135 65.0306 121.74 71.2272 121.74C73.4942 121.74 75.7612 118.808 76.7889 117.297V117.327C76.7889 117.327 76.8494 117.236 76.9703 117.025C77.0971 116.837 77.2181 116.646 77.333 116.451V116.39C78.2398 114.818 80.2651 111.221 83.2878 105.266C87.1867 97.5883 90.9352 87.9758 90.9352 87.9758C90.9352 87.9758 91.2979 90.3336 92.4163 94.2028C93.081 96.5004 94.5319 99.0091 95.6503 101.458C94.7435 102.727 94.1994 103.453 94.1994 103.453L94.2297 103.483C93.5045 104.45 92.6881 105.478 91.842 106.506C88.7589 110.194 85.0712 114.396 84.5875 115.605C84.0132 117.025 84.1341 118.083 85.2525 118.93C86.0687 119.535 87.5196 119.655 89.0611 119.535C91.842 119.353 93.7765 118.658 94.7438 118.234C96.2552 117.69 97.9781 116.874 99.6406 115.665C102.663 113.428 104.507 110.255 104.326 106.023C104.235 103.695 103.479 101.398 102.542 99.2212C102.814 98.8283 103.087 98.435 103.359 98.0121C108.134 91.0291 111.822 83.3515 111.822 83.3515C111.822 83.3515 112.185 85.7093 113.303 89.5785C113.877 91.5433 115.026 93.6898 116.054 95.8058C111.58 99.4634 108.769 103.695 107.802 106.476C106.019 111.615 107.409 113.943 110.039 114.487C111.217 114.729 112.91 114.184 114.18 113.64C115.751 113.126 117.656 112.25 119.409 110.95C122.432 108.713 125.334 105.6 125.182 101.398C125.092 99.4634 124.578 97.559 123.883 95.7453C127.691 94.1735 132.618 93.2666 138.875 94.0223C152.326 95.5942 154.986 103.998 154.473 107.504C153.959 111.011 151.148 112.945 150.21 113.55C149.273 114.124 148.971 114.336 149.062 114.759C149.183 115.394 149.606 115.363 150.422 115.243C151.54 115.061 157.495 112.371 157.737 105.903C158.1 97.5886 150.21 88.5202 136.215 88.6106V88.6106ZM32.4761 123.584C28.0327 128.451 21.7757 130.295 19.1158 128.723C16.2442 127.061 17.3623 119.897 22.8337 114.728C26.1586 111.584 30.4811 108.682 33.3225 106.899C33.9572 106.506 34.9245 105.932 36.0731 105.236C36.2545 105.115 36.3754 105.055 36.3754 105.055C36.587 104.934 36.8288 104.783 37.0706 104.631C39.0958 112.007 37.1613 118.476 32.4761 123.584V123.584ZM64.9702 101.488C63.4286 105.266 60.1641 114.969 58.1993 114.425C56.5063 113.972 55.4789 106.627 57.8665 99.3718C59.0756 95.7139 61.6449 91.3613 63.1563 89.6683C65.6049 86.9477 68.2646 86.0409 68.9299 87.1593C69.7158 88.6106 65.9374 99.13 64.9702 101.488ZM91.7816 114.304C91.1166 114.637 90.512 114.879 90.24 114.698C90.0284 114.577 90.5117 114.123 90.5117 114.123C90.5117 114.123 93.8669 110.526 95.1969 108.864C95.9526 107.897 96.8594 106.778 97.8267 105.508V105.871C97.827 110.224 93.6556 113.126 91.7816 114.304ZM112.457 109.589C111.973 109.226 112.034 108.108 113.666 104.601C114.301 103.211 115.751 100.883 118.26 98.6765C118.562 99.5834 118.744 100.46 118.714 101.276C118.684 106.717 114.815 108.743 112.457 109.589Z" fill="#EFA7CC"/>
</svg>
