<svg width="120" height="120" viewBox="0 0 120 120" fill="none" xmlns="http://www.w3.org/2000/svg">
<g clip-path="url(#clip0)">
<path d="M99.7916 115.594C99.4672 114.463 99.0575 113.097 98.5767 111.537C98.0944 109.978 97.5737 108.208 96.9606 106.296C96.346 104.384 95.6859 102.312 94.9817 100.124C94.2974 97.9265 93.495 95.6461 92.7069 93.2646C91.906 90.8931 91.0766 88.4405 90.2358 85.9494C89.368 83.4698 88.4831 80.9517 87.5982 78.4351C86.8585 76.3097 86.1073 74.1971 85.3576 72.1087H90.3297V68.0699H83.898C83.356 66.5889 82.8168 65.1236 82.289 63.6924C80.5605 59.002 78.9131 54.6417 77.4876 50.9087C76.0479 47.1814 74.8501 44.0744 74.0093 41.9006C73.5953 40.8635 73.3108 40.0313 73.0419 39.4694C74.2369 37.2828 74.9155 34.7733 74.9155 32.1087C74.9155 24.7438 69.7244 18.5781 62.8047 17.0616V0H56.2009V17.063C49.2883 18.5795 44.0915 24.7452 44.0915 32.1101C44.0915 35.0749 44.9493 37.839 46.4047 40.1935C46.3677 40.2091 46.3264 40.2248 46.298 40.249C46.0206 40.8081 45.7275 41.6773 45.295 42.7585C44.4557 44.9323 43.255 48.0379 41.8181 51.7651C40.3912 55.4981 38.7438 59.8599 37.0153 64.5489C36.5871 65.704 36.1561 66.882 35.7193 68.0727H28.6816V72.113H34.254C33.3976 74.4774 32.5426 76.8816 31.7061 79.293C30.8226 81.8124 29.9378 84.3305 29.0685 86.8073C28.2278 89.2983 27.3998 91.7523 26.5974 94.1253C25.8093 96.5039 25.0098 98.7872 24.3241 100.982C23.6199 103.172 22.9598 105.242 22.3452 107.154C21.732 109.066 21.2114 110.835 20.7291 112.396C20.2482 113.957 19.8371 115.321 19.5142 116.452C18.8669 118.711 18.4941 120.001 18.4941 120.001C18.4941 120.001 19.2083 118.863 20.4545 116.872C21.0776 115.877 21.8217 114.657 22.6567 113.257C23.4947 111.857 24.4649 110.286 25.4735 108.551C26.4822 106.817 27.579 104.939 28.7399 102.953C29.9136 100.972 31.0759 98.8512 32.3207 96.676C33.547 94.4937 34.8188 92.2389 36.1077 89.947C37.3667 87.6438 38.6485 85.3007 39.9303 82.9591C41.9447 79.3143 43.9079 75.6482 45.7787 72.1144H57.669V79.4523H61.3394V72.1144H73.978C75.7136 75.385 77.5232 78.7524 79.374 82.1055C80.6544 84.4471 81.9376 86.7874 83.1966 89.0906C84.4855 91.3825 85.7588 93.6387 86.9837 95.8196C88.2285 97.9948 89.3893 100.117 90.5658 102.096C91.7239 104.082 92.8221 105.962 93.8322 107.693C94.8423 109.43 95.8125 110.996 96.6476 112.402C97.4841 113.803 98.2253 115.019 98.8512 116.015C100.097 118.007 100.812 119.146 100.812 119.146C100.812 119.146 100.439 117.853 99.7916 115.594ZM59.5042 21.1004C65.5731 21.1004 70.5125 26.0398 70.5125 32.1101C70.5125 38.1805 65.5717 43.1184 59.5042 43.1184C53.4324 43.1184 48.4945 38.179 48.4945 32.1101C48.4945 26.0398 53.4339 21.1004 59.5042 21.1004ZM61.3408 68.0727V62.5671H57.6704V68.0713H47.9098C50.0181 64.0623 51.9671 60.2924 53.6387 57.0303C55.4469 53.4694 56.9549 50.5004 58.009 48.4234C58.1812 48.0748 58.3405 47.7633 58.4941 47.4702C58.827 47.493 59.1642 47.5214 59.5056 47.5214C60.0861 47.5214 60.658 47.483 61.2213 47.4204C61.2469 47.4716 61.2683 47.5157 61.2967 47.5684C62.3509 49.644 63.8617 52.613 65.667 56.1753C67.4595 59.6707 69.5565 63.7337 71.8455 68.0699L61.3408 68.0727Z" fill="white"/>
<path d="M59.6521 37.6911C62.9312 37.6911 65.6015 35.0236 65.6015 31.743C65.6015 28.4625 62.9312 25.795 59.6521 25.795C56.3729 25.795 53.7026 28.4639 53.7026 31.7445C53.7026 35.025 56.3729 37.6911 59.6521 37.6911ZM59.6521 26.8947C62.3238 26.8947 64.5004 29.0699 64.5004 31.743C64.5004 34.4162 62.3252 36.5914 59.6521 36.5914C56.9789 36.5914 54.8052 34.4176 54.8052 31.7445C54.8052 29.0714 56.9789 26.8947 59.6521 26.8947Z" fill="white"/>
</g>
<defs>
<clipPath id="clip0">
<rect width="120" height="120" fill="white"/>
</clipPath>
</defs>
</svg>
