<svg width="144" height="144" viewBox="0 0 144 144" fill="none" xmlns="http://www.w3.org/2000/svg">
<path d="M144 120C144 133.2 133.2 144 120 144H24C10.8 144 0 133.2 0 120V24C0 10.8 10.8 0 24 0H120C133.2 0 144 10.8 144 24V120Z" fill="#563D7C"/>
<path d="M37.8308 30.5084H78.6543C86.1838 30.5084 92.2308 32.2261 96.772 35.6849C101.313 39.1437 103.596 44.3437 103.596 51.3319C103.596 55.5672 102.56 59.1908 100.49 62.2025C98.419 65.2143 95.4543 67.5672 91.5955 69.2143V69.4496C96.772 70.5555 100.701 73.0025 103.36 76.7908C106.019 80.6025 107.36 85.3555 107.36 91.0966C107.36 94.3908 106.772 97.4731 105.596 100.32C104.419 103.191 102.584 105.661 100.066 107.732C97.5485 109.803 94.3485 111.45 90.419 112.673C86.4896 113.897 81.8308 114.508 76.419 114.508H37.8308V30.5084ZM52.5367 65.6849H76.5367C80.0661 65.6849 83.0073 64.6967 85.3602 62.6731C87.7132 60.6496 88.8896 57.779 88.8896 54.0143C88.8896 49.779 87.8308 46.7908 85.7132 45.0731C83.5955 43.3555 80.5367 42.4849 76.5367 42.4849H52.5367V65.6849ZM52.5367 102.508H78.5367C83.0073 102.508 86.4896 101.355 88.9367 99.0261C91.4073 96.7202 92.6543 93.4261 92.6543 89.1908C92.6543 85.0261 91.4308 81.8496 88.9367 79.5908C86.4426 77.3319 83.0073 76.2496 78.5367 76.2496H52.5367V102.508Z" fill="white"/>
</svg>
