<svg width="160" height="160" viewBox="0 0 160 160" fill="none" xmlns="http://www.w3.org/2000/svg">
<g clip-path="url(#clip0)">
<path d="M131.372 36.3971L122.045 140.875L80.1231 152.498L38.3164 140.892L29 36.3971H131.372Z" fill="#718BF1"/>
<path d="M114.062 134.223L122.032 44.941H80.1865V143.614L114.062 134.223Z" fill="#718BF1"/>
<path d="M50.3574 83.6967L51.5061 96.5124H80.1855V83.6967H50.3574Z" fill="#EBEBEB"/>
<path d="M80.1849 57.757H80.1406H48.0488L49.2138 70.5729H80.1849V57.757Z" fill="#EBEBEB"/>
<path d="M80.1859 130.315V116.981L80.1297 116.996L65.8566 113.142L64.9442 102.921H58.0086H52.0791L53.8746 123.043L80.1269 130.331L80.1859 130.315Z" fill="#EBEBEB"/>
<path d="M53.0928 7.99988H68.615V14.491H59.5839V20.9821H68.615V27.4732H53.0928V7.99988Z" fill="#9E9E9E"/>
<path d="M71.7188 7.99988H87.241V13.6443H78.2099V14.7732H87.241V27.7554H71.7188V21.8288H80.7499V20.6999H71.7188V7.99988Z" fill="#9E9E9E"/>
<path d="M90.3467 7.99988H105.869V13.6443H96.8378V14.7732H105.869V27.7554H90.3467V21.8288H99.3778V20.6999H90.3467V7.99988Z" fill="#9E9E9E"/>
<path d="M95.9229 96.5123L94.4353 113.133L80.1416 116.991V130.325L106.415 123.043L106.608 120.878L109.619 87.138L109.932 83.6966L112.246 57.757H80.1416V70.573H98.2004L97.0343 83.6966H80.1416V96.5123H95.9229Z" fill="white"/>
</g>
<defs>
<clipPath id="clip0">
<rect width="102.372" height="144.498" fill="white" transform="translate(29 7.99988)"/>
</clipPath>
</defs>
</svg>
