<svg width="160" height="160" viewBox="0 0 160 160" fill="none" xmlns="http://www.w3.org/2000/svg">
<path fill-rule="evenodd" clip-rule="evenodd" d="M111.875 49.6249C111.339 49.6251 110.805 49.6906 110.284 49.8199V49.8974H110.4C110.711 50.519 111.255 50.9465 111.643 51.4897C111.915 52.1113 112.226 52.7329 112.498 53.3545L112.614 53.2378C113.158 52.8887 113.391 52.2671 113.391 51.2964C113.197 51.0631 113.158 50.7915 112.964 50.519C112.692 50.1299 112.226 49.9357 111.875 49.6249Z" fill="#00678C"/>
<path fill-rule="evenodd" clip-rule="evenodd" d="M3 112.395H8.08845V92.3522L15.9348 109.831C16.8664 111.928 18.1104 112.666 20.5959 112.666C23.0822 112.666 24.3254 111.928 25.2569 109.831L33.1033 92.3522V112.395H38.1525V92.3905C38.1525 90.4491 37.3751 89.515 35.7829 89.0101C31.9376 87.8061 29.3346 88.8551 28.1698 91.4581L20.4792 108.666L13.0219 91.4581C11.8954 88.8551 9.25414 87.8061 5.40885 89.0101C3.77741 89.515 3.00087 90.4483 3.00087 92.3905L3 112.395ZM42.3861 96.0799H47.4354V107.112C47.3971 107.732 47.6295 109.131 50.4266 109.171C51.8247 109.208 61.3409 109.171 61.4184 109.171V96.0408H66.5068C66.5451 96.0408 66.5068 113.947 66.5068 114.025C66.5451 118.453 61.0301 119.384 58.5055 119.462H42.5027V116.045C42.5027 116.045 58.4672 116.084 58.5055 116.045C61.7683 115.734 61.3801 114.103 61.3801 113.559V112.238H50.6208C45.6098 112.161 42.4244 109.985 42.3861 107.46C42.3861 107.228 42.5027 96.1975 42.3861 96.0799ZM151.494 83.3784C148.388 83.3009 146.017 83.5725 143.958 84.4657C143.377 84.6991 142.483 84.6991 142.367 85.4373C142.678 85.7463 142.754 86.2521 142.988 86.6805C143.493 87.4579 144.309 88.5052 145.047 89.0493C145.824 89.6717 146.64 90.2924 147.494 90.8365C149.048 91.768 150.757 92.273 152.193 93.2071C153.087 93.7494 153.941 94.4503 154.796 95.071C155.183 95.3818 155.495 95.8484 156 96.0416V95.965C155.728 95.6151 155.65 95.1101 155.417 94.7201L154.252 93.5553C153.126 92.0797 151.688 90.7582 150.172 89.6717C148.968 88.8168 146.25 87.6128 145.745 86.2147C145.706 86.1755 145.666 86.1755 145.666 86.1364C146.521 86.0188 147.532 85.7098 148.309 85.5139C149.63 85.1657 150.833 85.2423 152.192 84.8932C152.815 84.6982 153.435 84.5432 154.058 84.3491V83.9991C153.359 83.3001 152.893 82.3294 152.116 81.7078C150.136 79.9989 147.959 78.3283 145.746 76.9301C144.502 76.1144 142.988 75.6095 141.668 74.9496C141.24 74.7555 140.462 74.6388 140.153 74.2505C139.452 73.3956 139.104 72.2691 138.56 71.2593C137.42 69.0438 136.358 66.7895 135.375 64.5002C134.716 62.9854 134.248 61.4706 133.434 60.0717C129.394 53.4684 125.082 49.4682 118.363 45.5445C116.926 44.7288 115.218 44.3797 113.391 43.9523C112.42 43.8739 111.45 43.8356 110.478 43.7573C109.895 43.524 109.274 42.7866 108.691 42.4366C106.477 41.0385 100.767 37.9698 99.1347 42.0092C98.0857 44.5338 100.689 47.0201 101.62 48.3025C102.282 49.1957 103.096 50.2064 103.563 51.2154C103.872 51.8753 103.912 52.536 104.184 53.2351C104.844 54.9832 105.388 56.8863 106.204 58.4785C106.63 59.2942 107.096 60.1491 107.64 60.8874C107.951 61.3148 108.534 61.509 108.611 62.208C108.067 62.9846 108.029 64.1502 107.718 65.1209C106.359 69.5103 106.864 74.9096 108.883 78.1716C109.506 79.1422 110.942 81.2786 112.963 80.4638C114.711 79.7255 114.322 77.55 114.827 75.5694C114.944 75.142 114.866 74.8312 115.098 74.5204V74.5979C115.603 75.6852 116.147 76.7343 116.691 77.7824C117.856 79.6863 119.954 81.7061 121.742 83.0258C122.634 83.7249 123.372 84.9298 124.576 85.3172V85.2388H124.46C124.227 84.8906 123.877 84.7347 123.605 84.4623C122.906 83.7632 122.13 82.9083 121.547 82.1318C119.955 79.9562 118.518 77.5482 117.197 75.0619C116.575 73.8579 116.031 72.5373 115.527 71.3333C115.332 70.8675 115.332 70.1685 114.905 69.896C114.322 70.7892 113.508 71.5274 113.039 72.5764C112.34 74.2471 112.225 76.3051 111.992 78.4031C111.835 78.4806 111.875 78.4414 111.796 78.5198C110.555 78.209 110.126 76.9267 109.661 75.8393C108.535 73.0814 108.301 68.6537 109.311 65.4683C109.582 64.6526 110.788 62.0888 110.283 61.3122C110.048 60.574 109.311 60.1082 108.884 59.5258C108.34 58.8267 107.835 57.8944 107.448 57.0786C106.516 54.9031 106.088 52.4951 105.077 50.3205C104.572 49.2714 103.797 48.2224 103.136 47.3292C102.398 46.2802 101.582 45.5428 101 44.2996C100.806 43.8722 100.535 43.1731 100.806 42.7065C100.922 42.3957 101.04 42.279 101.349 42.1624C101.853 41.7741 103.292 42.3182 103.834 42.5115C105.233 43.1331 106.437 43.6772 107.641 44.4929C108.224 44.8812 108.808 45.6185 109.507 45.8135H110.284C111.527 46.0852 112.924 45.891 114.089 46.241C116.148 46.8617 118.012 47.8333 119.684 48.9215C124.81 52.1452 128.967 56.7287 131.841 62.2054C132.307 63.0986 132.501 63.9143 132.89 64.8467C133.707 66.7506 134.754 68.692 135.57 70.5176C136.347 72.3823 137.163 74.2471 138.288 75.761C138.911 76.5767 141.24 77.0041 142.289 77.4307C143.028 77.7415 144.231 78.0906 144.932 78.5189C146.291 79.2955 147.572 80.267 148.854 81.1602C149.474 81.592 151.416 82.5627 151.494 83.3784Z" fill="#00678C"/>
<path fill-rule="evenodd" clip-rule="evenodd" d="M70.4312 112.395H84.9966C86.7055 112.395 88.3752 112.045 89.6959 111.423C91.8706 110.415 92.9588 109.054 92.9588 107.268V103.539C92.9588 102.103 91.7156 100.704 89.3477 99.8104C88.0653 99.3054 86.5114 99.0721 84.9966 99.0721H78.86C76.8011 99.0721 75.8304 98.4497 75.5971 97.0916C75.5579 96.9366 75.5579 96.7808 75.5579 96.6258V94.3336C75.5579 94.1787 75.5579 94.062 75.5971 93.9071C75.8304 92.858 76.3736 92.5472 78.1609 92.3923C78.3159 92.3923 78.51 92.3531 78.6658 92.3531H93.1538V88.9744H78.8991C76.8403 88.9744 75.7912 89.1294 74.8205 89.401C71.791 90.3717 70.4703 91.8482 70.4703 94.4512V97.4032C70.4703 99.6954 73.0724 101.637 77.3844 102.103C77.8893 102.103 78.355 102.142 78.86 102.142H84.1042C84.2984 102.142 84.4917 102.142 84.6466 102.181C86.2789 102.336 86.9388 102.607 87.4437 103.189C87.7154 103.5 87.8329 103.772 87.8329 104.122V107.074C87.8329 107.424 87.5996 107.891 87.0946 108.278C86.6663 108.667 85.9281 108.901 84.9574 108.977C84.7633 108.977 84.6092 109.017 84.4133 109.017H70.4312V112.395ZM124.577 106.489C124.577 109.986 127.141 111.927 132.385 112.316C132.851 112.355 133.356 112.394 133.821 112.394H147.028V109.014H133.743C130.752 109.014 129.626 108.276 129.626 106.489V88.9727H124.576V106.489H124.577ZM96.1833 106.683V94.6436C96.1833 91.5748 98.3188 89.7109 102.592 89.1276C103.02 89.0493 103.525 89.0493 103.951 89.0493H113.583C114.049 89.0493 114.477 89.0493 114.982 89.1276C119.216 89.7109 121.391 91.5748 121.391 94.6436V106.683C121.391 109.171 120.459 110.49 118.361 111.345L123.372 115.851H117.469L113.428 112.239L109.349 112.472H103.951C103.019 112.472 102.047 112.356 100.959 112.045C97.7373 111.19 96.1833 109.481 96.1833 106.683ZM101.66 106.374C101.66 106.569 101.699 106.723 101.738 106.919C102.049 108.316 103.369 109.093 105.35 109.093H109.973L105.74 105.286H111.643L115.332 108.588C115.994 108.238 116.46 107.694 116.615 106.995C116.654 106.801 116.654 106.647 116.654 106.49V94.916C116.654 94.7985 116.654 94.6444 116.615 94.4877C116.304 93.1679 114.984 92.4306 113.041 92.4306H105.35C103.097 92.4306 101.661 93.4013 101.661 94.916V106.374H101.66ZM149.359 112.395H150.097V109.598H151.107V109.015H148.349V109.598H149.359V112.395ZM155.03 112.395H155.69V109.015H154.68L153.788 111.346L152.895 109.015H151.846V112.395H152.545V109.831L153.516 112.395H154.021L154.992 109.831H155.031V112.395H155.03Z" fill="#CE8B2C"/>
</svg>
