<svg width="96" height="96" viewBox="0 0 96 96" fill="none" xmlns="http://www.w3.org/2000/svg">
<path fill-rule="evenodd" clip-rule="evenodd" d="M56.1299 6.26112C53.8452 -2.08704 42.1548 -2.08704 39.8701 6.26112C38.3227 11.9156 31.7354 14.3433 26.9605 11.0189C19.911 6.11088 10.9556 13.7198 14.5049 21.6019C16.9089 26.9407 13.4039 33.0878 7.63581 33.6491C-0.880127 34.4777 -2.91015 46.1353 4.81234 49.8632C10.043 52.3882 11.2603 59.3785 7.19793 63.5627C1.20035 69.7403 7.04556 79.9918 15.3278 77.8212C20.9376 76.3509 26.3076 80.9135 25.8518 86.7629C25.1789 95.3988 36.1643 99.4475 41.131 92.394C44.495 87.6165 51.505 87.6165 54.869 92.394C59.8357 99.4475 70.8211 95.3988 70.1482 86.7629C69.6924 80.9135 75.0624 76.3509 80.6722 77.8212C88.9544 79.9918 94.7997 69.7403 88.8021 63.5627C84.7397 59.3785 85.957 52.3882 91.1877 49.8632C98.9102 46.1353 96.8801 34.4777 88.3642 33.6491C82.5961 33.0878 79.0911 26.9407 81.4951 21.6019C85.0444 13.7198 76.089 6.11087 69.0395 11.0189C64.2646 14.3433 57.6773 11.9156 56.1299 6.26112ZM48.4171 79.8011C65.7556 79.8011 79.8112 65.5687 79.8112 48.0121C79.8112 30.4556 65.7556 16.2232 48.4171 16.2232C31.0786 16.2232 17.0229 30.4556 17.0229 48.0121C17.0229 65.5687 31.0786 79.8011 48.4171 79.8011Z" fill="#444444"/>
<path d="M62.2037 29.5254C62.6139 29.1101 63.1008 28.7806 63.6367 28.5559C64.1727 28.3311 64.7471 28.2154 65.3271 28.2154C65.9072 28.2154 66.4816 28.3311 67.0176 28.5559C67.5535 28.7806 68.0404 29.1101 68.4506 29.5254C68.8608 29.9408 69.1862 30.4339 69.4082 30.9765C69.6302 31.5192 69.7444 32.1008 69.7444 32.6882C69.7444 33.2756 69.6302 33.8572 69.4082 34.3999C69.1862 34.9425 68.8608 35.4356 68.4506 35.851L65.3271 32.6882L62.2037 29.5254Z" fill="#444444"/>
<path d="M44 23H52V27L48.1155 26.3404L44 27V23Z" fill="#777777"/>
<path fill-rule="evenodd" clip-rule="evenodd" d="M48.1155 69.0284C59.7571 69.0284 69.1944 59.4724 69.1944 47.6844C69.1944 35.8965 59.7571 26.3404 48.1155 26.3404C36.474 26.3404 27.0366 35.8965 27.0366 47.6844C27.0366 59.4724 36.474 69.0284 48.1155 69.0284ZM47.6971 63.789C56.3663 63.789 63.3941 56.6728 63.3941 47.8945C63.3941 39.1162 56.3663 32 47.6971 32C39.0278 32 32 39.1162 32 47.8945C32 56.6728 39.0278 63.789 47.6971 63.789Z" fill="#777777"/>
<path d="M54.9187 42.7096C54.9187 42.7096 50.9852 49.2546 49.6959 50.2689C48.4067 51.2832 46.6223 51.1421 45.7105 49.9538C44.7987 48.7654 45.1047 46.9798 46.394 45.9655C47.6833 44.9513 54.9187 42.7096 54.9187 42.7096Z" fill="#444444"/>
</svg>
