<svg width="96" height="96" viewBox="0 0 96 96" fill="none" xmlns="http://www.w3.org/2000/svg">
<circle cx="48" cy="48" r="48" fill="#444444"/>
<mask id="path-2-inside-1" fill="white">
<path d="M26.2075 28.2499C26.4034 28.2557 26.5798 28.3511 26.6677 28.5205C26.6803 28.5449 26.6907 28.57 26.6989 28.5956C27.2166 29.0743 27.5102 29.7913 27.4298 30.557C27.296 31.8315 26.1767 32.7585 24.9298 32.6276C23.6829 32.4967 22.7806 31.3574 22.9144 30.0829C23.0482 28.8084 24.1675 27.8814 25.4144 28.0123C25.6995 28.0423 25.9667 28.1249 26.2075 28.2499Z"/>
<path d="M54.5124 61.7392C61.3389 60.757 66.094 54.5466 65.1331 47.8677C64.1722 41.1889 57.8592 36.5708 51.0327 37.553C44.2061 38.5351 39.4511 44.7456 40.4119 51.4244C41.3728 58.1032 47.6858 62.7213 54.5124 61.7392Z"/>
<path d="M32.477 68.5645C35.0668 67.1206 36.021 63.8961 34.6083 61.3624C33.1957 58.8286 29.951 57.9452 27.3613 59.3891C24.7715 60.833 23.8173 64.0576 25.23 66.5913C26.6427 69.125 29.8873 70.0084 32.477 68.5645Z"/>
<path d="M34.1321 51.7251C35.3224 49.6634 34.6522 47.0479 32.635 45.8833C30.6179 44.7187 28.0177 45.446 26.8274 47.5078C25.6371 49.5695 26.3073 52.185 28.3244 53.3496C30.3415 54.5141 32.9417 53.7869 34.1321 51.7251Z"/>
<path d="M22.4806 41.7561C22.6721 39.9323 21.3809 38.3019 19.5965 38.1145C17.8121 37.9272 16.2103 39.2538 16.0188 41.0777C15.8273 42.9015 17.1186 44.5319 18.903 44.7193C20.6874 44.9066 22.2892 43.58 22.4806 41.7561Z"/>
<path d="M50.4091 69.441L47.98 67.1656C47.4392 66.659 46.5545 66.896 46.3394 67.6052L45.3734 70.7903C45.2978 71.0398 45.1277 71.2499 44.8993 71.3758L41.9847 72.9829C41.3357 73.3407 41.2878 74.2553 41.8958 74.679L44.6265 76.5819C44.8404 76.731 44.9876 76.9577 45.0368 77.2138L45.6646 80.4824C45.8043 81.2101 46.6594 81.5384 47.2502 81.0911L49.9039 79.0821C50.1117 78.9247 50.3728 78.8547 50.6316 78.8871L53.9342 79.3001C54.6695 79.3921 55.2459 78.6803 55.0031 77.9802L53.9124 74.8356C53.827 74.5892 53.8411 74.3193 53.9518 74.0832L55.3652 71.0699C55.6799 70.399 55.1811 69.6308 54.4402 69.6454L51.1125 69.711C50.8518 69.7161 50.5994 69.6192 50.4091 69.441Z"/>
<path d="M79.186 59.6634L79.1168 58.1239C79.0836 57.3836 78.2848 56.9354 77.6356 57.2927L76.2856 58.0358C76.0572 58.1615 75.7887 58.193 75.5374 58.1237L74.052 57.7137C73.3376 57.5166 72.6645 58.1377 72.8037 58.8656L73.0933 60.3791C73.1422 60.6352 73.0893 60.9003 72.9456 61.1179L72.0967 62.4039C71.6885 63.0224 72.0712 63.8545 72.8065 63.947L74.3354 64.1394C74.5941 64.1719 74.8298 64.3042 74.9924 64.508L75.9531 65.7128C76.4152 66.2922 77.3248 66.1853 77.64 65.5147L78.2954 64.12C78.4063 63.8841 78.605 63.7007 78.8491 63.6091L80.2918 63.0677C80.9856 62.8073 81.1651 61.9091 80.6246 61.4021L79.5008 60.3478C79.3106 60.1694 79.1977 59.9238 79.186 59.6634Z"/>
<path d="M71.3605 49.7642L71.0289 48.2594C70.8694 47.5357 71.5249 46.896 72.2445 47.0731L73.7408 47.4414C73.9939 47.5038 74.2614 47.4647 74.4862 47.3327L75.815 46.5522C76.4539 46.1769 77.2649 46.6027 77.3188 47.3418L77.4309 48.8787C77.4498 49.1387 77.5696 49.381 77.7647 49.554L78.9175 50.5766C79.4719 51.0683 79.3176 51.9711 78.6313 52.2507L77.2043 52.8323C76.9629 52.9307 76.7694 53.1195 76.6651 53.3584L76.0489 54.7708C75.7526 55.45 74.8462 55.5823 74.3682 55.016L73.3742 53.8385C73.206 53.6393 72.9666 53.5136 72.7071 53.4883L71.1734 53.3387C70.4359 53.2668 70.0301 52.4457 70.4209 51.8161L71.2336 50.5068C71.3711 50.2853 71.4166 50.0188 71.3605 49.7642Z"/>
</mask>
<path d="M25.8532 28.3374L25.6141 27.8982L25.6141 27.8982L25.8532 28.3374ZM26.2075 28.2499L26.4378 27.8061L26.3364 27.7535L26.2223 27.7501L26.2075 28.2499ZM26.6989 28.5956L27.1751 28.4433L27.135 28.3179L27.0383 28.2285L26.6989 28.5956ZM26.3598 29.3147L26.5988 29.7538L26.5988 29.7538L26.3598 29.3147ZM19.9588 38.8408L19.5149 39.0709L19.5149 39.0709L19.9588 38.8408ZM26.0922 28.7765C26.1316 28.7551 26.1672 28.749 26.1928 28.7497L26.2223 27.7501C26.0157 27.7441 25.8054 27.7941 25.6141 27.8982L26.0922 28.7765ZM26.2226 28.7479C26.2204 28.7411 26.2269 28.7525 26.2127 28.7829C26.1988 28.8128 26.1693 28.8491 26.1207 28.8755L26.5988 29.7538C27.0486 29.509 27.3445 28.9729 27.1751 28.4433L26.2226 28.7479ZM26.1207 28.8755C26.0671 28.9047 26.0219 28.905 25.9984 28.8997C25.9769 28.8949 25.9831 28.8897 25.9892 28.9014L25.1014 29.3616C25.4021 29.9419 26.1086 30.0207 26.5988 29.7538L26.1207 28.8755ZM25.9892 28.9014C25.9945 28.9117 25.9851 28.9071 25.9967 28.8773C26.0086 28.8466 26.0385 28.8058 26.0922 28.7765L25.6141 27.8982C25.127 28.1634 24.8061 28.792 25.1014 29.3616L25.9892 28.9014ZM58.7515 41.152C59.9013 42.3961 59.8674 44.0764 58.9051 44.9301L59.5688 45.6781C61.0541 44.3603 60.9143 42.0188 59.4859 40.4733L58.7515 41.152ZM58.9051 44.9301C57.934 45.7918 56.2066 45.6519 55.0544 44.4052L54.32 45.0839C55.746 46.6269 58.0926 46.988 59.5688 45.6781L58.9051 44.9301ZM55.0544 44.4052C53.9047 43.1611 53.9386 41.4809 54.9008 40.6271L54.2371 39.8791C52.7519 41.1969 52.8917 43.5384 54.32 45.0839L55.0544 44.4052ZM54.9008 40.6271C55.872 39.7654 57.5994 39.9054 58.7515 41.152L59.4859 40.4733C58.06 38.9304 55.7134 38.5693 54.2371 39.8791L54.9008 40.6271ZM30.8876 59.9029C31.4356 60.1737 31.5667 60.6952 31.4035 61.0091L32.2908 61.4703C32.7764 60.536 32.2466 59.4591 31.3307 59.0064L30.8876 59.9029ZM31.4035 61.0091C31.2349 61.3336 30.7072 61.5388 30.156 61.2663L29.7129 62.1628C30.6258 62.614 31.8108 62.3939 32.2908 61.4703L31.4035 61.0091ZM30.156 61.2663C29.608 60.9955 29.4769 60.474 29.6401 60.1601L28.7528 59.6989C28.2672 60.6332 28.7969 61.7101 29.7129 62.1628L30.156 61.2663ZM29.6401 60.1601C29.8087 59.8356 30.3364 59.6304 30.8876 59.9029L31.3307 59.0064C30.4178 58.5552 29.2328 58.7753 28.7528 59.6989L29.6401 60.1601ZM31.4771 46.508C31.9261 46.4722 32.1694 46.7508 32.1821 46.9655L33.1804 46.9063C33.1262 45.9936 32.2558 45.4427 31.3977 45.5111L31.4771 46.508ZM32.1821 46.9655C32.1956 47.1923 31.9712 47.5165 31.5188 47.5525L31.5982 48.5494C32.4528 48.4813 33.2338 47.8071 33.1804 46.9063L32.1821 46.9655ZM31.5188 47.5525C31.0699 47.5883 30.8265 47.3097 30.8138 47.0949L29.8156 47.1541C29.8697 48.0669 30.7401 48.6177 31.5982 48.5494L31.5188 47.5525ZM30.8138 47.0949C30.8003 46.8682 31.0247 46.544 31.4771 46.508L31.3977 45.5111C30.5431 45.5792 29.7621 46.2534 29.8156 47.1541L30.8138 47.0949ZM19.0323 39.0179C19.1527 38.9523 19.2705 38.9426 19.3576 38.9622C19.4427 38.9814 19.4908 39.0245 19.5149 39.0709L20.4027 38.6107C20.0416 37.9141 19.178 37.8 18.5541 38.1396L19.0323 39.0179ZM19.5149 39.0709C19.5597 39.1574 19.5455 39.3931 19.2791 39.5381L19.7572 40.4164C20.378 40.0785 20.7583 39.2966 20.4027 38.6107L19.5149 39.0709ZM19.2791 39.5381C19.1587 39.6037 19.0408 39.6134 18.9538 39.5938C18.8687 39.5747 18.8205 39.5315 18.7965 39.4851L17.9087 39.9453C18.2698 40.6419 19.1334 40.756 19.7572 40.4164L19.2791 39.5381ZM18.7965 39.4851C18.7517 39.3986 18.7659 39.1629 19.0323 39.0179L18.5541 38.1396C17.9334 38.4775 17.5531 39.2594 17.9087 39.9453L18.7965 39.4851ZM25.9772 28.6937C26.1164 28.7659 26.2447 28.8566 26.3594 28.9627L27.0383 28.2285C26.8593 28.0629 26.6577 27.9202 26.4378 27.8061L25.9772 28.6937ZM26.2075 28.2499L25.7469 29.1375L25.9497 29.2428L26.1781 29.2495L26.2075 28.2499ZM26.6677 28.5205L25.7799 28.9807L25.7799 28.9807L26.6677 28.5205ZM26.6989 28.5956L25.7464 28.9002L25.8266 29.151L26.0199 29.3298L26.6989 28.5956ZM32.477 68.5645L32.964 69.4379L32.964 69.4379L32.477 68.5645ZM27.3613 59.3891L26.8743 58.5157L26.8743 58.5157L27.3613 59.3891ZM19.5965 38.1145L19.492 39.109L19.5965 38.1145ZM18.903 44.7193L18.7986 45.7138L18.7986 45.7138L18.903 44.7193ZM16.0188 41.0777L15.0243 40.9732L16.0188 41.0777ZM25.4144 28.0123L25.5188 27.0178L25.4144 28.0123ZM27.4298 30.557L28.4243 30.6614L28.4243 30.6614L27.4298 30.557ZM22.9144 30.0829L21.9198 29.9785L22.9144 30.0829ZM47.98 67.1656L48.6637 66.4358L48.6637 66.4358L47.98 67.1656ZM50.4091 69.441L49.7255 70.1708L49.7255 70.1708L50.4091 69.441ZM51.1125 69.711L51.1322 70.7108L51.1322 70.7108L51.1125 69.711ZM54.4402 69.6454L54.4205 68.6456L54.4205 68.6456L54.4402 69.6454ZM55.3652 71.0699L56.2706 71.4945L56.2706 71.4945L55.3652 71.0699ZM53.9518 74.0832L54.8572 74.5079L54.8572 74.5079L53.9518 74.0832ZM53.9124 74.8356L54.8572 74.5079L54.8572 74.5079L53.9124 74.8356ZM55.0031 77.9802L54.0583 78.3078L54.0583 78.3078L55.0031 77.9802ZM53.9342 79.3001L54.0583 78.3078L54.0583 78.3078L53.9342 79.3001ZM50.6316 78.8871L50.5075 79.8793L50.5075 79.8793L50.6316 78.8871ZM49.9039 79.0821L49.3003 78.2848L49.3003 78.2848L49.9039 79.0821ZM47.2502 81.0911L46.6466 80.2938L46.6466 80.2938L47.2502 81.0911ZM45.6646 80.4824L46.6466 80.2938L46.6466 80.2938L45.6646 80.4824ZM45.0368 77.2138L46.0189 77.0252L46.0189 77.0252L45.0368 77.2138ZM44.6265 76.5819L44.0548 77.4024L44.0548 77.4024L44.6265 76.5819ZM41.8958 74.679L42.4675 73.8586L42.4675 73.8586L41.8958 74.679ZM41.9847 72.9829L41.5018 72.1072L41.5018 72.1072L41.9847 72.9829ZM44.8993 71.3758L45.3822 72.2515L45.3822 72.2515L44.8993 71.3758ZM45.3734 70.7903L46.3304 71.0805L46.3304 71.0805L45.3734 70.7903ZM46.3394 67.6052L45.3825 67.315L45.3825 67.315L46.3394 67.6052ZM79.1168 58.1239L80.1158 58.0791L80.1158 58.0791L79.1168 58.1239ZM79.186 59.6634L80.1849 59.6185L80.1849 59.6185L79.186 59.6634ZM79.5008 60.3478L78.8166 61.0771L78.8166 61.0771L79.5008 60.3478ZM80.6246 61.4021L81.3088 60.6728L81.3088 60.6728L80.6246 61.4021ZM80.2918 63.0677L80.6432 64.0039L80.6432 64.0039L80.2918 63.0677ZM78.8491 63.6091L78.4977 62.6729L78.4977 62.6729L78.8491 63.6091ZM78.2954 64.12L79.2005 64.5453L79.2005 64.5453L78.2954 64.12ZM77.64 65.5147L76.735 65.0893L76.735 65.0893L77.64 65.5147ZM75.9531 65.7128L75.1713 66.3363L75.1713 66.3363L75.9531 65.7128ZM74.9924 64.508L74.2105 65.1315L74.2105 65.1315L74.9924 64.508ZM74.3354 64.1394L74.2105 65.1315L74.2105 65.1315L74.3354 64.1394ZM72.8065 63.947L72.9313 62.9548L72.9313 62.9548L72.8065 63.947ZM72.0967 62.4039L71.2621 61.853L71.2621 61.853L72.0967 62.4039ZM72.9456 61.1179L73.7802 61.6688L73.7802 61.6688L72.9456 61.1179ZM73.0933 60.3791L72.1111 60.567L72.1111 60.567L73.0933 60.3791ZM72.8037 58.8656L73.7859 58.6777L73.7859 58.6777L72.8037 58.8656ZM74.052 57.7137L74.318 56.7498L74.318 56.7498L74.052 57.7137ZM75.5374 58.1237L75.8034 57.1597L75.8034 57.1597L75.5374 58.1237ZM76.2856 58.0358L75.8034 57.1597L75.8034 57.1597L76.2856 58.0358ZM77.6356 57.2927L77.1534 56.4167L77.1534 56.4167L77.6356 57.2927ZM71.0289 48.2594L72.0054 48.0441L72.0054 48.0441L71.0289 48.2594ZM71.3605 49.7642L72.3371 49.549L71.3605 49.7642ZM71.2336 50.5068L70.384 49.9794L70.384 49.9794L71.2336 50.5068ZM70.4209 51.8161L69.5713 51.2887L69.5713 51.2887L70.4209 51.8161ZM71.1734 53.3387L71.2705 52.3434L71.2705 52.3434L71.1734 53.3387ZM72.7071 53.4883L72.61 54.4836L72.6101 54.4836L72.7071 53.4883ZM73.3742 53.8385L74.1383 53.1935L74.1383 53.1935L73.3742 53.8385ZM74.3682 55.016L75.1323 54.3709L75.1323 54.3709L74.3682 55.016ZM76.0489 54.7708L75.1323 54.3709L75.1323 54.3709L76.0489 54.7708ZM76.6651 53.3584L77.5817 53.7583L77.5817 53.7583L76.6651 53.3584ZM77.2043 52.8323L76.8269 51.9062L76.8269 51.9062L77.2043 52.8323ZM78.6313 52.2507L78.254 51.3247L78.254 51.3247L78.6313 52.2507ZM78.9175 50.5766L79.5811 49.8284L79.5811 49.8284L78.9175 50.5766ZM77.7647 49.554L77.1011 50.3022L77.1011 50.3022L77.7647 49.554ZM77.4309 48.8787L76.4335 48.9514L76.4335 48.9514L77.4309 48.8787ZM77.3188 47.3418L78.3161 47.269L78.3161 47.269L77.3188 47.3418ZM75.815 46.5522L76.3214 47.4145L76.3214 47.4145L75.815 46.5522ZM74.4862 47.3327L73.9798 46.4704L73.9798 46.4704L74.4862 47.3327ZM73.7408 47.4414L73.5017 48.4125L73.5017 48.4125L73.7408 47.4414ZM72.2445 47.0731L72.4835 46.1021L72.4835 46.1021L72.2445 47.0731ZM26.1781 29.2495C26.0738 29.2464 25.886 29.1856 25.7799 28.9807L27.5555 28.0603C27.2736 27.5166 26.733 27.265 26.237 27.2504L26.1781 29.2495ZM25.7799 28.9807C25.7663 28.9547 25.7552 28.9277 25.7464 28.9002L27.6513 28.2909C27.6262 28.2123 27.5943 28.1351 27.5555 28.0603L25.7799 28.9807ZM64.1433 48.0101C65.0226 54.122 60.6704 59.8429 54.37 60.7494L54.6548 62.729C62.0075 61.6711 67.1654 54.9711 66.1229 47.7253L64.1433 48.0101ZM54.37 60.7494C48.0695 61.6558 42.2811 57.3939 41.4018 51.282L39.4221 51.5668C40.4646 58.8126 47.3021 63.7868 54.6548 62.729L54.37 60.7494ZM41.4018 51.282C40.5224 45.1701 44.8746 39.4493 51.1751 38.5428L50.8903 36.5632C43.5376 37.621 38.3797 44.321 39.4221 51.5668L41.4018 51.282ZM51.1751 38.5428C57.4755 37.6363 63.264 41.8983 64.1433 48.0101L66.1229 47.7253C65.0804 40.4795 58.2429 35.5053 50.8903 36.5632L51.1751 38.5428ZM33.7349 61.8493C34.8687 63.8828 34.1156 66.506 31.9901 67.6911L32.964 69.4379C36.018 67.7352 37.1734 63.9094 35.4818 60.8754L33.7349 61.8493ZM31.9901 67.6911C29.8646 68.8762 27.2371 68.1377 26.1034 66.1043L24.3566 67.0783C26.0482 70.1123 29.91 71.1407 32.964 69.4379L31.9901 67.6911ZM26.1034 66.1043C24.9696 64.0709 25.7227 61.4476 27.8482 60.2625L26.8743 58.5157C23.8203 60.2185 22.6649 64.0442 24.3566 67.0783L26.1034 66.1043ZM27.8482 60.2625C29.9737 59.0775 32.6012 59.8159 33.7349 61.8493L35.4818 60.8754C33.7901 57.8414 29.9283 56.8129 26.8743 58.5157L27.8482 60.2625ZM32.135 46.7494C33.6561 47.6275 34.1906 49.6237 33.266 51.2251L34.9981 52.2251C36.4542 49.703 35.6482 46.4683 33.135 45.0173L32.135 46.7494ZM33.266 51.2251C32.3415 52.8265 30.3455 53.3617 28.8244 52.4835L27.8244 54.2156C30.3376 55.6666 33.542 54.7472 34.9981 52.2251L33.266 51.2251ZM28.8244 52.4835C27.3033 51.6053 26.7689 49.6092 27.6934 48.0078L25.9614 47.0078C24.5053 49.5298 25.3112 52.7646 27.8244 54.2156L28.8244 52.4835ZM27.6934 48.0078C28.618 46.4064 30.614 45.8712 32.135 46.7494L33.135 45.0173C30.6219 43.5663 27.4175 44.4857 25.9614 47.0078L27.6934 48.0078ZM19.492 39.109C20.7068 39.2366 21.6221 40.3565 21.4861 41.6517L23.4752 41.8605C23.7222 39.508 22.0549 37.3671 19.7009 37.12L19.492 39.109ZM21.4861 41.6517C21.3501 42.9469 20.2221 43.8523 19.0074 43.7247L18.7986 45.7138C21.1526 45.961 23.2282 44.213 23.4752 41.8605L21.4861 41.6517ZM19.0074 43.7247C17.7927 43.5972 16.8774 42.4773 17.0134 41.1821L15.0243 40.9732C14.7773 43.3257 16.4445 45.4666 18.7986 45.7138L19.0074 43.7247ZM17.0134 41.1821C17.1493 39.8869 18.2773 38.9815 19.492 39.109L19.7009 37.12C17.3468 36.8728 15.2713 38.6208 15.0243 40.9732L17.0134 41.1821ZM25.31 29.0069C25.4685 29.0235 25.615 29.0691 25.7469 29.1375L26.6681 27.3623C26.3184 27.1808 25.9306 27.061 25.5188 27.0178L25.31 29.0069ZM26.0199 29.3298C26.312 29.5999 26.4819 30.0085 26.4353 30.4526L28.4243 30.6614C28.5385 29.574 28.1211 28.5487 27.3778 27.8614L26.0199 29.3298ZM26.4353 30.4526C26.357 31.1984 25.7115 31.7042 25.0342 31.6331L24.8254 33.6222C26.6419 33.8129 28.235 32.4646 28.4243 30.6614L26.4353 30.4526ZM25.0342 31.6331C24.357 31.562 23.8306 30.9332 23.9089 30.1873L21.9198 29.9785C21.7305 31.7816 23.0088 33.4314 24.8254 33.6222L25.0342 31.6331ZM23.9089 30.1873C23.9872 29.4415 24.6327 28.9358 25.31 29.0069L25.5188 27.0178C23.7022 26.8271 22.1092 28.1754 21.9198 29.9785L23.9089 30.1873ZM47.2964 67.8954L49.7255 70.1708L51.0928 68.7112L48.6637 66.4358L47.2964 67.8954ZM51.1322 70.7108L54.4599 70.6452L54.4205 68.6456L51.0928 68.7112L51.1322 70.7108ZM54.4599 70.6452L53.0465 73.6586L54.8572 74.5079L56.2706 71.4945L54.4599 70.6452ZM52.9676 75.1633L54.0583 78.3078L55.9479 77.6525L54.8572 74.5079L52.9676 75.1633ZM54.0583 78.3078L50.7557 77.8948L50.5075 79.8793L53.8101 80.2924L54.0583 78.3078ZM49.3003 78.2848L46.6466 80.2938L47.8538 81.8884L50.5075 79.8793L49.3003 78.2848ZM46.6466 80.2938L46.0189 77.0252L44.0548 77.4024L44.6825 80.671L46.6466 80.2938ZM45.1982 75.7615L42.4675 73.8586L41.324 75.4994L44.0548 77.4024L45.1982 75.7615ZM42.4675 73.8586L45.3822 72.2515L44.4165 70.5001L41.5018 72.1072L42.4675 73.8586ZM46.3304 71.0805L47.2964 67.8954L45.3825 67.315L44.4165 70.5001L46.3304 71.0805ZM45.3822 72.2515C45.8388 71.9997 46.1791 71.5795 46.3304 71.0805L44.4165 70.5001L44.4165 70.5001L45.3822 72.2515ZM42.4675 73.8586L42.4675 73.8586L41.5018 72.1072C40.204 72.8228 40.1081 74.6521 41.324 75.4994L42.4675 73.8586ZM46.0189 77.0252C45.9205 76.5131 45.6261 76.0596 45.1982 75.7615L44.0548 77.4024L44.0548 77.4024L46.0189 77.0252ZM46.6466 80.2938L46.6466 80.2938L44.6825 80.671C44.962 82.1265 46.6722 82.783 47.8538 81.8884L46.6466 80.2938ZM50.7557 77.8948C50.2382 77.8301 49.716 77.97 49.3003 78.2848L50.5075 79.8793L50.5075 79.8793L50.7557 77.8948ZM54.0583 78.3078L54.0583 78.3078L53.8101 80.2924C55.2807 80.4763 56.4335 79.0527 55.9479 77.6525L54.0583 78.3078ZM53.0465 73.6586C52.825 74.1307 52.7967 74.6706 52.9676 75.1633L54.8572 74.5079L54.8572 74.5079L53.0465 73.6586ZM54.4599 70.6452L54.4599 70.6452L56.2706 71.4945C56.9 70.1527 55.9023 68.6164 54.4205 68.6456L54.4599 70.6452ZM49.7255 70.1708C50.1061 70.5273 50.6108 70.721 51.1322 70.7108L51.0928 68.7112L51.0928 68.7112L49.7255 70.1708ZM48.6637 66.4358C47.582 65.4226 45.8126 65.8967 45.3825 67.315L47.2964 67.8954L47.2964 67.8954L48.6637 66.4358ZM78.1178 58.1688L78.187 59.7082L80.1849 59.6185L80.1158 58.0791L78.1178 58.1688ZM78.8166 61.0771L79.9404 62.1314L81.3088 60.6728L80.1849 59.6185L78.8166 61.0771ZM79.9404 62.1314L78.4977 62.6729L79.2005 64.5453L80.6432 64.0039L79.9404 62.1314ZM77.3904 63.6947L76.735 65.0893L78.5451 65.94L79.2005 64.5453L77.3904 63.6947ZM76.735 65.0893L75.7742 63.8846L74.2105 65.1315L75.1713 66.3363L76.735 65.0893ZM74.4602 63.1472L72.9313 62.9548L72.6816 64.9392L74.2105 65.1315L74.4602 63.1472ZM72.9313 62.9548L73.7802 61.6688L72.1111 60.567L71.2621 61.853L72.9313 62.9548ZM74.0754 60.1912L73.7859 58.6777L71.8216 59.0534L72.1111 60.567L74.0754 60.1912ZM73.7859 58.6777L75.2714 59.0876L75.8034 57.1597L74.318 56.7498L73.7859 58.6777ZM76.7678 58.9118L78.1178 58.1688L77.1534 56.4167L75.8034 57.1597L76.7678 58.9118ZM75.2714 59.0876C75.774 59.2264 76.311 59.1633 76.7678 58.9118L75.8034 57.1597L75.8034 57.1597L75.2714 59.0876ZM73.7859 58.6777L73.7859 58.6777L74.318 56.7498C72.8893 56.3555 71.5431 57.5978 71.8216 59.0534L73.7859 58.6777ZM73.7802 61.6688C74.0675 61.2336 74.1734 60.7034 74.0754 60.1912L72.1111 60.567L72.1111 60.567L73.7802 61.6688ZM72.9313 62.9548L72.9313 62.9548L71.2621 61.853C70.4457 63.0899 71.2111 64.7542 72.6816 64.9392L72.9313 62.9548ZM75.7742 63.8846C75.4491 63.4769 74.9776 63.2123 74.4602 63.1472L74.2105 65.1315L74.2105 65.1315L75.7742 63.8846ZM76.735 65.0893L76.735 65.0893L75.1713 66.3363C76.0954 67.495 77.9147 67.2813 78.5451 65.94L76.735 65.0893ZM78.4977 62.6729C78.0095 62.8561 77.6122 63.2228 77.3904 63.6947L79.2005 64.5453L79.2005 64.5453L78.4977 62.6729ZM79.9404 62.1314L79.9404 62.1314L80.6432 64.0039C82.0308 63.4831 82.3897 61.6868 81.3088 60.6728L79.9404 62.1314ZM78.187 59.7082C78.2104 60.2292 78.4363 60.7203 78.8166 61.0771L80.185 59.6185L80.1849 59.6185L78.187 59.7082ZM80.1158 58.0791C80.0493 56.5985 78.4518 55.702 77.1534 56.4167L78.1178 58.1688L78.1178 58.1688L80.1158 58.0791ZM70.0523 48.4746L70.384 49.9794L72.3371 49.549L72.0054 48.0441L70.0523 48.4746ZM70.384 49.9794L69.5713 51.2887L71.2705 52.3434L72.0832 51.0342L70.384 49.9794ZM71.0764 54.334L72.61 54.4836L72.8042 52.4931L71.2705 52.3434L71.0764 54.334ZM72.61 54.4836L73.6041 55.6611L75.1323 54.3709L74.1383 53.1935L72.61 54.4836ZM76.9655 55.1707L77.5817 53.7583L75.7486 52.9585L75.1323 54.3709L76.9655 55.1707ZM77.5817 53.7583L79.0087 53.1768L78.254 51.3247L76.8269 51.9062L77.5817 53.7583ZM79.5811 49.8284L78.4282 48.8059L77.1011 50.3022L78.254 51.3247L79.5811 49.8284ZM78.4282 48.8059L78.3161 47.269L76.3214 47.4145L76.4335 48.9514L78.4282 48.8059ZM75.3085 45.69L73.9798 46.4704L74.9927 48.1949L76.3214 47.4145L75.3085 45.69ZM73.9798 46.4704L72.4835 46.1021L72.0054 48.0441L73.5017 48.4125L73.9798 46.4704ZM73.9798 46.4704L73.9798 46.4704L73.5017 48.4125C74.0081 48.5371 74.5431 48.459 74.9927 48.1949L73.9798 46.4704ZM78.3161 47.269C78.2083 45.7909 76.5864 44.9394 75.3085 45.69L76.3214 47.4145L76.3214 47.4145L78.3161 47.269ZM78.4282 48.8059L78.4282 48.8059L76.4335 48.9514C76.4714 49.4715 76.711 49.9562 77.1011 50.3022L78.4282 48.8059ZM79.0087 53.1768C80.3812 52.6175 80.6898 50.8119 79.5811 49.8284L78.254 51.3247L78.254 51.3247L79.0087 53.1768ZM77.5817 53.7583L77.5817 53.7583L76.8269 51.9062C76.344 52.103 75.9571 52.4806 75.7486 52.9585L77.5817 53.7583ZM73.6041 55.6611C74.5601 56.7936 76.3728 56.5291 76.9655 55.1707L75.1323 54.3709L75.1323 54.3709L73.6041 55.6611ZM72.6101 54.4836L72.6101 54.4836L74.1383 53.1935C73.8019 52.795 73.3232 52.5437 72.8042 52.4931L72.6101 54.4836ZM69.5713 51.2887C68.7897 52.5479 69.6013 54.1901 71.0764 54.334L71.2705 52.3434L71.2705 52.3434L69.5713 51.2887ZM70.384 49.9794L70.384 49.9794L72.0832 51.0342C72.3582 50.5911 72.4493 50.0582 72.3371 49.549L70.384 49.9794ZM72.0054 48.0441L72.0054 48.0441L72.4835 46.1021C71.0444 45.7479 69.7333 47.0272 70.0523 48.4746L72.0054 48.0441Z" fill="white" mask="url(#path-2-inside-1)"/>
</svg>
