<svg width="120" height="120" viewBox="0 0 120 120" fill="none" xmlns="http://www.w3.org/2000/svg">
<circle cx="60" cy="60" r="60" fill="white"/>
<mask id="path-2-inside-1" fill="white">
<path d="M32.7589 35.3123C33.0038 35.3195 33.2243 35.4387 33.3341 35.6505C33.3499 35.681 33.3629 35.7124 33.3731 35.7443C34.0202 36.3428 34.3873 37.239 34.2868 38.1962C34.1195 39.7893 32.7204 40.9481 31.1618 40.7844C29.6031 40.6208 28.4752 39.1966 28.6425 37.6035C28.8098 36.0104 30.2089 34.8516 31.7675 35.0153C32.1239 35.0527 32.4579 35.1561 32.7589 35.3123Z"/>
<path d="M68.14 77.1738C76.6732 75.9461 82.617 68.1831 81.4159 59.8345C80.2148 51.486 72.3235 45.7134 63.7903 46.9411C55.2571 48.1688 49.3133 55.9319 50.5144 64.2804C51.7156 72.6289 59.6068 78.4015 68.14 77.1738Z"/>
<path d="M40.5958 85.7055C43.833 83.9006 45.0258 79.87 43.2599 76.7028C41.4941 73.5357 37.4383 72.4314 34.2011 74.2363C30.9639 76.0412 29.7711 80.0718 31.537 83.239C33.3028 86.4061 37.3586 87.5104 40.5958 85.7055Z"/>
<path d="M42.6646 64.6563C44.1525 62.0791 43.3147 58.8098 40.7933 57.354C38.2719 55.8983 35.0217 56.8074 33.5338 59.3846C32.0458 61.9618 32.8836 65.2311 35.405 66.6868C37.9264 68.1426 41.1766 67.2334 42.6646 64.6563Z"/>
<path d="M28.1003 52.195C28.3397 49.9152 26.7256 47.8772 24.4951 47.643C22.2646 47.4088 20.2624 49.0671 20.023 51.347C19.7837 53.6268 21.3978 55.6648 23.6283 55.899C25.8587 56.1332 27.861 54.4748 28.1003 52.195Z"/>
<path d="M63.0109 86.8011L59.9745 83.9569C59.2985 83.3236 58.1926 83.6199 57.9238 84.5064L56.7163 88.4877C56.6217 88.7996 56.4091 89.0622 56.1237 89.2196L52.4803 91.2284C51.6692 91.6757 51.6093 92.819 52.3692 93.3486L55.7826 95.7273C56.05 95.9136 56.2341 96.197 56.2955 96.5171L57.0802 100.603C57.2549 101.513 58.3238 101.923 59.0623 101.364L62.3793 98.8525C62.6392 98.6557 62.9656 98.5683 63.289 98.6087L67.4173 99.125C68.3364 99.24 69.0569 98.3502 68.7534 97.4751L67.39 93.5443C67.2832 93.2364 67.3009 92.899 67.4393 92.6039L69.2061 88.8372C69.5994 87.9986 68.9758 87.0384 68.0497 87.0566L63.8901 87.1386C63.5642 87.145 63.2488 87.0239 63.0109 86.8011Z"/>
<path d="M98.982 74.5791L98.8955 72.6548C98.854 71.7294 97.8555 71.1691 97.0441 71.6158L95.3566 72.5446C95.071 72.7018 94.7354 72.7412 94.4213 72.6545L92.5645 72.142C91.6716 71.8956 90.8302 72.672 91.0042 73.5818L91.3661 75.4737C91.4273 75.7939 91.3611 76.1252 91.1815 76.3972L90.1204 78.0048C89.6101 78.7778 90.0885 79.818 91.0076 79.9336L92.9187 80.1741C93.2421 80.2148 93.5368 80.3801 93.74 80.6349L94.9409 82.1409C95.5185 82.8651 96.6556 82.7315 97.0495 81.8932L97.8688 80.1499C98.0074 79.8549 98.2558 79.6258 98.5609 79.5113L100.364 78.8344C101.232 78.509 101.456 77.3863 100.78 76.7525L99.3755 75.4346C99.1378 75.2117 98.9966 74.9047 98.982 74.5791Z"/>
<path d="M89.2002 62.2051L88.7856 60.3241C88.5862 59.4195 89.4056 58.6199 90.3051 58.8413L92.1755 59.3017C92.4919 59.3796 92.8263 59.3308 93.1073 59.1657L94.7682 58.1902C95.5669 57.721 96.5806 58.2532 96.648 59.1771L96.7881 61.0982C96.8118 61.4232 96.9615 61.7262 97.2053 61.9424L98.6464 63.2206C99.3394 63.8352 99.1465 64.9638 98.2887 65.3133L96.5049 66.0402C96.2031 66.1632 95.9612 66.3992 95.8309 66.6979L95.0606 68.4634C94.6902 69.3124 93.5573 69.4777 92.9598 68.7699L91.7172 67.298C91.507 67.049 91.2078 66.8919 90.8834 66.8603L88.9663 66.6733C88.0444 66.5834 87.5371 65.557 88.0256 64.77L89.0415 63.1334C89.2134 62.8565 89.2703 62.5234 89.2002 62.2051Z"/>
</mask>
<path d="M32.316 35.4216L31.5988 34.1041L31.5988 34.1041L32.316 35.4216ZM32.7589 35.3123L33.4498 33.9809L33.1457 33.823L32.8031 33.8129L32.7589 35.3123ZM33.3731 35.7443L34.8018 35.2874L34.6815 34.9112L34.3915 34.6431L33.3731 35.7443ZM32.9492 36.6432L32.232 35.3258L32.232 35.3258L32.9492 36.6432ZM31.9311 36.4143L30.5994 37.1046L30.5994 37.1046L31.9311 36.4143ZM73.8979 51.0157L74.9995 49.9976L74.9995 49.9976L73.8979 51.0157ZM74.0458 56.63L75.0413 57.7521L75.0413 57.7521L74.0458 56.63ZM68.3586 55.9306L69.4602 54.9125L69.4602 54.9125L68.3586 55.9306ZM38.8859 74.3182L38.2213 75.6629L38.2213 75.6629L38.8859 74.3182ZM39.8085 76.5495L41.1394 77.2413L41.1394 77.2413L39.8085 76.5495ZM37.4176 77.1431L36.753 78.4878L36.753 78.4878L37.4176 77.1431ZM36.495 74.9118L37.826 75.6035L37.826 75.6035L36.495 74.9118ZM39.2963 57.5118L39.1771 56.0165L39.1771 56.0165L39.2963 57.5118ZM40.8511 58.6698L42.3485 58.581L42.3485 58.581L40.8511 58.6698ZM39.4476 60.0636L39.5668 61.5588L39.5668 61.5588L39.4476 60.0636ZM37.8929 58.9055L39.3902 58.8167L39.3902 58.8167L37.8929 58.9055ZM23.491 48.2233L22.7738 46.9058L22.7738 46.9058L23.491 48.2233ZM24.948 48.5509L26.2797 47.8606L26.2797 47.8606L24.948 48.5509ZM24.3972 49.9715L23.6801 48.654L23.6801 48.654L24.3972 49.9715ZM33.0331 36.739C32.9494 36.7846 32.841 36.8154 32.7148 36.8116L32.8031 33.8129C32.3866 33.8007 31.9709 33.9016 31.5988 34.1041L33.0331 36.739ZM31.9444 36.2013C31.8658 35.9554 31.9102 35.7423 31.9723 35.609C32.0352 35.474 32.1311 35.3807 32.232 35.3258L33.6664 37.9606C34.5222 37.4948 35.1658 36.4256 34.8018 35.2874L31.9444 36.2013ZM32.232 35.3258C32.3424 35.2657 32.5021 35.2287 32.6895 35.2709C32.8828 35.3143 33.1221 35.4526 33.2628 35.724L30.5994 37.1046C31.2569 38.3731 32.7382 38.4659 33.6664 37.9606L32.232 35.3258ZM33.2628 35.724C33.4013 35.9911 33.374 36.2509 33.3112 36.4128C33.2493 36.5724 33.1431 36.6792 33.0331 36.739L31.5988 34.1041C30.6798 34.6044 29.9584 35.8681 30.5994 37.1046L33.2628 35.724ZM72.7963 52.0338C73.9897 53.3251 73.7953 54.8469 73.0502 55.508L75.0413 57.7521C77.3555 55.6988 77.0287 52.1933 74.9995 49.9976L72.7963 52.0338ZM73.0502 55.508C72.2782 56.193 70.6607 56.2116 69.4602 54.9125L67.257 56.9487C69.279 59.1366 72.754 59.7814 75.0413 57.7521L73.0502 55.508ZM69.4602 54.9125C68.2668 53.6212 68.4611 52.0994 69.2063 51.4383L67.2152 49.1943C64.901 51.2475 65.2278 54.753 67.257 56.9487L69.4602 54.9125ZM69.2063 51.4383C69.9783 50.7533 71.5958 50.7347 72.7963 52.0338L74.9995 49.9976C72.9775 47.8097 69.5024 47.1649 67.2152 49.1943L69.2063 51.4383ZM38.2213 75.6629C38.3684 75.7356 38.4348 75.8323 38.4562 75.884C38.4663 75.9086 38.4641 75.9166 38.4643 75.9069C38.4646 75.8946 38.4684 75.8753 38.4775 75.8577L41.1394 77.2413C42.0286 75.5306 41.0175 73.6985 39.5506 72.9734L38.2213 75.6629ZM38.4775 75.8577C38.5012 75.8122 38.5199 75.8335 38.4427 75.8526C38.3631 75.8724 38.2298 75.8713 38.0823 75.7984L36.753 78.4878C38.2105 79.2082 40.2669 78.92 41.1394 77.2413L38.4775 75.8577ZM38.0823 75.7984C37.9351 75.7257 37.8687 75.629 37.8473 75.5772C37.8372 75.5526 37.8394 75.5447 37.8392 75.5544C37.839 75.5666 37.8351 75.586 37.826 75.6035L35.1641 74.22C34.2749 75.9307 35.286 77.7627 36.753 78.4878L38.0823 75.7984ZM37.826 75.6035C37.8023 75.6491 37.7836 75.6278 37.8608 75.6086C37.9404 75.5889 38.0737 75.5899 38.2213 75.6629L39.5506 72.9735C38.093 72.253 36.0366 72.5412 35.1641 74.22L37.826 75.6035ZM39.4154 59.0071C39.4788 59.002 39.4925 59.0231 39.4684 59.0051C39.4552 58.9953 39.4288 58.9717 39.4034 58.9272C39.3767 58.8806 39.3575 58.8216 39.3537 58.7586L42.3485 58.581C42.2446 56.8294 40.6078 55.9025 39.1771 56.0165L39.4154 59.0071ZM39.3537 58.7586C39.35 58.6961 39.3622 58.6409 39.3788 58.601C39.3945 58.5632 39.411 58.5456 39.4144 58.5422C39.4186 58.538 39.3923 58.5632 39.3285 58.5683L39.5668 61.5588C40.987 61.4456 42.4502 60.2967 42.3485 58.581L39.3537 58.7586ZM39.3285 58.5683C39.2652 58.5733 39.2514 58.5522 39.2756 58.5702C39.2888 58.58 39.3152 58.6037 39.3406 58.6481C39.3672 58.6947 39.3865 58.7538 39.3902 58.8167L36.3955 58.9944C36.4994 60.746 38.1361 61.6728 39.5668 61.5588L39.3285 58.5683ZM39.3902 58.8167C39.3939 58.8793 39.3817 58.9344 39.3652 58.9744C39.3495 59.0122 39.333 59.0298 39.3295 59.0332C39.3253 59.0373 39.3517 59.0121 39.4154 59.0071L39.1771 56.0165C37.757 56.1297 36.2937 57.2787 36.3955 58.9944L39.3902 58.8167ZM24.2082 49.5407C24.1813 49.5554 24.1125 49.5806 24.0045 49.5563C23.8907 49.5307 23.7193 49.4399 23.6163 49.2412L26.2797 47.8606C25.5468 46.4467 23.8691 46.3096 22.7738 46.9058L24.2082 49.5407ZM23.6163 49.2412C23.5155 49.0468 23.5431 48.8712 23.5758 48.7868C23.6077 48.7046 23.6536 48.6684 23.6801 48.654L25.1144 51.2889C26.2004 50.6978 26.9961 49.2425 26.2797 47.8606L23.6163 49.2412ZM23.6801 48.654C23.7069 48.6394 23.7757 48.6141 23.8837 48.6384C23.9976 48.664 24.169 48.7549 24.2719 48.9536L21.6085 50.3342C22.3414 51.7481 24.0192 51.8851 25.1144 51.2889L23.6801 48.654ZM24.2719 48.9536C24.3727 49.148 24.3452 49.3236 24.3124 49.408C24.2806 49.4901 24.2347 49.5263 24.2082 49.5407L22.7738 46.9058C21.6879 47.497 20.8922 48.9523 21.6085 50.3342L24.2719 48.9536ZM32.068 36.6437C32.1713 36.6973 32.2676 36.7651 32.3547 36.8456L34.3915 34.6431C34.1113 34.384 33.7954 34.1602 33.4498 33.9809L32.068 36.6437ZM32.7589 35.3123L31.3772 37.9751L31.9855 38.2908L32.6706 38.311L32.7589 35.3123ZM33.3341 35.6505L35.9975 34.2699L35.9975 34.2699L33.3341 35.6505ZM33.3731 35.7443L30.5157 36.6582L30.7563 37.4106L31.3362 37.9469L33.3731 35.7443ZM81.4159 59.8345L78.4465 60.2618L78.4465 60.2618L81.4159 59.8345ZM68.14 77.1738L68.5672 80.1433L68.5672 80.1433L68.14 77.1738ZM43.2599 76.7028L40.6397 78.1638L40.6397 78.1638L43.2599 76.7028ZM40.5958 85.7055L39.1349 83.0853L39.1349 83.0853L40.5958 85.7055ZM31.537 83.239L34.1572 81.7781L34.1572 81.7781L31.537 83.239ZM34.2011 74.2363L35.662 76.8565L35.662 76.8565L34.2011 74.2363ZM40.7933 57.354L42.2933 54.756L42.2933 54.756L40.7933 57.354ZM35.405 66.6868L36.905 64.0887L36.905 64.0887L35.405 66.6868ZM24.4951 47.643L24.1818 50.6266L24.1818 50.6266L24.4951 47.643ZM28.1003 52.195L25.1167 51.8818L25.1167 51.8818L28.1003 52.195ZM23.6283 55.899L23.9415 52.9154L23.9415 52.9154L23.6283 55.899ZM20.023 51.347L23.0066 51.6602L23.0066 51.6602L20.023 51.347ZM31.7675 35.0153L31.4542 37.9989L31.4542 37.9989L31.7675 35.0153ZM34.2868 38.1962L31.3032 37.8829L31.3032 37.8829L34.2868 38.1962ZM31.1618 40.7844L30.8485 43.768L30.8485 43.768L31.1618 40.7844ZM28.6425 37.6035L31.6261 37.9168L28.6425 37.6035ZM59.9745 83.9569L62.0255 81.7674L62.0254 81.7674L59.9745 83.9569ZM63.0109 86.8011L60.96 88.9906L60.96 88.9906L63.0109 86.8011ZM63.8901 87.1386L63.831 84.1392L63.831 84.1392L63.8901 87.1386ZM68.0497 87.0566L68.1088 90.0561L68.1088 90.0561L68.0497 87.0566ZM69.2061 88.8372L66.49 87.5633L66.49 87.5633L69.2061 88.8372ZM67.4393 92.6039L70.1554 93.8779L70.1554 93.8779L67.4393 92.6039ZM67.39 93.5443L70.2244 92.5613L70.2244 92.5612L67.39 93.5443ZM68.7534 97.4751L71.5877 96.492L71.5877 96.492L68.7534 97.4751ZM67.4173 99.125L67.045 102.102L67.045 102.102L67.4173 99.125ZM63.289 98.6087L63.6613 95.6319L63.6612 95.6319L63.289 98.6087ZM62.3793 98.8525L60.5685 96.4606L60.5685 96.4606L62.3793 98.8525ZM59.0623 101.364L57.2515 98.9719L57.2515 98.9719L59.0623 101.364ZM57.0802 100.603L60.0264 100.037L60.0264 100.037L57.0802 100.603ZM56.2955 96.5171L53.3494 97.0829L53.3494 97.0829L56.2955 96.5171ZM55.7826 95.7273L57.4979 93.266L57.4978 93.266L55.7826 95.7273ZM52.3692 93.3486L50.654 95.8099L50.654 95.8099L52.3692 93.3486ZM52.4803 91.2284L51.0318 88.6013L51.0318 88.6013L52.4803 91.2284ZM56.1237 89.2196L57.5722 91.8467L57.5722 91.8467L56.1237 89.2196ZM56.7163 88.4877L53.8454 87.6171L53.8454 87.6171L56.7163 88.4877ZM57.9238 84.5064L60.7947 85.377L60.7947 85.377L57.9238 84.5064ZM98.8955 72.6548L95.8986 72.7894L95.8986 72.7894L98.8955 72.6548ZM98.982 74.5791L101.979 74.4445L101.979 74.4445L98.982 74.5791ZM99.3755 75.4346L101.428 73.2467L101.428 73.2467L99.3755 75.4346ZM100.78 76.7525L98.7277 78.9404L98.7277 78.9404L100.78 76.7525ZM100.364 78.8344L101.418 81.6432L101.418 81.6432L100.364 78.8344ZM98.5609 79.5113L97.5068 76.7026L97.5067 76.7026L98.5609 79.5113ZM97.8688 80.1499L95.1537 78.8739L95.1537 78.8739L97.8688 80.1499ZM97.0495 81.8932L99.7647 83.1692L99.7647 83.1692L97.0495 81.8932ZM94.9409 82.1409L97.2864 80.2704L97.2864 80.2704L94.9409 82.1409ZM93.74 80.6349L91.3945 82.5054L91.3945 82.5054L93.74 80.6349ZM92.9187 80.1741L93.2933 77.1976L93.2932 77.1975L92.9187 80.1741ZM91.0076 79.9336L90.6331 82.9102L90.6331 82.9102L91.0076 79.9336ZM90.1204 78.0048L87.6167 76.3521L87.6167 76.3521L90.1204 78.0048ZM91.1815 76.3972L88.6778 74.7445L88.6778 74.7445L91.1815 76.3972ZM91.3661 75.4737L88.4195 76.0374L88.4195 76.0374L91.3661 75.4737ZM91.0042 73.5818L93.9508 73.0182L93.9508 73.0182L91.0042 73.5818ZM92.5645 72.142L91.7664 75.0339L91.7664 75.0339L92.5645 72.142ZM94.4213 72.6545L93.6232 75.5464L93.6232 75.5464L94.4213 72.6545ZM95.3566 72.5446L93.91 69.9164L93.91 69.9164L95.3566 72.5446ZM97.0441 71.6158L95.5975 68.9876L95.5975 68.9876L97.0441 71.6158ZM88.7856 60.3241L85.8559 60.9697L85.8559 60.9697L88.7856 60.3241ZM89.2002 62.2051L92.1299 61.5595L92.1299 61.5595L89.2002 62.2051ZM89.0415 63.1334L91.5904 64.7155L91.5904 64.7155L89.0415 63.1334ZM88.0256 64.77L90.5745 66.3521L90.5745 66.3521L88.0256 64.77ZM88.9663 66.6733L89.2576 63.6875L89.2576 63.6875L88.9663 66.6733ZM90.8834 66.8603L90.5922 69.8461L90.5922 69.8461L90.8834 66.8603ZM91.7172 67.298L89.4249 69.2333L89.4249 69.2333L91.7172 67.298ZM92.9598 68.7699L95.2521 66.8347L95.2521 66.8347L92.9598 68.7699ZM95.0606 68.4634L97.8103 69.6631L97.8103 69.6631L95.0606 68.4634ZM95.8309 66.6979L93.0812 65.4982L93.0812 65.4983L95.8309 66.6979ZM96.5049 66.0402L97.637 68.8184L97.637 68.8184L96.5049 66.0402ZM98.2887 65.3133L99.4208 68.0915L99.4208 68.0915L98.2887 65.3133ZM98.6464 63.2206L96.6557 65.465L96.6557 65.465L98.6464 63.2206ZM97.2053 61.9424L95.2147 64.1868L95.2147 64.1868L97.2053 61.9424ZM96.7881 61.0982L99.7801 60.88L99.7801 60.88L96.7881 61.0982ZM96.648 59.1771L93.6559 59.3953L93.6559 59.3953L96.648 59.1771ZM94.7682 58.1902L96.2876 60.777L96.2876 60.777L94.7682 58.1902ZM93.1073 59.1657L91.5879 56.5789L91.5879 56.579L93.1073 59.1657ZM92.1755 59.3017L91.4584 62.2147L91.4584 62.2147L92.1755 59.3017ZM90.3051 58.8413L91.0221 55.9282L91.0221 55.9282L90.3051 58.8413ZM32.6706 38.311C32.015 38.2917 31.143 37.9423 30.6707 37.0311L35.9975 34.2699C35.3057 32.9352 33.9925 32.3473 32.8473 32.3136L32.6706 38.311ZM30.6707 37.0311C30.608 36.9102 30.5563 36.7854 30.5157 36.6582L36.2305 34.8305C36.1694 34.6394 36.0918 34.4518 35.9975 34.2699L30.6707 37.0311ZM78.4465 60.2618C79.4029 66.9094 74.6676 73.2038 67.7128 74.2044L68.5672 80.1433C78.6788 78.6885 85.8311 69.4567 84.3853 59.4073L78.4465 60.2618ZM67.7128 74.2044C60.758 75.205 54.4403 70.5008 53.4839 63.8532L47.545 64.7076C48.9909 74.757 58.4556 81.598 68.5672 80.1433L67.7128 74.2044ZM53.4839 63.8532C52.5275 57.2055 57.2628 50.9112 64.2176 49.9105L63.3631 43.9717C53.2515 45.4265 46.0992 54.6582 47.545 64.7076L53.4839 63.8532ZM64.2176 49.9105C71.1724 48.9099 77.49 53.6141 78.4465 60.2618L84.3853 59.4073C82.9395 49.3579 73.4747 42.5169 63.3631 43.9717L64.2176 49.9105ZM40.6397 78.1638C41.5687 79.83 40.9793 82.0569 39.1349 83.0853L42.0567 88.3258C46.6867 85.7443 48.4828 79.9099 45.8802 75.2419L40.6397 78.1638ZM39.1349 83.0853C37.2905 84.1136 35.0863 83.4443 34.1572 81.7781L28.9167 84.6999C31.5194 89.3679 37.4268 90.9072 42.0567 88.3258L39.1349 83.0853ZM34.1572 81.7781C33.2282 80.1118 33.8176 77.8849 35.662 76.8565L32.7402 71.616C28.1102 74.1975 26.3141 80.0319 28.9167 84.6999L34.1572 81.7781ZM35.662 76.8565C37.5064 75.8282 39.7106 76.4975 40.6397 78.1638L45.8802 75.2419C43.2775 70.5739 37.3702 69.0346 32.7402 71.616L35.662 76.8565ZM39.2933 59.9521C40.3265 60.5487 40.7571 61.9601 40.0665 63.1563L45.2627 66.1563C47.5479 62.1981 46.3029 57.0709 42.2933 54.756L39.2933 59.9521ZM40.0665 63.1563C39.3759 64.3524 37.9383 64.6853 36.905 64.0887L33.905 69.2849C37.9146 71.5998 42.9774 70.1144 45.2627 66.1563L40.0665 63.1563ZM36.905 64.0887C35.8718 63.4922 35.4412 62.0808 36.1318 60.8846L30.9357 57.8846C28.6504 61.8428 29.8955 66.97 33.905 69.2849L36.905 64.0887ZM36.1318 60.8846C36.8225 59.6884 38.2601 59.3556 39.2933 59.9521L42.2933 54.756C38.2837 52.441 33.2209 53.9264 30.9357 57.8846L36.1318 60.8846ZM24.1818 50.6266C24.7033 50.6814 25.1896 51.1879 25.1167 51.8818L31.0839 52.5083C31.4898 48.6426 28.7478 45.073 24.8084 44.6594L24.1818 50.6266ZM25.1167 51.8818C25.0439 52.5757 24.463 52.9701 23.9415 52.9154L23.315 58.8826C27.2545 59.2962 30.678 56.374 31.0839 52.5083L25.1167 51.8818ZM23.9415 52.9154C23.42 52.8606 22.9338 52.3541 23.0066 51.6602L17.0394 51.0337C16.6336 54.8994 19.3755 58.4689 23.315 58.8826L23.9415 52.9154ZM23.0066 51.6602C23.0795 50.9663 23.6604 50.5719 24.1818 50.6266L24.8084 44.6594C20.8689 44.2458 17.4453 47.168 17.0394 51.0337L23.0066 51.6602ZM31.4542 37.9989C31.4307 37.9964 31.4028 37.9884 31.3772 37.9751L34.1407 32.6495C33.5129 32.3237 32.8172 32.109 32.0808 32.0317L31.4542 37.9989ZM31.3362 37.9469C31.3203 37.9322 31.3125 37.9186 31.3083 37.9076C31.3059 37.9014 31.3044 37.8953 31.3037 37.8898C31.3029 37.884 31.3033 37.8813 31.3032 37.8829L37.2704 38.5094C37.4722 36.5872 36.7337 34.766 35.41 33.5418L31.3362 37.9469ZM31.3032 37.8829C31.303 37.884 31.3041 37.8762 31.31 37.8654C31.3149 37.8563 31.322 37.8472 31.3324 37.8386C31.3429 37.83 31.3606 37.8186 31.3876 37.8101C31.417 37.8009 31.4487 37.798 31.475 37.8008L30.8485 43.768C34.1161 44.1111 36.9366 41.6884 37.2704 38.5094L31.3032 37.8829ZM31.475 37.8008C31.5013 37.8036 31.5318 37.813 31.5586 37.8281C31.5833 37.842 31.5982 37.8568 31.6067 37.8674C31.6151 37.878 31.6201 37.8883 31.623 37.8983C31.6265 37.91 31.626 37.9179 31.6261 37.9168L25.6589 37.2903C25.3251 40.4693 27.5809 43.4249 30.8485 43.768L31.475 37.8008ZM31.6261 37.9168C31.6262 37.9157 31.6251 37.9235 31.6193 37.9343C31.6143 37.9434 31.6072 37.9524 31.5968 37.9611C31.5864 37.9697 31.5687 37.9811 31.5416 37.9896C31.5123 37.9988 31.4805 38.0016 31.4542 37.9989L32.0808 32.0317C28.8131 31.6886 25.9927 34.1112 25.6589 37.2903L31.6261 37.9168ZM57.9236 86.1463L60.96 88.9906L65.0618 84.6116L62.0255 81.7674L57.9236 86.1463ZM63.9492 90.138L68.1088 90.0561L67.9906 84.0572L63.831 84.1392L63.9492 90.138ZM66.49 87.5633L64.7232 91.33L70.1554 93.8779L71.9221 90.1112L66.49 87.5633ZM64.5557 94.5274L65.919 98.4581L71.5877 96.492L70.2244 92.5613L64.5557 94.5274ZM67.7896 96.1482L63.6613 95.6319L62.9167 101.586L67.045 102.102L67.7896 96.1482ZM60.5685 96.4606L57.2515 98.9719L60.8731 103.756L64.1901 101.244L60.5685 96.4606ZM60.0264 100.037L59.2417 95.9513L53.3494 97.0829L54.134 101.169L60.0264 100.037ZM57.4978 93.266L54.0844 90.8873L50.654 95.8099L54.0674 98.1886L57.4978 93.266ZM53.9289 93.8556L57.5722 91.8467L54.6751 86.5925L51.0318 88.6013L53.9289 93.8556ZM59.5872 89.3584L60.7947 85.377L55.0529 83.6357L53.8454 87.6171L59.5872 89.3584ZM57.5722 91.8467C58.5426 91.3117 59.2656 90.4188 59.5872 89.3584L53.8454 87.6171C53.9779 87.1804 54.2756 86.8128 54.6751 86.5925L57.5722 91.8467ZM54.0844 90.8873C55.1484 91.6287 55.0645 93.2294 53.9289 93.8556L51.0318 88.6013C48.2739 90.122 48.0701 94.0093 50.654 95.8099L54.0844 90.8873ZM59.2417 95.9513C59.0327 94.8631 58.4069 93.8995 57.4979 93.266L54.0674 98.1886C53.6931 97.9278 53.4354 97.531 53.3494 97.0829L59.2417 95.9513ZM57.2515 98.9719C58.2854 98.1891 59.7818 98.7635 60.0264 100.037L54.134 101.169C54.728 104.262 58.3621 105.657 60.8731 103.756L57.2515 98.9719ZM63.6612 95.6319C62.5617 95.4944 61.452 95.7918 60.5685 96.4606L64.1901 101.244C63.8264 101.52 63.3694 101.642 62.9167 101.586L63.6612 95.6319ZM65.919 98.4581C65.4941 97.2329 66.5028 95.9873 67.7895 96.1482L67.045 102.102C70.17 102.493 72.6197 99.4675 71.5877 96.492L65.919 98.4581ZM64.7232 91.3299C64.2527 92.3332 64.1925 93.4805 64.5557 94.5274L70.2244 92.5612C70.3739 92.9923 70.3491 93.4648 70.1554 93.8779L64.7232 91.3299ZM68.1088 90.0561C66.8123 90.0816 65.9393 88.7374 66.49 87.5633L71.9221 90.1112C73.2595 87.2598 71.1394 83.9952 67.9906 84.0572L68.1088 90.0561ZM60.96 88.9906C61.7687 89.7481 62.8413 90.1598 63.9492 90.138L63.831 84.1392C64.2872 84.1302 64.7288 84.2997 65.0618 84.6116L60.96 88.9906ZM62.0254 81.7674C59.7269 79.6143 55.9669 80.6218 55.0529 83.6357L60.7947 85.377C60.4183 86.618 58.8701 87.0329 57.9236 86.1463L62.0254 81.7674ZM95.8986 72.7894L95.985 74.7137L101.979 74.4445L101.893 72.5202L95.8986 72.7894ZM97.3229 77.6226L98.7277 78.9404L102.833 74.5646L101.428 73.2467L97.3229 77.6226ZM99.3102 76.0257L97.5068 76.7026L99.615 82.32L101.418 81.6432L99.3102 76.0257ZM95.1537 78.8739L94.3344 80.6172L99.7647 83.1692L100.584 81.4259L95.1537 78.8739ZM97.2864 80.2704L96.0855 78.7645L91.3945 82.5054L92.5955 84.0114L97.2864 80.2704ZM93.2932 77.1975L91.3821 76.9571L90.6331 82.9102L92.5442 83.1506L93.2932 77.1975ZM92.6241 79.6575L93.6853 78.0499L88.6778 74.7445L87.6167 76.3521L92.6241 79.6575ZM94.3127 74.9101L93.9508 73.0182L88.0576 74.1454L88.4195 76.0374L94.3127 74.9101ZM91.7664 75.0339L93.6232 75.5464L95.2194 69.7626L93.3626 69.2502L91.7664 75.0339ZM96.8031 75.1728L98.4906 74.244L95.5975 68.9876L93.91 69.9164L96.8031 75.1728ZM93.6232 75.5464C94.6913 75.8412 95.8324 75.7071 96.8031 75.1728L93.91 69.9164C94.3097 69.6964 94.7796 69.6412 95.2194 69.7626L93.6232 75.5464ZM93.9508 73.0182C94.1944 74.2919 93.0165 75.3789 91.7664 75.0339L93.3626 69.2502C90.3266 68.4123 87.4659 71.0522 88.0576 74.1455L93.9508 73.0182ZM93.6853 78.0499C94.2957 77.1251 94.5208 75.9985 94.3126 74.9101L88.4195 76.0374C88.3338 75.5892 88.4265 75.1253 88.6778 74.7445L93.6853 78.0499ZM91.3821 76.9571C92.6688 77.119 93.3385 78.5752 92.6241 79.6575L87.6167 76.3521C85.8817 78.9805 87.5083 82.517 90.6331 82.9102L91.3821 76.9571ZM96.0855 78.7645C95.3946 77.8981 94.3927 77.3359 93.2933 77.1976L92.5442 83.1506C92.0915 83.0936 91.6789 82.8621 91.3945 82.5054L96.0855 78.7645ZM94.3344 80.6172C94.886 79.4436 96.4779 79.2565 97.2864 80.2704L92.5955 84.0114C94.5591 86.4737 98.4251 86.0195 99.7647 83.1692L94.3344 80.6172ZM97.5067 76.7026C96.4693 77.0919 95.625 77.8711 95.1537 78.8739L100.584 81.4259C100.39 81.8388 100.042 82.1596 99.615 82.32L97.5067 76.7026ZM98.7277 78.9404C97.782 78.0532 98.096 76.4814 99.3101 76.0257L101.418 81.6432C104.367 80.5365 105.13 76.7193 102.833 74.5646L98.7277 78.9404ZM95.985 74.7136C96.0347 75.8206 96.5148 76.8645 97.323 77.6226L101.428 73.2467C101.761 73.5589 101.958 73.9887 101.979 74.4445L95.985 74.7136ZM101.893 72.5202C101.751 69.374 98.3566 67.469 95.5975 68.9876L98.4906 74.244C97.3545 74.8693 95.9567 74.0849 95.8986 72.7894L101.893 72.5202ZM85.8559 60.9697L86.2705 62.8508L92.1299 61.5595L91.7153 59.6784L85.8559 60.9697ZM86.4926 61.5512L85.4768 63.1878L90.5745 66.3521L91.5904 64.7155L86.4926 61.5512ZM88.6751 69.6591L90.5922 69.8461L91.1747 63.8745L89.2576 63.6875L88.6751 69.6591ZM89.4249 69.2333L90.6674 70.7051L95.2521 66.8347L94.0096 65.3628L89.4249 69.2333ZM97.8103 69.6631L98.5806 67.8976L93.0812 65.4983L92.3109 67.2637L97.8103 69.6631ZM97.637 68.8184L99.4208 68.0915L97.1565 62.5351L95.3728 63.262L97.637 68.8184ZM100.637 60.9762L99.196 59.698L95.2147 64.1868L96.6557 65.465L100.637 60.9762ZM99.7801 60.88L99.64 58.9589L93.6559 59.3953L93.796 61.3164L99.7801 60.88ZM93.2488 55.6034L91.5879 56.5789L94.6267 61.7525L96.2876 60.777L93.2488 55.6034ZM92.8925 56.3886L91.0221 55.9282L89.588 61.7543L91.4584 62.2147L92.8925 56.3886ZM91.5879 56.579C91.9814 56.3479 92.4495 56.2796 92.8925 56.3886L91.4584 62.2147C92.5344 62.4796 93.6712 62.3137 94.6267 61.7525L91.5879 56.579ZM99.64 58.9589C99.411 55.8178 95.9644 54.0083 93.2488 55.6034L96.2876 60.777C95.1694 61.4338 93.7503 60.6887 93.6559 59.3953L99.64 58.9589ZM99.196 59.6981C99.5374 60.0008 99.747 60.4249 99.7801 60.88L93.796 61.3164C93.8766 62.4216 94.3857 63.4515 95.2147 64.1868L99.196 59.6981ZM99.4208 68.0915C102.337 66.903 102.993 63.066 100.637 60.9762L96.6557 65.465C95.6855 64.6045 95.9556 63.0245 97.1565 62.5351L99.4208 68.0915ZM98.5806 67.8976C98.3981 68.3158 98.0596 68.6462 97.637 68.8184L95.3728 63.262C94.3466 63.6802 93.5243 64.4826 93.0812 65.4982L98.5806 67.8976ZM90.6674 70.7051C92.699 73.1117 96.5509 72.5497 97.8103 69.6631L92.3109 67.2637C92.8295 66.0752 94.4156 65.8437 95.2521 66.8347L90.6674 70.7051ZM90.5922 69.8461C90.1381 69.8018 89.7192 69.5819 89.4249 69.2333L94.0096 65.3628C93.2948 64.5161 92.2775 63.982 91.1747 63.8745L90.5922 69.8461ZM85.4768 63.1878C83.8158 65.8637 85.5406 69.3533 88.6751 69.6591L89.2576 63.6875C90.5482 63.8134 91.2585 65.2503 90.5745 66.3521L85.4768 63.1878ZM86.2705 62.8508C86.1723 62.4052 86.252 61.939 86.4926 61.5513L91.5904 64.7155C92.1748 63.774 92.3683 62.6416 92.1299 61.5595L86.2705 62.8508ZM91.7153 59.6784C91.9944 60.9448 90.8473 62.0643 89.588 61.7543L91.0221 55.9282C87.964 55.1755 85.1781 57.8941 85.8559 60.9697L91.7153 59.6784Z" fill="#9AACE1" mask="url(#path-2-inside-1)"/>
</svg>
