<svg width="96" height="96" viewBox="0 0 96 96" fill="none" xmlns="http://www.w3.org/2000/svg">
<circle cx="48" cy="48" r="48" fill="#F9FCFF"/>
<mask id="path-2-inside-1" fill="white">
<path d="M26.2075 28.2499C26.4034 28.2557 26.5798 28.3511 26.6677 28.5205C26.6803 28.5449 26.6907 28.57 26.6989 28.5956C27.2166 29.0743 27.5102 29.7913 27.4298 30.557C27.296 31.8315 26.1767 32.7585 24.9298 32.6276C23.6829 32.4967 22.7806 31.3574 22.9144 30.0829C23.0482 28.8084 24.1675 27.8814 25.4144 28.0123C25.6995 28.0423 25.9667 28.1249 26.2075 28.2499Z"/>
<path d="M54.5124 61.7392C61.3389 60.757 66.094 54.5466 65.1331 47.8677C64.1722 41.1889 57.8592 36.5708 51.0327 37.553C44.2061 38.5351 39.4511 44.7456 40.4119 51.4244C41.3728 58.1032 47.6858 62.7213 54.5124 61.7392Z"/>
<path d="M32.477 68.5645C35.0668 67.1206 36.021 63.8961 34.6083 61.3624C33.1957 58.8286 29.951 57.9452 27.3613 59.3891C24.7715 60.833 23.8173 64.0576 25.23 66.5913C26.6427 69.125 29.8873 70.0084 32.477 68.5645Z"/>
<path d="M34.1321 51.7251C35.3224 49.6634 34.6522 47.0479 32.635 45.8833C30.6179 44.7187 28.0177 45.446 26.8274 47.5078C25.6371 49.5695 26.3073 52.185 28.3244 53.3496C30.3415 54.5141 32.9417 53.7869 34.1321 51.7251Z"/>
<path d="M22.4806 41.7561C22.6721 39.9323 21.3809 38.3019 19.5965 38.1145C17.8121 37.9272 16.2103 39.2538 16.0188 41.0777C15.8273 42.9015 17.1186 44.5319 18.903 44.7193C20.6874 44.9066 22.2892 43.58 22.4806 41.7561Z"/>
<path d="M50.4091 69.441L47.98 67.1656C47.4392 66.659 46.5545 66.896 46.3394 67.6052L45.3734 70.7903C45.2978 71.0398 45.1277 71.2499 44.8993 71.3758L41.9847 72.9829C41.3357 73.3407 41.2878 74.2553 41.8958 74.679L44.6265 76.5819C44.8404 76.731 44.9876 76.9577 45.0368 77.2138L45.6646 80.4824C45.8043 81.2101 46.6594 81.5384 47.2502 81.0911L49.9039 79.0821C50.1117 78.9247 50.3728 78.8547 50.6316 78.8871L53.9342 79.3001C54.6695 79.3921 55.2459 78.6803 55.0031 77.9802L53.9124 74.8356C53.827 74.5892 53.8411 74.3193 53.9518 74.0832L55.3652 71.0699C55.6799 70.399 55.1811 69.6308 54.4402 69.6454L51.1125 69.711C50.8518 69.7161 50.5994 69.6192 50.4091 69.441Z"/>
<path d="M79.186 59.6634L79.1168 58.1239C79.0836 57.3836 78.2848 56.9354 77.6356 57.2927L76.2856 58.0358C76.0572 58.1615 75.7887 58.193 75.5374 58.1237L74.052 57.7137C73.3376 57.5166 72.6645 58.1377 72.8037 58.8656L73.0933 60.3791C73.1422 60.6352 73.0893 60.9003 72.9456 61.1179L72.0967 62.4039C71.6885 63.0224 72.0712 63.8545 72.8065 63.947L74.3354 64.1394C74.5941 64.1719 74.8298 64.3042 74.9924 64.508L75.9531 65.7128C76.4152 66.2922 77.3248 66.1853 77.64 65.5147L78.2954 64.12C78.4063 63.8841 78.605 63.7007 78.8491 63.6091L80.2918 63.0677C80.9856 62.8073 81.1651 61.9091 80.6246 61.4021L79.5008 60.3478C79.3106 60.1694 79.1977 59.9238 79.186 59.6634Z"/>
<path d="M71.3605 49.7642L71.0289 48.2594C70.8694 47.5357 71.5249 46.896 72.2445 47.0731L73.7408 47.4414C73.9939 47.5038 74.2614 47.4647 74.4862 47.3327L75.815 46.5522C76.4539 46.1769 77.2649 46.6027 77.3188 47.3418L77.4309 48.8787C77.4498 49.1387 77.5696 49.381 77.7647 49.554L78.9175 50.5766C79.4719 51.0683 79.3176 51.9711 78.6313 52.2507L77.2043 52.8323C76.9629 52.9307 76.7694 53.1195 76.6651 53.3584L76.0489 54.7708C75.7526 55.45 74.8462 55.5823 74.3682 55.016L73.3742 53.8385C73.206 53.6393 72.9666 53.5136 72.7071 53.4883L71.1734 53.3387C70.4359 53.2668 70.0301 52.4457 70.4209 51.8161L71.2336 50.5068C71.3711 50.2853 71.4166 50.0188 71.3605 49.7642Z"/>
</mask>
<path d="M25.8532 28.3374L25.136 27.0199L25.136 27.0199L25.8532 28.3374ZM26.2075 28.2499L26.8984 26.9185L26.5943 26.7607L26.2517 26.7506L26.2075 28.2499ZM26.6989 28.5956L28.1276 28.1386L28.0073 27.7625L27.7173 27.4943L26.6989 28.5956ZM26.3598 29.3147L27.0769 30.6321L27.0769 30.6321L26.3598 29.3147ZM19.9588 38.8408L18.6271 39.5311L18.6271 39.5311L19.9588 38.8408ZM26.5703 29.6548C26.4578 29.7161 26.3187 29.7539 26.1634 29.7493L26.2517 26.7506C25.8642 26.7392 25.4792 26.8331 25.136 27.0199L26.5703 29.6548ZM25.2702 29.0525C25.1812 28.7745 25.2292 28.526 25.3063 28.3606C25.3842 28.1935 25.5064 28.0714 25.6426 27.9972L27.0769 30.6321C27.8623 30.2046 28.471 29.2124 28.1276 28.1386L25.2702 29.0525ZM25.6426 27.9972C25.7917 27.916 25.9935 27.8737 26.2178 27.9241C26.4479 27.9758 26.7188 28.1361 26.877 28.4412L24.2135 29.8218C24.8361 31.0228 26.2262 31.0952 27.0769 30.6321L25.6426 27.9972ZM26.877 28.4412C27.0329 28.7421 27.0058 29.041 26.9291 29.2388C26.8533 29.4343 26.7191 29.5739 26.5703 29.6548L25.136 27.0199C24.2945 27.478 23.6076 28.6528 24.2135 29.8218L26.877 28.4412ZM58.0171 41.8307C58.8882 42.7733 58.6807 43.7924 58.2415 44.1821L60.2325 46.4261C62.2408 44.6443 61.9273 41.6416 60.2203 39.7946L58.0171 41.8307ZM58.2415 44.1821C57.7753 44.5957 56.6671 44.6768 55.7889 43.7265L53.5856 45.7626C55.2854 47.6019 58.2512 48.1841 60.2325 46.4261L58.2415 44.1821ZM55.7889 43.7265C54.9177 42.7839 55.1253 41.7648 55.5645 41.3751L53.5735 39.1311C51.5652 40.9129 51.8787 43.9156 53.5856 45.7626L55.7889 43.7265ZM55.5645 41.3751C56.0306 40.9615 57.1388 40.8804 58.0171 41.8307L60.2203 39.7946C58.5205 37.9553 55.5548 37.3732 53.5735 39.1311L55.5645 41.3751ZM30.4445 60.7993C30.5001 60.8268 30.5001 60.851 30.4881 60.8219C30.4816 60.8062 30.4709 60.7717 30.4719 60.7199C30.4729 60.6656 30.4868 60.6045 30.5162 60.5479L33.1781 61.9315C33.9862 60.3768 33.0577 58.7445 31.7738 58.1099L30.4445 60.7993ZM30.5162 60.5479C30.5454 60.4918 30.5846 60.4502 30.6198 60.424C30.6532 60.3992 30.6769 60.3924 30.6822 60.391C30.6892 60.3893 30.6552 60.3976 30.5991 60.3699L29.2698 63.0593C30.5444 63.6892 32.3867 63.4542 33.1781 61.9315L30.5162 60.5479ZM30.5991 60.3699C30.5435 60.3424 30.5435 60.3182 30.5555 60.3473C30.562 60.363 30.5727 60.3975 30.5717 60.4493C30.5707 60.5036 30.5568 60.5647 30.5274 60.6213L27.8655 59.2377C27.0574 60.7924 27.9858 62.4247 29.2698 63.0593L30.5991 60.3699ZM30.5274 60.6213C30.4982 60.6774 30.459 60.719 30.4238 60.7452C30.3904 60.77 30.3667 60.7768 30.3614 60.7782C30.3544 60.7799 30.3884 60.7716 30.4445 60.7993L31.7738 58.1099C30.4992 57.48 28.6569 57.715 27.8655 59.2377L30.5274 60.6213ZM31.5566 47.5048C31.5382 47.5063 31.4763 47.5047 31.3959 47.4448C31.3107 47.3813 31.1965 47.2377 31.1839 47.0248L34.1786 46.8471C34.0831 45.2364 32.5856 44.4133 31.3183 44.5143L31.5566 47.5048ZM31.1839 47.0248C31.1715 46.8166 31.2638 46.6773 31.3205 46.621C31.3755 46.5664 31.4214 46.5571 31.4394 46.5557L31.6777 49.5462C32.9345 49.4461 34.272 48.4219 34.1786 46.8471L31.1839 47.0248ZM31.4394 46.5557C31.4577 46.5542 31.5196 46.5558 31.6001 46.6157C31.6853 46.6791 31.7994 46.8228 31.812 47.0357L28.8173 47.2134C28.9128 48.824 30.4104 49.6472 31.6777 49.5462L31.4394 46.5557ZM31.812 47.0357C31.8244 47.2439 31.7321 47.3832 31.6754 47.4395C31.6204 47.4941 31.5745 47.5034 31.5566 47.5048L31.3183 44.5143C30.0615 44.6144 28.7239 45.6386 28.8173 47.2134L31.812 47.0357ZM19.5104 39.8962C19.4281 39.941 19.2989 39.974 19.1382 39.9379C18.9716 39.9004 18.7551 39.7781 18.6271 39.5311L21.2905 38.1505C20.6076 36.8332 19.0604 36.7254 18.076 37.2613L19.5104 39.8962ZM18.6271 39.5311C18.5013 39.2884 18.5287 39.0569 18.5813 38.9211C18.6331 38.7875 18.7191 38.7044 18.801 38.6598L20.2353 41.2947C21.2104 40.7639 21.9568 39.4359 21.2905 38.1505L18.6271 39.5311ZM18.801 38.6598C18.8833 38.615 19.0124 38.582 19.1732 38.6181C19.3398 38.6556 19.5563 38.7779 19.6843 39.0249L17.0209 40.4055C17.7037 41.7229 19.251 41.8306 20.2353 41.2947L18.801 38.6598ZM19.6843 39.0249C19.8101 39.2676 19.7827 39.4991 19.73 39.6349C19.6783 39.7685 19.5923 39.8516 19.5104 39.8962L18.076 37.2613C17.1009 37.7921 16.3546 39.1201 17.0209 40.4055L19.6843 39.0249ZM25.5167 29.5813C25.575 29.6116 25.6301 29.6503 25.6804 29.6968L27.7173 27.4943C27.4738 27.2692 27.1991 27.0745 26.8984 26.9185L25.5167 29.5813ZM26.2075 28.2499L24.8258 30.9128L25.4341 31.2284L26.1192 31.2486L26.2075 28.2499ZM26.6677 28.5205L24.0042 29.9011L24.0042 29.9011L26.6677 28.5205ZM26.6989 28.5956L23.8415 29.5095L24.0821 30.2618L24.662 30.7981L26.6989 28.5956ZM32.477 68.5645L33.938 71.1848L33.938 71.1848L32.477 68.5645ZM27.3613 59.3891L25.9003 56.7689L25.9003 56.7689L27.3613 59.3891ZM19.5965 38.1145L19.2832 41.0981L19.5965 38.1145ZM18.903 44.7193L18.5897 47.7029L18.903 44.7193ZM16.0188 41.0777L13.0352 40.7644L16.0188 41.0777ZM25.4144 28.0123L25.7276 25.0287L25.4144 28.0123ZM27.4298 30.557L30.4134 30.8703L30.4134 30.8703L27.4298 30.557ZM22.9144 30.0829L19.9308 29.7697L22.9144 30.0829ZM47.98 67.1656L50.0309 64.9761L50.0309 64.9761L47.98 67.1656ZM50.4091 69.441L48.3582 71.6304L48.3582 71.6305L50.4091 69.441ZM51.1125 69.711L51.1715 72.7104L51.1716 72.7104L51.1125 69.711ZM54.4402 69.6454L54.3811 66.646L54.3811 66.646L54.4402 69.6454ZM55.3652 71.0699L58.0813 72.3438L58.0813 72.3438L55.3652 71.0699ZM53.9518 74.0832L56.6679 75.3572L56.6679 75.3572L53.9518 74.0832ZM53.9124 74.8356L56.7468 73.8525L56.7468 73.8525L53.9124 74.8356ZM55.0031 77.9802L52.1687 78.9632L52.1687 78.9632L55.0031 77.9802ZM53.9342 79.3001L54.3065 76.3233L54.3065 76.3233L53.9342 79.3001ZM50.6316 78.8871L50.2593 81.8639L50.2593 81.8639L50.6316 78.8871ZM49.9039 79.0821L48.0931 76.6902L48.093 76.6902L49.9039 79.0821ZM47.2502 81.0911L45.4394 78.6992L45.4394 78.6992L47.2502 81.0911ZM45.6646 80.4824L48.6107 79.9166L48.6107 79.9166L45.6646 80.4824ZM45.0368 77.2138L47.983 76.648L47.983 76.6479L45.0368 77.2138ZM44.6265 76.5819L42.9113 79.0433L42.9113 79.0433L44.6265 76.5819ZM41.8958 74.679L43.611 72.2177L43.611 72.2177L41.8958 74.679ZM41.9847 72.9829L40.5361 70.3557L40.5361 70.3557L41.9847 72.9829ZM44.8993 71.3758L46.3479 74.0029L46.3479 74.0029L44.8993 71.3758ZM45.3734 70.7903L48.2443 71.661L48.2443 71.661L45.3734 70.7903ZM46.3394 67.6052L43.4685 66.7345L43.4685 66.7345L46.3394 67.6052ZM79.1168 58.1239L82.1138 57.9893L82.1138 57.9893L79.1168 58.1239ZM79.186 59.6634L82.1829 59.5288L82.1829 59.5288L79.186 59.6634ZM79.5008 60.3478L77.4482 62.5357L77.4482 62.5357L79.5008 60.3478ZM80.6246 61.4021L82.6772 59.2142L82.6772 59.2142L80.6246 61.4021ZM80.2918 63.0677L81.3459 65.8764L81.3459 65.8764L80.2918 63.0677ZM78.8491 63.6091L77.795 60.8004L77.795 60.8004L78.8491 63.6091ZM78.2954 64.12L81.0106 65.396L81.0106 65.396L78.2954 64.12ZM77.64 65.5147L74.9249 64.2387L74.9249 64.2387L77.64 65.5147ZM75.9531 65.7128L73.6077 67.5833L73.6077 67.5833L75.9531 65.7128ZM74.9924 64.508L72.6469 66.3785L72.6469 66.3785L74.9924 64.508ZM74.3354 64.1394L73.9609 67.1159L73.9609 67.1159L74.3354 64.1394ZM72.8065 63.947L73.181 60.9705L73.181 60.9705L72.8065 63.947ZM72.0967 62.4039L69.593 60.7512L69.593 60.7512L72.0967 62.4039ZM72.9456 61.1179L75.4494 62.7706L75.4494 62.7706L72.9456 61.1179ZM73.0933 60.3791L70.1467 60.9427L70.1467 60.9427L73.0933 60.3791ZM72.8037 58.8656L75.7503 58.302L75.7503 58.3019L72.8037 58.8656ZM74.052 57.7137L74.8501 54.8218L74.8501 54.8218L74.052 57.7137ZM75.5374 58.1237L76.3355 55.2318L76.3355 55.2318L75.5374 58.1237ZM76.2856 58.0358L74.8391 55.4076L74.8391 55.4076L76.2856 58.0358ZM77.6356 57.2927L76.1891 54.6645L76.1891 54.6645L77.6356 57.2927ZM71.0289 48.2594L73.9586 47.6137L73.9586 47.6137L71.0289 48.2594ZM71.3605 49.7642L74.2902 49.1185L71.3605 49.7642ZM71.2336 50.5068L68.6847 48.9247L68.6847 48.9247L71.2336 50.5068ZM70.4209 51.8161L67.872 50.2339L67.872 50.2339L70.4209 51.8161ZM71.1734 53.3387L71.4647 50.3529L71.4647 50.3529L71.1734 53.3387ZM72.7071 53.4883L72.4159 56.4742L72.4159 56.4742L72.7071 53.4883ZM73.3742 53.8385L75.6665 51.9033L75.6665 51.9033L73.3742 53.8385ZM74.3682 55.016L76.6606 53.0808L76.6606 53.0808L74.3682 55.016ZM76.0489 54.7708L73.2992 53.5712L73.2992 53.5712L76.0489 54.7708ZM76.6651 53.3584L79.4148 54.5581L79.4148 54.5581L76.6651 53.3584ZM77.2043 52.8323L76.0722 50.0541L76.0722 50.0541L77.2043 52.8323ZM78.6313 52.2507L77.4992 49.4726L77.4992 49.4726L78.6313 52.2507ZM78.9175 50.5766L80.9082 48.3322L80.9082 48.3322L78.9175 50.5766ZM77.7647 49.554L75.774 51.7984L75.774 51.7984L77.7647 49.554ZM77.4309 48.8787L74.4388 49.0969L74.4388 49.0969L77.4309 48.8787ZM77.3188 47.3418L80.3108 47.1236L80.3108 47.1235L77.3188 47.3418ZM75.815 46.5522L77.3344 49.139L77.3344 49.139L75.815 46.5522ZM74.4862 47.3327L72.9669 44.7459L72.9668 44.7459L74.4862 47.3327ZM73.7408 47.4414L73.0237 50.3545L73.0237 50.3545L73.7408 47.4414ZM72.2445 47.0731L72.9615 44.1601L72.9615 44.1601L72.2445 47.0731ZM26.1192 31.2486C25.4147 31.2279 24.4985 30.8546 24.0042 29.9011L29.3311 27.1399C28.6612 25.8475 27.3921 25.2835 26.2959 25.2512L26.1192 31.2486ZM24.0042 29.9011C23.9384 29.7742 23.8842 29.643 23.8415 29.5095L29.5563 27.6817C29.4972 27.497 29.4222 27.3156 29.3311 27.1399L24.0042 29.9011ZM62.1637 48.295C62.8799 53.2729 59.3333 58.0147 54.0852 58.7697L54.9396 64.7086C63.3445 63.4994 69.3081 55.8202 68.1025 47.4405L62.1637 48.295ZM54.0852 58.7697C48.837 59.5248 44.0976 55.9752 43.3814 50.9972L37.4425 51.8516C38.6481 60.2313 46.5346 65.9178 54.9396 64.7086L54.0852 58.7697ZM43.3814 50.9972C42.6652 46.0193 46.2117 41.2775 51.4599 40.5224L50.6054 34.5836C42.2005 35.7928 36.2369 43.4719 37.4425 51.8516L43.3814 50.9972ZM51.4599 40.5224C56.7081 39.7674 61.4475 43.317 62.1637 48.295L68.1025 47.4405C66.8969 39.0608 59.0104 33.3743 50.6054 34.5836L51.4599 40.5224ZM31.9881 62.8233C32.564 63.8561 32.2131 65.2769 31.0161 65.9443L33.938 71.1848C37.9205 68.9643 39.4781 63.936 37.2286 59.9014L31.9881 62.8233ZM31.0161 65.9443C29.8191 66.6117 28.4261 66.1632 27.8502 65.1304L22.6097 68.0522C24.8592 72.0868 29.9554 73.4052 33.938 71.1848L31.0161 65.9443ZM27.8502 65.1304C27.2744 64.0975 27.6252 62.6767 28.8222 62.0094L25.9003 56.7689C21.9178 58.9893 20.3602 64.0176 22.6097 68.0522L27.8502 65.1304ZM28.8222 62.0094C30.0192 61.342 31.4122 61.7904 31.9881 62.8233L37.2286 59.9014C34.9791 55.8668 29.8829 54.5484 25.9003 56.7689L28.8222 62.0094ZM31.135 48.4814C31.664 48.7868 31.927 49.5444 31.534 50.2251L36.7301 53.2251C38.7178 49.7824 37.6403 45.309 34.135 43.2853L31.135 48.4814ZM31.534 50.2251C31.1409 50.9059 30.3534 51.0569 29.8244 50.7515L26.8244 55.9476C30.3297 57.9714 34.7425 56.6679 36.7301 53.2251L31.534 50.2251ZM29.8244 50.7515C29.2955 50.4461 29.0325 49.6885 29.4255 49.0078L24.2293 46.0078C22.2417 49.4505 23.3191 53.9238 26.8244 55.9476L29.8244 50.7515ZM29.4255 49.0078C29.8185 48.327 30.6061 48.176 31.135 48.4814L34.135 43.2853C30.6297 41.2615 26.217 42.565 24.2293 46.0078L29.4255 49.0078ZM19.2832 41.0981C19.3306 41.1031 19.3799 41.1238 19.4278 41.1842C19.4766 41.2459 19.5086 41.3328 19.497 41.4429L25.4642 42.0694C25.8223 38.6596 23.4031 35.4977 19.9097 35.1309L19.2832 41.0981ZM19.497 41.4429C19.4855 41.5529 19.4361 41.6313 19.3756 41.6815C19.3162 41.7306 19.2637 41.7407 19.2163 41.7357L18.5897 47.7029C22.0831 48.0697 25.1062 45.4792 25.4642 42.0694L19.497 41.4429ZM19.2163 41.7357C19.1689 41.7307 19.1195 41.7099 19.0717 41.6496C19.0229 41.5879 18.9909 41.501 19.0024 41.3909L13.0352 40.7644C12.6772 44.1742 15.0964 47.3361 18.5897 47.7029L19.2163 41.7357ZM19.0024 41.3909C19.014 41.2809 19.0633 41.2025 19.1239 41.1523C19.1832 41.1032 19.2358 41.0931 19.2832 41.0981L19.9097 35.1309C16.4164 34.7641 13.3932 37.3546 13.0352 40.7644L19.0024 41.3909ZM25.1011 30.9959C25.0063 30.986 24.9117 30.9573 24.8258 30.9128L27.5893 25.5871C27.0217 25.2926 26.3928 25.0986 25.7276 25.0287L25.1011 30.9959ZM24.662 30.7981C24.503 30.6511 24.4253 30.4431 24.4462 30.2438L30.4134 30.8703C30.5951 29.1395 29.9301 27.4976 28.7357 26.393L24.662 30.7981ZM24.4462 30.2438C24.4789 29.9323 24.781 29.5955 25.2431 29.644L24.6165 35.6112C27.5724 35.9216 30.1131 33.7307 30.4134 30.8703L24.4462 30.2438ZM25.2431 29.644C25.7052 29.6925 25.9307 30.0847 25.898 30.3962L19.9308 29.7697C19.6305 32.6301 21.6606 35.3009 24.6165 35.6112L25.2431 29.644ZM25.898 30.3962C25.8653 30.7076 25.5632 31.0444 25.1011 30.9959L25.7276 25.0287C22.7717 24.7184 20.2311 26.9093 19.9308 29.7697L25.898 30.3962ZM45.9291 69.355L48.3582 71.6304L52.46 67.2515L50.0309 64.9761L45.9291 69.355ZM51.1716 72.7104L54.4993 72.6448L54.3811 66.646L51.0534 66.7116L51.1716 72.7104ZM52.6492 69.7959L51.2358 72.8093L56.6679 75.3572L58.0813 72.3438L52.6492 69.7959ZM51.0781 75.8186L52.1687 78.9632L57.8374 76.9971L56.7468 73.8525L51.0781 75.8186ZM54.3065 76.3233L51.0039 75.9103L50.2593 81.8639L53.5619 82.2769L54.3065 76.3233ZM48.093 76.6902L45.4394 78.6992L49.061 83.4829L51.7147 81.4739L48.093 76.6902ZM48.6107 79.9166L47.983 76.648L42.0906 77.7796L42.7184 81.0482L48.6107 79.9166ZM46.3417 74.1206L43.611 72.2177L40.1806 77.1403L42.9113 79.0433L46.3417 74.1206ZM43.4332 75.61L46.3479 74.0029L43.4508 68.7487L40.5361 70.3557L43.4332 75.61ZM48.2443 71.661L49.2103 68.4759L43.4685 66.7345L42.5026 69.9196L48.2443 71.661ZM46.3479 74.0029C47.2612 73.4993 47.9416 72.659 48.2443 71.661L42.5026 69.9196C42.6539 69.4206 42.9942 69.0004 43.4508 68.7487L46.3479 74.0029ZM43.611 72.2177C44.8269 73.065 44.7311 74.8944 43.4332 75.61L40.5361 70.3557C37.9404 71.787 37.7487 75.4456 40.1806 77.1403L43.611 72.2177ZM47.983 76.6479C47.7863 75.6238 47.1974 74.7169 46.3417 74.1206L42.9113 79.0433C42.4834 78.7451 42.189 78.2917 42.0907 77.7796L47.983 76.6479ZM45.4394 78.6992C46.621 77.8046 48.3312 78.4611 48.6107 79.9166L42.7184 81.0482C43.2774 83.9592 46.6978 85.2721 49.061 83.4829L45.4394 78.6992ZM51.0039 75.9103C49.969 75.7808 48.9245 76.0607 48.0931 76.6902L51.7147 81.4739C51.2989 81.7886 50.7767 81.9286 50.2593 81.8639L51.0039 75.9103ZM52.1687 78.9632C51.6831 77.563 52.8359 76.1394 54.3065 76.3233L53.5619 82.2769C56.5031 82.6448 58.8088 79.7976 57.8374 76.9971L52.1687 78.9632ZM51.2358 72.8093C50.7929 73.7535 50.7363 74.8333 51.0781 75.8186L56.7468 73.8525C56.9176 74.3452 56.8893 74.8851 56.6679 75.3572L51.2358 72.8093ZM54.4993 72.6448C53.0175 72.674 52.0198 71.1377 52.6492 69.7959L58.0813 72.3438C59.34 69.6602 57.3446 66.5876 54.3811 66.646L54.4993 72.6448ZM48.3582 71.6305C49.1194 72.3434 50.1288 72.7309 51.1715 72.7104L51.0534 66.7116C51.5747 66.7013 52.0795 66.895 52.46 67.2515L48.3582 71.6305ZM50.0309 64.9761C47.8676 62.9497 44.3288 63.898 43.4685 66.7345L49.2103 68.4759C48.7802 69.8941 47.0108 70.3683 45.9291 69.3551L50.0309 64.9761ZM76.1198 58.2585L76.189 59.798L82.1829 59.5288L82.1138 57.9893L76.1198 58.2585ZM77.4482 62.5357L78.5721 63.59L82.6772 59.2142L81.5533 58.1599L77.4482 62.5357ZM79.2377 60.2589L77.795 60.8004L79.9032 66.4178L81.3459 65.8764L79.2377 60.2589ZM75.5803 62.844L74.9249 64.2387L80.3551 66.7906L81.0106 65.396L75.5803 62.844ZM78.2986 63.8424L77.3379 62.6376L72.6469 66.3785L73.6077 67.5833L78.2986 63.8424ZM74.7099 61.1628L73.181 60.9705L72.4319 66.9235L73.9609 67.1159L74.7099 61.1628ZM74.6004 64.0566L75.4494 62.7706L70.4419 59.4652L69.593 60.7512L74.6004 64.0566ZM76.0398 59.8155L75.7503 58.302L69.8572 59.4292L70.1467 60.9427L76.0398 59.8155ZM73.2539 60.6056L74.7393 61.0156L76.3355 55.2318L74.8501 54.8218L73.2539 60.6056ZM77.7322 60.664L79.0822 59.9209L76.1891 54.6645L74.8391 55.4076L77.7322 60.664ZM74.7393 61.0156C75.7446 61.293 76.8186 61.1669 77.7322 60.664L74.8391 55.4076C75.2959 55.1561 75.8329 55.0931 76.3355 55.2318L74.7393 61.0156ZM75.7503 58.3019C76.0288 59.7576 74.6825 60.9999 73.2539 60.6056L74.8501 54.8218C71.9927 54.0333 69.3003 56.5178 69.8572 59.4292L75.7503 58.3019ZM75.4494 62.7706C76.0239 61.9002 76.2358 60.8398 76.0398 59.8155L70.1467 60.9427C70.0487 60.4306 70.1546 59.9004 70.4419 59.4652L75.4494 62.7706ZM73.181 60.9705C74.6515 61.1555 75.4169 62.8197 74.6004 64.0566L69.593 60.7512C67.9601 63.225 69.491 66.5535 72.432 66.9235L73.181 60.9705ZM77.3379 62.6376C76.6876 61.8222 75.7446 61.293 74.7099 61.1628L73.9609 67.1159C73.4435 67.0508 72.972 66.7862 72.6469 66.3785L77.3379 62.6376ZM74.9249 64.2387C75.5553 62.8974 77.3746 62.6836 78.2986 63.8424L73.6077 67.5833C75.4558 69.9008 79.0944 69.4733 80.3551 66.7906L74.9249 64.2387ZM77.795 60.8004C76.8186 61.1669 76.0239 61.9002 75.5803 62.8441L81.0106 65.396C80.7888 65.8679 80.3914 66.2346 79.9032 66.4178L77.795 60.8004ZM78.5721 63.59C77.4912 62.5761 77.8501 60.7797 79.2377 60.259L81.3459 65.8764C84.1211 64.8348 84.8389 61.2422 82.6772 59.2142L78.5721 63.59ZM76.189 59.7979C76.2358 60.8398 76.6876 61.8222 77.4482 62.5357L81.5533 58.1599C81.9336 58.5166 82.1595 59.0078 82.1829 59.5288L76.189 59.7979ZM82.1138 57.9893C81.9808 55.0282 78.7858 53.2352 76.1891 54.6645L79.0822 59.9209C77.7838 60.6356 76.1863 59.7391 76.1198 58.2585L82.1138 57.9893ZM68.0992 48.905L68.4308 50.4099L74.2902 49.1185L73.9586 47.6137L68.0992 48.905ZM68.6847 48.9247L67.872 50.2339L72.9698 53.3982L73.7825 52.089L68.6847 48.9247ZM70.8822 56.3246L72.4159 56.4742L72.9984 50.5025L71.4647 50.3529L70.8822 56.3246ZM71.0818 55.7738L72.0759 56.9512L76.6606 53.0808L75.6665 51.9033L71.0818 55.7738ZM78.7986 55.9705L79.4148 54.5581L73.9154 52.1588L73.2992 53.5712L78.7986 55.9705ZM78.3364 55.6105L79.7635 55.0289L77.4992 49.4726L76.0722 50.0541L78.3364 55.6105ZM80.9082 48.3322L79.7553 47.3097L75.774 51.7984L76.9268 52.8209L80.9082 48.3322ZM80.4229 48.6604L80.3108 47.1236L74.3267 47.56L74.4388 49.0969L80.4229 48.6604ZM74.2956 43.9655L72.9669 44.7459L76.0056 49.9195L77.3344 49.139L74.2956 43.9655ZM74.4578 44.5284L72.9615 44.1601L71.5274 49.9862L73.0237 50.3545L74.4578 44.5284ZM72.9668 44.7459C73.4165 44.4818 73.9515 44.4038 74.4578 44.5284L73.0237 50.3545C74.0364 50.6038 75.1064 50.4477 76.0056 49.9195L72.9668 44.7459ZM80.3108 47.1235C80.0952 44.1673 76.8514 42.4642 74.2956 43.9655L77.3344 49.139C76.0564 49.8896 74.4345 49.0381 74.3267 47.56L80.3108 47.1235ZM79.7553 47.3097C80.1455 47.6557 80.385 48.1404 80.4229 48.6604L74.4388 49.0969C74.5147 50.137 74.9938 51.1064 75.774 51.7984L79.7553 47.3097ZM79.7635 55.0289C82.5084 53.9103 83.1257 50.299 80.9082 48.3322L76.9268 52.8209C75.8181 51.8375 76.1267 50.0319 77.4992 49.4726L79.7635 55.0289ZM79.4148 54.5581C79.2063 55.0361 78.8193 55.4137 78.3364 55.6105L76.0722 50.0541C75.1064 50.4477 74.3325 51.2029 73.9154 52.1588L79.4148 54.5581ZM72.0759 56.9512C73.9879 59.2162 77.6132 58.6873 78.7986 55.9705L73.2992 53.5712C73.8919 52.2127 75.7045 51.9483 76.6606 53.0808L72.0759 56.9512ZM72.4159 56.4742C71.8969 56.4235 71.4182 56.1722 71.0818 55.7738L75.6665 51.9033C74.9938 51.1064 74.0364 50.6038 72.9984 50.5025L72.4159 56.4742ZM67.872 50.2339C66.3088 52.7523 67.932 56.0368 70.8822 56.3246L71.4647 50.3529C72.9398 50.4968 73.7514 52.139 72.9698 53.3982L67.872 50.2339ZM68.4308 50.4099C68.3186 49.9007 68.4097 49.3677 68.6847 48.9247L73.7825 52.089C74.3325 51.2028 74.5147 50.137 74.2902 49.1185L68.4308 50.4099ZM73.9586 47.6137C74.2775 49.061 72.9665 50.3404 71.5274 49.9862L72.9615 44.1601C70.0833 43.4516 67.4612 46.0103 68.0992 48.905L73.9586 47.6137Z" fill="#9AACE1" mask="url(#path-2-inside-1)"/>
</svg>
