<svg width="146" height="77" viewBox="0 0 146 77" fill="none" xmlns="http://www.w3.org/2000/svg">
<g filter="url(#filter0_f)">
<path d="M82.2449 56.3981C82.2449 56.3981 80.5968 56.9644 78.9486 57.4526C77.2505 57.9555 75.4294 58.286 75.4294 58.286L73.7013 55.0966C73.7013 55.0966 75.6167 54.2663 76.9531 53.3657C78.343 52.429 79.6 51.5164 79.6 51.5164L82.2449 56.3981Z" fill="#B2BFE5"/>
<path d="M82.2449 56.3981C82.2449 56.3981 80.5968 56.9644 78.9486 57.4526C77.2505 57.9555 75.4294 58.286 75.4294 58.286L73.7013 55.0966C73.7013 55.0966 75.6167 54.2663 76.9531 53.3657C78.343 52.429 79.6 51.5164 79.6 51.5164L82.2449 56.3981Z" fill="url(#paint0_linear)"/>
</g>
<path d="M35.9893 41.1L49.2288 40.4726L49.2253 40.4729L50.225 61.5723L36.9889 62.1994L35.9893 41.1Z" fill="#B2BFE5"/>
<path d="M15.6431 54.025L20.1443 50.3641L25.2623 53.3186L26.0247 63.7006L16.4055 64.4069L15.6431 54.025Z" fill="#B2BFE5"/>
<path d="M27.6537 50.0475L32.7222 45.1433L38.587 49.4014L39.3834 62.8779L28.4501 63.524L27.6537 50.0475Z" fill="#B2BFE5"/>
<path d="M42.7717 51.4822L50.7033 45.656L59.2659 50.5075L59.8969 61.1852L43.4027 62.1599L42.7717 51.4822Z" fill="#B2BFE5"/>
<path d="M72.0999 43.7061L70.2998 45.0561L70.2999 43.7061L70.2999 41.9061L72.0999 41.9061L72.0999 43.7061Z" fill="#B2BFE5"/>
<path d="M100.062 47.8597L98.2 48.743L98.2659 47.7415L98.3538 46.4061L100.15 46.5243L100.062 47.8597Z" fill="#B2BFE5"/>
<path d="M107.536 43.8831L123.316 44.5711L123.312 44.5711L122.53 62.5018L106.754 61.8139L107.536 43.8831Z" fill="#B2BFE5"/>
<path d="M111.7 44.0647L109.9 43.9862L109.951 42.8061L111.749 42.8854L111.7 44.0647Z" fill="#B2BFE5"/>
<path d="M45.1273 50.0059L43.3482 51.3832L43.3275 50.0334L43.3001 48.2336L45.0999 48.2061L45.1273 50.0059Z" fill="#B2BFE5"/>
<path d="M57.0122 31.4663L69.0491 30.8958L69.046 30.8961L70.467 60.8896L58.4333 61.4598L57.0122 31.4663Z" fill="#B2BFE5"/>
<path d="M86.6842 26.6064L98.3783 26.977L98.3752 26.9772L97.2912 61.1597L85.6002 60.789L86.6842 26.6064Z" fill="#B2BFE5"/>
<path d="M128.656 52.8692L135.236 53.388L135.236 53.3855L134.479 63.0236L127.9 62.5073L128.656 52.8692Z" fill="#B2BFE5"/>
<path d="M68.4999 46.4003L76.5653 39.2062L85.5893 45.4465L85.5892 60.8062L68.5667 60.7122L68.4999 46.4003Z" fill="#B2BFE5"/>
<path d="M85.588 49.0607L90.9999 53.1148L90.9886 60.8062H85.5892L85.588 49.0607Z" fill="#B2BFE5"/>
<path d="M95.9816 49.9489L104.476 44.9781L112.488 50.6928L112.006 61.3782L95.5001 60.6344L95.9816 49.9489Z" fill="#B2BFE5"/>
<path d="M145 64.4061C145 64.4061 123.897 60.7287 80.2 60.8069C37.5545 60.8832 1 66.2061 1 66.2061" stroke="#B2BFE5"/>
<path d="M83.6774 62.4944C121.981 62.4138 139.055 68.0633 139.055 68.0633C139.055 68.0633 119.114 64.1866 96.9805 66.5163C79.6007 68.3456 68.7117 70.1308 55.4881 72.2989L54.9056 72.3944C36.0337 75.4881 13.14 78.2724 14.6869 72.3943C16.2338 66.5163 46.296 62.5731 83.6774 62.4944Z" fill="#B2BFE5" stroke="#B2BFE5"/>
<path d="M12.6998 60.0501L13.8443 59.9063L14.3738 64.1189L13.2293 64.2628L12.6998 60.0501Z" fill="#B2BFE5"/>
<circle cx="13.1499" cy="58.5562" r="2.25" fill="#B2BFE5"/>
<path d="M10.6965 61.4266L11.7115 61.299L12.1811 65.0351L11.1661 65.1627L10.6965 61.4266Z" fill="#B2BFE5"/>
<circle cx="11.0955" cy="60.1016" r="1.99549" fill="#B2BFE5"/>
<path d="M6.80713 59.9971L8.21047 59.8207L8.85974 64.9864L7.4564 65.1627L6.80713 59.9971Z" fill="#B2BFE5"/>
<circle cx="7.35899" cy="58.1651" r="2.75901" fill="#B2BFE5"/>
<path d="M138.499 59.4042L139.651 59.4597L139.447 63.7006L138.295 63.6451L138.499 59.4042Z" fill="#B2BFE5"/>
<circle cx="139.2" cy="58.0101" r="2.25" transform="rotate(9.92148 139.2 58.0101)" fill="#B2BFE5"/>
<path d="M135.542 59.2066L136.564 59.2299L136.479 62.9944L135.456 62.9712L135.542 59.2066Z" fill="#B2BFE5"/>
<circle cx="136.131" cy="57.9549" r="1.99549" transform="rotate(8.4667 136.131 57.9549)" fill="#B2BFE5"/>
<path d="M142.08 60.7872L142.853 60.8936L142.462 63.7405L141.688 63.6341L142.08 60.7872Z" fill="#B2BFE5"/>
<circle cx="142.636" cy="59.8893" r="1.52289" transform="rotate(15 142.636 59.8893)" fill="#B2BFE5"/>
<path d="M125.852 56.8452L127.265 56.8817L127.131 62.0863L125.717 62.0498L125.852 56.8452Z" fill="#B2BFE5"/>
<circle cx="126.673" cy="55.1171" r="2.75901" transform="rotate(8.64157 126.673 55.1171)" fill="#B2BFE5"/>
<path d="M86.1284 56.5392L87.2412 56.5679L87.1355 60.6639L86.0228 60.6352L86.1284 56.5392Z" fill="#B2BFE5"/>
<circle cx="86.774" cy="55.179" r="2.17131" transform="rotate(8.64157 86.774 55.179)" fill="#B2BFE5"/>
<path d="M89.5106 58.9636L90.0745 58.9854L90.0531 60.8529L89.4892 60.831L89.5106 58.9636Z" fill="#B2BFE5"/>
<ellipse cx="89.8274" cy="58.3484" rx="1.10251" ry="0.987817" transform="rotate(8.64157 89.8274 58.3484)" fill="#B2BFE5"/>
<path d="M85.8861 12.9829C85.0622 15.6344 80.4919 19.3465 78.8121 18.8245C77.1322 18.3025 75.4708 12.6538 76.2947 10.0024C77.1187 7.35092 79.9337 5.86871 82.5823 6.69177C85.2309 7.51483 86.7101 10.3315 85.8861 12.9829Z" fill="#B2BFE5"/>
<path d="M85.8861 12.9829C85.0622 15.6344 80.4919 19.3465 78.8121 18.8245C77.1322 18.3025 75.4708 12.6538 76.2947 10.0024C77.1187 7.35092 79.9337 5.86871 82.5823 6.69177C85.2309 7.51483 86.7101 10.3315 85.8861 12.9829Z" fill="#B2BFE5"/>
<path d="M79.0679 8.49481C77.976 9.37482 77.7013 10.8361 77.2813 10.3149C76.8612 9.79371 77.4058 8.6578 78.4976 7.77779C79.5895 6.89778 80.8151 6.60691 81.2352 7.12811C81.6553 7.64932 80.1597 7.6148 79.0679 8.49481Z" fill="#B2BFE5"/>
<path d="M78.9258 18.8168C78.9258 18.8168 78.2053 19.3764 78.0778 20.2691C77.9297 21.3067 78.1227 21.9268 78.0628 22.9732C78.0123 23.8543 77.3249 24.837 77.3249 24.837" stroke="#B2BFE5" stroke-width="1.4"/>
<path d="M78.3381 18.6843C78.647 18.482 79.059 18.69 79.0798 19.0586L79.1155 19.6934C79.1203 19.7799 79.0297 19.8392 78.9524 19.8002V19.8002C78.9434 19.7957 78.9351 19.79 78.9277 19.7833L78.6836 19.5632C78.5397 19.4335 78.3553 19.3579 78.1618 19.3492L77.9086 19.3379C77.8663 19.336 77.8262 19.3186 77.7959 19.289V19.289C77.7175 19.2121 77.7302 19.0824 77.8221 19.0222L78.3381 18.6843Z" fill="#B2BFE5"/>
<path d="M70.3757 10.3162C71.4386 12.8812 70.3006 18.6581 68.6755 19.3315C67.0504 20.0049 62.1599 16.7262 61.0969 14.1612C60.034 11.5962 61.2495 8.65609 63.8117 7.59432C66.374 6.53255 69.3128 7.75117 70.3757 10.3162Z" fill="#B2BFE5"/>
<path d="M70.3757 10.3162C71.4386 12.8812 70.3006 18.6581 68.6755 19.3315C67.0504 20.0049 62.1599 16.7262 61.0969 14.1612C60.034 11.5962 61.2495 8.65609 63.8117 7.59432C66.374 6.53255 69.3128 7.75117 70.3757 10.3162Z" fill="#B2BFE5"/>
<path d="M62.2637 11.2286C61.9875 12.6034 62.7112 13.9023 62.0549 13.7704C61.3986 13.6386 61.0905 12.4171 61.3668 11.0422C61.643 9.66737 62.399 8.65972 63.0553 8.79158C63.7116 8.92345 62.54 9.85369 62.2637 11.2286Z" fill="#B2BFE5"/>
<path d="M68.7578 19.2529C68.7578 19.2529 68.5621 20.1439 69.0352 20.9116C69.5851 21.8039 70.1301 22.157 70.7535 22.9996C71.2783 23.7091 71.3787 24.9042 71.3787 24.9042" stroke="#B2BFE5" stroke-width="1.4"/>
<path d="M68.2211 19.5271C68.3291 19.174 68.7788 19.0703 69.0306 19.3403L69.4641 19.8054C69.5232 19.8688 69.4915 19.9723 69.4071 19.9918V19.9918C69.3973 19.9941 69.3873 19.995 69.3773 19.9946L69.0489 19.9816C68.8553 19.974 68.6652 20.0338 68.5109 20.151L68.3091 20.3042C68.2754 20.3299 68.2334 20.3421 68.1912 20.3387V20.3387C68.0817 20.3298 68.0085 20.222 68.0406 20.117L68.2211 19.5271Z" fill="#B2BFE5"/>
<path d="M78.8353 7.11458C79.1513 10.6276 75.5807 17.2002 73.355 17.4004C71.1293 17.6006 66.4432 11.7707 66.1272 8.25764C65.8112 4.74461 68.3999 1.64085 71.9091 1.3252C75.4184 1.00955 78.5193 3.60154 78.8353 7.11458Z" fill="#B2BFE5"/>
<path d="M78.8353 7.11458C79.1513 10.6276 75.5807 17.2002 73.355 17.4004C71.1293 17.6006 66.4432 11.7707 66.1272 8.25764C65.8112 4.74461 68.3999 1.64085 71.9091 1.3252C75.4184 1.00955 78.5193 3.60154 78.8353 7.11458Z" fill="#B2BFE5"/>
<path d="M73.4849 17.3364C73.4849 17.3364 72.88 18.7559 73.1625 19.8661C73.4909 21.1565 74.7283 21.3593 75.1646 22.6174C75.5319 23.6766 74.5195 25.1822 74.5195 25.1822" stroke="#B2BFE5" stroke-width="1.4"/>
<path d="M72.7873 17.3124C73.0521 16.9253 73.6367 16.9701 73.8395 17.393L74.1887 18.1213C74.2363 18.2205 74.1586 18.3341 74.0489 18.3257V18.3257C74.0362 18.3247 74.0237 18.3221 74.0118 18.3178L73.6185 18.1775C73.3867 18.0948 73.1335 18.0953 72.902 18.1788L72.5992 18.2881C72.5486 18.3064 72.4931 18.3053 72.4432 18.2852V18.2852C72.3138 18.2329 72.2659 18.0744 72.3447 17.9592L72.7873 17.3124Z" fill="#B2BFE5"/>
<path d="M68.6512 5.51241C67.7949 7.0746 68.1798 8.92387 67.434 8.51509C66.6883 8.10632 66.778 6.50853 67.6343 4.94634C68.4906 3.38414 69.7893 2.44911 70.5351 2.85788C71.2808 3.26665 69.5075 3.95021 68.6512 5.51241Z" fill="#B2BFE5"/>
<g filter="url(#filter1_f)">
<path d="M51.1434 40.9103C51.1434 40.9103 52.699 41.7179 54.2375 42.4673C55.8226 43.2393 57.4766 43.9117 57.4766 43.9117L58.2781 41.9402C58.2781 41.9402 56.4325 40.8735 55.0743 39.8897C53.6618 38.8666 52.37 37.8926 52.37 37.8926L51.1434 40.9103Z" fill="#B2BFE5"/>
<path d="M51.1434 40.9103C51.1434 40.9103 52.699 41.7179 54.2375 42.4673C55.8226 43.2393 57.4766 43.9117 57.4766 43.9117L58.2781 41.9402C58.2781 41.9402 56.4325 40.8735 55.0743 39.8897C53.6618 38.8666 52.37 37.8926 52.37 37.8926L51.1434 40.9103Z" fill="url(#paint1_linear)"/>
</g>
<path d="M34.3856 52.2461H33.2899C33.1884 52.2461 33.1083 52.2383 33.0497 52.2227C32.995 52.207 32.954 52.1797 32.9266 52.1406C32.9032 52.0977 32.8876 52.0391 32.8798 51.9648C32.8759 51.8867 32.8739 51.7891 32.8739 51.6719C32.8739 51.5547 32.8759 51.459 32.8798 51.3848C32.8876 51.3105 32.9032 51.252 32.9266 51.209C32.954 51.166 32.995 51.1367 33.0497 51.1211C33.1083 51.1055 33.1884 51.0977 33.2899 51.0977H35.2997H35.4345H37.579C37.6805 51.0977 37.7587 51.1055 37.8134 51.1211C37.872 51.1367 37.9149 51.166 37.9423 51.209C37.9696 51.252 37.9852 51.3105 37.9891 51.3848C37.997 51.459 38.0009 51.5547 38.0009 51.6719C38.0009 51.7891 37.997 51.8867 37.9891 51.9648C37.9852 52.0391 37.9696 52.0977 37.9423 52.1406C37.9149 52.1797 37.872 52.207 37.8134 52.2227C37.7587 52.2383 37.6805 52.2461 37.579 52.2461H36.4833L36.2489 60.6309C36.245 60.709 36.2333 60.7715 36.2137 60.8184C36.1981 60.8652 36.163 60.9023 36.1083 60.9297C36.0536 60.957 35.9716 60.9766 35.8622 60.9883C35.7567 60.9961 35.6141 61 35.4345 61C35.2548 61 35.1122 60.9961 35.0067 60.9883C34.9012 60.9805 34.8192 60.9629 34.7606 60.9355C34.7059 60.9082 34.6708 60.8691 34.6552 60.8184C34.6395 60.7637 34.6298 60.6914 34.6259 60.6016L34.3856 52.2461ZM40.3969 51.5957C40.4125 51.4863 40.4379 51.3965 40.473 51.3262C40.5121 51.2559 40.5805 51.2012 40.6781 51.1621C40.7797 51.123 40.9242 51.0977 41.1117 51.0859C41.2992 51.0703 41.5531 51.0625 41.8734 51.0625C42.1898 51.0625 42.4418 51.0703 42.6293 51.0859C42.8168 51.0977 42.9594 51.123 43.057 51.1621C43.1586 51.2012 43.227 51.2559 43.2621 51.3262C43.2973 51.3965 43.3246 51.4863 43.3441 51.5957L44.8969 60.543C44.9125 60.6484 44.9105 60.7324 44.891 60.7949C44.8754 60.8535 44.8363 60.8984 44.7738 60.9297C44.7152 60.9609 44.6332 60.9805 44.5277 60.9883C44.4223 60.9961 44.2934 61 44.141 61C43.9535 61 43.8031 60.9961 43.6898 60.9883C43.5805 60.9805 43.4945 60.9609 43.432 60.9297C43.3695 60.8984 43.3227 60.8535 43.2914 60.7949C43.2641 60.7324 43.2426 60.6484 43.227 60.543L42.9867 59.1426H40.7543L40.5141 60.543C40.4945 60.6484 40.4711 60.7324 40.4437 60.7949C40.4164 60.8535 40.3715 60.8984 40.309 60.9297C40.2465 60.9609 40.1586 60.9805 40.0453 60.9883C39.9359 60.9961 39.7875 61 39.6 61C39.4477 61 39.3187 60.9961 39.2133 60.9883C39.1117 60.9805 39.0297 60.9609 38.9672 60.9297C38.9047 60.8984 38.8637 60.8535 38.8441 60.7949C38.8246 60.7324 38.8246 60.6484 38.8441 60.543L40.3969 51.5957ZM42.7934 58.0293L41.8969 52.832H41.8441L40.9477 58.0293H42.7934ZM46.2499 51.584C46.246 51.4824 46.2558 51.4004 46.2792 51.3379C46.3027 51.2754 46.3515 51.2266 46.4257 51.1914C46.5038 51.1562 46.6132 51.1328 46.7538 51.1211C46.8945 51.1055 47.082 51.0977 47.3163 51.0977H47.4628H48.7987C49.2011 51.0977 49.5741 51.1348 49.9179 51.209C50.2655 51.2793 50.5663 51.3926 50.8202 51.5488C51.0741 51.7012 51.2714 51.8984 51.412 52.1406C51.5566 52.3789 51.623 52.668 51.6112 53.0078L51.5351 55.791C51.5312 55.9395 51.5077 56.0898 51.4648 56.2422C51.4257 56.3945 51.3632 56.541 51.2773 56.6816C51.1913 56.8184 51.08 56.9473 50.9433 57.0684C50.8105 57.1895 50.6464 57.2949 50.4511 57.3848L51.5468 60.168C51.6015 60.3086 51.6425 60.4238 51.6698 60.5137C51.7011 60.5996 51.7167 60.6738 51.7167 60.7363C51.7167 60.7832 51.7089 60.8242 51.6933 60.8594C51.6777 60.8906 51.6425 60.918 51.5878 60.9414C51.537 60.9609 51.4628 60.9766 51.3652 60.9883C51.2675 60.9961 51.1386 61 50.9784 61C50.8222 61 50.6952 60.9941 50.5976 60.9824C50.5038 60.9668 50.4257 60.9414 50.3632 60.9062C50.3007 60.8711 50.248 60.8242 50.205 60.7656C50.1659 60.7031 50.123 60.625 50.0761 60.5312L48.8515 57.6602H48.207L48.1249 60.6016C48.1249 60.6914 48.1152 60.7637 48.0956 60.8184C48.08 60.8691 48.0429 60.9082 47.9843 60.9355C47.9296 60.9629 47.8495 60.9805 47.7441 60.9883C47.6386 60.9961 47.496 61 47.3163 61C47.1366 61 46.9921 60.9961 46.8827 60.9883C46.7773 60.9805 46.6972 60.9629 46.6425 60.9355C46.5878 60.9082 46.5507 60.8691 46.5312 60.8184C46.5155 60.7637 46.5058 60.6914 46.5019 60.6016L46.2499 51.584ZM48.6757 56.7051C48.8632 56.7051 49.0195 56.6914 49.1445 56.6641C49.2695 56.6328 49.3671 56.584 49.4374 56.5176C49.5116 56.4512 49.5624 56.3633 49.5898 56.2539C49.621 56.1406 49.6347 56.002 49.6308 55.8379L49.5487 52.8203C49.5448 52.668 49.5292 52.5469 49.5019 52.457C49.4745 52.3633 49.4257 52.291 49.3554 52.2402C49.2851 52.1895 49.1894 52.1562 49.0683 52.1406C48.9511 52.1211 48.7987 52.1113 48.6112 52.1113H48.3652L48.2362 56.7051H48.6757ZM53.4096 51.584C53.4057 51.4824 53.4155 51.4004 53.4389 51.3379C53.4623 51.2754 53.5112 51.2266 53.5854 51.1914C53.6635 51.1562 53.7729 51.1328 53.9135 51.1211C54.0541 51.1055 54.2416 51.0977 54.476 51.0977C54.7065 51.0977 54.892 51.1055 55.0327 51.1211C55.1733 51.1328 55.2807 51.1562 55.3549 51.1914C55.433 51.2266 55.4838 51.2754 55.5073 51.3379C55.5346 51.4004 55.5463 51.4824 55.5424 51.584L55.2846 60.6016C55.2846 60.6914 55.2748 60.7637 55.2553 60.8184C55.2397 60.8691 55.2026 60.9082 55.144 60.9355C55.0893 60.9629 55.0092 60.9805 54.9037 60.9883C54.7983 60.9961 54.6557 61 54.476 61C54.2963 61 54.1518 60.9961 54.0424 60.9883C53.937 60.9805 53.8569 60.9629 53.8022 60.9355C53.7475 60.9082 53.7104 60.8691 53.6909 60.8184C53.6752 60.7637 53.6655 60.6914 53.6616 60.6016L53.4096 51.584ZM59.8486 56.7871L60.9209 51.625C60.9482 51.5117 60.9795 51.4219 61.0146 51.3555C61.0537 51.2852 61.1103 51.2305 61.1845 51.1914C61.2627 51.1523 61.3642 51.127 61.4892 51.1152C61.6181 51.1035 61.7861 51.0977 61.9931 51.0977C62.333 51.0977 62.5849 51.1191 62.749 51.1621C62.917 51.2012 63.0009 51.293 63.0009 51.4375C63.0009 51.4883 62.999 51.5332 62.9951 51.5723C62.9912 51.6113 62.9834 51.6504 62.9716 51.6895C62.9638 51.7285 62.9541 51.7695 62.9423 51.8125C62.9306 51.8516 62.917 51.8965 62.9013 51.9473L61.4658 56.7871L62.7959 60.168C62.8505 60.3086 62.8916 60.4238 62.9189 60.5137C62.9502 60.5996 62.9658 60.6738 62.9658 60.7363C62.9658 60.7832 62.958 60.8242 62.9423 60.8594C62.9267 60.8906 62.8916 60.918 62.8369 60.9414C62.7861 60.9609 62.7119 60.9766 62.6142 60.9883C62.5166 60.9961 62.3877 61 62.2275 61C62.0908 61 61.9795 60.9941 61.8935 60.9824C61.8115 60.9668 61.7431 60.9414 61.6884 60.9062C61.6377 60.8711 61.5927 60.8242 61.5537 60.7656C61.5185 60.7031 61.4814 60.625 61.4423 60.5312L59.8486 56.7871ZM57.4873 51.584C57.4834 51.4824 57.4931 51.4004 57.5166 51.3379C57.54 51.2754 57.5888 51.2266 57.663 51.1914C57.7412 51.1562 57.8505 51.1328 57.9912 51.1211C58.1318 51.1055 58.3193 51.0977 58.5537 51.0977C58.7841 51.0977 58.9697 51.1055 59.1103 51.1211C59.2509 51.1328 59.3584 51.1562 59.4326 51.1914C59.5107 51.2266 59.5615 51.2754 59.5849 51.3379C59.6123 51.4004 59.624 51.4824 59.6201 51.584L59.3623 60.6016C59.3623 60.6914 59.3525 60.7637 59.333 60.8184C59.3173 60.8691 59.2802 60.9082 59.2216 60.9355C59.167 60.9629 59.0869 60.9805 58.9814 60.9883C58.8759 60.9961 58.7334 61 58.5537 61C58.374 61 58.2295 60.9961 58.1201 60.9883C58.0146 60.9805 57.9345 60.9629 57.8798 60.9355C57.8252 60.9082 57.788 60.8691 57.7685 60.8184C57.7529 60.7637 57.7431 60.6914 57.7392 60.6016L57.4873 51.584ZM67.8223 51.584C67.8184 51.4824 67.8281 51.4004 67.8516 51.3379C67.875 51.2754 67.9238 51.2266 67.998 51.1914C68.0762 51.1562 68.1855 51.1328 68.3262 51.1211C68.4668 51.1055 68.6543 51.0977 68.8887 51.0977C69.1191 51.0977 69.3047 51.1055 69.4453 51.1211C69.5859 51.1328 69.6934 51.1562 69.7676 51.1914C69.8457 51.2266 69.8965 51.2754 69.9199 51.3379C69.9473 51.4004 69.959 51.4824 69.9551 51.584L69.7148 59.9102H71.2441C71.3457 59.9102 71.4238 59.9199 71.4785 59.9395C71.5371 59.9551 71.5781 59.9844 71.6016 60.0273C71.6289 60.0664 71.6445 60.1211 71.6484 60.1914C71.6562 60.2617 71.6602 60.3496 71.6602 60.4551C71.6602 60.5605 71.6562 60.6484 71.6484 60.7188C71.6445 60.7891 71.6289 60.8457 71.6016 60.8887C71.5781 60.9277 71.5371 60.957 71.4785 60.9766C71.4238 60.9922 71.3457 61 71.2441 61H68.8887C68.709 61 68.5645 60.9961 68.4551 60.9883C68.3496 60.9805 68.2695 60.9629 68.2148 60.9355C68.1602 60.9082 68.123 60.8691 68.1035 60.8184C68.0879 60.7637 68.0781 60.6914 68.0742 60.6016L67.8223 51.584ZM73.0777 53.002C73.0698 52.709 73.1187 52.4414 73.2241 52.1992C73.3296 51.957 73.4956 51.75 73.7222 51.5781C73.9527 51.4062 74.2476 51.2734 74.607 51.1797C74.9702 51.082 75.4058 51.0332 75.9136 51.0332C76.4175 51.0332 76.8491 51.082 77.2085 51.1797C77.5718 51.2734 77.8687 51.4062 78.0991 51.5781C78.3296 51.75 78.4976 51.957 78.603 52.1992C78.7085 52.4414 78.7573 52.709 78.7495 53.002L78.5796 59.2129C78.5718 59.4668 78.5171 59.707 78.4155 59.9336C78.314 60.1602 78.1558 60.3574 77.9409 60.5254C77.73 60.6934 77.4566 60.8262 77.1206 60.9238C76.7886 61.0215 76.3862 61.0703 75.9136 61.0703C75.4409 61.0703 75.0366 61.0215 74.7007 60.9238C74.3648 60.8262 74.0894 60.6934 73.8745 60.5254C73.6636 60.3574 73.5073 60.1602 73.4058 59.9336C73.3042 59.707 73.2495 59.4668 73.2417 59.2129L73.0777 53.002ZM74.9702 59.2656C74.9663 59.4297 74.98 59.5664 75.0112 59.6758C75.0464 59.7852 75.1011 59.873 75.1753 59.9395C75.2534 60.002 75.353 60.0469 75.4741 60.0742C75.5952 60.1016 75.7417 60.1152 75.9136 60.1152C76.0855 60.1152 76.232 60.1016 76.353 60.0742C76.4741 60.0469 76.5718 60.002 76.646 59.9395C76.7241 59.873 76.7788 59.7852 76.8101 59.6758C76.8452 59.5664 76.8609 59.4297 76.857 59.2656L76.687 52.8203C76.6831 52.6484 76.6636 52.5117 76.6284 52.4102C76.5933 52.3086 76.5425 52.2305 76.4761 52.1758C76.4136 52.1211 76.3355 52.0859 76.2417 52.0703C76.148 52.0508 76.0386 52.041 75.9136 52.041C75.7886 52.041 75.6792 52.0508 75.5855 52.0703C75.4917 52.0859 75.4116 52.1211 75.3452 52.1758C75.2827 52.2305 75.2339 52.3086 75.1987 52.4102C75.1636 52.5117 75.1441 52.6484 75.1402 52.8203L74.9702 59.2656ZM80.5772 51.584C80.5733 51.4824 80.583 51.4004 80.6065 51.3379C80.6299 51.2754 80.6787 51.2266 80.753 51.1914C80.8311 51.1562 80.9405 51.1328 81.0811 51.1211C81.2256 51.1055 81.4131 51.0977 81.6436 51.0977C81.8741 51.0977 82.0596 51.1055 82.2002 51.1211C82.3409 51.1328 82.4483 51.1562 82.5225 51.1914C82.6006 51.2266 82.6514 51.2754 82.6748 51.3379C82.7022 51.4004 82.7139 51.4824 82.71 51.584L82.5108 59.2656C82.5069 59.4297 82.5205 59.5664 82.5518 59.6758C82.587 59.7852 82.6416 59.873 82.7159 59.9395C82.794 60.002 82.8936 60.0469 83.0147 60.0742C83.1358 60.1016 83.2823 60.1152 83.4541 60.1152C83.626 60.1152 83.7725 60.1016 83.8936 60.0742C84.0147 60.0469 84.1123 60.002 84.1866 59.9395C84.2647 59.873 84.3194 59.7852 84.3506 59.6758C84.3858 59.5664 84.4014 59.4297 84.3975 59.2656L84.1924 51.584C84.1885 51.4824 84.1983 51.4004 84.2217 51.3379C84.2452 51.2754 84.294 51.2266 84.3682 51.1914C84.4463 51.1562 84.5557 51.1328 84.6963 51.1211C84.837 51.1055 85.0245 51.0977 85.2588 51.0977C85.4893 51.0977 85.6748 51.1055 85.8155 51.1211C85.9561 51.1328 86.0635 51.1562 86.1377 51.1914C86.2159 51.2266 86.2666 51.2754 86.2901 51.3379C86.3174 51.4004 86.3291 51.4824 86.3252 51.584L86.1202 59.2129C86.1123 59.4668 86.0577 59.707 85.9561 59.9336C85.8545 60.1602 85.6963 60.3574 85.4815 60.5254C85.2705 60.6934 84.9971 60.8262 84.6612 60.9238C84.3291 61.0215 83.9268 61.0703 83.4541 61.0703C82.9815 61.0703 82.5772 61.0215 82.2412 60.9238C81.9053 60.8262 81.6299 60.6934 81.4151 60.5254C81.2041 60.3574 81.0479 60.1602 80.9463 59.9336C80.8448 59.707 80.792 59.4668 80.7881 59.2129L80.5772 51.584ZM89.1431 51.5957C89.1587 51.4863 89.1841 51.3965 89.2193 51.3262C89.2584 51.2559 89.3267 51.2012 89.4244 51.1621C89.5259 51.123 89.6705 51.0977 89.858 51.0859C90.0455 51.0703 90.2994 51.0625 90.6197 51.0625C90.9361 51.0625 91.188 51.0703 91.3755 51.0859C91.563 51.0977 91.7056 51.123 91.8033 51.1621C91.9048 51.2012 91.9732 51.2559 92.0084 51.3262C92.0435 51.3965 92.0709 51.4863 92.0904 51.5957L93.6431 60.543C93.6587 60.6484 93.6568 60.7324 93.6373 60.7949C93.6216 60.8535 93.5826 60.8984 93.5201 60.9297C93.4615 60.9609 93.3795 60.9805 93.274 60.9883C93.1685 60.9961 93.0396 61 92.8873 61C92.6998 61 92.5494 60.9961 92.4361 60.9883C92.3267 60.9805 92.2408 60.9609 92.1783 60.9297C92.1158 60.8984 92.0689 60.8535 92.0377 60.7949C92.0103 60.7324 91.9888 60.6484 91.9732 60.543L91.733 59.1426H89.5005L89.2603 60.543C89.2408 60.6484 89.2173 60.7324 89.19 60.7949C89.1627 60.8535 89.1177 60.8984 89.0552 60.9297C88.9927 60.9609 88.9048 60.9805 88.7916 60.9883C88.6822 60.9961 88.5337 61 88.3462 61C88.1939 61 88.065 60.9961 87.9595 60.9883C87.858 60.9805 87.7759 60.9609 87.7134 60.9297C87.6509 60.8984 87.6099 60.8535 87.5904 60.7949C87.5709 60.7324 87.5709 60.6484 87.5904 60.543L89.1431 51.5957ZM91.5396 58.0293L90.6431 52.832H90.5904L89.6939 58.0293H91.5396ZM96.0098 52.2461H94.9141C94.8126 52.2461 94.7325 52.2383 94.6739 52.2227C94.6192 52.207 94.5782 52.1797 94.5509 52.1406C94.5274 52.0977 94.5118 52.0391 94.504 51.9648C94.5001 51.8867 94.4981 51.7891 94.4981 51.6719C94.4981 51.5547 94.5001 51.459 94.504 51.3848C94.5118 51.3105 94.5274 51.252 94.5509 51.209C94.5782 51.166 94.6192 51.1367 94.6739 51.1211C94.7325 51.1055 94.8126 51.0977 94.9141 51.0977H96.9239H97.0587H99.2032C99.3048 51.0977 99.3829 51.1055 99.4376 51.1211C99.4962 51.1367 99.5391 51.166 99.5665 51.209C99.5938 51.252 99.6095 51.3105 99.6134 51.3848C99.6212 51.459 99.6251 51.5547 99.6251 51.6719C99.6251 51.7891 99.6212 51.8867 99.6134 51.9648C99.6095 52.0391 99.5938 52.0977 99.5665 52.1406C99.5391 52.1797 99.4962 52.207 99.4376 52.2227C99.3829 52.2383 99.3048 52.2461 99.2032 52.2461H98.1075L97.8731 60.6309C97.8692 60.709 97.8575 60.7715 97.838 60.8184C97.8223 60.8652 97.7872 60.9023 97.7325 60.9297C97.6778 60.957 97.5958 60.9766 97.4864 60.9883C97.3809 60.9961 97.2384 61 97.0587 61C96.879 61 96.7364 60.9961 96.6309 60.9883C96.5255 60.9805 96.4434 60.9629 96.3848 60.9355C96.3302 60.9082 96.295 60.8691 96.2794 60.8184C96.2637 60.7637 96.254 60.6914 96.2501 60.6016L96.0098 52.2461ZM102.021 51.5957C102.037 51.4863 102.062 51.3965 102.097 51.3262C102.136 51.2559 102.205 51.2012 102.302 51.1621C102.404 51.123 102.548 51.0977 102.736 51.0859C102.923 51.0703 103.177 51.0625 103.498 51.0625C103.814 51.0625 104.066 51.0703 104.254 51.0859C104.441 51.0977 104.584 51.123 104.681 51.1621C104.783 51.2012 104.851 51.2559 104.886 51.3262C104.921 51.3965 104.949 51.4863 104.968 51.5957L106.521 60.543C106.537 60.6484 106.535 60.7324 106.515 60.7949C106.5 60.8535 106.461 60.8984 106.398 60.9297C106.339 60.9609 106.257 60.9805 106.152 60.9883C106.046 60.9961 105.918 61 105.765 61C105.578 61 105.427 60.9961 105.314 60.9883C105.205 60.9805 105.119 60.9609 105.056 60.9297C104.994 60.8984 104.947 60.8535 104.916 60.7949C104.888 60.7324 104.867 60.6484 104.851 60.543L104.611 59.1426H102.379L102.138 60.543C102.119 60.6484 102.095 60.7324 102.068 60.7949C102.041 60.8535 101.996 60.8984 101.933 60.9297C101.871 60.9609 101.783 60.9805 101.67 60.9883C101.56 60.9961 101.412 61 101.224 61C101.072 61 100.943 60.9961 100.837 60.9883C100.736 60.9805 100.654 60.9609 100.591 60.9297C100.529 60.8984 100.488 60.8535 100.468 60.7949C100.449 60.7324 100.449 60.6484 100.468 60.543L102.021 51.5957ZM104.418 58.0293L103.521 52.832H103.468L102.572 58.0293H104.418ZM107.874 51.584C107.87 51.4824 107.88 51.4004 107.903 51.3379C107.927 51.2754 107.976 51.2266 108.05 51.1914C108.128 51.1562 108.237 51.1328 108.378 51.1211C108.519 51.1055 108.706 51.0977 108.941 51.0977C109.171 51.0977 109.357 51.1055 109.497 51.1211C109.638 51.1328 109.745 51.1562 109.819 51.1914C109.898 51.2266 109.948 51.2754 109.972 51.3379C109.999 51.4004 110.011 51.4824 110.007 51.584L109.884 55.8496H111.607L111.489 51.584C111.485 51.4824 111.495 51.4004 111.519 51.3379C111.542 51.2754 111.591 51.2266 111.665 51.1914C111.743 51.1562 111.853 51.1328 111.993 51.1211C112.134 51.1055 112.321 51.0977 112.556 51.0977C112.786 51.0977 112.972 51.1055 113.112 51.1211C113.253 51.1328 113.36 51.1562 113.435 51.1914C113.513 51.2266 113.564 51.2754 113.587 51.3379C113.614 51.4004 113.626 51.4824 113.622 51.584L113.364 60.6016C113.36 60.6914 113.349 60.7637 113.329 60.8184C113.314 60.8691 113.278 60.9082 113.224 60.9355C113.169 60.9629 113.089 60.9805 112.984 60.9883C112.878 60.9961 112.735 61 112.556 61C112.376 61 112.232 60.9961 112.122 60.9883C112.017 60.9805 111.937 60.9629 111.882 60.9355C111.827 60.9082 111.79 60.8691 111.771 60.8184C111.755 60.7637 111.745 60.6914 111.741 60.6016L111.642 56.9629H109.855L109.749 60.6016C109.749 60.6914 109.739 60.7637 109.72 60.8184C109.704 60.8691 109.667 60.9082 109.609 60.9355C109.554 60.9629 109.474 60.9805 109.368 60.9883C109.263 60.9961 109.12 61 108.941 61C108.761 61 108.616 60.9961 108.507 60.9883C108.401 60.9805 108.321 60.9629 108.267 60.9355C108.212 60.9082 108.175 60.8691 108.155 60.8184C108.14 60.7637 108.13 60.6914 108.126 60.6016L107.874 51.584Z" fill="white"/>
<defs>
<filter id="filter0_f" x="73.2013" y="51.0164" width="9.54361" height="7.76957" filterUnits="userSpaceOnUse" color-interpolation-filters="sRGB">
<feFlood flood-opacity="0" result="BackgroundImageFix"/>
<feBlend mode="normal" in="SourceGraphic" in2="BackgroundImageFix" result="shape"/>
<feGaussianBlur stdDeviation="0.25" result="effect1_foregroundBlur"/>
</filter>
<filter id="filter1_f" x="50.6434" y="37.3926" width="8.13465" height="7.0191" filterUnits="userSpaceOnUse" color-interpolation-filters="sRGB">
<feFlood flood-opacity="0" result="BackgroundImageFix"/>
<feBlend mode="normal" in="SourceGraphic" in2="BackgroundImageFix" result="shape"/>
<feGaussianBlur stdDeviation="0.25" result="effect1_foregroundBlur"/>
</filter>
<linearGradient id="paint0_linear" x1="87.3798" y1="53.0478" x2="74.6565" y2="59.05" gradientUnits="userSpaceOnUse">
<stop stop-color="white"/>
<stop offset="1" stop-color="white" stop-opacity="0"/>
</linearGradient>
<linearGradient id="paint1_linear" x1="45.9491" y1="37.2127" x2="59.3445" y2="41.2325" gradientUnits="userSpaceOnUse">
<stop stop-color="white"/>
<stop offset="1" stop-color="white" stop-opacity="0"/>
</linearGradient>
</defs>
</svg>
