<svg width="160" height="160" viewBox="0 0 160 160" fill="none" xmlns="http://www.w3.org/2000/svg">
<path d="M136.215 88.6105C130.805 88.641 126.119 89.9405 122.19 91.8754C120.739 89.0037 119.288 86.4945 119.047 84.6207C118.775 82.4442 118.442 81.1139 118.775 78.5146C119.107 75.9147 120.618 72.2268 120.618 71.9245C120.588 71.6525 120.285 70.3225 117.172 70.2922C114.059 70.262 111.369 70.8968 111.066 71.7129C110.764 72.5291 110.16 74.4033 109.767 76.3379C109.223 79.1793 103.54 89.2452 100.306 94.5352C99.2476 92.4797 98.3408 90.666 98.1592 89.2147C97.8874 87.0386 97.5546 85.7083 97.8874 83.1089C98.2199 80.509 99.7313 76.8215 99.7313 76.5192C99.701 76.2472 99.3988 74.9171 96.2857 74.8869C93.172 74.8567 90.4821 75.4915 90.1798 76.3076C89.8776 77.1238 89.5451 79.0584 88.8801 80.9325C88.245 82.8067 80.6882 99.6135 78.7235 103.997C77.726 106.233 76.8497 108.017 76.2146 109.226C75.5799 110.435 76.1844 109.317 76.124 109.438C75.5799 110.465 75.2776 111.04 75.2776 111.04V111.07C74.8544 111.826 74.401 112.551 74.1891 112.551C74.038 112.551 73.7357 110.526 74.2496 107.745C75.368 101.911 78.0884 92.8125 78.0585 92.48C78.0585 92.3288 78.572 90.7264 76.305 89.9106C74.0984 89.0944 73.3128 90.4547 73.1312 90.4547C72.9498 90.4547 72.7987 90.9383 72.7987 90.9383C72.7987 90.9383 75.2471 80.6913 68.1135 80.6913C63.6399 80.6913 57.4736 85.558 54.4206 90.0016C52.4861 91.0595 48.3752 93.2961 44.0225 95.6844C42.36 96.5913 40.6371 97.5586 39.0048 98.4352L38.6726 98.0719C30.0277 88.8523 14.0376 82.323 14.7026 69.9295C14.9444 65.4255 16.5162 53.5459 45.4136 39.1573C69.0814 27.3683 88.0337 30.6027 91.3282 37.797C96.0134 48.0746 81.2021 67.1787 56.5976 69.9295C47.2272 70.9875 42.2999 67.3601 41.0609 65.9998C39.7611 64.5791 39.5798 64.5187 39.0961 64.7907C38.3102 65.2139 38.7939 66.4835 39.0961 67.2392C39.8216 69.1436 42.8443 72.5291 47.9829 74.2219C52.4864 75.7031 63.4894 76.5192 76.7893 71.3804C91.6912 65.6069 103.329 49.586 99.9129 36.1949C96.4368 22.5621 73.827 18.0883 52.4565 25.6756C39.7306 30.2098 25.9471 37.2831 16.0326 46.5632C4.24404 57.5662 2.36997 67.1787 3.15587 71.1688C5.90683 85.4063 25.5239 94.6863 33.3829 101.548C32.99 101.759 32.6272 101.971 32.2947 102.153C28.3652 104.087 13.4028 111.916 9.65468 120.199C5.4229 129.569 10.3197 136.31 13.5842 137.217C23.68 140.028 34.0177 134.98 39.6097 126.668C45.1712 118.355 44.5065 107.563 41.9372 102.636L41.8462 102.455L44.9293 100.641C46.9246 99.4624 48.8894 98.3741 50.612 97.4368C49.6451 100.067 48.9495 103.18 48.5871 107.714C48.1639 113.035 50.3403 119.926 53.2119 122.647C54.4814 123.826 55.9927 123.856 56.9298 123.856C60.2548 123.856 61.7661 121.105 63.4286 117.811C65.484 113.79 67.2977 109.135 67.2977 109.135C67.2977 109.135 65.0306 121.74 71.2272 121.74C73.4942 121.74 75.7612 118.808 76.7889 117.297V117.327C76.7889 117.327 76.8494 117.236 76.9703 117.025C77.0971 116.837 77.2181 116.646 77.333 116.451V116.39C78.2398 114.818 80.2651 111.221 83.2878 105.266C87.1867 97.5882 90.9352 87.9757 90.9352 87.9757C90.9352 87.9757 91.2979 90.3335 92.4163 94.2027C93.081 96.5003 94.5319 99.0089 95.6503 101.457C94.7435 102.727 94.1994 103.453 94.1994 103.453L94.2297 103.483C93.5045 104.45 92.6881 105.478 91.842 106.506C88.7589 110.194 85.0712 114.396 84.5875 115.605C84.0132 117.025 84.1341 118.083 85.2525 118.93C86.0687 119.534 87.5196 119.655 89.0611 119.534C91.842 119.353 93.7765 118.658 94.7438 118.234C96.2552 117.69 97.9781 116.874 99.6406 115.665C102.663 113.428 104.507 110.254 104.326 106.022C104.235 103.695 103.479 101.398 102.542 99.2211C102.814 98.8282 103.087 98.4349 103.359 98.012C108.134 91.029 111.822 83.3514 111.822 83.3514C111.822 83.3514 112.185 85.7092 113.303 89.5784C113.877 91.5432 115.026 93.6897 116.054 95.8057C111.58 99.4633 108.769 103.695 107.802 106.476C106.019 111.615 107.409 113.943 110.039 114.487C111.217 114.728 112.91 114.184 114.18 113.64C115.751 113.126 117.656 112.249 119.409 110.95C122.432 108.713 125.334 105.6 125.182 101.398C125.092 99.4633 124.578 97.5589 123.883 95.7452C127.691 94.1733 132.618 93.2665 138.875 94.0222C152.326 95.5941 154.986 103.997 154.473 107.504C153.959 111.011 151.148 112.945 150.21 113.55C149.273 114.124 148.971 114.336 149.062 114.759C149.183 115.394 149.606 115.363 150.422 115.243C151.54 115.061 157.495 112.371 157.737 105.902C158.1 97.5885 150.21 88.5201 136.215 88.6105V88.6105ZM32.4761 123.584C28.0327 128.451 21.7757 130.295 19.1158 128.723C16.2442 127.061 17.3623 119.897 22.8337 114.728C26.1586 111.584 30.4811 108.682 33.3225 106.898C33.9572 106.506 34.9245 105.931 36.0731 105.236C36.2545 105.115 36.3754 105.055 36.3754 105.055C36.587 104.934 36.8288 104.783 37.0706 104.631C39.0958 112.007 37.1613 118.476 32.4761 123.584V123.584ZM64.9702 101.488C63.4286 105.266 60.1641 114.969 58.1993 114.425C56.5063 113.972 55.4789 106.626 57.8665 99.3717C59.0756 95.7138 61.6449 91.3612 63.1563 89.6681C65.6049 86.9476 68.2646 86.0408 68.9299 87.1592C69.7158 88.6105 65.9374 99.1298 64.9702 101.488ZM91.7816 114.304C91.1166 114.637 90.512 114.879 90.24 114.698C90.0284 114.577 90.5117 114.123 90.5117 114.123C90.5117 114.123 93.8669 110.526 95.1969 108.864C95.9526 107.897 96.8594 106.778 97.8267 105.508V105.871C97.827 110.224 93.6556 113.125 91.7816 114.304ZM112.457 109.589C111.973 109.226 112.034 108.108 113.666 104.601C114.301 103.211 115.751 100.883 118.26 98.6764C118.562 99.5833 118.744 100.46 118.714 101.276C118.684 106.717 114.815 108.742 112.457 109.589Z" fill="#CF649A"/>
</svg>
