<svg width="160" height="160" viewBox="0 0 160 160" fill="none" xmlns="http://www.w3.org/2000/svg">
<path d="M35 7.5H42.1875V14.625H48.8125V7.5H56V29.0625H48.8125V21.875H42.25V29.0625H35V7.5ZM65.5 14.6875H59.1563V7.5H79.0625V14.6875H72.6875V29.0625H65.5V14.6875ZM82.2188 7.5H89.75L94.375 15.0937L99 7.5H106.531V29.0625H99.3438V18.375L94.3125 26.125L89.2813 18.375V29.0625H82.2188V7.5ZM110.094 7.5H117.281V21.9375H127.469V29.0625H110.094" fill="#9E9E9E"/>
<path d="M39.0959 138.788L30 37.5H130L120.904 138.734L79.9173 150" fill="#ED8C73"/>
<path d="M80 142.5V45H122.5L114.39 133.155" fill="#ED8C73"/>
<path d="M50 57.5H80V69.8513H63.1053L64.2105 82.5019H80V94.8261H53.2632L50 57.5ZM53.7895 101.029H65.7895L66.6316 110.905L80 114.605V127.5L55.4737 120.427" fill="#EBEBEB"/>
<path d="M112.5 57.5H80V69.8609H111.301L112.5 57.5ZM110.13 82.5214H80V94.8823H95.993L94.4793 110.946L80 114.649V127.5L106.56 120.476" fill="white"/>
</svg>
