<svg width="160" height="160" viewBox="0 0 160 160" fill="none" xmlns="http://www.w3.org/2000/svg">
<path d="M80 145.486C116.451 145.486 146 116.052 146 79.7432C146 43.4342 116.451 14 80 14C43.5492 14 14 43.4342 14 79.7432C14 116.052 43.5492 145.486 80 145.486Z" fill="#1A171B"/>
<path d="M108.723 38.2926C102.028 38.5252 96.183 42.2008 91.8331 47.2863C87.0161 52.8613 83.8115 59.4741 81.5025 66.2244C77.372 62.8522 74.1857 58.4869 67.5593 56.5834C62.4377 55.1188 57.0582 55.7237 52.1112 59.3952C49.7677 61.1389 48.1532 63.7747 47.3856 66.2527C45.3975 72.6915 49.4753 78.4223 51.3273 80.4795L55.3767 84.8024C56.2113 85.65 58.2218 87.861 57.2389 91.0308C56.1768 94.4778 52.0056 96.709 47.7268 95.3941C45.8158 94.8135 43.0702 93.3955 43.6856 91.399C43.9394 90.5817 44.5263 89.9708 44.8411 89.2648C45.1294 88.658 45.2675 88.2028 45.3548 87.9358C46.1367 85.3931 45.0685 82.0857 42.3351 81.2462C39.7844 80.4674 37.1749 81.0843 36.1636 84.3553C35.0162 88.0713 36.8012 94.8156 46.3641 97.7528C57.5679 101.182 67.0455 95.1048 68.3899 87.1792C69.2367 82.2151 66.9866 78.5274 62.8641 73.7838L59.5052 70.084C57.4704 68.0591 56.7718 64.6081 58.8777 61.9561C60.6547 59.7188 63.185 58.764 67.3298 59.8867C73.3795 61.5232 76.0763 65.7045 80.5765 69.0766C78.7184 75.1472 77.504 81.2401 76.4053 86.7039L75.7352 90.7779C72.5184 107.584 70.0632 116.812 63.6825 122.11C62.3971 123.02 60.5592 124.384 57.7892 124.479C56.3372 124.523 55.8681 123.528 55.8478 123.095C55.8133 122.08 56.6723 121.615 57.243 121.157C58.0959 120.694 59.3854 119.925 59.2981 117.464C59.2047 114.555 56.786 112.032 53.2891 112.148C50.6694 112.237 46.6769 114.692 46.8272 119.187C46.9835 123.83 51.3273 127.309 57.8766 127.088C61.3776 126.969 69.1961 125.549 76.9008 116.426C85.8687 105.968 88.3767 93.9781 90.2633 85.2029L92.3692 73.6179C93.5389 73.7575 94.7899 73.8506 96.1505 73.8829C107.32 74.1176 112.906 68.3544 112.99 64.1631C113.044 61.6264 111.318 59.1302 108.902 59.1868C107.171 59.2354 104.999 60.3823 104.477 62.7653C103.967 65.1037 108.03 67.2135 104.854 69.2627C102.598 70.7172 98.5529 71.7427 92.8566 70.9093L93.8923 65.2069C96.0063 54.3926 98.6138 41.0902 108.506 40.7666C109.227 40.7302 111.865 40.7989 111.925 42.5366C111.944 43.1172 111.8 43.2648 111.117 44.5938C110.423 45.6296 110.161 46.5115 110.193 47.525C110.289 50.2862 112.397 52.1007 115.445 51.9915C119.527 51.86 120.7 47.9012 120.633 45.8683C120.469 41.0923 115.414 38.0741 108.723 38.2926Z" fill="white"/>
</svg>
