<svg width="338" height="178" viewBox="0 0 338 178" fill="none" xmlns="http://www.w3.org/2000/svg">
<g filter="url(#filter0_f)">
<path d="M190.624 131.632C190.624 131.632 186.777 132.954 182.93 134.093C178.967 135.267 174.717 136.038 174.717 136.038L170.683 128.594C170.683 128.594 175.153 126.656 178.273 124.554C181.517 122.368 184.45 120.238 184.45 120.238L190.624 131.632Z" fill="#B2BFE5"/>
<path d="M190.624 131.632C190.624 131.632 186.777 132.954 182.93 134.093C178.967 135.267 174.717 136.038 174.717 136.038L170.683 128.594C170.683 128.594 175.153 126.656 178.273 124.554C181.517 122.368 184.45 120.238 184.45 120.238L190.624 131.632Z" fill="url(#paint0_linear)"/>
</g>
<path d="M82.6641 95.9263L113.565 94.462L113.557 94.4627L115.89 143.708L84.9973 145.172L82.6641 95.9263Z" fill="#B2BFE5"/>
<path d="M35.1768 126.093L45.6824 117.549L57.6278 124.444L59.4071 148.676L36.9561 150.324L35.1768 126.093Z" fill="#B2BFE5"/>
<path d="M63.2092 116.81L75.0389 105.364L88.7273 115.302L90.586 146.756L65.068 148.264L63.2092 116.81Z" fill="#B2BFE5"/>
<path d="M98.494 120.158L117.006 106.56L136.991 117.883L138.464 142.805L99.9667 145.08L98.494 120.158Z" fill="#B2BFE5"/>
<path d="M166.945 102.009L162.744 105.16L162.744 102.009L162.744 97.8079L166.945 97.8079L166.945 102.009Z" fill="#B2BFE5"/>
<path d="M232.208 111.703L227.862 113.765L228.016 111.427L228.221 108.311L232.413 108.587L232.208 111.703Z" fill="#B2BFE5"/>
<path d="M249.652 102.422L286.482 104.028L286.472 104.028L284.647 145.878L247.827 144.272L249.652 102.422Z" fill="#B2BFE5"/>
<path d="M259.371 102.846L255.17 102.663L255.29 99.9084L259.487 100.094L259.371 102.846Z" fill="#B2BFE5"/>
<path d="M103.992 116.713L99.8396 119.927L99.7915 116.777L99.7274 112.576L103.928 112.512L103.992 116.713Z" fill="#B2BFE5"/>
<path d="M131.731 73.4415L159.825 72.11L159.818 72.1108L163.134 142.115L135.048 143.446L131.731 73.4415Z" fill="#B2BFE5"/>
<path d="M200.985 62.0987L228.279 62.9637L228.271 62.964L225.741 142.745L198.455 141.88L200.985 62.0987Z" fill="#B2BFE5"/>
<path d="M298.947 123.395L314.303 124.606L314.303 124.6L312.538 147.096L297.181 145.891L298.947 123.395Z" fill="#B2BFE5"/>
<path d="M158.543 108.297L177.368 91.5063L198.429 106.071L198.429 141.92L158.699 141.701L158.543 108.297Z" fill="#B2BFE5"/>
<path d="M198.426 114.507L211.058 123.969L211.031 141.92H198.429L198.426 114.507Z" fill="#B2BFE5"/>
<path d="M222.685 116.58L242.509 104.978L261.21 118.316L260.086 143.255L221.561 141.519L222.685 116.58Z" fill="#B2BFE5"/>
<path d="M337.093 150.322C337.093 150.322 287.839 141.739 185.851 141.922C86.3173 142.1 0.999962 154.524 0.999962 154.524" stroke="#B2BFE5"/>
<path d="M193.967 145.861C283.366 145.672 323.218 158.858 323.218 158.858C323.218 158.858 276.676 149.81 225.016 155.247C184.452 159.517 159.037 163.684 128.174 168.744L126.814 168.967C82.7678 176.187 29.3344 182.686 32.9448 168.967C36.5551 155.247 106.72 146.044 193.967 145.861Z" fill="#B2BFE5" stroke="#B2BFE5"/>
<path d="M28.3073 140.156L30.9784 139.82L32.2142 149.652L29.5431 149.988L28.3073 140.156Z" fill="#B2BFE5"/>
<circle cx="29.3576" cy="136.669" r="5.25145" fill="#B2BFE5"/>
<path d="M23.6314 143.368L26.0004 143.07L27.0964 151.79L24.7274 152.088L23.6314 143.368Z" fill="#B2BFE5"/>
<circle cx="24.5625" cy="140.276" r="4.65743" fill="#B2BFE5"/>
<path d="M14.5536 140.032L17.829 139.62L19.3444 151.677L16.069 152.088L14.5536 140.032Z" fill="#B2BFE5"/>
<circle cx="15.8417" cy="135.756" r="6.43947" fill="#B2BFE5"/>
<path d="M321.92 138.648L324.609 138.778L324.133 148.676L321.444 148.546L321.92 138.648Z" fill="#B2BFE5"/>
<circle cx="323.555" cy="135.394" r="5.25145" transform="rotate(9.92148 323.555 135.394)" fill="#B2BFE5"/>
<path d="M315.017 138.187L317.404 138.241L317.204 147.028L314.817 146.973L315.017 138.187Z" fill="#B2BFE5"/>
<circle cx="316.393" cy="135.265" r="4.65743" transform="rotate(8.4667 316.393 135.265)" fill="#B2BFE5"/>
<path d="M330.278 141.876L332.083 142.124L331.168 148.769L329.363 148.52L330.278 141.876Z" fill="#B2BFE5"/>
<circle cx="331.575" cy="139.78" r="3.55439" transform="rotate(15 331.575 139.78)" fill="#B2BFE5"/>
<path d="M292.401 132.675L295.701 132.76L295.387 144.908L292.087 144.823L292.401 132.675Z" fill="#B2BFE5"/>
<circle cx="294.317" cy="128.642" r="6.43947" transform="rotate(8.64157 294.317 128.642)" fill="#B2BFE5"/>
<path d="M199.688 131.961L202.285 132.028L202.038 141.588L199.441 141.521L199.688 131.961Z" fill="#B2BFE5"/>
<circle cx="201.194" cy="128.787" r="5.06779" transform="rotate(8.64157 201.194 128.787)" fill="#B2BFE5"/>
<path d="M207.582 137.62L208.898 137.67L208.848 142.029L207.532 141.978L207.582 137.62Z" fill="#B2BFE5"/>
<ellipse cx="208.321" cy="136.184" rx="2.57323" ry="2.30554" transform="rotate(8.64157 208.321 136.184)" fill="#B2BFE5"/>
<path d="M199.122 30.3018C197.199 36.4902 186.532 45.1543 182.612 43.9359C178.691 42.7176 174.813 29.5337 176.736 23.3453C178.659 17.1569 185.23 13.6974 191.411 15.6184C197.593 17.5394 201.045 24.1134 199.122 30.3018Z" fill="#B2BFE5"/>
<path d="M199.122 30.3018C197.199 36.4902 186.532 45.1543 182.612 43.9359C178.691 42.7176 174.813 29.5337 176.736 23.3453C178.659 17.1569 185.23 13.6974 191.411 15.6184C197.593 17.5394 201.045 24.1134 199.122 30.3018Z" fill="#B2BFE5"/>
<path d="M183.209 19.8267C180.66 21.8806 180.019 25.2912 179.039 24.0747C178.058 22.8583 179.329 20.2071 181.878 18.1532C184.426 16.0992 187.287 15.4204 188.267 16.6368C189.248 17.8533 185.757 17.7728 183.209 19.8267Z" fill="#B2BFE5"/>
<path d="M182.877 43.9179C182.877 43.9179 181.195 45.2241 180.898 47.3076C180.552 49.7294 181.003 51.1765 180.863 53.6189C180.745 55.6753 179.141 57.9691 179.141 57.9691" stroke="#B2BFE5" stroke-width="1.4"/>
<path d="M181.505 43.6087C182.226 43.1366 183.188 43.6219 183.236 44.4823L183.32 45.9638C183.331 46.1657 183.119 46.3042 182.939 46.2131C182.918 46.2026 182.899 46.1893 182.881 46.1737L182.312 45.66C181.976 45.3573 181.545 45.1808 181.094 45.1606L180.503 45.1343C180.404 45.1299 180.31 45.0892 180.24 45.0201C180.057 44.8407 180.086 44.5379 180.301 44.3975L181.505 43.6087Z" fill="#B2BFE5"/>
<path d="M162.921 24.0777C165.402 30.0644 162.746 43.5476 158.953 45.1193C155.16 46.691 143.746 39.0385 141.265 33.0519C138.784 27.0652 141.621 20.2031 147.601 17.725C153.581 15.2468 160.44 18.091 162.921 24.0777Z" fill="#B2BFE5"/>
<path d="M162.921 24.0777C165.402 30.0644 162.746 43.5476 158.953 45.1193C155.16 46.691 143.746 39.0385 141.265 33.0519C138.784 27.0652 141.621 20.2031 147.601 17.725C153.581 15.2468 160.44 18.091 162.921 24.0777Z" fill="#B2BFE5"/>
<path d="M143.988 26.2072C143.343 29.4161 145.032 32.4476 143.501 32.1399C141.969 31.8321 141.25 28.9812 141.895 25.7723C142.539 22.5634 144.304 20.2116 145.836 20.5194C147.367 20.8271 144.633 22.9983 143.988 26.2072Z" fill="#B2BFE5"/>
<path d="M159.145 44.9358C159.145 44.9358 158.688 47.0155 159.793 48.8072C161.076 50.8898 162.348 51.7138 163.803 53.6805C165.028 55.3364 165.262 58.1258 165.262 58.1258" stroke="#B2BFE5" stroke-width="1.4"/>
<path d="M157.892 45.5757C158.145 44.7517 159.194 44.5095 159.782 45.1399L160.794 46.2253C160.931 46.3732 160.857 46.615 160.66 46.6604C160.638 46.6657 160.614 46.6679 160.591 46.6669L159.824 46.6366C159.373 46.6187 158.929 46.7585 158.569 47.0319L158.098 47.3896C158.019 47.4494 157.921 47.4781 157.823 47.4701C157.567 47.4494 157.396 47.1977 157.471 46.9525L157.892 45.5757Z" fill="#B2BFE5"/>
<path d="M182.666 16.6052C183.403 24.8046 175.07 40.1449 169.875 40.6122C164.68 41.0794 153.743 27.4725 153.005 19.2731C152.268 11.0738 158.31 3.82969 166.5 3.09297C174.691 2.35626 181.928 8.40591 182.666 16.6052Z" fill="#B2BFE5"/>
<path d="M182.666 16.6052C183.403 24.8046 175.07 40.1449 169.875 40.6122C164.68 41.0794 153.743 27.4725 153.005 19.2731C152.268 11.0738 158.31 3.82969 166.5 3.09297C174.691 2.35626 181.928 8.40591 182.666 16.6052Z" fill="#B2BFE5"/>
<path d="M170.178 40.4626C170.178 40.4626 168.766 43.7758 169.425 46.3669C170.192 49.3787 173.08 49.8521 174.098 52.7884C174.955 55.2606 172.593 58.7747 172.593 58.7747" stroke="#B2BFE5" stroke-width="1.4"/>
<path d="M168.55 40.4068C169.168 39.5034 170.532 39.6079 171.006 40.5949L171.821 42.2947C171.932 42.5263 171.751 42.7914 171.494 42.7718C171.465 42.7695 171.436 42.7633 171.408 42.7533L170.49 42.4258C169.949 42.2329 169.358 42.234 168.818 42.4289L168.111 42.6841C167.993 42.7267 167.863 42.7242 167.747 42.6772C167.445 42.5552 167.333 42.1852 167.517 41.9164L168.55 40.4068Z" fill="#B2BFE5"/>
<path d="M158.896 12.8658C156.898 16.5119 157.796 20.8281 156.056 19.874C154.315 18.9199 154.524 15.1908 156.523 11.5446C158.522 7.89849 161.553 5.71614 163.293 6.67021C165.034 7.62427 160.895 9.21968 158.896 12.8658Z" fill="#B2BFE5"/>
<g filter="url(#filter1_f)">
<path d="M118.034 95.4836C118.034 95.4836 121.664 97.3685 125.255 99.1176C128.955 100.92 132.815 102.489 132.815 102.489L134.686 97.8875C134.686 97.8875 130.378 95.3977 127.208 93.1017C123.911 90.7138 120.896 88.4405 120.896 88.4405L118.034 95.4836Z" fill="#B2BFE5"/>
<path d="M118.034 95.4836C118.034 95.4836 121.664 97.3685 125.255 99.1176C128.955 100.92 132.815 102.489 132.815 102.489L134.686 97.8875C134.686 97.8875 130.378 95.3977 127.208 93.1017C123.911 90.7138 120.896 88.4405 120.896 88.4405L118.034 95.4836Z" fill="url(#paint1_linear)"/>
</g>
<path d="M87.7712 123.492H85.5798C85.3767 123.492 85.2166 123.477 85.0994 123.445C84.99 123.414 84.908 123.359 84.8533 123.281C84.8064 123.195 84.7752 123.078 84.7595 122.93C84.7517 122.773 84.7478 122.578 84.7478 122.344C84.7478 122.109 84.7517 121.918 84.7595 121.77C84.7752 121.621 84.8064 121.504 84.8533 121.418C84.908 121.332 84.99 121.273 85.0994 121.242C85.2166 121.211 85.3767 121.195 85.5798 121.195H89.5994H89.8689H94.158C94.3611 121.195 94.5173 121.211 94.6267 121.242C94.7439 121.273 94.8298 121.332 94.8845 121.418C94.9392 121.504 94.9705 121.621 94.9783 121.77C94.9939 121.918 95.0017 122.109 95.0017 122.344C95.0017 122.578 94.9939 122.773 94.9783 122.93C94.9705 123.078 94.9392 123.195 94.8845 123.281C94.8298 123.359 94.7439 123.414 94.6267 123.445C94.5173 123.477 94.3611 123.492 94.158 123.492H91.9666L91.4978 140.262C91.49 140.418 91.4666 140.543 91.4275 140.637C91.3962 140.73 91.3259 140.805 91.2166 140.859C91.1072 140.914 90.9431 140.953 90.7244 140.977C90.5134 140.992 90.2283 141 89.8689 141C89.5095 141 89.2244 140.992 89.0134 140.977C88.8025 140.961 88.6384 140.926 88.5212 140.871C88.4119 140.816 88.3416 140.738 88.3103 140.637C88.2791 140.527 88.2595 140.383 88.2517 140.203L87.7712 123.492ZM99.7937 122.191C99.825 121.973 99.8758 121.793 99.9461 121.652C100.024 121.512 100.161 121.402 100.356 121.324C100.559 121.246 100.848 121.195 101.223 121.172C101.598 121.141 102.106 121.125 102.747 121.125C103.38 121.125 103.884 121.141 104.259 121.172C104.634 121.195 104.919 121.246 105.114 121.324C105.317 121.402 105.454 121.512 105.524 121.652C105.595 121.793 105.649 121.973 105.688 122.191L108.794 140.086C108.825 140.297 108.821 140.465 108.782 140.59C108.751 140.707 108.673 140.797 108.548 140.859C108.43 140.922 108.266 140.961 108.055 140.977C107.845 140.992 107.587 141 107.282 141C106.907 141 106.606 140.992 106.38 140.977C106.161 140.961 105.989 140.922 105.864 140.859C105.739 140.797 105.645 140.707 105.583 140.59C105.528 140.465 105.485 140.297 105.454 140.086L104.973 137.285H100.509L100.028 140.086C99.9891 140.297 99.9422 140.465 99.8875 140.59C99.8328 140.707 99.743 140.797 99.618 140.859C99.493 140.922 99.3172 140.961 99.0906 140.977C98.8719 140.992 98.575 141 98.2 141C97.8953 141 97.6375 140.992 97.4266 140.977C97.2234 140.961 97.0594 140.922 96.9344 140.859C96.8094 140.797 96.7273 140.707 96.6883 140.59C96.6492 140.465 96.6492 140.297 96.6883 140.086L99.7937 122.191ZM104.587 135.059L102.794 124.664H102.688L100.895 135.059H104.587ZM111.5 122.168C111.492 121.965 111.512 121.801 111.558 121.676C111.605 121.551 111.703 121.453 111.851 121.383C112.008 121.312 112.226 121.266 112.508 121.242C112.789 121.211 113.164 121.195 113.633 121.195H113.926H116.597C117.402 121.195 118.148 121.27 118.836 121.418C119.531 121.559 120.133 121.785 120.64 122.098C121.148 122.402 121.543 122.797 121.824 123.281C122.113 123.758 122.246 124.336 122.222 125.016L122.07 130.582C122.062 130.879 122.015 131.18 121.93 131.484C121.851 131.789 121.726 132.082 121.555 132.363C121.383 132.637 121.16 132.895 120.887 133.137C120.621 133.379 120.293 133.59 119.902 133.77L122.094 139.336C122.203 139.617 122.285 139.848 122.34 140.027C122.402 140.199 122.433 140.348 122.433 140.473C122.433 140.566 122.418 140.648 122.387 140.719C122.355 140.781 122.285 140.836 122.176 140.883C122.074 140.922 121.926 140.953 121.73 140.977C121.535 140.992 121.277 141 120.957 141C120.644 141 120.39 140.988 120.195 140.965C120.008 140.934 119.851 140.883 119.726 140.812C119.601 140.742 119.496 140.648 119.41 140.531C119.332 140.406 119.246 140.25 119.152 140.062L116.703 134.32H115.414L115.25 140.203C115.25 140.383 115.23 140.527 115.191 140.637C115.16 140.738 115.086 140.816 114.969 140.871C114.859 140.926 114.699 140.961 114.488 140.977C114.277 140.992 113.992 141 113.633 141C113.273 141 112.984 140.992 112.765 140.977C112.555 140.961 112.394 140.926 112.285 140.871C112.176 140.816 112.101 140.738 112.062 140.637C112.031 140.527 112.012 140.383 112.004 140.203L111.5 122.168ZM116.351 132.41C116.726 132.41 117.039 132.383 117.289 132.328C117.539 132.266 117.734 132.168 117.875 132.035C118.023 131.902 118.125 131.727 118.18 131.508C118.242 131.281 118.269 131.004 118.262 130.676L118.097 124.641C118.09 124.336 118.058 124.094 118.004 123.914C117.949 123.727 117.851 123.582 117.711 123.48C117.57 123.379 117.379 123.312 117.137 123.281C116.902 123.242 116.597 123.223 116.222 123.223H115.73L115.472 132.41H116.351ZM125.819 122.168C125.811 121.965 125.831 121.801 125.878 121.676C125.925 121.551 126.022 121.453 126.171 121.383C126.327 121.312 126.546 121.266 126.827 121.242C127.108 121.211 127.483 121.195 127.952 121.195C128.413 121.195 128.784 121.211 129.065 121.242C129.347 121.266 129.561 121.312 129.71 121.383C129.866 121.453 129.968 121.551 130.015 121.676C130.069 121.801 130.093 121.965 130.085 122.168L129.569 140.203C129.569 140.383 129.55 140.527 129.511 140.637C129.479 140.738 129.405 140.816 129.288 140.871C129.179 140.926 129.018 140.961 128.807 140.977C128.597 140.992 128.311 141 127.952 141C127.593 141 127.304 140.992 127.085 140.977C126.874 140.961 126.714 140.926 126.604 140.871C126.495 140.816 126.421 140.738 126.382 140.637C126.35 140.527 126.331 140.383 126.323 140.203L125.819 122.168ZM138.697 132.574L140.842 122.25C140.896 122.023 140.959 121.844 141.029 121.711C141.107 121.57 141.221 121.461 141.369 121.383C141.525 121.305 141.728 121.254 141.978 121.23C142.236 121.207 142.572 121.195 142.986 121.195C143.666 121.195 144.17 121.238 144.498 121.324C144.834 121.402 145.002 121.586 145.002 121.875C145.002 121.977 144.998 122.066 144.99 122.145C144.982 122.223 144.967 122.301 144.943 122.379C144.928 122.457 144.908 122.539 144.885 122.625C144.861 122.703 144.834 122.793 144.803 122.895L141.932 132.574L144.592 139.336C144.701 139.617 144.783 139.848 144.838 140.027C144.9 140.199 144.932 140.348 144.932 140.473C144.932 140.566 144.916 140.648 144.885 140.719C144.853 140.781 144.783 140.836 144.674 140.883C144.572 140.922 144.424 140.953 144.228 140.977C144.033 140.992 143.775 141 143.455 141C143.182 141 142.959 140.988 142.787 140.965C142.623 140.934 142.486 140.883 142.377 140.812C142.275 140.742 142.185 140.648 142.107 140.531C142.037 140.406 141.963 140.25 141.885 140.062L138.697 132.574ZM133.975 122.168C133.967 121.965 133.986 121.801 134.033 121.676C134.08 121.551 134.178 121.453 134.326 121.383C134.482 121.312 134.701 121.266 134.982 121.242C135.264 121.211 135.639 121.195 136.107 121.195C136.568 121.195 136.939 121.211 137.221 121.242C137.502 121.266 137.717 121.312 137.865 121.383C138.021 121.453 138.123 121.551 138.17 121.676C138.225 121.801 138.248 121.965 138.24 122.168L137.725 140.203C137.725 140.383 137.705 140.527 137.666 140.637C137.635 140.738 137.56 140.816 137.443 140.871C137.334 140.926 137.174 140.961 136.963 140.977C136.752 140.992 136.467 141 136.107 141C135.748 141 135.459 140.992 135.24 140.977C135.029 140.961 134.869 140.926 134.76 140.871C134.65 140.816 134.576 140.738 134.537 140.637C134.506 140.527 134.486 140.383 134.478 140.203L133.975 122.168ZM154.645 122.168C154.637 121.965 154.656 121.801 154.703 121.676C154.75 121.551 154.848 121.453 154.996 121.383C155.152 121.312 155.371 121.266 155.652 121.242C155.934 121.211 156.309 121.195 156.777 121.195C157.238 121.195 157.609 121.211 157.891 121.242C158.172 121.266 158.387 121.312 158.535 121.383C158.691 121.453 158.793 121.551 158.84 121.676C158.895 121.801 158.918 121.965 158.91 122.168L158.43 138.82H161.488C161.691 138.82 161.848 138.84 161.957 138.879C162.074 138.91 162.156 138.969 162.203 139.055C162.258 139.133 162.289 139.242 162.297 139.383C162.312 139.523 162.32 139.699 162.32 139.91C162.32 140.121 162.312 140.297 162.297 140.438C162.289 140.578 162.258 140.691 162.203 140.777C162.156 140.855 162.074 140.914 161.957 140.953C161.848 140.984 161.691 141 161.488 141H156.777C156.418 141 156.129 140.992 155.91 140.977C155.699 140.961 155.539 140.926 155.43 140.871C155.32 140.816 155.246 140.738 155.207 140.637C155.176 140.527 155.156 140.383 155.148 140.203L154.645 122.168ZM165.155 125.004C165.14 124.418 165.237 123.883 165.448 123.398C165.659 122.914 165.991 122.5 166.444 122.156C166.905 121.812 167.495 121.547 168.214 121.359C168.94 121.164 169.812 121.066 170.827 121.066C171.835 121.066 172.698 121.164 173.417 121.359C174.144 121.547 174.737 121.812 175.198 122.156C175.659 122.5 175.995 122.914 176.206 123.398C176.417 123.883 176.515 124.418 176.499 125.004L176.159 137.426C176.144 137.934 176.034 138.414 175.831 138.867C175.628 139.32 175.312 139.715 174.882 140.051C174.46 140.387 173.913 140.652 173.241 140.848C172.577 141.043 171.772 141.141 170.827 141.141C169.882 141.141 169.073 141.043 168.401 140.848C167.73 140.652 167.179 140.387 166.749 140.051C166.327 139.715 166.015 139.32 165.812 138.867C165.608 138.414 165.499 137.934 165.483 137.426L165.155 125.004ZM168.94 137.531C168.933 137.859 168.96 138.133 169.022 138.352C169.093 138.57 169.202 138.746 169.351 138.879C169.507 139.004 169.706 139.094 169.948 139.148C170.19 139.203 170.483 139.23 170.827 139.23C171.171 139.23 171.464 139.203 171.706 139.148C171.948 139.094 172.144 139.004 172.292 138.879C172.448 138.746 172.558 138.57 172.62 138.352C172.69 138.133 172.722 137.859 172.714 137.531L172.374 124.641C172.366 124.297 172.327 124.023 172.257 123.82C172.187 123.617 172.085 123.461 171.952 123.352C171.827 123.242 171.671 123.172 171.483 123.141C171.296 123.102 171.077 123.082 170.827 123.082C170.577 123.082 170.358 123.102 170.171 123.141C169.983 123.172 169.823 123.242 169.69 123.352C169.565 123.461 169.468 123.617 169.397 123.82C169.327 124.023 169.288 124.297 169.28 124.641L168.94 137.531ZM180.154 122.168C180.147 121.965 180.166 121.801 180.213 121.676C180.26 121.551 180.357 121.453 180.506 121.383C180.662 121.312 180.881 121.266 181.162 121.242C181.451 121.211 181.826 121.195 182.287 121.195C182.748 121.195 183.119 121.211 183.4 121.242C183.682 121.266 183.897 121.312 184.045 121.383C184.201 121.453 184.303 121.551 184.35 121.676C184.404 121.801 184.428 121.965 184.42 122.168L184.022 137.531C184.014 137.859 184.041 138.133 184.104 138.352C184.174 138.57 184.283 138.746 184.432 138.879C184.588 139.004 184.787 139.094 185.029 139.148C185.272 139.203 185.565 139.23 185.908 139.23C186.252 139.23 186.545 139.203 186.787 139.148C187.029 139.094 187.225 139.004 187.373 138.879C187.529 138.746 187.639 138.57 187.701 138.352C187.772 138.133 187.803 137.859 187.795 137.531L187.385 122.168C187.377 121.965 187.397 121.801 187.443 121.676C187.49 121.551 187.588 121.453 187.736 121.383C187.893 121.312 188.111 121.266 188.393 121.242C188.674 121.211 189.049 121.195 189.518 121.195C189.979 121.195 190.35 121.211 190.631 121.242C190.912 121.266 191.127 121.312 191.275 121.383C191.432 121.453 191.533 121.551 191.58 121.676C191.635 121.801 191.658 121.965 191.65 122.168L191.24 137.426C191.225 137.934 191.115 138.414 190.912 138.867C190.709 139.32 190.393 139.715 189.963 140.051C189.541 140.387 188.994 140.652 188.322 140.848C187.658 141.043 186.854 141.141 185.908 141.141C184.963 141.141 184.154 141.043 183.482 140.848C182.811 140.652 182.26 140.387 181.83 140.051C181.408 139.715 181.096 139.32 180.893 138.867C180.69 138.414 180.584 137.934 180.576 137.426L180.154 122.168ZM197.286 122.191C197.317 121.973 197.368 121.793 197.439 121.652C197.517 121.512 197.653 121.402 197.849 121.324C198.052 121.246 198.341 121.195 198.716 121.172C199.091 121.141 199.599 121.125 200.239 121.125C200.872 121.125 201.376 121.141 201.751 121.172C202.126 121.195 202.411 121.246 202.607 121.324C202.81 121.402 202.946 121.512 203.017 121.652C203.087 121.793 203.142 121.973 203.181 122.191L206.286 140.086C206.317 140.297 206.314 140.465 206.275 140.59C206.243 140.707 206.165 140.797 206.04 140.859C205.923 140.922 205.759 140.961 205.548 140.977C205.337 140.992 205.079 141 204.775 141C204.4 141 204.099 140.992 203.872 140.977C203.653 140.961 203.482 140.922 203.357 140.859C203.232 140.797 203.138 140.707 203.075 140.59C203.021 140.465 202.978 140.297 202.946 140.086L202.466 137.285H198.001L197.521 140.086C197.482 140.297 197.435 140.465 197.38 140.59C197.325 140.707 197.235 140.797 197.11 140.859C196.985 140.922 196.81 140.961 196.583 140.977C196.364 140.992 196.067 141 195.692 141C195.388 141 195.13 140.992 194.919 140.977C194.716 140.961 194.552 140.922 194.427 140.859C194.302 140.797 194.22 140.707 194.181 140.59C194.142 140.465 194.142 140.297 194.181 140.086L197.286 122.191ZM202.079 135.059L200.286 124.664H200.181L198.388 135.059H202.079ZM211.02 123.492H208.828C208.625 123.492 208.465 123.477 208.348 123.445C208.238 123.414 208.156 123.359 208.102 123.281C208.055 123.195 208.024 123.078 208.008 122.93C208 122.773 207.996 122.578 207.996 122.344C207.996 122.109 208 121.918 208.008 121.77C208.024 121.621 208.055 121.504 208.102 121.418C208.156 121.332 208.238 121.273 208.348 121.242C208.465 121.211 208.625 121.195 208.828 121.195H212.848H213.117H217.406C217.61 121.195 217.766 121.211 217.875 121.242C217.992 121.273 218.078 121.332 218.133 121.418C218.188 121.504 218.219 121.621 218.227 121.77C218.242 121.918 218.25 122.109 218.25 122.344C218.25 122.578 218.242 122.773 218.227 122.93C218.219 123.078 218.188 123.195 218.133 123.281C218.078 123.359 217.992 123.414 217.875 123.445C217.766 123.477 217.61 123.492 217.406 123.492H215.215L214.746 140.262C214.738 140.418 214.715 140.543 214.676 140.637C214.645 140.73 214.574 140.805 214.465 140.859C214.356 140.914 214.192 140.953 213.973 140.977C213.762 140.992 213.477 141 213.117 141C212.758 141 212.473 140.992 212.262 140.977C212.051 140.961 211.887 140.926 211.77 140.871C211.66 140.816 211.59 140.738 211.559 140.637C211.527 140.527 211.508 140.383 211.5 140.203L211.02 123.492ZM223.042 122.191C223.073 121.973 223.124 121.793 223.195 121.652C223.273 121.512 223.409 121.402 223.605 121.324C223.808 121.246 224.097 121.195 224.472 121.172C224.847 121.141 225.355 121.125 225.995 121.125C226.628 121.125 227.132 121.141 227.507 121.172C227.882 121.195 228.167 121.246 228.362 121.324C228.566 121.402 228.702 121.512 228.773 121.652C228.843 121.793 228.898 121.973 228.937 122.191L232.042 140.086C232.073 140.297 232.07 140.465 232.03 140.59C231.999 140.707 231.921 140.797 231.796 140.859C231.679 140.922 231.515 140.961 231.304 140.977C231.093 140.992 230.835 141 230.53 141C230.155 141 229.855 140.992 229.628 140.977C229.409 140.961 229.237 140.922 229.112 140.859C228.987 140.797 228.894 140.707 228.831 140.59C228.777 140.465 228.734 140.297 228.702 140.086L228.222 137.285H223.757L223.277 140.086C223.237 140.297 223.191 140.465 223.136 140.59C223.081 140.707 222.991 140.797 222.866 140.859C222.741 140.922 222.566 140.961 222.339 140.977C222.12 140.992 221.823 141 221.448 141C221.144 141 220.886 140.992 220.675 140.977C220.472 140.961 220.308 140.922 220.183 140.859C220.058 140.797 219.976 140.707 219.937 140.59C219.898 140.465 219.898 140.297 219.937 140.086L223.042 122.191ZM227.835 135.059L226.042 124.664H225.937L224.144 135.059H227.835ZM234.748 122.168C234.74 121.965 234.76 121.801 234.807 121.676C234.854 121.551 234.951 121.453 235.1 121.383C235.256 121.312 235.475 121.266 235.756 121.242C236.037 121.211 236.412 121.195 236.881 121.195C237.342 121.195 237.713 121.211 237.994 121.242C238.276 121.266 238.49 121.312 238.639 121.383C238.795 121.453 238.897 121.551 238.944 121.676C238.998 121.801 239.022 121.965 239.014 122.168L238.768 130.699H242.213L241.979 122.168C241.971 121.965 241.99 121.801 242.037 121.676C242.084 121.551 242.182 121.453 242.33 121.383C242.487 121.312 242.705 121.266 242.987 121.242C243.268 121.211 243.643 121.195 244.112 121.195C244.573 121.195 244.944 121.211 245.225 121.242C245.506 121.266 245.721 121.312 245.869 121.383C246.026 121.453 246.127 121.551 246.174 121.676C246.229 121.801 246.252 121.965 246.244 122.168L245.729 140.203C245.721 140.383 245.698 140.527 245.658 140.637C245.627 140.738 245.557 140.816 245.448 140.871C245.338 140.926 245.178 140.961 244.967 140.977C244.756 140.992 244.471 141 244.112 141C243.752 141 243.463 140.992 243.244 140.977C243.033 140.961 242.873 140.926 242.764 140.871C242.655 140.816 242.58 140.738 242.541 140.637C242.51 140.527 242.49 140.383 242.483 140.203L242.283 132.926H238.709L238.498 140.203C238.498 140.383 238.479 140.527 238.44 140.637C238.408 140.738 238.334 140.816 238.217 140.871C238.108 140.926 237.948 140.961 237.737 140.977C237.526 140.992 237.24 141 236.881 141C236.522 141 236.233 140.992 236.014 140.977C235.803 140.961 235.643 140.926 235.533 140.871C235.424 140.816 235.35 140.738 235.311 140.637C235.28 140.527 235.26 140.383 235.252 140.203L234.748 122.168Z" fill="white"/>
<defs>
<filter id="filter0_f" x="170.183" y="119.738" width="20.9406" height="16.8" filterUnits="userSpaceOnUse" color-interpolation-filters="sRGB">
<feFlood flood-opacity="0" result="BackgroundImageFix"/>
<feBlend mode="normal" in="SourceGraphic" in2="BackgroundImageFix" result="shape"/>
<feGaussianBlur stdDeviation="0.25" result="effect1_foregroundBlur"/>
</filter>
<filter id="filter1_f" x="117.534" y="87.9405" width="17.6521" height="15.0484" filterUnits="userSpaceOnUse" color-interpolation-filters="sRGB">
<feFlood flood-opacity="0" result="BackgroundImageFix"/>
<feBlend mode="normal" in="SourceGraphic" in2="BackgroundImageFix" result="shape"/>
<feGaussianBlur stdDeviation="0.25" result="effect1_foregroundBlur"/>
</filter>
<linearGradient id="paint0_linear" x1="202.608" y1="123.812" x2="172.913" y2="137.821" gradientUnits="userSpaceOnUse">
<stop stop-color="white"/>
<stop offset="1" stop-color="white" stop-opacity="0"/>
</linearGradient>
<linearGradient id="paint1_linear" x1="105.91" y1="86.8536" x2="137.175" y2="96.2356" gradientUnits="userSpaceOnUse">
<stop stop-color="white"/>
<stop offset="1" stop-color="white" stop-opacity="0"/>
</linearGradient>
</defs>
</svg>
