<svg width="160" height="160" viewBox="0 0 160 160" fill="none" xmlns="http://www.w3.org/2000/svg">
<path d="M160 0H0V160H160V0Z" fill="#F9EC84"/>
<path d="M107.479 125.001C110.702 130.263 114.895 134.131 122.311 134.131C128.541 134.131 132.52 131.017 132.52 126.715C132.52 121.559 128.431 119.733 121.574 116.734L117.816 115.121C106.966 110.499 99.7584 104.709 99.7584 92.4674C99.7584 81.1912 108.35 72.6071 121.777 72.6071C131.337 72.6071 138.209 75.934 143.162 84.6451L131.454 92.1626C128.876 87.5404 126.095 85.7194 121.777 85.7194C117.374 85.7194 114.583 88.5131 114.583 92.1626C114.583 96.6731 117.376 98.4991 123.827 101.293L127.586 102.903C140.36 108.381 147.573 113.966 147.573 126.522C147.573 140.058 136.939 147.474 122.659 147.474C108.696 147.474 99.6746 140.82 95.2606 132.099L107.479 125.001ZM54.3667 126.304C56.7286 130.494 58.8771 134.037 64.0428 134.037C68.9825 134.037 72.0987 132.104 72.0987 124.589V73.4655H87.1336V124.792C87.1336 140.361 78.006 147.446 64.6828 147.446C52.6448 147.446 45.6733 141.217 42.1279 133.713L54.3667 126.304Z" fill="#9E9E9E"/>
</svg>
