<svg width="120" height="120" viewBox="0 0 120 120" fill="none" xmlns="http://www.w3.org/2000/svg">
<path d="M46.502 64.8539H37.252" stroke="white" stroke-width="4"/>
<path d="M44.96 67.5H38.7933" stroke="white" stroke-width="4"/>
<path d="M41.7041 21.2501L41.7041 30.8571" stroke="white" stroke-width="4"/>
<path d="M55.0781 26.3738L49.7389 33.9093" stroke="white" stroke-width="4"/>
<path d="M64.999 41.1051L56.3622 42.7069" stroke="white" stroke-width="4"/>
<path d="M18.75 41.0129L27.237 42.9564" stroke="white" stroke-width="4"/>
<path d="M27.3555 26.3738L32.6947 33.9093" stroke="white" stroke-width="4"/>
<path d="M53.464 43.7414C53.464 46.6522 52.1153 49.277 49.9542 51.1291C48.944 51.9948 49.447 56.0005 47.4386 58.5624C45.4301 61.1243 39.7178 61.0349 37.6832 58.8186C35.14 56.0482 36.5977 52.8465 34.5937 51.1291C32.4327 49.277 31.084 46.6522 31.084 43.7414C31.084 38.1313 36.0939 33.5834 42.274 33.5834C48.454 33.5834 53.464 38.1313 53.464 43.7414Z" fill="white"/>
<path d="M36.0929 40.7513C34.5027 43.1205 35.3486 44.4301 33.258 44.4301C31.5398 43.2768 32.2676 39.7704 33.7608 38.2771C35.8514 35.8878 37.8116 34.9145 39.5298 36.0677C41.248 37.221 37.6831 38.3821 36.0929 40.7513Z" fill="white" fill-opacity="0.9"/>
<path d="M81.251 46.875C81.251 68.6212 63.6222 86.25 41.876 86.25C20.1298 86.25 2.50098 68.6212 2.50098 46.875C2.50098 25.1288 20.1298 7.5 41.876 7.5C63.6222 7.5 81.251 25.1288 81.251 46.875ZM8.14827 46.875C8.14827 65.5023 23.2487 80.6027 41.876 80.6027C60.5033 80.6027 75.6037 65.5023 75.6037 46.875C75.6037 28.2477 60.5033 13.1473 41.876 13.1473C23.2487 13.1473 8.14827 28.2477 8.14827 46.875Z" fill="white"/>
<path d="M41.0746 53.7347C42.0542 53.7347 42.7209 54.1429 43.0746 54.9592C43.1562 55.2041 43.1971 55.5306 43.1971 55.9388C43.1971 56.3469 43.0202 56.7143 42.6665 57.0408C42.0406 57.6122 41.3331 57.7347 40.544 57.4082C39.7821 57.0816 39.4011 56.551 39.4011 55.8163C39.4011 55.0544 39.578 54.5238 39.9318 54.2245C40.2855 53.898 40.6665 53.7347 41.0746 53.7347ZM42.1358 49.449C42.1358 50.3197 42.2719 51.1224 42.544 51.8571H41.4828C40.7481 51.4218 40.1903 50.8231 39.8093 50.0612C39.7005 49.8163 39.646 49.5034 39.646 49.1224C39.646 48.7415 39.7549 48.3605 39.9726 47.9796C40.408 47.2993 41.0474 46.5646 41.8909 45.7755C43.3875 44.3878 44.1358 43.068 44.1358 41.8163C44.1358 40.9456 43.9045 40.2381 43.442 39.6939C43.0066 39.1497 42.3943 38.8776 41.6052 38.8776C39.7005 38.8776 38.5848 39.6259 38.2583 41.1224H36.3399C36.3399 39.6803 36.9658 38.6054 38.2175 37.898C39.1971 37.3265 40.2175 37.0408 41.2787 37.0408C43.1562 37.0408 44.612 37.4762 45.646 38.3469C46.6801 39.2177 47.1971 40.4286 47.1971 41.9796C47.1971 43.5034 46.3399 45 44.6256 46.4694C43.5644 47.4218 42.8841 48.0884 42.5848 48.4694C42.2855 48.8231 42.1358 49.1497 42.1358 49.449Z" fill="#9AACE1"/>
<path d="M69.412 77.7907L76.8914 68.877L80.4051 71.8254L72.9257 80.7391L69.412 77.7907Z" fill="white"/>
<path d="M73.5653 84.9728C72.7108 84.2558 72.608 82.9783 73.3368 82.1339L78.1958 76.5042L82.0054 71.8107C82.7096 70.9432 83.9879 70.8209 84.8438 71.5391L116.75 98.3113C117.596 99.0213 117.706 100.283 116.996 101.129L108.293 111.502C107.583 112.348 106.321 112.458 105.475 111.748L73.5653 84.9728Z" fill="white"/>
</svg>
