<svg width="160" height="160" viewBox="0 0 160 160" fill="none" xmlns="http://www.w3.org/2000/svg">
<path d="M145 15H15V145H145V15Z" fill="#F7DF1E"/>
<path d="M102.327 116.563C104.946 120.839 108.353 123.981 114.378 123.981C119.44 123.981 122.673 121.451 122.673 117.956C122.673 113.767 119.351 112.283 113.78 109.846L110.726 108.536C101.91 104.78 96.0543 100.076 96.0543 90.1297C96.0543 80.9678 103.035 73.9932 113.945 73.9932C121.712 73.9932 127.296 76.6963 131.319 83.7741L121.807 89.882C119.712 86.1265 117.453 84.647 113.945 84.647C110.367 84.647 108.099 86.9168 108.099 89.882C108.099 93.5468 110.369 95.0305 115.61 97.3003L118.664 98.6086C129.043 103.06 134.904 107.597 134.904 117.799C134.904 128.797 126.264 134.823 114.661 134.823C103.316 134.823 95.9862 129.416 92.3998 122.33L102.327 116.563ZM59.1735 117.622C61.0925 121.026 62.8382 123.905 67.0354 123.905C71.0489 123.905 73.5808 122.335 73.5808 116.229V74.6906H85.7966V116.394C85.7966 129.043 78.3804 134.8 67.5554 134.8C57.7744 134.8 52.1101 129.738 49.2295 123.642L59.1735 117.622Z" fill="black"/>
</svg>
