<svg width="96" height="96" viewBox="0 0 96 96" fill="none" xmlns="http://www.w3.org/2000/svg">
<path d="M96 48C96 74.5097 74.5097 96 48 96C21.4903 96 0 74.5097 0 48C0 21.4903 21.4903 0 48 0C74.5097 0 96 21.4903 96 48ZM4.56584 48C4.56584 71.988 24.012 91.4342 48 91.4342C71.988 91.4342 91.4342 71.988 91.4342 48C91.4342 24.012 71.988 4.56584 48 4.56584C24.012 4.56584 4.56584 24.012 4.56584 48Z" fill="#444444"/>
<path d="M38.1964 32.7239C37.848 36.4269 35.1575 39.8638 32.5659 39.6131C29.9743 39.3623 28.463 35.5188 28.8115 31.8158C29.1599 28.1128 31.5433 25.3141 34.1348 25.5649C36.7264 25.8156 38.5448 29.0208 38.1964 32.7239Z" fill="#444444"/>
<path d="M66.2013 35.769C65.8528 39.472 63.1624 42.909 60.5708 42.6582C57.9792 42.4075 56.4679 38.564 56.8164 34.8609C57.1648 31.1579 59.5482 28.3593 62.1397 28.61C64.7313 28.8608 66.5497 32.066 66.2013 35.769Z" fill="#444444"/>
<path d="M57.1479 59.3817C57.1479 59.3817 51.5445 56.9111 46.0799 56.3864C40.9086 55.8898 32.7787 56.3864 32.7787 56.3864" stroke="#444444" stroke-width="5" stroke-linecap="round" stroke-linejoin="round"/>
<path d="M75.0276 24.2344C75.0276 24.2344 72.0935 22.9181 66.6091 22.6896C61.2183 22.4649 56.1968 24.6365 56.1968 24.6365" stroke="#444444" stroke-width="5" stroke-linecap="round" stroke-linejoin="round"/>
<path d="M40.0984 20.8665C40.0984 20.8665 36.9428 17.227 31.4584 16.9984C26.0676 16.7738 20.8245 21.6412 20.8245 21.6412" stroke="#444444" stroke-width="5" stroke-linecap="round" stroke-linejoin="round"/>
<path d="M43.48 74.0581C43.48 74.8935 45.2523 74.0581 45.2523 76.7539C45.2523 79.6743 43.7588 79.0071 43.8472 80.1985C43.9111 81.0597 45.2523 81.2469 45.2523 83.1189C45.2523 85.7399 42.8109 85.8189 43.48 87.2375C44.2923 88.9598 44.3662 89.4091 44.3662 89.4091C44.3662 89.4091 44.3662 91.0565 42.5938 92.7789C39.2878 95.9916 34.2479 95.6369 27.3077 95.8491C16.867 95.8491 9.80615 88.1615 9.80615 78.4013C9.80615 74.2834 13.2112 66.156 13.6565 61.4029C14.2667 54.8902 13.4055 49.7211 19.1108 49.7211C25.3877 49.7211 20.8831 66.1205 26.1262 66.9442C28.6367 67.3386 34.3969 66.4953 43.48 64.7726C52.5631 63.0499 59.178 61.6378 59.9477 65.0721C61.5678 72.3008 43.48 70.9053 43.48 74.0581Z" fill="#444444"/>
</svg>
