<svg width="234" height="124" viewBox="0 0 234 124" fill="none" xmlns="http://www.w3.org/2000/svg">
<path d="M57.5484 66.4244L78.9456 65.4104L78.94 65.4109L80.5556 99.511L59.164 100.524L57.5484 66.4244Z" fill="#222222"/>
<path d="M24.6661 87.3133L31.9407 81.3968L40.2123 86.1718L41.4443 102.951L25.8981 104.092L24.6661 87.3133Z" fill="black"/>
<path d="M44.0769 80.8852L52.2684 72.9592L61.7469 79.841L63.034 101.621L45.364 102.665L44.0769 80.8852Z" fill="black"/>
<path d="M68.5099 83.2038L81.3287 73.7877L95.1672 81.6285L96.187 98.8854L69.5297 100.461L68.5099 83.2038Z" fill="black"/>
<path d="M115.909 70.6364L113 72.8182L113 70.6364L113 67.7273L115.909 67.7273L115.909 70.6364Z" fill="black"/>
<path d="M161.1 77.3492L158.091 78.7767L158.197 77.1582L158.339 75.0001L161.242 75.1911L161.1 77.3492Z" fill="black"/>
<path d="M173.18 70.9225L198.683 72.0345L198.676 72.0344L197.412 101.013L171.916 99.9015L173.18 70.9225Z" fill="#333333"/>
<path d="M179.91 71.2159L177.001 71.0891L177.083 69.1819L179.99 69.3101L179.91 71.2159Z" fill="#333333"/>
<path d="M72.3168 80.8178L69.4413 83.0437L69.408 80.8622L69.3636 77.9534L72.2724 77.909L72.3168 80.8178Z" fill="black"/>
<path d="M91.5249 50.8548L110.979 49.9328L110.973 49.9333L113.27 98.4078L93.8216 99.3292L91.5249 50.8548Z" fill="#222222"/>
<path d="M139.479 43.0004L158.379 43.5994L158.374 43.5996L156.622 98.8442L137.728 98.245L139.479 43.0004Z" fill="#222222"/>
<path d="M207.313 85.4453L217.947 86.2838L217.947 86.2798L216.724 101.857L206.091 101.022L207.313 85.4453Z" fill="black"/>
<path d="M110.091 74.9905L123.126 63.3636L137.711 73.449L137.71 98.2728L110.199 98.1209L110.091 74.9905Z" fill="black"/>
<path d="M137.708 79.2902L146.455 85.8423L146.437 98.2728H137.71L137.708 79.2902Z" fill="black"/>
<path d="M154.506 80.7257L168.233 72.692L181.183 81.9279L180.404 99.1974L153.728 97.9952L154.506 80.7257Z" fill="black"/>
<path d="M233.728 104.091C233.728 104.091 199.622 98.1475 129 98.2739C60.0779 98.3973 0.999878 107 0.999878 107" stroke="black"/>
<path d="M134.62 101.001C196.524 100.871 224.12 110.002 224.12 110.002C224.12 110.002 191.892 103.736 156.12 107.501C128.031 110.458 110.433 113.343 89.0616 116.847L88.1201 117.001C57.6201 122.001 20.6201 126.501 23.1201 117.001C25.6201 107.501 74.2057 101.129 134.62 101.001Z" fill="black" stroke="black"/>
<path d="M19.9092 97.0508L21.7588 96.8184L22.6145 103.627L20.7649 103.859L19.9092 97.0508Z" fill="black"/>
<circle cx="20.6364" cy="94.6364" r="3.63637" fill="black"/>
<path d="M16.6714 99.2756L18.3118 99.0694L19.0707 105.108L17.4303 105.314L16.6714 99.2756Z" fill="black"/>
<circle cx="17.3159" cy="97.1342" r="3.22505" fill="black"/>
<path d="M10.3857 96.9652L12.6538 96.6801L13.7031 105.029L11.4351 105.314L10.3857 96.9652Z" fill="black"/>
<circle cx="11.2774" cy="94.0045" r="4.45902" fill="black"/>
<path d="M223.221 96.0071L225.083 96.0968L224.753 102.951L222.891 102.861L223.221 96.0071Z" fill="black"/>
<circle cx="224.353" cy="93.7541" r="3.63637" transform="rotate(9.92148 224.353 93.7541)" fill="black"/>
<path d="M218.441 95.6877L220.094 95.7253L219.956 101.81L218.303 101.772L218.441 95.6877Z" fill="#222222"/>
<circle cx="219.394" cy="93.6647" r="3.22505" transform="rotate(8.4667 219.394 93.6647)" fill="#222222"/>
<path d="M229.009 98.2421L230.259 98.4142L229.626 103.015L228.376 102.843L229.009 98.2421Z" fill="#222222"/>
<circle cx="229.907" cy="96.7911" r="2.46124" transform="rotate(15 229.907 96.7911)" fill="#222222"/>
<path d="M202.781 91.8714L205.066 91.9303L204.849 100.342L202.564 100.283L202.781 91.8714Z" fill="#222222"/>
<circle cx="204.108" cy="89.0784" r="4.45902" transform="rotate(8.64157 204.108 89.0784)" fill="#222222"/>
<path d="M138.581 91.3766L140.379 91.423L140.209 98.0428L138.41 97.9964L138.581 91.3766Z" fill="#222222"/>
<circle cx="139.625" cy="89.1785" r="3.5092" transform="rotate(8.64157 139.625 89.1785)" fill="#222222"/>
<path d="M144.048 95.2949L144.959 95.3302L144.925 98.3483L144.013 98.3131L144.048 95.2949Z" fill="#222222"/>
<ellipse cx="144.56" cy="94.3007" rx="1.78184" ry="1.59648" transform="rotate(8.64157 144.56 94.3007)" fill="#222222"/>
<path d="M58.4745 86.2857L58.3929 88.6939H57.5357C57.5357 87.932 57.4609 87.3741 57.3112 87.0204H54.801V94.2245C54.801 94.5646 54.8282 94.8435 54.8827 95.0612C55.1003 95.1156 55.3452 95.1429 55.6173 95.1429H56.2296V96.102C55.7942 96.034 55.0867 96 54.1071 96C53.1276 96 52.3861 96.034 51.8827 96.102V95.1429H52.4949C52.767 95.1429 52.9983 95.1156 53.1888 95.0612C53.2568 94.8844 53.2908 94.6463 53.2908 94.3469V87.0204H50.7806C50.631 87.2925 50.5561 87.8503 50.5561 88.6939H49.6173L49.5357 86.2857C49.699 86.2041 50.2364 86.1633 51.148 86.1633L52.5969 86.2041H53.25L54.1276 86.2245L55.1276 86.2041C55.318 86.2041 55.5085 86.2041 55.699 86.2041L56.8418 86.1633C57.767 86.1633 58.3112 86.2041 58.4745 86.2857ZM64.3451 87.4082L62.6308 92.4082H66.1002L64.4063 87.4082H64.3451ZM62.6308 96.102C62.3043 96.034 61.7601 96 60.9982 96C60.2363 96 59.6444 96.034 59.2227 96.102L59.4267 95.1429H59.7329C59.9778 95.1429 60.1954 95.1156 60.3859 95.0612C60.5764 94.8027 60.7056 94.5714 60.7737 94.3673C60.8553 94.1497 60.9505 93.8844 61.0594 93.5714C61.1818 93.2585 61.3247 92.898 61.488 92.4898C61.6512 92.0816 61.8213 91.6395 61.9982 91.1633C62.1886 90.6871 62.3791 90.2177 62.5696 89.7551L63.9982 86.1633H64.6308C64.9573 86.1633 65.2295 86.2041 65.4471 86.2857L68.4676 94.2245C68.6308 94.619 68.7669 94.898 68.8757 95.0612C69.0934 95.1156 69.3111 95.1429 69.5288 95.1429H69.8349L70.039 96.102C69.658 96.034 69.2431 96 68.7941 96H67.8349C67.2499 96 66.7533 96.034 66.3451 96.102L66.2022 95.1429H66.3247C66.5696 95.1429 66.8009 95.1156 67.0186 95.0612C67.0186 94.8571 66.9505 94.5918 66.8145 94.2653L66.3451 93.1224H62.4063L62.039 94.2245C61.9301 94.551 61.8757 94.8095 61.8757 95C61.8757 95.0952 62.0458 95.1429 62.3859 95.1429H62.692L62.6308 96.102ZM75.3398 91.0204C76.9452 91.0204 77.7479 90.3469 77.7479 89C77.7479 88.2653 77.5506 87.7551 77.1561 87.4694C76.7615 87.1701 76.1017 87.0204 75.1765 87.0204H74.1153V91.0204C74.5234 91.0204 74.9316 91.0204 75.3398 91.0204ZM75.5234 96.102C75.0745 96.034 74.367 96 73.401 96C72.435 96 71.7003 96.034 71.1969 96.102V95.1429H71.8092C72.0813 95.1429 72.3126 95.1156 72.503 95.0612C72.5847 94.8844 72.6255 94.619 72.6255 94.2653L72.6051 87.8367C72.6051 87.5102 72.5711 87.2585 72.503 87.0816C72.367 87.0408 72.1561 87.0204 71.8704 87.0204H71.054V86.2857C71.2037 86.2721 71.3806 86.2517 71.5847 86.2245C71.7887 86.1973 72.0064 86.1837 72.2377 86.1837C72.4826 86.1701 72.7275 86.1565 72.9724 86.1429C73.2309 86.1293 73.5302 86.1224 73.8704 86.1224H75.2173C76.537 86.1224 77.5438 86.3401 78.2377 86.7755C78.9316 87.1973 79.2785 87.9184 79.2785 88.9388C79.2785 90.2449 78.6255 91.1293 77.3194 91.5918C77.5234 92.7483 78.0949 93.7551 79.0336 94.6122C79.4146 94.966 79.7411 95.1429 80.0132 95.1429H80.3806V96.102H79.3602C78.6119 96.102 77.9656 95.8367 77.4214 95.3061C77.0404 94.9116 76.7139 94.3265 76.4418 93.551C76.3194 93.2245 76.2241 92.9184 76.1561 92.6327C76.1017 92.3333 76.0472 92.068 75.9928 91.8367C75.6799 91.8367 75.367 91.8367 75.054 91.8367C74.7411 91.8367 74.4282 91.8299 74.1153 91.8163V94.2245C74.1153 94.6054 74.1493 94.8844 74.2173 95.0612C74.435 95.1156 74.6663 95.1429 74.9112 95.1429H75.5234V96.102ZM85.7447 96.102C85.3094 96.034 84.6019 96 83.6223 96C82.6563 96 81.9216 96.034 81.4182 96.102V95.1429H82.01C82.2685 95.1429 82.5066 95.1156 82.7243 95.0612C82.806 94.8571 82.84 94.5918 82.8264 94.2653V87.8776C82.8264 87.5374 82.7924 87.2789 82.7243 87.102C82.5747 87.0476 82.3366 87.0204 82.01 87.0204H81.3978V86.2857C82.0237 86.2041 82.7992 86.1633 83.7243 86.1633C84.6631 86.1633 85.3366 86.2041 85.7447 86.2857V87.0204H85.1325C84.8468 87.0204 84.6087 87.0476 84.4182 87.102C84.3502 87.3742 84.3162 87.6327 84.3162 87.8776V94.2245C84.3162 94.5102 84.3502 94.7891 84.4182 95.0612C84.6359 95.1156 84.874 95.1429 85.1325 95.1429H85.7447V96.102ZM87.2884 86.2857C87.9143 86.2041 88.6898 86.1633 89.615 86.1633C90.5537 86.1633 91.2272 86.2041 91.6354 86.2857V87.0204H91.0231C90.7374 87.0204 90.4993 87.0476 90.3088 87.102C90.2408 87.3742 90.2068 87.6463 90.2068 87.9184V94.2653C90.2068 94.6054 90.2408 94.8707 90.3088 95.0612C90.5265 95.1156 90.7646 95.1429 91.0231 95.1429H91.6354V96.102C91.0231 96.034 90.2952 96 89.4517 96C88.4857 96 87.7714 96.034 87.3088 96.102V95.1429H87.9211C88.1932 95.1429 88.4245 95.1156 88.615 95.0612C88.683 94.8844 88.717 94.6463 88.717 94.3469V87.9184C88.717 87.551 88.683 87.2789 88.615 87.102C88.4653 87.0476 88.2272 87.0204 87.9007 87.0204H87.2884V86.2857ZM92.8803 86.2857C93.5605 86.2041 94.302 86.1633 95.1048 86.1633C95.9211 86.1633 96.4857 86.2041 96.7986 86.2857L96.7578 87.0204H96.2068C96.0027 87.0204 95.7918 87.0476 95.5741 87.102C95.2068 87.4014 94.6626 87.9456 93.9415 88.7347C93.234 89.5238 92.7646 90.0408 92.5333 90.2857C92.302 90.5306 92.1184 90.7279 91.9823 90.8776L94.6762 94.2653C94.8803 94.5238 95.132 94.7891 95.4313 95.0612C95.649 95.1156 95.8735 95.1429 96.1048 95.1429H96.6354L96.7374 96.102C96.1932 96.034 95.4653 96 94.5537 96C93.6558 96 92.9755 96.034 92.5129 96.102V95.1429H92.6354C92.9483 95.1429 93.1728 95.1156 93.3088 95.0612C93.2544 94.9116 93.0843 94.6463 92.7986 94.2653L90.6762 91.4286C90.6354 91.3878 90.6013 91.3469 90.5741 91.3061C90.5469 91.2517 90.4925 91.1633 90.4109 91.0408C90.4789 90.9456 90.5945 90.8027 90.7578 90.6122C90.9347 90.4218 91.0911 90.2449 91.2272 90.0816C91.3769 89.9048 91.6422 89.6122 92.0231 89.2041C92.4041 88.7823 92.7578 88.3946 93.0843 88.0408C93.5333 87.5918 93.7578 87.3197 93.7578 87.2245V87.102C93.649 87.0476 93.4585 87.0204 93.1864 87.0204H92.7986L92.8803 86.2857ZM107.33 96.102L104.065 96C103.099 96 102.385 96.034 101.922 96.102V95.1429H102.514C102.772 95.1429 103.011 95.1156 103.228 95.0612C103.31 94.8571 103.344 94.5918 103.33 94.2653V87.9184C103.33 87.551 103.296 87.2789 103.228 87.102C103.079 87.0476 102.84 87.0204 102.514 87.0204H101.902V86.2857C102.528 86.2041 103.303 86.1633 104.228 86.1633C105.167 86.1633 105.847 86.2041 106.269 86.2857V87.0204H105.636C105.378 87.0204 105.14 87.0476 104.922 87.102C104.854 87.3742 104.82 87.6463 104.82 87.9184V95.1429H107.432C107.963 95.1429 108.33 95.0884 108.534 94.9796C108.874 94.8027 109.126 94.4014 109.289 93.7755L109.881 93.8367L109.636 96C108.643 96.068 107.874 96.102 107.33 96.102ZM113.382 91.1429C113.382 93.9864 114.354 95.4082 116.3 95.4082C118.246 95.4082 119.218 93.9796 119.218 91.1224C119.218 89.7075 118.967 88.6395 118.463 87.9184C117.946 87.2109 117.225 86.8571 116.3 86.8571C114.899 86.8571 113.994 87.6599 113.586 89.2653C113.45 89.7959 113.382 90.4218 113.382 91.1429ZM119.627 87.3878C120.457 88.2857 120.871 89.5306 120.871 91.1224C120.871 92.7007 120.463 93.9524 119.647 94.8776C118.831 95.8027 117.715 96.2653 116.3 96.2653C114.899 96.2653 113.783 95.8027 112.953 94.8776C112.137 93.9524 111.729 92.7007 111.729 91.1224C111.729 89.5306 112.137 88.2857 112.953 87.3878C113.783 86.4762 114.899 86.0204 116.3 86.0204C117.701 86.0204 118.81 86.4762 119.627 87.3878ZM128.891 86.2653C129.394 86.1973 130.088 86.1633 130.973 86.1633C131.871 86.1633 132.524 86.2041 132.932 86.2857V87.0204H132.299C132.013 87.0204 131.775 87.0476 131.585 87.102C131.517 87.2789 131.483 87.551 131.483 87.9184V92.4694C131.483 93.6667 131.122 94.5986 130.401 95.2653C129.694 95.932 128.755 96.2653 127.585 96.2653C125.054 96.2653 123.789 94.8435 123.789 92V87.9184C123.789 87.551 123.755 87.2789 123.687 87.102C123.537 87.0476 123.306 87.0204 122.993 87.0204H122.36V86.2653C122.877 86.1973 123.632 86.1633 124.626 86.1633C125.619 86.1633 126.32 86.2041 126.728 86.2857V87.0204H126.095C125.837 87.0204 125.598 87.0476 125.381 87.102C125.313 87.2925 125.286 87.5646 125.299 87.9184V92.5714C125.299 93.9728 125.789 94.8571 126.768 95.2245C127.068 95.3469 127.408 95.4082 127.789 95.4082C128.66 95.4082 129.299 95.1361 129.707 94.5918C130.115 94.0476 130.32 93.2041 130.32 92.0612V87.9184C130.32 87.551 130.286 87.2789 130.217 87.102C130.068 87.0476 129.83 87.0204 129.503 87.0204H128.891V86.2653ZM138.736 87.4082L137.021 92.4082H140.491L138.797 87.4082H138.736ZM137.021 96.102C136.695 96.034 136.151 96 135.389 96C134.627 96 134.035 96.034 133.613 96.102L133.817 95.1429H134.123C134.368 95.1429 134.586 95.1156 134.777 95.0612C134.967 94.8027 135.096 94.5714 135.164 94.3673C135.246 94.1497 135.341 93.8844 135.45 93.5714C135.572 93.2585 135.715 92.898 135.879 92.4898C136.042 92.0816 136.212 91.6395 136.389 91.1633C136.579 90.6871 136.77 90.2177 136.96 89.7551L138.389 86.1633H139.021C139.348 86.1633 139.62 86.2041 139.838 86.2857L142.858 94.2245C143.021 94.619 143.157 94.898 143.266 95.0612C143.484 95.1156 143.702 95.1429 143.919 95.1429H144.226L144.43 96.102C144.049 96.034 143.634 96 143.185 96H142.226C141.64 96 141.144 96.034 140.736 96.102L140.593 95.1429H140.715C140.96 95.1429 141.192 95.1156 141.409 95.0612C141.409 94.8571 141.341 94.5918 141.205 94.2653L140.736 93.1224H136.797L136.43 94.2245C136.321 94.551 136.266 94.8095 136.266 95C136.266 95.0952 136.436 95.1429 136.777 95.1429H137.083L137.021 96.102ZM154.139 86.2857L154.057 88.6939H153.2C153.2 87.932 153.125 87.3741 152.975 87.0204H150.465V94.2245C150.465 94.5646 150.492 94.8435 150.547 95.0612C150.764 95.1156 151.009 95.1429 151.281 95.1429H151.894V96.102C151.458 96.034 150.751 96 149.771 96C148.792 96 148.05 96.034 147.547 96.102V95.1429H148.159C148.431 95.1429 148.662 95.1156 148.853 95.0612C148.921 94.8844 148.955 94.6463 148.955 94.3469V87.0204H146.445C146.295 87.2925 146.22 87.8503 146.22 88.6939H145.281L145.2 86.2857C145.363 86.2041 145.9 86.1633 146.812 86.1633L148.261 86.2041H148.914L149.792 86.2245L150.792 86.2041C150.982 86.2041 151.173 86.2041 151.363 86.2041L152.506 86.1633C153.431 86.1633 153.975 86.2041 154.139 86.2857ZM160.009 87.4082L158.295 92.4082H161.764L160.07 87.4082H160.009ZM158.295 96.102C157.968 96.034 157.424 96 156.662 96C155.9 96 155.308 96.034 154.887 96.102L155.091 95.1429H155.397C155.642 95.1429 155.86 95.1156 156.05 95.0612C156.24 94.8027 156.37 94.5714 156.438 94.3673C156.519 94.1497 156.615 93.8844 156.723 93.5714C156.846 93.2585 156.989 92.898 157.152 92.4898C157.315 92.0816 157.485 91.6395 157.662 91.1633C157.853 90.6871 158.043 90.2177 158.234 89.7551L159.662 86.1633H160.295C160.621 86.1633 160.894 86.2041 161.111 86.2857L164.132 94.2245C164.295 94.619 164.431 94.898 164.54 95.0612C164.757 95.1156 164.975 95.1429 165.193 95.1429H165.499L165.703 96.102C165.322 96.034 164.907 96 164.458 96H163.499C162.914 96 162.417 96.034 162.009 96.102L161.866 95.1429H161.989C162.234 95.1429 162.465 95.1156 162.683 95.0612C162.683 94.8571 162.615 94.5918 162.479 94.2653L162.009 93.1224H158.07L157.703 94.2245C157.594 94.551 157.54 94.8095 157.54 95C157.54 95.0952 157.71 95.1429 158.05 95.1429H158.356L158.295 96.102ZM177.208 96.102C176.745 96.034 176.038 96 175.085 96C174.133 96 173.398 96.034 172.881 96.102V95.1429H173.494C173.779 95.1429 174.017 95.1156 174.208 95.0612C174.29 94.8844 174.324 94.619 174.31 94.2653V91.3878H169.636V94.2245C169.636 94.5102 169.67 94.7891 169.739 95.0612C169.956 95.1156 170.194 95.1429 170.453 95.1429H171.065V96.102C170.602 96.034 169.888 96 168.922 96C167.956 96 167.228 96.034 166.739 96.102V95.1429H167.351C167.623 95.1429 167.854 95.1156 168.045 95.0612C168.126 94.8571 168.167 94.5918 168.167 94.2653V87.9184C168.167 87.5918 168.126 87.3197 168.045 87.102C167.895 87.0476 167.657 87.0204 167.33 87.0204H166.718V86.2857C167.344 86.2041 168.113 86.1633 169.024 86.1633C169.949 86.1633 170.636 86.2041 171.085 86.2857V87.0204H170.453C170.194 87.0204 169.956 87.0476 169.739 87.102C169.67 87.3742 169.636 87.6463 169.636 87.9184V90.449H174.31V87.9184C174.31 87.551 174.276 87.2789 174.208 87.102C174.058 87.0476 173.82 87.0204 173.494 87.0204H172.881V86.2857C173.507 86.2041 174.283 86.1633 175.208 86.1633C176.147 86.1633 176.827 86.2041 177.249 86.2857V87.0204H176.616C176.358 87.0204 176.119 87.0476 175.902 87.102C175.834 87.3742 175.8 87.6463 175.8 87.9184V94.2245C175.8 94.5102 175.834 94.7891 175.902 95.0612C176.119 95.1156 176.351 95.1429 176.596 95.1429H177.208V96.102Z" fill="white"/>
<path d="M138.19 20.9826C136.859 25.2677 129.472 31.2672 126.757 30.4235C124.042 29.5798 121.357 20.4507 122.689 16.1655C124.021 11.8803 128.57 9.48483 132.851 10.815C137.131 12.1452 139.522 16.6974 138.19 20.9826Z" fill="white"/>
<path d="M138.19 20.9826C136.859 25.2677 129.472 31.2672 126.757 30.4235C124.042 29.5798 121.357 20.4507 122.689 16.1655C124.021 11.8803 128.57 9.48483 132.851 10.815C137.131 12.1452 139.522 16.6974 138.19 20.9826Z" fill="#333333"/>
<path d="M127.17 13.729C125.406 15.1512 124.962 17.5129 124.283 16.6705C123.604 15.8282 124.484 13.9924 126.249 12.5701C128.013 11.1479 129.994 10.6778 130.673 11.5202C131.352 12.3625 128.935 12.3067 127.17 13.729Z" fill="white" fill-opacity="0.5"/>
<path d="M126.941 30.411C126.941 30.411 125.777 31.3155 125.571 32.7582C125.331 34.4352 125.643 35.4373 125.546 37.1285C125.465 38.5524 124.354 40.1408 124.354 40.1408" stroke="#444444" stroke-width="1.4"/>
<path d="M125.991 30.1969C126.49 29.87 127.156 30.2061 127.189 30.8018L127.247 31.8277C127.255 31.9675 127.109 32.0634 126.984 32.0003V32.0003C126.969 31.993 126.956 31.9839 126.944 31.973L126.549 31.6173C126.317 31.4077 126.019 31.2855 125.706 31.2715L125.297 31.2533C125.228 31.2502 125.163 31.2221 125.115 31.1742V31.1742C124.988 31.05 125.008 30.8403 125.157 30.7431L125.991 30.1969Z" fill="#333333"/>
<path d="M113.122 16.6726C114.84 20.8181 113.001 30.1545 110.375 31.2429C107.748 32.3312 99.8444 27.0323 98.1265 22.8868C96.4087 18.7413 98.3731 13.9897 102.514 12.2737C106.655 10.5577 111.405 12.5272 113.122 16.6726Z" fill="white"/>
<path d="M113.122 16.6726C114.84 20.8181 113.001 30.1545 110.375 31.2429C107.748 32.3312 99.8444 27.0323 98.1265 22.8868C96.4087 18.7413 98.3731 13.9897 102.514 12.2737C106.655 10.5577 111.405 12.5272 113.122 16.6726Z" fill="#333333"/>
<path d="M100.012 18.1472C99.5659 20.3692 100.736 22.4684 99.6749 22.2553C98.6142 22.0421 98.1163 20.0681 98.5627 17.8461C99.0092 15.6241 100.231 13.9955 101.292 14.2086C102.352 14.4218 100.459 15.9252 100.012 18.1472Z" fill="white" fill-opacity="0.5"/>
<path d="M110.508 31.1158C110.508 31.1158 110.191 32.5559 110.956 33.7966C111.845 35.2387 112.726 35.8092 113.733 37.1711C114.581 38.3177 114.744 40.2492 114.744 40.2492" stroke="#444444" stroke-width="1.4"/>
<path d="M109.641 31.559C109.815 30.9884 110.542 30.8207 110.949 31.2572L111.649 32.0088C111.745 32.1112 111.694 32.2786 111.557 32.3101V32.3101C111.541 32.3137 111.525 32.3152 111.509 32.3146L110.978 32.2936C110.666 32.2812 110.358 32.378 110.109 32.5673L109.783 32.815C109.728 32.8564 109.66 32.8763 109.592 32.8707V32.8707C109.415 32.8564 109.297 32.6821 109.349 32.5124L109.641 31.559Z" fill="#333333"/>
<g filter="url(#filter0_d)">
<path d="M126.795 11.4983C127.305 17.176 121.535 27.7984 117.938 28.122C114.341 28.4455 106.767 19.0234 106.256 13.3457C105.746 7.66807 109.929 2.65188 115.601 2.14174C121.272 1.6316 126.284 5.82069 126.795 11.4983Z" fill="white"/>
<path d="M126.795 11.4983C127.305 17.176 121.535 27.7984 117.938 28.122C114.341 28.4455 106.767 19.0234 106.256 13.3457C105.746 7.66807 109.929 2.65188 115.601 2.14174C121.272 1.6316 126.284 5.82069 126.795 11.4983Z" fill="#222222"/>
<path d="M118.147 28.0184C118.147 28.0184 117.17 30.3125 117.626 32.1068C118.157 34.1923 120.157 34.5201 120.862 36.5533C121.455 38.2653 119.819 40.6986 119.819 40.6986" stroke="#444444" stroke-width="1.4"/>
<path d="M117.02 27.9797C117.448 27.3541 118.393 27.4264 118.72 28.1099L119.285 29.2869C119.362 29.4473 119.236 29.6309 119.059 29.6173V29.6173C119.038 29.6157 119.018 29.6114 118.999 29.6045L118.363 29.3777C117.989 29.2441 117.579 29.2449 117.205 29.3799L116.716 29.5565C116.634 29.5861 116.544 29.5844 116.464 29.5518V29.5518C116.255 29.4673 116.177 29.2111 116.305 29.025L117.02 27.9797Z" fill="#222222"/>
</g>
<path d="M110.335 8.90896C108.951 11.4337 109.573 14.4224 108.368 13.7618C107.163 13.1012 107.308 10.5189 108.692 7.9941C110.076 5.46934 112.175 3.95817 113.38 4.61881C114.585 5.27945 111.719 6.38419 110.335 8.90896Z" fill="white" fill-opacity="0.5"/>
<defs>
<filter id="filter0_d" x="101.332" y="1.21808" width="30.8753" height="52.1964" filterUnits="userSpaceOnUse" color-interpolation-filters="sRGB">
<feFlood flood-opacity="0" result="BackgroundImageFix"/>
<feColorMatrix in="SourceAlpha" type="matrix" values="0 0 0 0 0 0 0 0 0 0 0 0 0 0 0 0 0 0 127 0"/>
<feOffset dy="8"/>
<feGaussianBlur stdDeviation="2"/>
<feColorMatrix type="matrix" values="0 0 0 0 0 0 0 0 0 0 0 0 0 0 0 0 0 0 0.25 0"/>
<feBlend mode="normal" in2="BackgroundImageFix" result="effect1_dropShadow"/>
<feBlend mode="normal" in="SourceGraphic" in2="effect1_dropShadow" result="shape"/>
</filter>
</defs>
</svg>
