<svg width="120" height="120" viewBox="0 0 120 120" fill="none" xmlns="http://www.w3.org/2000/svg">
<path fill-rule="evenodd" clip-rule="evenodd" d="M70.1623 7.8264C67.3065 -2.6088 52.6935 -2.6088 49.8377 7.8264C47.9033 14.8945 39.6693 17.9291 33.7007 13.7736C24.8887 7.63859 13.6945 17.1498 18.1311 27.0024C21.1361 33.6758 16.7549 41.3598 9.54477 42.0614C-1.10016 43.0971 -3.63768 57.6691 6.01543 62.329C12.5538 65.4853 14.0753 74.2231 8.99742 79.4534C1.50043 87.1753 8.80695 99.9897 19.1598 97.2765C26.172 95.4387 32.8845 101.142 32.3147 108.454C31.4736 119.249 45.2054 124.309 51.4137 115.493C55.6188 109.521 64.3812 109.521 68.5863 115.493C74.7946 124.309 88.5264 119.249 87.6853 108.454C87.1156 101.142 93.828 95.4387 100.84 97.2765C111.193 99.9897 118.5 87.1753 111.003 79.4534C105.925 74.2231 107.446 65.4852 113.985 62.329C123.638 57.6691 121.1 43.0971 110.455 42.0614C103.245 41.3598 98.8639 33.6758 101.869 27.0024C106.306 17.1498 95.1113 7.63859 86.2993 13.7736C80.3307 17.9291 72.0967 14.8945 70.1623 7.8264ZM60.5213 99.7514C82.1945 99.7514 99.764 81.9609 99.764 60.0152C99.764 38.0695 82.1945 20.279 60.5213 20.279C38.8482 20.279 21.2787 38.0695 21.2787 60.0152C21.2787 81.9609 38.8482 99.7514 60.5213 99.7514Z" fill="white"/>
<path d="M77.7539 36.9069C78.2666 36.3877 78.8753 35.9759 79.5452 35.6949C80.2151 35.4139 80.9331 35.2693 81.6582 35.2693C82.3833 35.2693 83.1013 35.4139 83.7712 35.6949C84.4411 35.9759 85.0498 36.3877 85.5625 36.9069C86.0753 37.426 86.482 38.0424 86.7595 38.7207C87.037 39.3991 87.1798 40.1261 87.1798 40.8603C87.1798 41.5945 87.037 42.3216 86.7595 42.9999C86.482 43.6782 86.0753 44.2946 85.5625 44.8138L81.6582 40.8603L77.7539 36.9069Z" fill="white"/>
<path d="M54.9991 28.7501H64.9991V33.7501L60.1436 32.9256L54.9991 33.7501V28.7501Z" fill="white"/>
<path fill-rule="evenodd" clip-rule="evenodd" d="M60.1436 86.2857C74.6955 86.2857 86.4922 74.3406 86.4922 59.6057C86.4922 44.8707 74.6955 32.9256 60.1436 32.9256C45.5916 32.9256 33.7949 44.8707 33.7949 59.6057C33.7949 74.3406 45.5916 86.2857 60.1436 86.2857ZM59.6205 79.7363C70.457 79.7363 79.2418 70.8411 79.2418 59.8682C79.2418 48.8954 70.457 40.0001 59.6205 40.0001C48.7839 40.0001 39.9991 48.8954 39.9991 59.8682C39.9991 70.8411 48.7839 79.7363 59.6205 79.7363Z" fill="white"/>
<path d="M68.6481 53.3871C68.6481 53.3871 63.7313 61.5683 62.1197 62.8362C60.5081 64.1041 58.2777 63.9277 57.1379 62.4423C55.9982 60.9569 56.3807 58.7249 57.9923 57.457C59.6039 56.1892 68.6481 53.3871 68.6481 53.3871Z" fill="white"/>
</svg>
