<svg width="160" height="160" viewBox="0 0 160 160" fill="none" xmlns="http://www.w3.org/2000/svg">
<path d="M80 140C113.137 140 140 113.137 140 80C140 46.8629 113.137 20 80 20C46.8629 20 20 46.8629 20 80C20 113.137 46.8629 140 80 140Z" fill="#8993BE"/>
<path fill-rule="evenodd" clip-rule="evenodd" d="M34 102.031L40.9044 67.0648H56.8695C63.7734 67.4966 67.2256 70.9497 67.2256 76.9937C67.2256 87.354 59.0272 93.3975 51.6912 92.9657H43.925L42.1989 102.031H34ZM45.6506 86.4908L47.8083 73.5401H53.4178C56.4383 73.5401 58.5956 74.8351 58.5956 77.425C58.1644 84.764 54.7122 86.059 50.8289 86.4908H45.6511H45.6506ZM65.6216 92.9657L72.5255 58H80.7243L78.9982 67.0648H86.765C93.6694 67.4966 96.2583 70.9497 95.3955 75.2669L92.3749 92.9657H83.7449L86.7654 76.9937C87.1966 74.8351 87.1966 73.5401 84.1765 73.5401H77.7038L73.8204 92.9657H65.6216V92.9657ZM91.8222 102.031L98.7261 67.0648H114.692C121.596 67.4966 125.048 70.9497 125.048 76.9937C125.048 87.354 116.849 93.3975 109.514 92.9657H101.747L100.021 102.031H91.8222V102.031ZM103.472 86.4908L105.63 73.5401H111.24C114.261 73.5401 116.418 74.8351 116.418 77.425C115.987 84.764 112.534 86.059 108.651 86.4908H103.473H103.472Z" fill="#F5F8FF"/>
</svg>
