<svg width="160" height="160" viewBox="0 0 160 160" fill="none" xmlns="http://www.w3.org/2000/svg">
<g clip-path="url(#clip0)">
<path d="M131.372 36.3972L122.045 140.876L80.1231 152.498L38.3164 140.892L29 36.3972H131.372Z" fill="#264DE4"/>
<path d="M114.061 134.223L122.031 44.9412H80.1855V143.614L114.061 134.223Z" fill="#2965F1"/>
<path d="M50.3579 83.6968L51.5066 96.5125H80.186V83.6968H50.3579Z" fill="#EBEBEB"/>
<path d="M80.1859 57.7572H80.1416H48.0498L49.2148 70.5732H80.1859V57.7572Z" fill="#EBEBEB"/>
<path d="M80.1859 130.315V116.981L80.1297 116.996L65.8566 113.142L64.9442 102.921H58.0086H52.0791L53.8746 123.043L80.1269 130.331L80.1859 130.315Z" fill="#EBEBEB"/>
<path d="M53.0923 8H68.6145V14.4911H59.5834V20.9822H68.6145V27.4733H53.0923V8Z" fill="black"/>
<path d="M71.7192 8H87.2415V13.6444H78.2103V14.7733H87.2415V27.7556H71.7192V21.8289H80.7503V20.7H71.7192V8Z" fill="black"/>
<path d="M90.3457 8H105.868V13.6444H96.8368V14.7733H105.868V27.7556H90.3457V21.8289H99.3768V20.7H90.3457V8Z" fill="black"/>
<path d="M95.9229 96.5125L94.4353 113.134L80.1416 116.992V130.325L106.415 123.043L106.608 120.878L109.619 87.1382L109.932 83.6968L112.246 57.7572H80.1416V70.5732H98.2004L97.0343 83.6968H80.1416V96.5125H95.9229Z" fill="white"/>
</g>
<defs>
<clipPath id="clip0">
<rect width="102.372" height="144.498" fill="white" transform="translate(29 8)"/>
</clipPath>
</defs>
</svg>
