<svg width="48" height="48" viewBox="0 0 48 48" fill="none" xmlns="http://www.w3.org/2000/svg">
<path fill-rule="evenodd" clip-rule="evenodd" d="M48 24C48 37.2548 37.2548 48 24 48C10.7452 48 0 37.2548 0 24C0 10.7452 10.7452 0 24 0C37.2548 0 48 10.7452 48 24ZM8 12V32.0864C8 32.0864 12.9567 32.1954 15.9798 32.9994C19.5064 33.9374 24 35.282 24 35.282C24 35.282 28.4809 33.9398 32 32.9994C35.0298 32.1898 40 31.6299 40 31.6299V12C40 12 35.1242 12.0774 32 12.7608C28.8758 13.4442 24 15.4999 24 15.4999C24 15.4999 19.1039 13.4442 15.9798 12.7608C12.8556 12.0774 8 12 8 12Z" fill="black"/>
</svg>
