<svg width="137" height="115" viewBox="0 0 137 115" fill="none" xmlns="http://www.w3.org/2000/svg">
<path d="M27.1035 58.0152C27.1035 24.0122 49.0853 1 49.0853 1C49.0853 1 30.1947 20.921 30.8816 58.0152C31.5686 95.1094 49.0853 114 49.0853 114C49.0853 114 27.1035 92.0182 27.1035 58.0152Z" fill="black" stroke="black" stroke-width="0.25"/>
<path d="M36.7202 57.8419C36.7202 23.9422 49.085 1 49.085 1C49.085 1 38.459 20.8604 38.8454 57.8419C39.2318 94.8234 49.085 113.657 49.085 113.657C49.085 113.657 36.7202 91.7416 36.7202 57.8419Z" fill="black" stroke="black" stroke-width="0.25"/>
<path d="M10.6172 57.585C10.6172 40.6352 16.7996 29.1641 16.7996 29.1641C16.7996 29.1641 11.4866 39.0943 11.6798 57.585C11.873 76.0758 16.7996 85.4924 16.7996 85.4924C16.7996 85.4924 10.6172 74.5349 10.6172 57.585Z" fill="black" stroke="black" stroke-width="0.25"/>
<path d="M1 59.5644C1 47.9889 5.12158 40.155 5.12158 40.155C5.12158 40.155 1.5796 46.9366 1.7084 59.5644C1.8372 72.1922 5.12158 78.6231 5.12158 78.6231C5.12158 78.6231 1 71.1399 1 59.5644Z" fill="black" stroke="black" stroke-width="0.25"/>
<path d="M126.708 56.2112C126.708 39.2614 120.526 27.7903 120.526 27.7903C120.526 27.7903 125.839 37.7205 125.645 56.2112C125.452 74.7019 120.526 84.1185 120.526 84.1185C120.526 84.1185 126.708 73.161 126.708 56.2112Z" fill="black" stroke="black" stroke-width="0.25"/>
<path d="M136.325 58.1906C136.325 46.6151 132.204 38.7811 132.204 38.7811C132.204 38.7811 135.746 45.5628 135.617 58.1906C135.488 70.8184 132.204 77.2492 132.204 77.2492C132.204 77.2492 136.325 69.7661 136.325 58.1906Z" fill="black" stroke="black" stroke-width="0.25"/>
<path d="M112.97 58.0152C112.97 24.0122 90.988 1 90.988 1C90.988 1 109.879 20.921 109.192 58.0152C108.505 95.1094 90.988 114 90.988 114C90.988 114 112.97 92.0182 112.97 58.0152Z" fill="black" stroke="black" stroke-width="0.25"/>
<path d="M103.353 57.8419C103.353 23.9422 90.9878 1 90.9878 1C90.9878 1 101.614 20.8604 101.227 57.8419C100.841 94.8234 90.9878 113.657 90.9878 113.657C90.9878 113.657 103.353 91.7416 103.353 57.8419Z" fill="black" stroke="black" stroke-width="0.25"/>
<path d="M87.553 59.3891C87.553 72.288 79.8643 82.7447 70.3798 82.7447C60.8953 82.7447 53.2065 72.288 53.2065 59.3891C53.2065 46.4901 60.8953 36.0334 70.3798 36.0334C79.8643 36.0334 87.553 46.4901 87.553 59.3891ZM53.7715 59.3891C53.7715 71.8637 61.2073 81.9764 70.3798 81.9764C79.5523 81.9764 86.9881 71.8637 86.9881 59.3891C86.9881 46.9144 79.5523 36.8017 70.3798 36.8017C61.2073 36.8017 53.7715 46.9144 53.7715 59.3891Z" fill="black"/>
<path d="M79.482 43.6664C80.0245 45.6913 79.2332 47.6626 77.7146 48.0695C76.1959 48.4765 74.525 47.1649 73.9824 45.14C73.4398 43.1151 74.2311 41.1437 75.7498 40.7368C77.2684 40.3299 78.9394 41.6415 79.482 43.6664ZM74.0729 45.1157C74.5976 47.074 76.2136 48.3425 77.6823 47.9489C79.151 47.5554 79.4555 45.754 78.9308 43.7957C78.4061 41.8374 77.2508 40.4639 75.7821 40.8574C74.3134 41.2509 73.5481 43.1575 74.0729 45.1157Z" fill="black" stroke="black" stroke-width="0.25"/>
</svg>
