<svg width="48" height="48" viewBox="0 0 48 48" fill="none" xmlns="http://www.w3.org/2000/svg">
<path d="M29.0654 18.1994C29.0654 21.071 26.7149 23.5 23.8154 23.5C20.9159 23.5 18.5654 21.071 18.5654 18.1994C18.5654 15.3279 20.9159 13 23.8154 13C26.7149 13 29.0654 15.3279 29.0654 18.1994Z" fill="white"/>
<path d="M18.3827 25.833C19.9751 24.3346 21.9873 23.5 23.9997 23.5C26.0122 23.5 28.025 24.3346 29.6174 25.833C31.806 27.8924 30.7409 33.9997 30.7409 33.9997L17.259 34C17.259 34 16.1942 27.8924 18.3827 25.833Z" fill="white"/>
<path fill-rule="evenodd" clip-rule="evenodd" d="M0 24C0 37.2548 10.7452 48 24 48C37.2548 48 48 37.2548 48 24C48 10.7452 37.2548 0 24 0C10.7452 0 0 10.7452 0 24ZM29.0654 18.1994C29.0654 21.071 26.8995 23.5 24 23.5C26.0125 23.5 28.025 24.3346 29.6174 25.833C31.806 27.8924 30.7409 33.9997 30.7409 33.9997L17.259 34C17.259 34 16.1942 27.8924 18.3827 25.833C19.9751 24.3346 21.9875 23.5 24 23.5C21.1005 23.5 18.5654 21.071 18.5654 18.1994C18.5654 15.3279 20.9159 13 23.8154 13C26.7149 13 29.0654 15.3279 29.0654 18.1994Z" fill="black"/>
</svg>
