<svg width="224" height="96" viewBox="0 0 224 96" fill="none" xmlns="http://www.w3.org/2000/svg">
<path d="M79.7581 4.16883C58.0252 6.50106 39.1651 8.53064 37.8625 8.69087C35.4359 8.97573 34.5794 9.26058 34.2582 9.84809C33.9906 10.3466 34.8827 11.0231 36.3637 11.4504C37.0239 11.6462 46.3915 14.1743 57.1866 17.0762C67.9816 19.9782 76.9746 22.3994 77.1708 22.4884C77.5098 22.6309 77.5455 23.1472 78.2593 39.1702C78.6518 48.2677 78.9551 55.7451 78.9373 55.7629C78.9194 55.7985 73.2454 54.6591 66.3579 53.2348C54.2246 50.7067 53.8142 50.5999 53.1897 50.0658C52.4403 49.4071 50.888 48.6771 49.978 48.5525C49.6033 48.4991 49.0501 48.5703 48.7111 48.7127L48.0866 48.9798L34.0798 43.0335C26.3716 39.7577 19.3593 36.8379 18.4671 36.5531C14.3632 35.1644 10.2593 36.3038 6.13754 39.9713C3.53245 42.2857 1.67677 45.0097 0.606181 48.054C-0.0896995 50.048 -0.196758 52.8253 0.338534 54.8015C1.26637 58.2019 3.31833 60.7122 6.35165 62.1899C6.95832 62.4925 14.0777 64.7713 22.1606 67.2638L36.8455 71.8037L37.8447 72.765L38.8439 73.7442L38.2015 73.9222C37.8447 74.0291 36.6135 74.3139 35.4359 74.5632C33.2055 75.0439 32.349 75.3999 31.1535 76.3435C30.7431 76.664 29.9937 77.1803 29.4763 77.5185C28.5306 78.106 28.1916 78.5867 28.1916 79.3701C28.1916 79.6015 28.031 79.922 27.8526 80.0822C27.2994 80.5807 27.0318 81.3818 27.2994 81.7023C27.4957 81.9337 27.4065 81.9693 26.7284 81.9693C25.7114 81.9693 23.1598 81.5243 22.1963 81.2038C21.7145 81.0258 21.0722 80.9724 20.18 81.0436C18.6812 81.1504 18.7169 81.3996 20.2514 81.5243C20.8402 81.5599 21.9643 81.7735 22.7494 81.9872C23.6773 82.2186 25.069 82.3966 26.7641 82.4856C29.0837 82.5925 29.4406 82.6637 30.2792 83.091C30.7788 83.358 31.2606 83.6607 31.332 83.7675C31.6175 84.2482 32.9378 84.6398 34.3474 84.6577H35.7749L34.3474 85.3698C33.5802 85.7437 32.8486 86.0641 32.7237 86.0641C32.6167 86.0641 32.4204 86.1887 32.2955 86.3312C32.1706 86.4736 31.778 86.6694 31.4212 86.7762C31.0643 86.8653 30.6182 87.0611 30.422 87.1857C30.1186 87.4172 30.1722 87.435 30.9037 87.4172C31.3676 87.3994 31.8673 87.2569 32.0457 87.1323C32.3133 86.8831 32.3312 86.9009 32.2241 87.3103L32.1171 87.7554L32.3312 87.3281C32.4739 87.0433 33.3661 86.527 35.1325 85.6724L37.7376 84.4084L39.5576 84.5152C42.2162 84.6577 43.4117 84.444 45.4637 83.4114C46.4094 82.9307 47.8725 82.3254 48.7111 82.0584C50.6382 81.4352 51.5125 80.9902 52.137 80.3314L52.6366 79.7973L65.6085 87.2391C72.7636 91.3161 79.0622 94.859 79.6332 95.0904C80.9357 95.6245 83.0947 95.8025 84.4151 95.4999C88.6261 94.5385 93.3188 90.1411 96.2272 84.444C96.6376 83.6073 97.0302 83.0554 97.1551 83.1088C98.0472 83.447 101.348 84.3728 103.489 84.8891C110.609 86.616 117.246 87.435 125.704 87.613C138.194 87.8801 149.632 86.1887 158.161 82.8239C165.797 79.8151 170.33 75.8094 170.972 71.501C171.079 70.8423 171.935 60.8012 172.881 49.1756C173.827 37.5501 174.648 28.0075 174.683 27.9541C174.826 27.8294 192.116 22.8623 192.437 22.8623C192.616 22.8623 192.901 23.254 193.187 23.8593C193.561 24.6783 193.65 25.2302 193.74 26.7612C193.829 28.8976 193.722 30.3219 192.616 41.9119C191.598 52.5227 191.652 52.0598 191.384 52.0598C191.259 52.0598 191.01 52.22 190.813 52.4336C190.546 52.7185 190.528 52.8609 190.706 53.128C190.885 53.4128 190.867 53.5018 190.546 53.6799C189.939 54.0003 189.493 55.2822 189.297 57.3474C189.047 59.9466 188.137 64.7891 187.619 66.4627C186.888 68.7237 187.031 69.4358 188.28 69.9521C189.511 70.4506 191.795 70.6108 192.473 70.237C193.008 69.9699 193.204 68.7237 193.044 66.6407C192.937 64.9672 193.062 60.997 193.347 57.0981C193.49 55.3534 193.365 54.57 192.865 54.0537C192.544 53.6977 192.526 53.6265 192.776 53.3772C193.151 53.0211 193.133 52.9677 192.616 52.4158L192.187 51.9707L192.883 46.0066C194.953 28.417 195.06 25.7287 193.882 23.343L193.472 22.5063L194.382 22.2392C194.882 22.079 200.591 20.4411 207.068 18.5717C213.545 16.7024 219.612 14.9398 220.54 14.655C223.68 13.7114 224.305 12.9281 222.628 12.0557C221.932 11.6996 223.627 11.9133 192.259 8.2814C133.18 1.42712 121.564 0.0918681 120.44 0.00285146C119.637 -0.0683618 107.379 1.19567 79.7581 4.16883ZM51.4768 49.3537C52.6901 49.9234 53.386 50.5465 52.6188 50.3863C52.3868 50.3328 51.6374 50.1726 50.9772 50.0124C50.317 49.87 49.5141 49.6207 49.1929 49.4605C48.6754 49.1756 48.6576 49.14 48.9788 49.0154C49.6568 48.7483 50.4062 48.8552 51.4768 49.3537ZM39.5755 72.6404C41.1457 73.1211 41.217 73.2635 39.9323 73.495C39.3257 73.6018 39.1829 73.5484 38.5049 72.9075C38.0766 72.5158 37.809 72.1775 37.8982 72.1775C37.9696 72.1775 38.7368 72.3912 39.5755 72.6404Z" fill="black"/>
</svg>
