<svg width="157" height="157" viewBox="0 0 157 157" fill="none" xmlns="http://www.w3.org/2000/svg">
<path d="M58.3062 0.0564325C55.3741 0.130099 47.8414 0.743989 46.406 1.02638C44.9829 1.30877 44.0751 4.12038 43.9279 8.7C43.7684 13.6971 44.713 17.4664 46.357 18.3258C46.7373 18.5345 50.6999 18.8169 55.6685 19.0134C57.656 19.087 59.3122 19.1607 59.3367 19.1852C59.3613 19.2098 59.3858 22.267 59.3981 25.9626L59.4103 32.6908L58.7233 31.7332C57.6437 30.223 56.1961 28.6514 54.0614 26.6624C52.0126 24.7594 50.7981 23.7894 49.6571 23.151C49.2891 22.9423 48.5407 22.4757 48.0009 22.1319C47.0685 21.518 45.9767 20.9164 45.9767 21.0024C45.9767 21.0269 46.2343 21.2234 46.541 21.4444C46.8477 21.6654 47.0685 21.8741 47.044 21.8986C47.0195 21.9232 46.5901 21.8618 46.0871 21.739C45.2651 21.5549 45.2038 21.5303 45.5227 21.4321C45.7068 21.3584 45.854 21.2602 45.854 21.1988C45.854 20.8919 45.1056 20.8182 42.6642 20.8796C37.438 21.0269 25.501 22.7458 22.8265 23.7403C22.2745 23.9368 22.1886 24.0718 22.4585 24.2437C22.5566 24.2928 22.6548 24.4401 22.7039 24.5506C22.8143 24.8699 23.7099 25.4592 25.4397 26.38C26.2862 26.8343 27.1695 27.3868 27.4149 27.6078C28.8625 28.9952 34.1992 35.4656 35.7572 37.7247L36.0149 38.1053L29.0097 39.4927C25.1452 40.2662 21.6611 41.0029 21.2685 41.1257C20.8636 41.2607 20.2257 41.5677 19.8576 41.8132C19.4773 42.0588 18.9621 42.3657 18.7044 42.4885C17.9683 42.8691 17.7966 43.1883 17.3304 45.0914C16.5084 48.3941 16.3489 49.9166 16.4593 53.8086C16.4962 55.4293 16.5943 57.5288 16.6679 58.4742C16.7661 59.7388 16.7538 61.1385 16.6556 63.7537C16.5698 65.7181 16.533 68.4929 16.582 69.954C16.6188 71.4027 16.6679 73.4777 16.6679 74.5458L16.6924 76.5103L15.4166 76.7804C11.7361 77.5539 8.80399 78.4379 6.05591 79.6043C3.12381 80.8444 2.10555 81.667 1.47987 83.2754C1.11182 84.2453 0.596557 86.2466 0.351193 87.6954C-0.114999 90.3965 -0.114999 94.0553 0.338925 101.017C0.547484 104.32 0.584289 105.916 0.559752 111.944L0.522948 119.004L0.866458 119.777C1.94606 122.221 4.31382 124.48 8.50955 127.07C10.2762 128.163 13.0733 129.919 16.8397 132.288C25.7464 137.887 35.9903 143.13 48.0868 148.237C52.3439 150.042 56.1102 151.479 62.0112 153.553C66.894 155.272 68.2189 155.702 69.4335 155.96C69.9242 156.07 70.7952 156.279 71.3719 156.414C72.8195 156.77 74.6107 156.672 77.7513 156.095C81.6526 155.358 82.4868 155.125 96.8284 150.472C109.121 146.494 120.666 141.963 130.995 137.052C132.652 136.266 134.946 135.247 136.087 134.781C147.386 130.238 152.195 127.709 155.102 124.774C156.022 123.853 156.108 123.731 156.452 122.687L156.82 121.582V113.295C156.82 108.74 156.869 103.436 156.93 101.508C157.041 97.7141 156.808 92.2382 156.464 90.2737C156.145 88.4934 155.544 87.1306 154.673 86.1975C154.145 85.6327 154.796 85.8905 139.129 80.0095C135.412 78.6098 133.474 77.824 133.51 77.7258C133.535 77.6399 133.645 77.1733 133.743 76.6822C134.406 73.4654 134.332 69.4506 133.449 59.8862C133.375 59.174 133.326 58.2041 133.326 57.713C133.326 55.9818 132.921 54.8768 131.854 53.7104C130.897 52.6668 128.873 51.5986 126.579 50.9234C126.076 50.776 124.53 50.2726 123.144 49.8184C121.757 49.3518 119.353 48.6397 117.807 48.2468C113.464 47.1172 104.128 44.1092 103.171 43.5321C101.613 42.5867 100.092 41.3958 95.7856 37.7861C94.8041 36.9635 93.516 35.9076 92.9026 35.4411C92.3014 34.9745 91.3322 34.2378 90.7556 33.7958C89.5533 32.8627 86.6335 31.3648 84.8914 30.7878C83.0144 30.1616 81.26 29.8055 79.5916 29.7319L78.058 29.6582L73.4697 30.5913C70.9425 31.0947 68.8446 31.4999 68.8201 31.463C68.7955 31.4385 68.8446 30.8983 68.9305 30.2721C69.274 27.927 69.09 22.267 68.5992 19.5413L68.5256 19.1607L71.151 19.0747C73.985 18.9888 79.6897 18.6819 81.5299 18.5222C82.5359 18.4363 82.7199 18.3749 83.0266 18.0802C84.1063 17.0489 84.7933 13.8935 84.7933 9.91551C84.7933 5.26222 83.8609 1.86127 82.3887 1.16143C81.7508 0.85449 75.3222 0.326544 69.5316 0.0932659C66.8326 -0.0172343 61.6432 -0.0295121 58.3062 0.0564325ZM68.0472 20.8673C68.0349 21.8373 67.9981 22.93 67.9368 23.2983C67.8754 23.7649 67.8386 23.2246 67.8263 21.5426C67.8263 20.0079 67.8631 19.1239 67.9368 19.1239C68.0104 19.1239 68.0594 19.7869 68.0472 20.8673ZM23.3664 24.5998C23.3295 24.6366 23.2191 24.6489 23.1333 24.612C23.0351 24.5752 23.0719 24.5384 23.2069 24.5384C23.3418 24.5261 23.4154 24.5629 23.3664 24.5998ZM60.0606 31.6472C60.0483 33.096 60.036 33.1328 59.9624 32.2611C59.8275 30.8123 59.8275 29.7196 59.9624 29.9283C60.0238 30.0265 60.0728 30.8 60.0606 31.6472ZM19.3546 42.906C19.0725 43.1515 18.6676 43.5812 18.4836 43.8391C18.091 44.3793 18.0297 44.3547 18.3118 43.8145C18.5081 43.4339 19.5509 42.4517 19.7595 42.4517C19.8331 42.4517 19.6491 42.6604 19.3546 42.906ZM18.2996 43.3725C18.1892 43.5444 18.0788 43.6795 18.0419 43.6795C17.9806 43.6795 18.1033 43.4585 18.2873 43.2129C18.4959 42.9428 18.5081 43.0533 18.2996 43.3725Z" fill="black"/>
</svg>
