<?xml version="1.0" encoding="UTF-8" standalone="no"?>
<!-- Created with Inkscape (http://www.inkscape.org/) -->
<svg
   xmlns:dc="http://purl.org/dc/elements/1.1/"
   xmlns:cc="http://web.resource.org/cc/"
   xmlns:rdf="http://www.w3.org/1999/02/22-rdf-syntax-ns#"
   xmlns:svg="http://www.w3.org/2000/svg"
   xmlns="http://www.w3.org/2000/svg"
   xmlns:sodipodi="http://sodipodi.sourceforge.net/DTD/sodipodi-0.dtd"
   xmlns:inkscape="http://www.inkscape.org/namespaces/inkscape"
   version="1.0"
   width="159.7785"
   height="123.59451"
   id="svg2"
   sodipodi:version="0.32"
   inkscape:version="0.44.1"
   sodipodi:docname="sewing.svg"
   sodipodi:docbase="/home/1/vbregier">
  <metadata
     id="metadata8">
    <rdf:RDF>
      <cc:Work
         rdf:about="">
        <dc:format>image/svg+xml</dc:format>
        <dc:type
           rdf:resource="http://purl.org/dc/dcmitype/StillImage" />
      </cc:Work>
    </rdf:RDF>
  </metadata>
  <sodipodi:namedview
     inkscape:window-height="583"
     inkscape:window-width="900"
     inkscape:pageshadow="2"
     inkscape:pageopacity="0.0"
     guidetolerance="10.0"
     gridtolerance="10.0"
     objecttolerance="10.0"
     borderopacity="1.0"
     bordercolor="#666666"
     pagecolor="#ffffff"
     id="base"
     inkscape:zoom="3.0583882"
     inkscape:cx="79.889252"
     inkscape:cy="61.797256"
     inkscape:window-x="150"
     inkscape:window-y="286"
     inkscape:current-layer="svg2" />
  <defs
     id="defs4" />
  <g
     transform="translate(-850.6119,-519.9676)"
     id="layer1">
    <path
       d="M 980.48691,519.96834 C 979.22203,519.95001 977.97056,520.2628 976.70566,521.34334 C 974.892,522.97502 973.58879,523.2458 974.49962,525.96729 C 975.32617,527.78224 974.87416,529.30431 978.25889,529.0727 C 978.64859,533.39424 978.07735,536.60621 976.33066,538.84334 C 973.66726,539.52819 971.50385,538.2131 969.20566,537.43709 C 967.81835,536.1994 965.63594,535.75681 963.48691,535.28084 C 959.92944,534.94212 957.94644,536.17787 956.33066,537.78084 L 954.92441,535.62459 L 950.98691,532.78084 L 951.70566,528.12459 L 954.92441,524.21834 L 954.92441,522.06209 C 947.78155,521.94304 939.92673,521.74638 933.48691,521.71834 L 932.76816,523.84334 C 935.60739,524.72409 938.24567,524.85459 941.33066,526.71834 C 942.25706,528.5171 943.73001,531.9095 941.70566,534.93709 C 939.48668,535.587 937.95603,535.17765 934.20566,538.12459 C 933.79767,539.47787 934.23524,540.96277 932.04941,542.06209 C 928.72353,543.0988 924.76408,543.73249 920.61191,544.21834 C 916.19758,544.49293 912.21702,544.9136 907.04941,544.93709 C 900.34295,544.6742 896.97499,543.81033 891.33066,540.99959 C 888.33065,539.47576 885.10957,537.58234 879.92441,532.78084 L 872.04941,527.43709 C 866.11026,525.36198 863.78314,526.75916 864.20566,529.93709 L 869.54941,542.43709 C 869.54941,542.43709 868.48854,541.9075 866.33066,540.99959 C 864.17277,540.0917 862.00015,538.42803 860.26816,538.12459 C 858.53615,537.82115 856.13421,537.02194 853.83066,539.21834 C 851.5271,541.41475 851.32751,542.93345 851.70566,545.62459 C 852.08384,548.31573 852.00132,549.11049 853.83066,551.34334 C 855.65999,553.57617 858.11192,554.48175 860.61191,553.49959 C 863.11191,552.51745 863.78602,549.17816 863.83066,547.43709 C 863.8753,545.69602 860.7994,546.53081 860.79941,546.53084 C 861.11985,548.06457 861.32028,548.63533 860.79941,549.21834 C 860.27853,549.80136 859.48362,549.955 858.83066,549.37459 C 858.1777,548.79418 857.55455,547.95478 857.76816,546.71834 C 857.98175,545.48191 858.30385,543.94604 860.26816,543.49959 C 862.23245,543.05316 863.11192,543.86566 865.61191,544.93709 C 868.11191,546.00852 870.26814,547.78081 870.26816,547.78084 C 870.26816,547.78084 872.41998,550.90581 874.20566,555.28084 C 875.99137,559.65584 877.42442,565.28081 877.42441,565.28084 L 878.83066,572.06209 L 879.14077,578.94053 C 878.03421,576.2294 876.92766,575.685 875.8211,574.85471 C 874.4041,575.92605 872.71796,576.72825 872.80046,579.29909 L 873.11191,586.34334 C 873.55211,588.47079 874.7161,589.39191 876.33066,589.56209 C 877.40358,589.77442 878.47649,588.04007 879.54941,586.34334 L 879.54941,592.43709 L 879.54941,597.43709 L 882.76816,598.84334 L 884.39316,600.99959 L 884.70566,614.81209 L 879.58066,614.90584 C 877.8357,614.96581 877.54593,613.99663 876.54941,613.49959 L 875.54941,615.81209 C 876.30054,616.12311 876.7582,617.39974 879.26816,617.34334 L 885.20566,617.24959 L 885.6466,625.89657 L 885.7091,617.24959 L 890.73691,617.18709 L 890.67441,614.78084 L 886.36191,614.65584 L 886.04941,600.46834 L 887.76816,590.99959 L 888.11191,579.93709 L 890.98691,575.28084 C 896.46908,572.34627 901.74869,571.94435 909.20566,571.34334 C 915.10918,571.64842 919.40503,572.20237 924.92441,572.78084 C 929.67088,573.56236 933.62201,574.7304 936.70566,576.34334 C 938.75634,576.18513 942.53827,581.59317 942.42441,583.84334 C 942.2693,586.90884 943.26778,595.90536 942.76816,595.28084 C 942.83696,595.62486 941.51466,606.92026 941.33066,608.12459 C 940.76952,611.7971 939.00714,616.19928 937.61191,618.15584 C 936.73856,619.38056 932.52361,623.83434 929.73691,624.21834 C 929.73691,624.21834 916.34579,627.39601 914.92441,627.78084 C 913.60522,628.13798 900.20025,630.66844 897.42441,631.34334 C 893.4453,632.31077 887.0309,633.85496 884.54941,633.84334 C 884.54941,633.84334 863.10013,635.82657 859.20566,636.34334 C 851.19538,637.40621 850.86435,641.30082 850.61191,643.56209 C 883.81133,636.03898 980.45015,634.31375 1006.7056,642.78084 C 1013.9674,645.12268 1008.8636,639.00704 1005.2681,637.78084 C 1001.4951,636.49405 999.22281,635.93024 993.11191,633.12459 C 987.00103,630.31894 983.53551,627.1458 980.61191,624.21834 C 977.68832,621.29089 976.06815,618.55492 973.83066,614.21834 C 971.59317,609.88177 970.7216,608.01745 969.54941,602.43709 C 968.37721,596.85673 968.83066,585.28081 968.83066,585.28084 C 968.90459,581.29774 969.77661,578.31223 970.61191,575.28084 C 970.84303,574.36194 971.09569,573.42234 971.33066,572.49959 L 971.58066,571.49959 C 972.09461,569.53926 972.6773,567.5368 973.48691,565.28084 L 975.61191,562.06209 C 977.81038,564.14933 979.2207,567.0426 979.20566,571.34334 C 977.0202,573.16355 974.26865,572.19214 971.58066,571.49959 L 971.33066,572.49959 C 972.06877,574.6669 973.26242,576.2412 975.26816,576.71834 C 976.59301,578.2353 978.55394,578.48004 980.98691,577.78084 C 982.93224,577.34522 984.08218,576.10079 984.92441,574.56209 C 986.82142,573.47516 986.85739,568.68405 987.76816,565.62459 C 988.84629,553.62217 988.32386,540.83437 985.98691,527.78084 C 985.32866,524.0413 983.9393,522.48162 982.76816,520.28084 C 982.00923,520.10934 981.24584,519.97934 980.48691,519.96834 z M 878.42026,534.58063 C 885.08855,540.15369 893.14378,544.49344 902.32426,546.84442 C 903.53819,547.3533 904.35254,548.71416 901.90854,548.19552 C 892.79715,546.08242 883.41341,541.01982 877.43291,535.77583 C 876.82909,535.07279 877.39126,534.38723 878.42026,534.58063 z M 957.23377,540.05304 C 959.77847,537.33657 962.58879,536.78227 966.78746,538.06881 C 969.34175,538.85149 970.71745,541.03708 969.69031,540.78794 C 968.66317,540.5388 968.0814,539.79987 966.05256,539.09767 C 961.78392,537.62026 958.87672,540.22359 958.26263,540.64096 C 957.04985,541.46524 957.14981,539.99452 957.23377,540.05304 z M 965.59144,588.5589 C 965.3902,585.94506 965.64215,579.36396 968.23593,572.10305 C 969.73484,567.90708 971.82081,566.66354 970.99164,568.25967 C 970.16246,569.85579 969.77964,569.95363 968.74496,573.33242 C 966.21752,581.58589 966.55459,586.64396 966.52365,588.57313 C 966.49271,590.5023 965.79269,591.17275 965.59144,588.5589 z M 984.22467,537.69651 C 986.30089,547.55991 985.84069,553.65447 984.34309,562.59475 C 984.28635,563.90987 983.04839,565.00869 982.68813,562.53637 C 983.79003,553.35863 983.98804,546.62811 982.98404,537.66102 C 983.43433,536.85102 984.04957,536.66424 984.22467,537.69651 z "
       style="fill:black;fill-opacity:1;fill-rule:nonzero;stroke:none;stroke-width:1px;stroke-linecap:butt;stroke-linejoin:miter;stroke-opacity:1"
       id="path5493" />
  </g>
</svg>
