<svg width="261" height="182" viewBox="0 0 261 182" fill="none" xmlns="http://www.w3.org/2000/svg">
<path d="M161 48.9365C161 85.091 124.959 97.8729 80.5 97.8729C74.3662 97.8729 66.5711 98.3101 60.8303 97.8729C58.2744 97.6782 53.7381 106.68 43.7106 113.211C32.3506 120.611 21.9451 120.259 19.3054 119.785C19.3054 119.785 23.6114 115.866 28.4119 107.733C33.1869 99.6443 33.728 92.0919 31.326 91.2324C12.2713 84.414 -0.000101859 71.5246 6.34118e-10 48.9365C0.000174565 10.2255 36.0411 0 80.5 0C124.959 0 161 12.7819 161 48.9365Z" fill="black"/>
<path d="M52.418 60.4004C52.5638 60.4642 52.7461 60.4961 52.9648 60.4961C53.1836 60.4961 53.5482 60.4323 54.0586 60.3047L53.8945 62H46.3613L46.6074 60.4961C47.4915 60.4961 48.0931 60.2591 48.4121 59.7852C48.6764 59.375 48.8086 58.623 48.8086 57.5293V52.0742H38.7188V58.3223C38.7188 59.2975 38.7598 59.8854 38.8418 60.0859C38.9329 60.2773 39.0332 60.3958 39.1426 60.4414C39.2611 60.4779 39.4434 60.4961 39.6895 60.4961C40.1452 60.4961 40.6647 60.4232 41.248 60.2773L41.043 62H33.3457L33.5781 60.4961C34.4896 60.4961 35.0866 60.2956 35.3691 59.8945C35.6243 59.5482 35.752 58.8509 35.752 57.8027V45.3066C35.752 43.5475 35.3646 42.668 34.5898 42.668C34.2617 42.668 33.9062 42.709 33.5234 42.791L33.6875 41.082H40.9746L40.7695 42.668C40.3503 42.668 40.0085 42.6908 39.7441 42.7363C39.4798 42.7819 39.2702 42.8958 39.1152 43.0781C38.8509 43.4062 38.7188 44.2083 38.7188 45.4844V50.3516H48.8086V45.4023C48.8086 44.2539 48.7448 43.543 48.6172 43.2695C48.4987 42.9961 48.3665 42.8275 48.2207 42.7637C48.0749 42.6999 47.8652 42.668 47.5918 42.668C47.1634 42.668 46.7077 42.7227 46.2246 42.832L46.4844 41.082H54.0859L53.8945 42.668C53.0924 42.668 52.5501 42.8366 52.2676 43.1738C51.9303 43.5658 51.7617 44.3132 51.7617 45.416V58.4727C51.7617 59.5664 51.9805 60.209 52.418 60.4004ZM64.6543 59.8672C66.459 59.7487 68.0495 59.3158 69.4258 58.5684L70.0273 59.7168C68.651 60.8561 67.0833 61.6354 65.3242 62.0547C64.7956 62.1732 64.3125 62.2324 63.875 62.2324C60.4388 62.2324 58.2741 60.7148 57.3809 57.6797C57.0892 56.7044 56.9434 55.5697 56.9434 54.2754C56.9434 52.972 57.153 51.7734 57.5723 50.6797C58.0007 49.5859 58.5612 48.6562 59.2539 47.8906C59.9557 47.1159 60.7578 46.5189 61.6602 46.0996C62.5625 45.6803 63.4967 45.4707 64.4629 45.4707C68.3366 45.4707 70.2734 47.6855 70.2734 52.1152V52.252C70.2734 53.4095 70.1367 53.9883 69.8633 53.9883H59.8008C59.8008 55.8932 60.2201 57.3424 61.0586 58.3359C61.9062 59.3294 63.1048 59.8398 64.6543 59.8672ZM67.1562 52.2383C67.1654 52.0469 67.1699 51.901 67.1699 51.8008V51.3496C67.1699 49.2077 66.5775 47.8906 65.3926 47.3984C64.9642 47.2161 64.5039 47.125 64.0117 47.125C63.5286 47.125 63.1185 47.1979 62.7812 47.3438C62.444 47.4896 62.125 47.6901 61.8242 47.9453C61.5326 48.2005 61.2637 48.5013 61.0176 48.8477C60.7715 49.1849 60.5573 49.5586 60.375 49.9688C59.9922 50.8164 59.8008 51.6823 59.8008 52.5664L67.1562 52.2383ZM78.2852 38.6895C78.0938 39.6829 77.998 41.679 77.998 44.6777V45.6621L78.0254 58.7461C78.0254 59.4935 78.0801 59.9583 78.1895 60.1406C78.3626 60.4141 78.668 60.5508 79.1055 60.5508C79.7161 60.5508 80.2493 60.5007 80.7051 60.4004L80.4863 62H72.5703L72.8027 60.5508C73.7507 60.5508 74.3568 60.446 74.6211 60.2363C74.8945 60.0267 75.0677 59.8125 75.1406 59.5938C75.2227 59.3659 75.2637 59.0879 75.2637 58.7598V43.3379C75.2637 42.5632 75.2135 42.0801 75.1133 41.8887C75.0221 41.6973 74.9355 41.556 74.8535 41.4648C74.7806 41.3646 74.6621 41.2871 74.498 41.2324C74.3431 41.1686 74.1608 41.1276 73.9512 41.1094C73.6595 41.0729 73.1764 41.0547 72.502 41.0547L72.666 39.4961L78.2852 38.6895ZM87.6367 38.6895C87.4453 39.6829 87.3496 41.679 87.3496 44.6777V45.6621L87.377 58.7461C87.377 59.4935 87.4316 59.9583 87.541 60.1406C87.7142 60.4141 88.0195 60.5508 88.457 60.5508C89.0677 60.5508 89.6009 60.5007 90.0566 60.4004L89.8379 62H81.9219L82.1543 60.5508C83.1022 60.5508 83.7083 60.446 83.9727 60.2363C84.2461 60.0267 84.4193 59.8125 84.4922 59.5938C84.5742 59.3659 84.6152 59.0879 84.6152 58.7598V43.3379C84.6152 42.5632 84.5651 42.0801 84.4648 41.8887C84.3737 41.6973 84.2871 41.556 84.2051 41.4648C84.1322 41.3646 84.0137 41.2871 83.8496 41.2324C83.6947 41.1686 83.5124 41.1276 83.3027 41.1094C83.0111 41.0729 82.528 41.0547 81.8535 41.0547L82.0176 39.4961L87.6367 38.6895ZM92.0664 53.7422C92.0664 52.5117 92.2943 51.3815 92.75 50.3516C93.2057 49.3125 93.8164 48.4284 94.582 47.6992C96.1589 46.2135 98.0957 45.4707 100.393 45.4707C102.617 45.4707 104.38 46.209 105.684 47.6855C106.932 49.0983 107.557 50.9395 107.557 53.209C107.557 55.7884 106.745 57.944 105.123 59.6758C103.528 61.362 101.564 62.2051 99.2305 62.2051C96.9336 62.2051 95.1426 61.3893 93.8574 59.7578C92.6634 58.2539 92.0664 56.2487 92.0664 53.7422ZM99.8457 60.4688C100.538 60.4688 101.149 60.3457 101.678 60.0996C102.215 59.8535 102.68 59.4753 103.072 58.9648C103.929 57.8802 104.357 56.3125 104.357 54.2617C104.357 52.0742 103.938 50.3379 103.1 49.0527C102.252 47.7676 101.099 47.125 99.6406 47.125C98.3555 47.125 97.3118 47.6263 96.5098 48.6289C95.6257 49.7318 95.1836 51.3132 95.1836 53.373C95.1836 55.515 95.5983 57.224 96.4277 58.5C97.2754 59.8125 98.4147 60.4688 99.8457 60.4688ZM123.539 56.1211L123.238 56.1348L122.35 39.9609C122.632 39.569 123.535 39.2135 125.057 38.8945C125.412 38.8216 125.676 38.7852 125.85 38.7852L126.232 39.4824L125.111 55.7793C124.683 55.9889 124.159 56.1029 123.539 56.1211ZM122.008 60.2363C122.008 59.6348 122.222 59.1289 122.65 58.7188C123.088 58.2995 123.525 58.0898 123.963 58.0898C124.41 58.0898 124.765 58.1491 125.029 58.2676C125.303 58.377 125.54 58.5273 125.74 58.7188C126.169 59.138 126.383 59.6439 126.383 60.2363C126.383 60.8197 126.169 61.3255 125.74 61.7539C125.312 62.1823 124.792 62.3965 124.182 62.3965C123.598 62.3965 123.088 62.1823 122.65 61.7539C122.222 61.3438 122.008 60.8379 122.008 60.2363Z" fill="white"/>
<path d="M101.5 110.936C101.5 128.382 110.133 140.145 124.28 147.637C138.532 155.185 158.37 158.373 180.5 158.373C182.575 158.373 184.794 158.421 187.04 158.469C191.593 158.566 196.258 158.667 200.056 158.377C200.828 158.318 201.504 158.615 202.017 158.933C202.543 159.258 203.06 159.707 203.56 160.195C204.337 160.953 205.229 161.964 206.211 163.076C206.483 163.385 206.763 163.701 207.048 164.023C209.734 167.041 213.267 170.801 218.108 173.954C226.395 179.352 234.119 180.459 238.414 180.499C238.217 180.273 238.01 180.031 237.793 179.773C236.069 177.72 233.743 174.64 231.296 170.496C228.825 166.31 227.419 162.215 226.955 158.985C226.724 157.381 226.714 155.906 226.98 154.71C227.233 153.572 227.839 152.296 229.169 151.82C238.517 148.475 246.079 143.684 251.306 137.068C256.518 130.471 259.5 121.942 259.5 110.936C259.5 101.5 257.307 93.8913 253.408 87.7642C249.507 81.6326 243.838 76.8911 236.743 73.2892C222.5 66.0589 202.669 63.5 180.5 63.5C158.37 63.5 138.532 66.6882 124.28 74.2359C110.133 81.7281 101.5 93.4904 101.5 110.936Z" fill="black" stroke="white" stroke-width="3"/>
<path d="M142.615 104.879L142.916 104.865L143.805 121.039C143.522 121.431 142.62 121.786 141.098 122.105C140.742 122.178 140.478 122.215 140.305 122.215L139.922 121.518L141.043 105.221C141.471 105.011 141.995 104.897 142.615 104.879ZM144.146 100.764C144.146 101.365 143.932 101.871 143.504 102.281C143.066 102.701 142.624 102.91 142.178 102.91C141.74 102.91 141.385 102.855 141.111 102.746C140.847 102.628 140.615 102.473 140.414 102.281C139.986 101.862 139.771 101.356 139.771 100.764C139.771 100.18 139.986 99.6745 140.414 99.2461C140.842 98.8177 141.362 98.6035 141.973 98.6035C142.556 98.6035 143.066 98.8177 143.504 99.2461C143.932 99.6562 144.146 100.162 144.146 100.764ZM166.951 118.4C167.097 118.464 167.279 118.496 167.498 118.496C167.717 118.496 168.081 118.432 168.592 118.305L168.428 120H160.895L161.141 118.496C162.025 118.496 162.626 118.259 162.945 117.785C163.21 117.375 163.342 116.623 163.342 115.529V110.074H153.252V116.322C153.252 117.298 153.293 117.885 153.375 118.086C153.466 118.277 153.566 118.396 153.676 118.441C153.794 118.478 153.977 118.496 154.223 118.496C154.678 118.496 155.198 118.423 155.781 118.277L155.576 120H147.879L148.111 118.496C149.023 118.496 149.62 118.296 149.902 117.895C150.158 117.548 150.285 116.851 150.285 115.803V103.307C150.285 101.548 149.898 100.668 149.123 100.668C148.795 100.668 148.439 100.709 148.057 100.791L148.221 99.082H155.508L155.303 100.668C154.883 100.668 154.542 100.691 154.277 100.736C154.013 100.782 153.803 100.896 153.648 101.078C153.384 101.406 153.252 102.208 153.252 103.484V108.352H163.342V103.402C163.342 102.254 163.278 101.543 163.15 101.27C163.032 100.996 162.9 100.827 162.754 100.764C162.608 100.7 162.398 100.668 162.125 100.668C161.697 100.668 161.241 100.723 160.758 100.832L161.018 99.082H168.619L168.428 100.668C167.626 100.668 167.083 100.837 166.801 101.174C166.464 101.566 166.295 102.313 166.295 103.416V116.473C166.295 117.566 166.514 118.209 166.951 118.4ZM171.545 111.742C171.545 110.512 171.773 109.382 172.229 108.352C172.684 107.312 173.295 106.428 174.061 105.699C175.637 104.214 177.574 103.471 179.871 103.471C182.095 103.471 183.859 104.209 185.162 105.686C186.411 107.098 187.035 108.939 187.035 111.209C187.035 113.788 186.224 115.944 184.602 117.676C183.007 119.362 181.042 120.205 178.709 120.205C176.412 120.205 174.621 119.389 173.336 117.758C172.142 116.254 171.545 114.249 171.545 111.742ZM179.324 118.469C180.017 118.469 180.628 118.346 181.156 118.1C181.694 117.854 182.159 117.475 182.551 116.965C183.408 115.88 183.836 114.312 183.836 112.262C183.836 110.074 183.417 108.338 182.578 107.053C181.73 105.768 180.577 105.125 179.119 105.125C177.834 105.125 176.79 105.626 175.988 106.629C175.104 107.732 174.662 109.313 174.662 111.373C174.662 113.515 175.077 115.224 175.906 116.5C176.754 117.812 177.893 118.469 179.324 118.469ZM195.143 96.6895C194.951 97.6829 194.855 99.679 194.855 102.678V103.662L194.883 116.746C194.883 117.493 194.938 117.958 195.047 118.141C195.22 118.414 195.525 118.551 195.963 118.551C196.574 118.551 197.107 118.501 197.562 118.4L197.344 120H189.428L189.66 118.551C190.608 118.551 191.214 118.446 191.479 118.236C191.752 118.027 191.925 117.812 191.998 117.594C192.08 117.366 192.121 117.088 192.121 116.76V101.338C192.121 100.563 192.071 100.08 191.971 99.8887C191.88 99.6973 191.793 99.556 191.711 99.4648C191.638 99.3646 191.52 99.2871 191.355 99.2324C191.201 99.1686 191.018 99.1276 190.809 99.1094C190.517 99.0729 190.034 99.0547 189.359 99.0547L189.523 97.4961L195.143 96.6895ZM211.959 108.092L211.74 115.352C211.74 116.327 212.036 117.029 212.629 117.457C213.039 117.758 213.563 117.908 214.201 117.908C214.165 118.373 213.978 118.792 213.641 119.166C213.048 119.822 212.565 120.201 212.191 120.301C211.626 120.301 211.093 120.109 210.592 119.727C210.1 119.344 209.717 118.783 209.443 118.045C208.404 119.029 207.133 119.727 205.629 120.137C205.21 120.255 204.717 120.314 204.152 120.314C203.596 120.314 202.999 120.21 202.361 120C201.732 119.781 201.204 119.476 200.775 119.084C199.91 118.291 199.477 117.211 199.477 115.844C199.477 114.185 200.406 112.895 202.266 111.975C203.997 111.118 206.276 110.689 209.102 110.689H209.252C209.252 110.115 209.243 109.555 209.225 109.008L209.211 108.461C209.165 107.358 208.769 106.52 208.021 105.945C207.429 105.49 206.7 105.262 205.834 105.262C204.968 105.262 204.271 105.494 203.742 105.959C203.214 106.415 202.949 107.076 202.949 107.941C202.949 108.26 202.986 108.602 203.059 108.967H200.611L200.516 108.939C200.488 108.794 200.461 108.639 200.434 108.475C200.352 108.083 200.283 107.677 200.229 107.258C200.183 106.829 200.16 106.547 200.16 106.41C200.16 106.21 200.197 106.064 200.27 105.973C202.63 104.305 204.941 103.471 207.201 103.471C209.407 103.471 210.861 104.273 211.562 105.877C211.827 106.469 211.959 107.208 211.959 108.092ZM209.102 115.885C209.165 114.736 209.211 113.506 209.238 112.193C209.138 112.157 208.833 112.139 208.322 112.139C207.821 112.139 207.183 112.221 206.408 112.385C205.643 112.54 204.973 112.768 204.398 113.068C203.177 113.715 202.566 114.581 202.566 115.666C202.566 116.423 202.812 117.056 203.305 117.566C203.806 118.077 204.453 118.332 205.246 118.332C206.23 118.332 207.242 117.89 208.281 117.006C208.591 116.742 208.865 116.464 209.102 116.172V115.885ZM218.357 114.121L218.057 114.135L217.168 97.9609C217.451 97.569 218.353 97.2135 219.875 96.8945C220.23 96.8216 220.495 96.7852 220.668 96.7852L221.051 97.4824L219.93 113.779C219.501 113.989 218.977 114.103 218.357 114.121ZM216.826 118.236C216.826 117.635 217.04 117.129 217.469 116.719C217.906 116.299 218.344 116.09 218.781 116.09C219.228 116.09 219.583 116.149 219.848 116.268C220.121 116.377 220.358 116.527 220.559 116.719C220.987 117.138 221.201 117.644 221.201 118.236C221.201 118.82 220.987 119.326 220.559 119.754C220.13 120.182 219.611 120.396 219 120.396C218.417 120.396 217.906 120.182 217.469 119.754C217.04 119.344 216.826 118.838 216.826 118.236Z" fill="white"/>
</svg>
