<svg width="408" height="140" viewBox="0 0 408 140" fill="none" xmlns="http://www.w3.org/2000/svg">
<path d="M99.7915 40.9229L137.173 39.1514L137.163 39.1523L139.986 98.7259L103.5 101L99.7915 40.9229Z" fill="black"/>
<path d="M42.345 77.4163L55.0539 67.08L69.5046 75.422L71.657 104.735L44.4974 106.729L42.345 77.4163Z" fill="black"/>
<path d="M74.7656 64.7802L89.0763 50.9333L105.635 62.9559L107.884 101.006L77.0142 102.831L74.7656 64.7802Z" fill="black"/>
<path d="M118.942 70.2369L141.336 53.7867L165.513 67.4848L167.294 97.633L120.723 100.385L118.942 70.2369Z" fill="black"/>
<path d="M201.749 48.2814L196.667 52.0931L196.667 48.2814L196.667 43.1992L201.749 43.1992L201.749 48.2814Z" fill="black"/>
<path d="M280.699 60.0088L275.442 62.5027L275.628 59.675L275.876 55.9048L280.947 56.2385L280.699 60.0088Z" fill="black"/>
<path d="M302.208 47.0409L346.762 48.9836L346.75 48.9834L344.5 100L300 97.6679L302.208 47.0409Z" fill="black"/>
<path d="M313.965 47.5535L308.883 47.3319L309.028 44L314.105 44.224L313.965 47.5535Z" fill="black"/>
<path d="M125.593 66.0685L120.569 69.9574L120.511 66.1461L120.433 61.0645L125.515 60.9869L125.593 66.0685Z" fill="black"/>
<path d="M159.149 13.7225L193.135 12.1118L193.126 12.1128L197.138 96.7987L163.162 98.4085L159.149 13.7225Z" fill="black"/>
<path d="M242.927 0.000711954L275.946 1.04718L275.937 1.0475L272.876 97.5611L239.867 96.5143L242.927 0.000711954Z" fill="black"/>
<path d="M361.435 74.1529L380.012 75.6178L380.011 75.6108L377.876 102.824L359.299 101.366L361.435 74.1529Z" fill="black"/>
<path d="M191.585 55.8882L214.357 35.5758L239.836 53.1952L239.836 96.5629L191.773 96.2975L191.585 55.8882Z" fill="black"/>
<path d="M239.833 63.3998L255.113 74.8465L255.081 96.5629H239.836L239.833 63.3998Z" fill="black"/>
<path d="M269.179 65.9076L293.161 51.8727L315.783 68.0079L314.424 98.1781L268.5 97L269.179 65.9076Z" fill="black"/>
<path d="M407.581 106.727C407.581 106.727 347.997 96.3439 224.619 96.5648C104.211 96.7803 1.0001 111.809 1.0001 111.809" stroke="black"/>
<path d="M234.438 101.33C342.586 101.102 390.796 117.053 390.796 117.053C390.796 117.053 334.493 106.108 271.999 112.685C222.927 117.85 192.182 122.891 154.846 129.012L153.201 129.282C99.9169 138.017 35.2771 145.878 39.6446 129.282C44.0122 112.685 128.892 101.552 234.438 101.33Z" fill="black" stroke="black"/>
<path d="M35.0823 95.5709L38.3136 95.1648L39.8086 107.059L36.5773 107.465L35.0823 95.5709Z" fill="black"/>
<circle cx="36.3528" cy="91.3528" r="6.35282" fill="black"/>
<path d="M27.5081 97.3752L30.3738 97.015L31.6997 107.564L28.8339 107.924L27.5081 97.3752Z" fill="black"/>
<circle cx="28.6342" cy="93.6342" r="5.63423" fill="black"/>
<path d="M18 94.498L21.9623 94L23.7955 108.585L19.8332 109.083L18 94.498Z" fill="black"/>
<circle cx="18.9546" cy="89.1061" r="7.79" fill="black"/>
<path d="M389.226 92.6046L392.479 92.7613L391.902 104.735L388.649 104.579L389.226 92.6046Z" fill="black"/>
<circle cx="391.204" cy="88.6685" r="6.35282" transform="rotate(9.92148 391.204 88.6685)" fill="black"/>
<path d="M380.875 92.0467L383.763 92.1124L383.521 102.742L380.634 102.676L380.875 92.0467Z" fill="black"/>
<circle cx="382.54" cy="88.5124" r="5.63423" transform="rotate(8.4667 382.54 88.5124)" fill="black"/>
<path d="M399.337 96.5093L401.52 96.8099L400.414 104.848L398.23 104.547L399.337 96.5093Z" fill="black"/>
<circle cx="400.906" cy="93.9743" r="4.29984" transform="rotate(15 400.906 93.9743)" fill="black"/>
<path d="M352.353 85.7515L356.345 85.8544L355.966 100.55L351.974 100.447L352.353 85.7515Z" fill="black"/>
<circle cx="354.67" cy="80.872" r="7.79" transform="rotate(8.64157 354.67 80.872)" fill="black"/>
<path d="M241.358 84.5151L244.5 84.5962L244.202 96.161L241.06 96.08L241.358 84.5151Z" fill="black"/>
<circle cx="243.181" cy="80.6749" r="6.13065" transform="rotate(8.64157 243.181 80.6749)" fill="black"/>
<path d="M250.908 91.3604L252.5 91.422L252.439 96.6947L250.847 96.6331L250.908 91.3604Z" fill="black"/>
<ellipse cx="251.802" cy="89.6235" rx="3.11291" ry="2.78908" transform="rotate(8.64157 251.802 89.6235)" fill="black"/>
<path d="M142.515 77.9374L142.433 80.3456H141.576C141.576 79.5837 141.501 79.0259 141.351 78.6721H138.841V85.8762C138.841 86.2164 138.868 86.4953 138.923 86.713C139.141 86.7674 139.385 86.7946 139.658 86.7946H140.27V87.7538C139.834 87.6857 139.127 87.6517 138.147 87.6517C137.168 87.6517 136.426 87.6857 135.923 87.7538V86.7946H136.535C136.807 86.7946 137.039 86.7674 137.229 86.713C137.297 86.5361 137.331 86.298 137.331 85.9987V78.6721H134.821C134.671 78.9443 134.596 79.5021 134.596 80.3456H133.658L133.576 77.9374C133.739 77.8558 134.277 77.815 135.188 77.815L136.637 77.8558H137.29L138.168 77.8762L139.168 77.8558C139.358 77.8558 139.549 77.8558 139.739 77.8558L140.882 77.815C141.807 77.815 142.351 77.8558 142.515 77.9374ZM148.385 79.0599L146.671 84.0599H150.14L148.447 79.0599H148.385ZM146.671 87.7538C146.345 87.6857 145.8 87.6517 145.038 87.6517C144.276 87.6517 143.685 87.6857 143.263 87.7538L143.467 86.7946H143.773C144.018 86.7946 144.236 86.7674 144.426 86.713C144.617 86.4545 144.746 86.2232 144.814 86.0191C144.896 85.8014 144.991 85.5361 145.1 85.2232C145.222 84.9102 145.365 84.5497 145.528 84.1415C145.691 83.7334 145.862 83.2912 146.038 82.815C146.229 82.3388 146.419 81.8694 146.61 81.4068L148.038 77.815H148.671C148.998 77.815 149.27 77.8558 149.487 77.9374L152.508 85.8762C152.671 86.2708 152.807 86.5497 152.916 86.713C153.134 86.7674 153.351 86.7946 153.569 86.7946H153.875L154.079 87.7538C153.698 87.6857 153.283 87.6517 152.834 87.6517H151.875C151.29 87.6517 150.793 87.6857 150.385 87.7538L150.242 86.7946H150.365C150.61 86.7946 150.841 86.7674 151.059 86.713C151.059 86.5089 150.991 86.2436 150.855 85.917L150.385 84.7742H146.447L146.079 85.8762C145.97 86.2028 145.916 86.4613 145.916 86.6517C145.916 86.747 146.086 86.7946 146.426 86.7946H146.732L146.671 87.7538ZM159.38 82.6721C160.985 82.6721 161.788 81.9987 161.788 80.6517C161.788 79.917 161.591 79.4068 161.196 79.1211C160.802 78.8218 160.142 78.6721 159.217 78.6721H158.156V82.6721C158.564 82.6721 158.972 82.6721 159.38 82.6721ZM159.564 87.7538C159.115 87.6857 158.407 87.6517 157.441 87.6517C156.475 87.6517 155.741 87.6857 155.237 87.7538V86.7946H155.849C156.121 86.7946 156.353 86.7674 156.543 86.713C156.625 86.5361 156.666 86.2708 156.666 85.917L156.645 79.4885C156.645 79.1619 156.611 78.9102 156.543 78.7334C156.407 78.6925 156.196 78.6721 155.911 78.6721H155.094V77.9374C155.244 77.9238 155.421 77.9034 155.625 77.8762C155.829 77.849 156.047 77.8354 156.278 77.8354C156.523 77.8218 156.768 77.8082 157.013 77.7946C157.271 77.781 157.57 77.7742 157.911 77.7742H159.258C160.577 77.7742 161.584 77.9919 162.278 78.4272C162.972 78.849 163.319 79.5701 163.319 80.5905C163.319 81.8966 162.666 82.781 161.36 83.2436C161.564 84.4 162.135 85.4068 163.074 86.264C163.455 86.6177 163.781 86.7946 164.053 86.7946H164.421V87.7538H163.4C162.652 87.7538 162.006 87.4885 161.462 86.9579C161.081 86.5633 160.754 85.9783 160.482 85.2028C160.36 84.8762 160.264 84.5701 160.196 84.2844C160.142 83.9851 160.087 83.7198 160.033 83.4885C159.72 83.4885 159.407 83.4885 159.094 83.4885C158.781 83.4885 158.468 83.4817 158.156 83.4681V85.8762C158.156 86.2572 158.19 86.5361 158.258 86.713C158.475 86.7674 158.707 86.7946 158.951 86.7946H159.564V87.7538ZM169.785 87.7538C169.35 87.6857 168.642 87.6517 167.663 87.6517C166.697 87.6517 165.962 87.6857 165.458 87.7538V86.7946H166.05C166.309 86.7946 166.547 86.7674 166.765 86.713C166.846 86.5089 166.88 86.2436 166.867 85.917V79.5293C166.867 79.1891 166.833 78.9306 166.765 78.7538C166.615 78.6994 166.377 78.6721 166.05 78.6721H165.438V77.9374C166.064 77.8558 166.839 77.815 167.765 77.815C168.703 77.815 169.377 77.8558 169.785 77.9374V78.6721H169.173C168.887 78.6721 168.649 78.6994 168.458 78.7538C168.39 79.0259 168.356 79.2844 168.356 79.5293V85.8762C168.356 86.1619 168.39 86.4408 168.458 86.713C168.676 86.7674 168.914 86.7946 169.173 86.7946H169.785V87.7538ZM171.329 77.9374C171.955 77.8558 172.73 77.815 173.655 77.815C174.594 77.815 175.267 77.8558 175.676 77.9374V78.6721H175.063C174.778 78.6721 174.54 78.6994 174.349 78.7538C174.281 79.0259 174.247 79.298 174.247 79.5701V85.917C174.247 86.2572 174.281 86.5225 174.349 86.713C174.567 86.7674 174.805 86.7946 175.063 86.7946H175.676V87.7538C175.063 87.6857 174.335 87.6517 173.492 87.6517C172.526 87.6517 171.812 87.6857 171.349 87.7538V86.7946H171.961C172.233 86.7946 172.465 86.7674 172.655 86.713C172.723 86.5361 172.757 86.298 172.757 85.9987V79.5701C172.757 79.2028 172.723 78.9306 172.655 78.7538C172.506 78.6994 172.267 78.6721 171.941 78.6721H171.329V77.9374ZM176.92 77.9374C177.601 77.8558 178.342 77.815 179.145 77.815C179.961 77.815 180.526 77.8558 180.839 77.9374L180.798 78.6721H180.247C180.043 78.6721 179.832 78.6994 179.614 78.7538C179.247 79.0531 178.703 79.5973 177.982 80.3864C177.274 81.1755 176.805 81.6926 176.574 81.9374C176.342 82.1823 176.159 82.3796 176.023 82.5293L178.716 85.917C178.92 86.1755 179.172 86.4408 179.472 86.713C179.689 86.7674 179.914 86.7946 180.145 86.7946H180.676L180.778 87.7538C180.233 87.6857 179.506 87.6517 178.594 87.6517C177.696 87.6517 177.016 87.6857 176.553 87.7538V86.7946H176.676C176.989 86.7946 177.213 86.7674 177.349 86.713C177.295 86.5633 177.125 86.298 176.839 85.917L174.716 83.0803C174.676 83.0395 174.642 82.9987 174.614 82.9579C174.587 82.9034 174.533 82.815 174.451 82.6926C174.519 82.5973 174.635 82.4545 174.798 82.264C174.975 82.0735 175.131 81.8966 175.267 81.7334C175.417 81.5565 175.682 81.264 176.063 80.8558C176.444 80.434 176.798 80.0463 177.125 79.6925C177.574 79.2436 177.798 78.9715 177.798 78.8762V78.7538C177.689 78.6994 177.499 78.6721 177.227 78.6721H176.839L176.92 77.9374ZM191.371 87.7538L188.105 87.6517C187.139 87.6517 186.425 87.6857 185.962 87.7538V86.7946H186.554C186.813 86.7946 187.051 86.7674 187.268 86.713C187.35 86.5089 187.384 86.2436 187.371 85.917V79.5701C187.371 79.2028 187.336 78.9306 187.268 78.7538C187.119 78.6994 186.881 78.6721 186.554 78.6721H185.942V77.9374C186.568 77.8558 187.343 77.815 188.268 77.815C189.207 77.815 189.888 77.8558 190.309 77.9374V78.6721H189.677C189.418 78.6721 189.18 78.6994 188.962 78.7538C188.894 79.0259 188.86 79.298 188.86 79.5701V86.7946H191.473C192.003 86.7946 192.371 86.7402 192.575 86.6313C192.915 86.4545 193.166 86.0531 193.33 85.4272L193.922 85.4885L193.677 87.6517C192.683 87.7198 191.915 87.7538 191.371 87.7538ZM197.422 82.7946C197.422 85.6381 198.395 87.0599 200.34 87.0599C202.286 87.0599 203.259 85.6313 203.259 82.7742C203.259 81.3592 203.007 80.2912 202.504 79.5701C201.987 78.8626 201.265 78.5089 200.34 78.5089C198.939 78.5089 198.034 79.3116 197.626 80.917C197.49 81.4477 197.422 82.0735 197.422 82.7946ZM203.667 79.0395C204.497 79.9374 204.912 81.1823 204.912 82.7742C204.912 84.3524 204.504 85.6041 203.687 86.5293C202.871 87.4545 201.755 87.917 200.34 87.917C198.939 87.917 197.823 87.4545 196.993 86.5293C196.177 85.6041 195.769 84.3524 195.769 82.7742C195.769 81.1823 196.177 79.9374 196.993 79.0395C197.823 78.1279 198.939 77.6721 200.34 77.6721C201.742 77.6721 202.85 78.1279 203.667 79.0395ZM212.931 77.917C213.435 77.849 214.128 77.815 215.013 77.815C215.911 77.815 216.564 77.8558 216.972 77.9374V78.6721H216.339C216.054 78.6721 215.816 78.6994 215.625 78.7538C215.557 78.9306 215.523 79.2028 215.523 79.5701V84.1211C215.523 85.3184 215.162 86.2504 214.441 86.917C213.734 87.5837 212.795 87.917 211.625 87.917C209.094 87.917 207.829 86.4953 207.829 83.6517V79.5701C207.829 79.2028 207.795 78.9306 207.727 78.7538C207.577 78.6994 207.346 78.6721 207.033 78.6721H206.401V77.917C206.918 77.849 207.673 77.815 208.666 77.815C209.659 77.815 210.36 77.8558 210.768 77.9374V78.6721H210.135C209.877 78.6721 209.639 78.6994 209.421 78.7538C209.353 78.9443 209.326 79.2164 209.339 79.5701V84.2232C209.339 85.6245 209.829 86.5089 210.809 86.8762C211.108 86.9987 211.448 87.0599 211.829 87.0599C212.7 87.0599 213.339 86.7878 213.747 86.2436C214.156 85.6994 214.36 84.8558 214.36 83.713V79.5701C214.36 79.2028 214.326 78.9306 214.258 78.7538C214.108 78.6994 213.87 78.6721 213.543 78.6721H212.931V77.917ZM222.776 79.0599L221.062 84.0599H224.531L222.837 79.0599H222.776ZM221.062 87.7538C220.735 87.6857 220.191 87.6517 219.429 87.6517C218.667 87.6517 218.075 87.6857 217.654 87.7538L217.858 86.7946H218.164C218.409 86.7946 218.626 86.7674 218.817 86.713C219.007 86.4545 219.136 86.2232 219.205 86.0191C219.286 85.8014 219.381 85.5361 219.49 85.2232C219.613 84.9102 219.756 84.5497 219.919 84.1415C220.082 83.7334 220.252 83.2912 220.429 82.815C220.619 82.3388 220.81 81.8694 221 81.4068L222.429 77.815H223.062C223.388 77.815 223.66 77.8558 223.878 77.9374L226.898 85.8762C227.062 86.2708 227.198 86.5497 227.307 86.713C227.524 86.7674 227.742 86.7946 227.96 86.7946H228.266L228.47 87.7538C228.089 87.6857 227.674 87.6517 227.225 87.6517H226.266C225.681 87.6517 225.184 87.6857 224.776 87.7538L224.633 86.7946H224.756C225 86.7946 225.232 86.7674 225.449 86.713C225.449 86.5089 225.381 86.2436 225.245 85.917L224.776 84.7742H220.837L220.47 85.8762C220.361 86.2028 220.307 86.4613 220.307 86.6517C220.307 86.747 220.477 86.7946 220.817 86.7946H221.123L221.062 87.7538ZM238.179 77.9374L238.097 80.3456H237.24C237.24 79.5837 237.165 79.0259 237.016 78.6721H234.505V85.8762C234.505 86.2164 234.533 86.4953 234.587 86.713C234.805 86.7674 235.05 86.7946 235.322 86.7946H235.934V87.7538C235.499 87.6857 234.791 87.6517 233.811 87.6517C232.832 87.6517 232.09 87.6857 231.587 87.7538V86.7946H232.199C232.471 86.7946 232.703 86.7674 232.893 86.713C232.961 86.5361 232.995 86.298 232.995 85.9987V78.6721H230.485C230.335 78.9443 230.26 79.5021 230.26 80.3456H229.322L229.24 77.9374C229.403 77.8558 229.941 77.815 230.852 77.815L232.301 77.8558H232.954L233.832 77.8762L234.832 77.8558C235.022 77.8558 235.213 77.8558 235.403 77.8558L236.546 77.815C237.471 77.815 238.016 77.8558 238.179 77.9374ZM244.049 79.0599L242.335 84.0599H245.804L244.111 79.0599H244.049ZM242.335 87.7538C242.009 87.6857 241.464 87.6517 240.702 87.6517C239.941 87.6517 239.349 87.6857 238.927 87.7538L239.131 86.7946H239.437C239.682 86.7946 239.9 86.7674 240.09 86.713C240.281 86.4545 240.41 86.2232 240.478 86.0191C240.56 85.8014 240.655 85.5361 240.764 85.2232C240.886 84.9102 241.029 84.5497 241.192 84.1415C241.356 83.7334 241.526 83.2912 241.702 82.815C241.893 82.3388 242.083 81.8694 242.274 81.4068L243.702 77.815H244.335C244.662 77.815 244.934 77.8558 245.151 77.9374L248.172 85.8762C248.335 86.2708 248.471 86.5497 248.58 86.713C248.798 86.7674 249.015 86.7946 249.233 86.7946H249.539L249.743 87.7538C249.362 87.6857 248.947 87.6517 248.498 87.6517H247.539C246.954 87.6517 246.458 87.6857 246.049 87.7538L245.907 86.7946H246.029C246.274 86.7946 246.505 86.7674 246.723 86.713C246.723 86.5089 246.655 86.2436 246.519 85.917L246.049 84.7742H242.111L241.743 85.8762C241.634 86.2028 241.58 86.4613 241.58 86.6517C241.58 86.747 241.75 86.7946 242.09 86.7946H242.396L242.335 87.7538ZM261.248 87.7538C260.786 87.6857 260.078 87.6517 259.126 87.6517C258.173 87.6517 257.439 87.6857 256.922 87.7538V86.7946H257.534C257.82 86.7946 258.058 86.7674 258.248 86.713C258.33 86.5361 258.364 86.2708 258.35 85.917V83.0395H253.677V85.8762C253.677 86.1619 253.711 86.4408 253.779 86.713C253.996 86.7674 254.235 86.7946 254.493 86.7946H255.105V87.7538C254.643 87.6857 253.928 87.6517 252.962 87.6517C251.996 87.6517 251.269 87.6857 250.779 87.7538V86.7946H251.391C251.663 86.7946 251.894 86.7674 252.085 86.713C252.166 86.5089 252.207 86.2436 252.207 85.917V79.5701C252.207 79.2436 252.166 78.9715 252.085 78.7538C251.935 78.6994 251.697 78.6721 251.371 78.6721H250.758V77.9374C251.384 77.8558 252.153 77.815 253.064 77.815C253.99 77.815 254.677 77.8558 255.126 77.9374V78.6721H254.493C254.235 78.6721 253.996 78.6994 253.779 78.7538C253.711 79.0259 253.677 79.298 253.677 79.5701V82.1007H258.35V79.5701C258.35 79.2028 258.316 78.9306 258.248 78.7538C258.098 78.6994 257.86 78.6721 257.534 78.6721H256.922V77.9374C257.547 77.8558 258.323 77.815 259.248 77.815C260.187 77.815 260.867 77.8558 261.289 77.9374V78.6721H260.656C260.398 78.6721 260.16 78.6994 259.942 78.7538C259.874 79.0259 259.84 79.298 259.84 79.5701V85.8762C259.84 86.1619 259.874 86.4408 259.942 86.713C260.16 86.7674 260.391 86.7946 260.636 86.7946H261.248V87.7538Z" fill="black"/>
<path d="M137.964 77.4L137.85 80.7714H136.65C136.65 79.7048 136.545 78.9238 136.336 78.4286H132.821V88.5143C132.821 88.9905 132.86 89.381 132.936 89.6857C133.24 89.7619 133.583 89.8 133.964 89.8H134.821V91.1429C134.212 91.0476 133.221 91 131.85 91C130.479 91 129.44 91.0476 128.736 91.1429V89.8H129.593C129.974 89.8 130.298 89.7619 130.564 89.6857C130.66 89.4381 130.707 89.1048 130.707 88.6857V78.4286H127.193C126.983 78.8095 126.879 79.5905 126.879 80.7714H125.564L125.45 77.4C125.679 77.2857 126.431 77.2286 127.707 77.2286L129.736 77.2857H130.65L131.879 77.3143L133.279 77.2857C133.545 77.2857 133.812 77.2857 134.079 77.2857L135.679 77.2286C136.974 77.2286 137.736 77.2857 137.964 77.4ZM146.183 78.9714L143.783 85.9714H148.64L146.269 78.9714H146.183ZM143.783 91.1429C143.326 91.0476 142.564 91 141.497 91C140.431 91 139.602 91.0476 139.012 91.1429L139.297 89.8H139.726C140.069 89.8 140.374 89.7619 140.64 89.6857C140.907 89.3238 141.088 89 141.183 88.7143C141.297 88.4095 141.431 88.0381 141.583 87.6C141.755 87.1619 141.955 86.6571 142.183 86.0857C142.412 85.5143 142.65 84.8952 142.897 84.2286C143.164 83.5619 143.431 82.9048 143.697 82.2571L145.697 77.2286H146.583C147.04 77.2286 147.421 77.2857 147.726 77.4L151.955 88.5143C152.183 89.0667 152.374 89.4571 152.526 89.6857C152.831 89.7619 153.136 89.8 153.44 89.8H153.869L154.155 91.1429C153.621 91.0476 153.04 91 152.412 91H151.069C150.25 91 149.555 91.0476 148.983 91.1429L148.783 89.8H148.955C149.297 89.8 149.621 89.7619 149.926 89.6857C149.926 89.4 149.831 89.0286 149.64 88.5714L148.983 86.9714H143.469L142.955 88.5143C142.802 88.9714 142.726 89.3333 142.726 89.6C142.726 89.7333 142.964 89.8 143.44 89.8H143.869L143.783 91.1429ZM161.576 84.0286C163.823 84.0286 164.947 83.0857 164.947 81.2C164.947 80.1714 164.671 79.4571 164.119 79.0571C163.566 78.6381 162.642 78.4286 161.347 78.4286H159.861V84.0286C160.433 84.0286 161.004 84.0286 161.576 84.0286ZM161.833 91.1429C161.204 91.0476 160.214 91 158.861 91C157.509 91 156.48 91.0476 155.776 91.1429V89.8H156.633C157.014 89.8 157.338 89.7619 157.604 89.6857C157.719 89.4381 157.776 89.0667 157.776 88.5714L157.747 79.5714C157.747 79.1143 157.699 78.7619 157.604 78.5143C157.414 78.4571 157.119 78.4286 156.719 78.4286H155.576V77.4C155.785 77.381 156.033 77.3524 156.319 77.3143C156.604 77.2762 156.909 77.2571 157.233 77.2571C157.576 77.2381 157.919 77.219 158.261 77.2C158.623 77.181 159.042 77.1714 159.519 77.1714H161.404C163.252 77.1714 164.661 77.4762 165.633 78.0857C166.604 78.6762 167.09 79.6857 167.09 81.1143C167.09 82.9429 166.176 84.181 164.347 84.8286C164.633 86.4476 165.433 87.8571 166.747 89.0571C167.28 89.5524 167.738 89.8 168.119 89.8H168.633V91.1429H167.204C166.157 91.1429 165.252 90.7714 164.49 90.0286C163.957 89.4762 163.499 88.6571 163.119 87.5714C162.947 87.1143 162.814 86.6857 162.719 86.2857C162.642 85.8667 162.566 85.4952 162.49 85.1714C162.052 85.1714 161.614 85.1714 161.176 85.1714C160.738 85.1714 160.299 85.1619 159.861 85.1429V88.5143C159.861 89.0476 159.909 89.4381 160.004 89.6857C160.309 89.7619 160.633 89.8 160.976 89.8H161.833V91.1429ZM176.143 91.1429C175.533 91.0476 174.543 91 173.171 91C171.819 91 170.79 91.0476 170.085 91.1429V89.8H170.914C171.276 89.8 171.609 89.7619 171.914 89.6857C172.028 89.4 172.076 89.0286 172.057 88.5714V79.6286C172.057 79.1524 172.009 78.7905 171.914 78.5429C171.705 78.4667 171.371 78.4286 170.914 78.4286H170.057V77.4C170.933 77.2857 172.019 77.2286 173.314 77.2286C174.628 77.2286 175.571 77.2857 176.143 77.4V78.4286H175.285C174.885 78.4286 174.552 78.4667 174.285 78.5429C174.19 78.9238 174.143 79.2857 174.143 79.6286V88.5143C174.143 88.9143 174.19 89.3048 174.285 89.6857C174.59 89.7619 174.924 89.8 175.285 89.8H176.143V91.1429ZM178.304 77.4C179.18 77.2857 180.266 77.2286 181.561 77.2286C182.875 77.2286 183.818 77.2857 184.39 77.4V78.4286H183.532C183.132 78.4286 182.799 78.4667 182.532 78.5429C182.437 78.9238 182.39 79.3048 182.39 79.6857V88.5714C182.39 89.0476 182.437 89.419 182.532 89.6857C182.837 89.7619 183.17 89.8 183.532 89.8H184.39V91.1429C183.532 91.0476 182.513 91 181.332 91C179.98 91 178.98 91.0476 178.332 91.1429V89.8H179.19C179.57 89.8 179.894 89.7619 180.161 89.6857C180.256 89.4381 180.304 89.1048 180.304 88.6857V79.6857C180.304 79.1714 180.256 78.7905 180.161 78.5429C179.951 78.4667 179.618 78.4286 179.161 78.4286H178.304V77.4ZM186.132 77.4C187.085 77.2857 188.123 77.2286 189.247 77.2286C190.39 77.2286 191.18 77.2857 191.618 77.4L191.561 78.4286H190.79C190.504 78.4286 190.209 78.4667 189.904 78.5429C189.39 78.9619 188.628 79.7238 187.618 80.8286C186.628 81.9333 185.97 82.6571 185.647 83C185.323 83.3429 185.066 83.619 184.875 83.8286L188.647 88.5714C188.932 88.9333 189.285 89.3048 189.704 89.6857C190.009 89.7619 190.323 89.8 190.647 89.8H191.39L191.532 91.1429C190.77 91.0476 189.751 91 188.475 91C187.218 91 186.266 91.0476 185.618 91.1429V89.8H185.79C186.228 89.8 186.542 89.7619 186.732 89.6857C186.656 89.4762 186.418 89.1048 186.018 88.5714L183.047 84.6C182.99 84.5429 182.942 84.4857 182.904 84.4286C182.866 84.3524 182.79 84.2286 182.675 84.0571C182.77 83.9238 182.932 83.7238 183.161 83.4571C183.409 83.1905 183.628 82.9429 183.818 82.7143C184.028 82.4667 184.399 82.0571 184.932 81.4857C185.466 80.8952 185.961 80.3524 186.418 79.8571C187.047 79.2286 187.361 78.8476 187.361 78.7143V78.5429C187.209 78.4667 186.942 78.4286 186.561 78.4286H186.018L186.132 77.4ZM206.362 91.1429L201.791 91C200.439 91 199.439 91.0476 198.791 91.1429V89.8H199.62C199.981 89.8 200.315 89.7619 200.62 89.6857C200.734 89.4 200.781 89.0286 200.762 88.5714V79.6857C200.762 79.1714 200.715 78.7905 200.62 78.5429C200.41 78.4667 200.077 78.4286 199.62 78.4286H198.762V77.4C199.639 77.2857 200.724 77.2286 202.02 77.2286C203.334 77.2286 204.286 77.2857 204.877 77.4V78.4286H203.991C203.629 78.4286 203.296 78.4667 202.991 78.5429C202.896 78.9238 202.848 79.3048 202.848 79.6857V89.8H206.505C207.248 89.8 207.762 89.7238 208.048 89.5714C208.524 89.3238 208.877 88.7619 209.105 87.8857L209.934 87.9714L209.591 91C208.2 91.0952 207.124 91.1429 206.362 91.1429ZM214.834 84.2C214.834 88.181 216.196 90.1714 218.92 90.1714C221.644 90.1714 223.006 88.1714 223.006 84.1714C223.006 82.1905 222.653 80.6952 221.949 79.6857C221.225 78.6952 220.215 78.2 218.92 78.2C216.958 78.2 215.692 79.3238 215.12 81.5714C214.93 82.3143 214.834 83.1905 214.834 84.2ZM223.577 78.9429C224.739 80.2 225.32 81.9429 225.32 84.1714C225.32 86.381 224.749 88.1333 223.606 89.4286C222.463 90.7238 220.901 91.3714 218.92 91.3714C216.958 91.3714 215.396 90.7238 214.234 89.4286C213.092 88.1333 212.52 86.381 212.52 84.1714C212.52 81.9429 213.092 80.2 214.234 78.9429C215.396 77.6667 216.958 77.0286 218.92 77.0286C220.882 77.0286 222.434 77.6667 223.577 78.9429ZM236.547 77.3714C237.252 77.2762 238.224 77.2286 239.462 77.2286C240.719 77.2286 241.633 77.2857 242.204 77.4V78.4286H241.319C240.919 78.4286 240.585 78.4667 240.319 78.5429C240.224 78.7905 240.176 79.1714 240.176 79.6857V86.0571C240.176 87.7333 239.671 89.0381 238.662 89.9714C237.671 90.9048 236.357 91.3714 234.719 91.3714C231.176 91.3714 229.404 89.381 229.404 85.4V79.6857C229.404 79.1714 229.357 78.7905 229.262 78.5429C229.052 78.4667 228.728 78.4286 228.29 78.4286H227.404V77.3714C228.128 77.2762 229.185 77.2286 230.576 77.2286C231.966 77.2286 232.947 77.2857 233.519 77.4V78.4286H232.633C232.271 78.4286 231.938 78.4667 231.633 78.5429C231.538 78.8095 231.5 79.1905 231.519 79.6857V86.2C231.519 88.1619 232.204 89.4 233.576 89.9143C233.995 90.0857 234.471 90.1714 235.004 90.1714C236.224 90.1714 237.119 89.7905 237.69 89.0286C238.262 88.2667 238.547 87.0857 238.547 85.4857V79.6857C238.547 79.1714 238.5 78.7905 238.404 78.5429C238.195 78.4667 237.862 78.4286 237.404 78.4286H236.547V77.3714ZM250.33 78.9714L247.93 85.9714H252.787L250.416 78.9714H250.33ZM247.93 91.1429C247.473 91.0476 246.711 91 245.644 91C244.578 91 243.749 91.0476 243.159 91.1429L243.444 89.8H243.873C244.216 89.8 244.521 89.7619 244.787 89.6857C245.054 89.3238 245.235 89 245.33 88.7143C245.444 88.4095 245.578 88.0381 245.73 87.6C245.901 87.1619 246.101 86.6571 246.33 86.0857C246.559 85.5143 246.797 84.8952 247.044 84.2286C247.311 83.5619 247.578 82.9048 247.844 82.2571L249.844 77.2286H250.73C251.187 77.2286 251.568 77.2857 251.873 77.4L256.101 88.5143C256.33 89.0667 256.521 89.4571 256.673 89.6857C256.978 89.7619 257.282 89.8 257.587 89.8H258.016L258.301 91.1429C257.768 91.0476 257.187 91 256.559 91H255.216C254.397 91 253.701 91.0476 253.13 91.1429L252.93 89.8H253.101C253.444 89.8 253.768 89.7619 254.073 89.6857C254.073 89.4 253.978 89.0286 253.787 88.5714L253.13 86.9714H247.616L247.101 88.5143C246.949 88.9714 246.873 89.3333 246.873 89.6C246.873 89.7333 247.111 89.8 247.587 89.8H248.016L247.93 91.1429ZM271.894 77.4L271.78 80.7714H270.58C270.58 79.7048 270.475 78.9238 270.265 78.4286H266.751V88.5143C266.751 88.9905 266.789 89.381 266.865 89.6857C267.17 89.7619 267.513 89.8 267.894 89.8H268.751V91.1429C268.142 91.0476 267.151 91 265.78 91C264.408 91 263.37 91.0476 262.665 91.1429V89.8H263.523C263.903 89.8 264.227 89.7619 264.494 89.6857C264.589 89.4381 264.637 89.1048 264.637 88.6857V78.4286H261.123C260.913 78.8095 260.808 79.5905 260.808 80.7714H259.494L259.38 77.4C259.608 77.2857 260.361 77.2286 261.637 77.2286L263.665 77.2857H264.58L265.808 77.3143L267.208 77.2857C267.475 77.2857 267.742 77.2857 268.008 77.2857L269.608 77.2286C270.903 77.2286 271.665 77.2857 271.894 77.4ZM280.113 78.9714L277.713 85.9714H282.57L280.199 78.9714H280.113ZM277.713 91.1429C277.256 91.0476 276.494 91 275.427 91C274.36 91 273.532 91.0476 272.941 91.1429L273.227 89.8H273.656C273.999 89.8 274.303 89.7619 274.57 89.6857C274.837 89.3238 275.018 89 275.113 88.7143C275.227 88.4095 275.36 88.0381 275.513 87.6C275.684 87.1619 275.884 86.6571 276.113 86.0857C276.341 85.5143 276.58 84.8952 276.827 84.2286C277.094 83.5619 277.36 82.9048 277.627 82.2571L279.627 77.2286H280.513C280.97 77.2286 281.351 77.2857 281.656 77.4L285.884 88.5143C286.113 89.0667 286.303 89.4571 286.456 89.6857C286.76 89.7619 287.065 89.8 287.37 89.8H287.799L288.084 91.1429C287.551 91.0476 286.97 91 286.341 91H284.999C284.18 91 283.484 91.0476 282.913 91.1429L282.713 89.8H282.884C283.227 89.8 283.551 89.7619 283.856 89.6857C283.856 89.4 283.76 89.0286 283.57 88.5714L282.913 86.9714H277.399L276.884 88.5143C276.732 88.9714 276.656 89.3333 276.656 89.6C276.656 89.7333 276.894 89.8 277.37 89.8H277.799L277.713 91.1429ZM304.191 91.1429C303.543 91.0476 302.553 91 301.22 91C299.886 91 298.858 91.0476 298.134 91.1429V89.8H298.991C299.391 89.8 299.724 89.7619 299.991 89.6857C300.105 89.4381 300.153 89.0667 300.134 88.5714V84.5429H293.591V88.5143C293.591 88.9143 293.639 89.3048 293.734 89.6857C294.039 89.7619 294.372 89.8 294.734 89.8H295.591V91.1429C294.943 91.0476 293.943 91 292.591 91C291.239 91 290.22 91.0476 289.534 91.1429V89.8H290.391C290.772 89.8 291.096 89.7619 291.362 89.6857C291.477 89.4 291.534 89.0286 291.534 88.5714V79.6857C291.534 79.2286 291.477 78.8476 291.362 78.5429C291.153 78.4667 290.82 78.4286 290.362 78.4286H289.505V77.4C290.382 77.2857 291.458 77.2286 292.734 77.2286C294.029 77.2286 294.991 77.2857 295.62 77.4V78.4286H294.734C294.372 78.4286 294.039 78.4667 293.734 78.5429C293.639 78.9238 293.591 79.3048 293.591 79.6857V83.2286H300.134V79.6857C300.134 79.1714 300.086 78.7905 299.991 78.5429C299.782 78.4667 299.448 78.4286 298.991 78.4286H298.134V77.4C299.01 77.2857 300.096 77.2286 301.391 77.2286C302.705 77.2286 303.658 77.2857 304.248 77.4V78.4286H303.362C303.001 78.4286 302.667 78.4667 302.362 78.5429C302.267 78.9238 302.22 79.3048 302.22 79.6857V88.5143C302.22 88.9143 302.267 89.3048 302.362 89.6857C302.667 89.7619 302.991 89.8 303.334 89.8H304.191V91.1429Z" fill="white"/>
</svg>
